solid OpenSCAD_Model
  facet normal -1 0 0
    outer loop
      vertex -0.7 0 0
      vertex -0.7 0 17.5
      vertex -0.7 114.7 0
    endloop
  endfacet
  facet normal -1 0 0
    outer loop
      vertex -0.7 114.7 0
      vertex -0.7 0 17.5
      vertex -0.7 114.7 17.5
    endloop
  endfacet
  facet normal 0 -1 0
    outer loop
      vertex 0 0 0.7
      vertex -0.7 0 0
      vertex 108.7 0 0
    endloop
  endfacet
  facet normal 0 -1 0
    outer loop
      vertex 0 0 0.7
      vertex 0 0 17.5
      vertex -0.7 0 17.5
    endloop
  endfacet
  facet normal 0 -1 0
    outer loop
      vertex 108.7 0 17.5
      vertex 108 0 17.5
      vertex 108.7 0 0
    endloop
  endfacet
  facet normal 0 -1 0
    outer loop
      vertex 108 0 17.5
      vertex 108 0 0.7
      vertex 108.7 0 0
    endloop
  endfacet
  facet normal 0 -1 0
    outer loop
      vertex -0.7 0 17.5
      vertex -0.7 0 0
      vertex 0 0 0.7
    endloop
  endfacet
  facet normal 0 -1 0
    outer loop
      vertex 108 0 0.7
      vertex 0 0 0.7
      vertex 108.7 0 0
    endloop
  endfacet
  facet normal 0 0 -1
    outer loop
      vertex -0.7 0 0
      vertex -0.7 114.7 0
      vertex 108.7 0 0
    endloop
  endfacet
  facet normal 0 0 -1
    outer loop
      vertex 108.7 0 0
      vertex -0.7 114.7 0
      vertex 0 114.7 0
    endloop
  endfacet
  facet normal 0 0 -1
    outer loop
      vertex 108.7 0 0
      vertex 0 114.7 0
      vertex 108 114.7 0
    endloop
  endfacet
  facet normal 0 0 -1
    outer loop
      vertex 108.7 114.7 0
      vertex 108.7 0 0
      vertex 108 114.7 0
    endloop
  endfacet
  facet normal 0 1 0
    outer loop
      vertex -0.7 114.7 0
      vertex -0.7 114.7 17.5
      vertex 0 114.7 0
    endloop
  endfacet
  facet normal 0 1 0
    outer loop
      vertex 0 114.7 0
      vertex -0.7 114.7 17.5
      vertex 0 114.7 17.5
    endloop
  endfacet
  facet normal 0 0 1
    outer loop
      vertex -0.7 114.7 17.5
      vertex -0.7 0 17.5
      vertex 0 0 17.5
    endloop
  endfacet
  facet normal 0 0 1
    outer loop
      vertex 0 114 17.5
      vertex -0.7 114.7 17.5
      vertex 0 4 17.5
    endloop
  endfacet
  facet normal 0 0 1
    outer loop
      vertex 0 4 17.5
      vertex -0.7 114.7 17.5
      vertex 0 0 17.5
    endloop
  endfacet
  facet normal 0 0 1
    outer loop
      vertex 53.65 114 17.5
      vertex -0.7 114.7 17.5
      vertex 0 114 17.5
    endloop
  endfacet
  facet normal 0 0 1
    outer loop
      vertex 54.35 114 17.5
      vertex -0.7 114.7 17.5
      vertex 53.65 114 17.5
    endloop
  endfacet
  facet normal 0 0 1
    outer loop
      vertex 54.35 8 17.5
      vertex 53.65 114 17.5
      vertex 53.65 8 17.5
    endloop
  endfacet
  facet normal 0 0 1
    outer loop
      vertex 54.35 114 17.5
      vertex 53.65 114 17.5
      vertex 54.35 8 17.5
    endloop
  endfacet
  facet normal 0 0 1
    outer loop
      vertex 108 114 17.5
      vertex -0.7 114.7 17.5
      vertex 54.35 114 17.5
    endloop
  endfacet
  facet normal 0 0 1
    outer loop
      vertex 108 114.7 17.5
      vertex 0 114.7 17.5
      vertex 108 114 17.5
    endloop
  endfacet
  facet normal 0 0 1
    outer loop
      vertex 108.7 0 17.5
      vertex 108 114 17.5
      vertex 108 4 17.5
    endloop
  endfacet
  facet normal 0 0 1
    outer loop
      vertex 108.7 0 17.5
      vertex 108 4 17.5
      vertex 108 0 17.5
    endloop
  endfacet
  facet normal 0 0 1
    outer loop
      vertex 108.7 114.7 17.5
      vertex 108 114 17.5
      vertex 108.7 0 17.5
    endloop
  endfacet
  facet normal 0 0 1
    outer loop
      vertex 0 114.7 17.5
      vertex -0.7 114.7 17.5
      vertex 108 114 17.5
    endloop
  endfacet
  facet normal 0 0 1
    outer loop
      vertex 108.7 114.7 17.5
      vertex 108 114.7 17.5
      vertex 108 114 17.5
    endloop
  endfacet
  facet normal 0 -2.22045e-016 1
    outer loop
      vertex 0 4 17.5
      vertex 0 0 17.5
      vertex 4 0 17.5
    endloop
  endfacet
  facet normal 0 -2.22045e-016 1
    outer loop
      vertex 4 4 17.5
      vertex 0 4 17.5
      vertex 4 0 17.5
    endloop
  endfacet
  facet normal 0 -1 -2.22045e-016
    outer loop
      vertex 4 0 17.5
      vertex 0 0 17.5
      vertex 0 3.73035e-015 0.7
    endloop
  endfacet
  facet normal 0 -1 -2.22045e-016
    outer loop
      vertex 4 6.66134e-016 14.5
      vertex 4 0 17.5
      vertex 0 3.73035e-015 0.7
    endloop
  endfacet
  facet normal 0 -1 -2.22045e-016
    outer loop
      vertex 108 0 17.5
      vertex 101 0 17.5
      vertex 108 3.73035e-015 0.7
    endloop
  endfacet
  facet normal 0 -1 -2.22045e-016
    outer loop
      vertex 101 0 17.5
      vertex 101 6.66134e-016 14.5
      vertex 108 3.73035e-015 0.7
    endloop
  endfacet
  facet normal 0 -1 -2.22045e-016
    outer loop
      vertex 47 0 17.5
      vertex 47 6.66134e-016 14.5
      vertex 91 6.66134e-016 14.5
    endloop
  endfacet
  facet normal 0 -1 -2.22045e-016
    outer loop
      vertex 101 6.66134e-016 14.5
      vertex 91 6.66134e-016 14.5
      vertex 108 3.73035e-015 0.7
    endloop
  endfacet
  facet normal 0 -1 -2.22045e-016
    outer loop
      vertex 14 0 17.5
      vertex 108 3.73035e-015 0.7
      vertex 37 6.66134e-016 14.5
    endloop
  endfacet
  facet normal 0 -1 -2.22045e-016
    outer loop
      vertex 91 6.66134e-016 14.5
      vertex 47 6.66134e-016 14.5
      vertex 108 3.73035e-015 0.7
    endloop
  endfacet
  facet normal 0 -1 -2.22045e-016
    outer loop
      vertex 47 6.66134e-016 14.5
      vertex 37 6.66134e-016 14.5
      vertex 108 3.73035e-015 0.7
    endloop
  endfacet
  facet normal 0 -1 -2.22045e-016
    outer loop
      vertex 14 0 17.5
      vertex 14 6.66134e-016 14.5
      vertex 108 3.73035e-015 0.7
    endloop
  endfacet
  facet normal 0 -1 -2.22045e-016
    outer loop
      vertex 108 3.73035e-015 0.7
      vertex 14 6.66134e-016 14.5
      vertex 0 3.73035e-015 0.7
    endloop
  endfacet
  facet normal 0 -1 -2.22045e-016
    outer loop
      vertex 14 6.66134e-016 14.5
      vertex 4 6.66134e-016 14.5
      vertex 0 3.73035e-015 0.7
    endloop
  endfacet
  facet normal 0 -1 -2.22045e-016
    outer loop
      vertex 37 6.66134e-016 14.5
      vertex 37 0 17.5
      vertex 14 0 17.5
    endloop
  endfacet
  facet normal 0 -1 -2.22045e-016
    outer loop
      vertex 91 6.66134e-016 14.5
      vertex 91 0 17.5
      vertex 47 0 17.5
    endloop
  endfacet
  facet normal 1 0 0
    outer loop
      vertex 0 3.73035e-015 0.7
      vertex 0 0 17.5
      vertex 0 0 0.7
    endloop
  endfacet
  facet normal 0 0 1
    outer loop
      vertex 0 3.73035e-015 0.7
      vertex 0 0 0.7
      vertex 108 0 0.7
    endloop
  endfacet
  facet normal 0 0 1
    outer loop
      vertex 108 3.73035e-015 0.7
      vertex 0 3.73035e-015 0.7
      vertex 108 0 0.7
    endloop
  endfacet
  facet normal -1 0 0
    outer loop
      vertex 108 0 17.5
      vertex 108 3.73035e-015 0.7
      vertex 108 0 0.7
    endloop
  endfacet
  facet normal 0 -2.22045e-016 1
    outer loop
      vertex 101 4 17.5
      vertex 101 0 17.5
      vertex 108 0 17.5
    endloop
  endfacet
  facet normal 0 -2.22045e-016 1
    outer loop
      vertex 108 4 17.5
      vertex 101 4 17.5
      vertex 108 0 17.5
    endloop
  endfacet
  facet normal 1 0 0
    outer loop
      vertex 108.7 0 17.5
      vertex 108.7 0 0
      vertex 108.7 114.7 0
    endloop
  endfacet
  facet normal 1 0 0
    outer loop
      vertex 108.7 114.7 17.5
      vertex 108.7 0 17.5
      vertex 108.7 114.7 0
    endloop
  endfacet
  facet normal 0 1 0
    outer loop
      vertex 108 114.7 0
      vertex 108 114.7 17.5
      vertex 108.7 114.7 0
    endloop
  endfacet
  facet normal 0 1 0
    outer loop
      vertex 108.7 114.7 0
      vertex 108 114.7 17.5
      vertex 108.7 114.7 17.5
    endloop
  endfacet
  facet normal 0 1 0
    outer loop
      vertex 0 114.7 0
      vertex 0 114.7 17.5
      vertex 108 114.7 0
    endloop
  endfacet
  facet normal 0 1 0
    outer loop
      vertex 108 114.7 0
      vertex 0 114.7 17.5
      vertex 108 114.7 17.5
    endloop
  endfacet
  facet normal 0 1 2.22045e-016
    outer loop
      vertex 0 4 17.5
      vertex 4 4 17.5
      vertex 4 4 14.5
    endloop
  endfacet
  facet normal 0 1 2.22045e-016
    outer loop
      vertex 14 4 14.5
      vertex 14 4 17.5
      vertex 37 4 17.5
    endloop
  endfacet
  facet normal 0 1 2.22045e-016
    outer loop
      vertex 14 4 14.5
      vertex 37 4 17.5
      vertex 37 4 14.5
    endloop
  endfacet
  facet normal 0 1 2.22045e-016
    outer loop
      vertex 14 4 14.5
      vertex 108 4 2
      vertex 4 4 14.5
    endloop
  endfacet
  facet normal 0 1 2.22045e-016
    outer loop
      vertex 37 4 14.5
      vertex 108 4 2
      vertex 14 4 14.5
    endloop
  endfacet
  facet normal 0 1 2.22045e-016
    outer loop
      vertex 47 4 14.5
      vertex 47 4 17.5
      vertex 91 4 17.5
    endloop
  endfacet
  facet normal 0 1 2.22045e-016
    outer loop
      vertex 47 4 14.5
      vertex 91 4 17.5
      vertex 91 4 14.5
    endloop
  endfacet
  facet normal 0 1 2.22045e-016
    outer loop
      vertex 47 4 14.5
      vertex 108 4 2
      vertex 37 4 14.5
    endloop
  endfacet
  facet normal 0 1 2.22045e-016
    outer loop
      vertex 91 4 14.5
      vertex 108 4 2
      vertex 47 4 14.5
    endloop
  endfacet
  facet normal 0 1 2.22045e-016
    outer loop
      vertex 101 4 14.5
      vertex 101 4 17.5
      vertex 108 4 17.5
    endloop
  endfacet
  facet normal 0 1 2.22045e-016
    outer loop
      vertex 101 4 14.5
      vertex 108 4 17.5
      vertex 108 4 2
    endloop
  endfacet
  facet normal 0 1 2.22045e-016
    outer loop
      vertex 101 4 14.5
      vertex 108 4 2
      vertex 91 4 14.5
    endloop
  endfacet
  facet normal 0 1 2.22045e-016
    outer loop
      vertex 4 4 14.5
      vertex 108 4 2
      vertex 0 4 2
    endloop
  endfacet
  facet normal 0 1 2.22045e-016
    outer loop
      vertex 4 4 14.5
      vertex 0 4 2
      vertex 0 4 17.5
    endloop
  endfacet
  facet normal -1 0 0
    outer loop
      vertex 108 114 0.7
      vertex 108 8 0.7
      vertex 108 114 17.5
    endloop
  endfacet
  facet normal -1 0 0
    outer loop
      vertex 108 114 17.5
      vertex 108 8 0.7
      vertex 108 8 2
    endloop
  endfacet
  facet normal -1 0 0
    outer loop
      vertex 108 114 17.5
      vertex 108 8 2
      vertex 108 4 2
    endloop
  endfacet
  facet normal -1 0 0
    outer loop
      vertex 108 114 17.5
      vertex 108 4 2
      vertex 108 4 17.5
    endloop
  endfacet
  facet normal 0 -1 0
    outer loop
      vertex 54.35 114 17.5
      vertex 54.35 114 0.7
      vertex 108 114 0.7
    endloop
  endfacet
  facet normal 0 -1 0
    outer loop
      vertex 108 114 17.5
      vertex 54.35 114 17.5
      vertex 108 114 0.7
    endloop
  endfacet
  facet normal 1 0 0
    outer loop
      vertex 54.35 114 0.7
      vertex 54.35 8 17.5
      vertex 54.35 8 2
    endloop
  endfacet
  facet normal 1 0 0
    outer loop
      vertex 54.35 8 0.7
      vertex 54.35 114 0.7
      vertex 54.35 8 2
    endloop
  endfacet
  facet normal 1 0 0
    outer loop
      vertex 54.35 114 0.7
      vertex 54.35 114 17.5
      vertex 54.35 8 17.5
    endloop
  endfacet
  facet normal 0 -1 0
    outer loop
      vertex 53.65 8 17.5
      vertex 53.65 8 2
      vertex 54.35 8 2
    endloop
  endfacet
  facet normal 0 -1 0
    outer loop
      vertex 54.35 8 17.5
      vertex 53.65 8 17.5
      vertex 54.35 8 2
    endloop
  endfacet
  facet normal -1 0 0
    outer loop
      vertex 53.65 8 2
      vertex 53.65 8 17.5
      vertex 53.65 114 17.5
    endloop
  endfacet
  facet normal -1 0 0
    outer loop
      vertex 53.65 8 2
      vertex 53.65 114 17.5
      vertex 53.65 114 0.7
    endloop
  endfacet
  facet normal -1 0 0
    outer loop
      vertex 53.65 8 2
      vertex 53.65 114 0.7
      vertex 53.65 8 0.7
    endloop
  endfacet
  facet normal 0 -1 0
    outer loop
      vertex 0 114 17.5
      vertex 0 114 0.7
      vertex 53.65 114 0.7
    endloop
  endfacet
  facet normal 0 -1 0
    outer loop
      vertex 53.65 114 17.5
      vertex 0 114 17.5
      vertex 53.65 114 0.7
    endloop
  endfacet
  facet normal 1 0 0
    outer loop
      vertex 0 114 0.7
      vertex 0 8 2
      vertex 0 8 0.7
    endloop
  endfacet
  facet normal 1 0 0
    outer loop
      vertex 0 114 17.5
      vertex 0 8 2
      vertex 0 114 0.7
    endloop
  endfacet
  facet normal 1 0 0
    outer loop
      vertex 0 4 2
      vertex 0 8 2
      vertex 0 114 17.5
    endloop
  endfacet
  facet normal 1 0 0
    outer loop
      vertex 0 4 17.5
      vertex 0 4 2
      vertex 0 114 17.5
    endloop
  endfacet
  facet normal 1 0 0
    outer loop
      vertex 4 6.66134e-016 14.5
      vertex 4 4 14.5
      vertex 4 4 17.5
    endloop
  endfacet
  facet normal 1 0 0
    outer loop
      vertex 4 0 17.5
      vertex 4 6.66134e-016 14.5
      vertex 4 4 17.5
    endloop
  endfacet
  facet normal 0 -2.22045e-016 1
    outer loop
      vertex 14 6.66134e-016 14.5
      vertex 14 4 14.5
      vertex 4 4 14.5
    endloop
  endfacet
  facet normal 0 -2.22045e-016 1
    outer loop
      vertex 4 6.66134e-016 14.5
      vertex 14 6.66134e-016 14.5
      vertex 4 4 14.5
    endloop
  endfacet
  facet normal -1 0 0
    outer loop
      vertex 14 4 14.5
      vertex 14 6.66134e-016 14.5
      vertex 14 4 17.5
    endloop
  endfacet
  facet normal -1 0 0
    outer loop
      vertex 14 4 17.5
      vertex 14 6.66134e-016 14.5
      vertex 14 0 17.5
    endloop
  endfacet
  facet normal 0 -2.22045e-016 1
    outer loop
      vertex 14 4 17.5
      vertex 14 0 17.5
      vertex 37 0 17.5
    endloop
  endfacet
  facet normal 0 -2.22045e-016 1
    outer loop
      vertex 37 4 17.5
      vertex 14 4 17.5
      vertex 37 0 17.5
    endloop
  endfacet
  facet normal 1 0 0
    outer loop
      vertex 37 6.66134e-016 14.5
      vertex 37 4 14.5
      vertex 37 4 17.5
    endloop
  endfacet
  facet normal 1 0 0
    outer loop
      vertex 37 0 17.5
      vertex 37 6.66134e-016 14.5
      vertex 37 4 17.5
    endloop
  endfacet
  facet normal 0 -2.22045e-016 1
    outer loop
      vertex 47 6.66134e-016 14.5
      vertex 47 4 14.5
      vertex 37 4 14.5
    endloop
  endfacet
  facet normal 0 -2.22045e-016 1
    outer loop
      vertex 37 6.66134e-016 14.5
      vertex 47 6.66134e-016 14.5
      vertex 37 4 14.5
    endloop
  endfacet
  facet normal -1 0 0
    outer loop
      vertex 47 4 14.5
      vertex 47 6.66134e-016 14.5
      vertex 47 4 17.5
    endloop
  endfacet
  facet normal -1 0 0
    outer loop
      vertex 47 4 17.5
      vertex 47 6.66134e-016 14.5
      vertex 47 0 17.5
    endloop
  endfacet
  facet normal 0 -2.22045e-016 1
    outer loop
      vertex 47 4 17.5
      vertex 47 0 17.5
      vertex 91 0 17.5
    endloop
  endfacet
  facet normal 0 -2.22045e-016 1
    outer loop
      vertex 91 4 17.5
      vertex 47 4 17.5
      vertex 91 0 17.5
    endloop
  endfacet
  facet normal 1 0 0
    outer loop
      vertex 91 6.66134e-016 14.5
      vertex 91 4 14.5
      vertex 91 4 17.5
    endloop
  endfacet
  facet normal 1 0 0
    outer loop
      vertex 91 0 17.5
      vertex 91 6.66134e-016 14.5
      vertex 91 4 17.5
    endloop
  endfacet
  facet normal 0 -2.22045e-016 1
    outer loop
      vertex 101 6.66134e-016 14.5
      vertex 101 4 14.5
      vertex 91 4 14.5
    endloop
  endfacet
  facet normal 0 -2.22045e-016 1
    outer loop
      vertex 91 6.66134e-016 14.5
      vertex 101 6.66134e-016 14.5
      vertex 91 4 14.5
    endloop
  endfacet
  facet normal -1 0 0
    outer loop
      vertex 101 4 14.5
      vertex 101 6.66134e-016 14.5
      vertex 101 4 17.5
    endloop
  endfacet
  facet normal -1 0 0
    outer loop
      vertex 101 4 17.5
      vertex 101 6.66134e-016 14.5
      vertex 101 0 17.5
    endloop
  endfacet
  facet normal 0 -2.22045e-016 1
    outer loop
      vertex 0 8 2
      vertex 0 4 2
      vertex 108 4 2
    endloop
  endfacet
  facet normal 0 -2.22045e-016 1
    outer loop
      vertex 53.65 8 2
      vertex 0 8 2
      vertex 108 4 2
    endloop
  endfacet
  facet normal 0 -2.22045e-016 1
    outer loop
      vertex 108 8 2
      vertex 54.35 8 2
      vertex 108 4 2
    endloop
  endfacet
  facet normal 0 -2.22045e-016 1
    outer loop
      vertex 54.35 8 2
      vertex 53.65 8 2
      vertex 108 4 2
    endloop
  endfacet
  facet normal 0 1 2.22045e-016
    outer loop
      vertex 54.35 8 2
      vertex 108 8 2
      vertex 54.35 8 0.7
    endloop
  endfacet
  facet normal 0 1 2.22045e-016
    outer loop
      vertex 54.35 8 0.7
      vertex 108 8 2
      vertex 108 8 0.7
    endloop
  endfacet
  facet normal 0 0 1
    outer loop
      vertex 54.35 114 0.7
      vertex 54.35 8 0.7
      vertex 108 8 0.7
    endloop
  endfacet
  facet normal 0 0 1
    outer loop
      vertex 108 114 0.7
      vertex 54.35 114 0.7
      vertex 108 8 0.7
    endloop
  endfacet
  facet normal 0 1 2.22045e-016
    outer loop
      vertex 0 8 2
      vertex 53.65 8 2
      vertex 0 8 0.7
    endloop
  endfacet
  facet normal 0 1 2.22045e-016
    outer loop
      vertex 0 8 0.7
      vertex 53.65 8 2
      vertex 53.65 8 0.7
    endloop
  endfacet
  facet normal 0 0 1
    outer loop
      vertex 0 114 0.7
      vertex 0 8 0.7
      vertex 53.65 8 0.7
    endloop
  endfacet
  facet normal 0 0 1
    outer loop
      vertex 53.65 114 0.7
      vertex 0 114 0.7
      vertex 53.65 8 0.7
    endloop
  endfacet
endsolid OpenSCAD_Model
