solid OpenSCAD_Model
  facet normal -1 0 0
    outer loop
      vertex 0 0 0
      vertex 0 0 3.4
      vertex 0 16.9 0
    endloop
  endfacet
  facet normal -1 0 0
    outer loop
      vertex 0 16.9 0
      vertex 0 0 3.4
      vertex 0 15.5 3.4
    endloop
  endfacet
  facet normal -1 0 0
    outer loop
      vertex 0 16.9 0
      vertex 0 15.5 3.4
      vertex 0 15.5 6.8
    endloop
  endfacet
  facet normal -1 0 0
    outer loop
      vertex 0 16.9 3.4
      vertex 0 15.5 6.8
      vertex 0 16.9 6.8
    endloop
  endfacet
  facet normal -1 0 0
    outer loop
      vertex 0 16.9 0
      vertex 0 15.5 6.8
      vertex 0 16.9 3.4
    endloop
  endfacet
  facet normal 0 -1 0
    outer loop
      vertex 0 0 3.4
      vertex 0 0 0
      vertex 4 0 0
    endloop
  endfacet
  facet normal 0 -1 0
    outer loop
      vertex 4 0 3.4
      vertex 0 0 3.4
      vertex 4 0 0
    endloop
  endfacet
  facet normal 0 0 -1
    outer loop
      vertex 0 0 0
      vertex 0 16.9 0
      vertex 4 0 0
    endloop
  endfacet
  facet normal 0 0 -1
    outer loop
      vertex 14 2.7 0
      vertex 0 16.9 0
      vertex 108.4 16.9 0
    endloop
  endfacet
  facet normal 0 0 -1
    outer loop
      vertex 101 0 0
      vertex 108.4 16.9 0
      vertex 108.4 0 0
    endloop
  endfacet
  facet normal 0 0 -1
    outer loop
      vertex 101 2.7 0
      vertex 108.4 16.9 0
      vertex 101 0 0
    endloop
  endfacet
  facet normal 0 0 -1
    outer loop
      vertex 91 2.7 0
      vertex 108.4 16.9 0
      vertex 101 2.7 0
    endloop
  endfacet
  facet normal 0 0 -1
    outer loop
      vertex 47 2.7 0
      vertex 108.4 16.9 0
      vertex 91 2.7 0
    endloop
  endfacet
  facet normal 0 0 -1
    outer loop
      vertex 47 2.7 0
      vertex 91 2.7 0
      vertex 47 0 0
    endloop
  endfacet
  facet normal 0 0 -1
    outer loop
      vertex 14 2.7 0
      vertex 37 2.7 0
      vertex 14 0 0
    endloop
  endfacet
  facet normal 0 0 -1
    outer loop
      vertex 37 2.7 0
      vertex 108.4 16.9 0
      vertex 47 2.7 0
    endloop
  endfacet
  facet normal 0 0 -1
    outer loop
      vertex 14 2.7 0
      vertex 108.4 16.9 0
      vertex 37 2.7 0
    endloop
  endfacet
  facet normal 0 0 -1
    outer loop
      vertex 4 2.7 0
      vertex 0 16.9 0
      vertex 14 2.7 0
    endloop
  endfacet
  facet normal 0 0 -1
    outer loop
      vertex 4 0 0
      vertex 0 16.9 0
      vertex 4 2.7 0
    endloop
  endfacet
  facet normal 0 0 -1
    outer loop
      vertex 37 0 0
      vertex 14 0 0
      vertex 37 2.7 0
    endloop
  endfacet
  facet normal 0 0 -1
    outer loop
      vertex 91 0 0
      vertex 47 0 0
      vertex 91 2.7 0
    endloop
  endfacet
  facet normal 0 1 0
    outer loop
      vertex 0 16.9 0
      vertex 0 16.9 3.4
      vertex 108.4 16.9 0
    endloop
  endfacet
  facet normal 0 1 0
    outer loop
      vertex 108.4 16.9 0
      vertex 0 16.9 3.4
      vertex 108.4 16.9 3.4
    endloop
  endfacet
  facet normal 0 1 0
    outer loop
      vertex 0 16.9 3.4
      vertex 0 16.9 6.8
      vertex 108.4 16.9 3.4
    endloop
  endfacet
  facet normal 0 1 0
    outer loop
      vertex 108.4 16.9 3.4
      vertex 0 16.9 6.8
      vertex 108.4 16.9 6.8
    endloop
  endfacet
  facet normal 0 0 1
    outer loop
      vertex 0 16.9 6.8
      vertex 0 15.5 6.8
      vertex 108.4 15.5 6.8
    endloop
  endfacet
  facet normal 0 0 1
    outer loop
      vertex 108.4 16.9 6.8
      vertex 0 16.9 6.8
      vertex 108.4 15.5 6.8
    endloop
  endfacet
  facet normal 0 -1 0
    outer loop
      vertex 0 15.5 6.8
      vertex 0 15.5 3.4
      vertex 108.4 15.5 3.4
    endloop
  endfacet
  facet normal 0 -1 0
    outer loop
      vertex 108.4 15.5 6.8
      vertex 0 15.5 6.8
      vertex 108.4 15.5 3.4
    endloop
  endfacet
  facet normal 0 0 1
    outer loop
      vertex 0 15.5 3.4
      vertex 0 0 3.4
      vertex 4 0 3.4
    endloop
  endfacet
  facet normal 0 0 1
    outer loop
      vertex 14 2.7 3.4
      vertex 0 15.5 3.4
      vertex 4 2.7 3.4
    endloop
  endfacet
  facet normal 0 0 1
    outer loop
      vertex 4 2.7 3.4
      vertex 0 15.5 3.4
      vertex 4 0 3.4
    endloop
  endfacet
  facet normal 0 0 1
    outer loop
      vertex 37 0 3.4
      vertex 0 15.5 3.4
      vertex 14 2.7 3.4
    endloop
  endfacet
  facet normal 0 0 1
    outer loop
      vertex 37 0 3.4
      vertex 14 2.7 3.4
      vertex 14 0 3.4
    endloop
  endfacet
  facet normal 0 0 1
    outer loop
      vertex 37 2.7 3.4
      vertex 0 15.5 3.4
      vertex 37 0 3.4
    endloop
  endfacet
  facet normal 0 0 1
    outer loop
      vertex 47 2.7 3.4
      vertex 0 15.5 3.4
      vertex 37 2.7 3.4
    endloop
  endfacet
  facet normal 0 0 1
    outer loop
      vertex 91 0 3.4
      vertex 0 15.5 3.4
      vertex 47 2.7 3.4
    endloop
  endfacet
  facet normal 0 0 1
    outer loop
      vertex 91 0 3.4
      vertex 47 2.7 3.4
      vertex 47 0 3.4
    endloop
  endfacet
  facet normal 0 0 1
    outer loop
      vertex 91 2.7 3.4
      vertex 0 15.5 3.4
      vertex 91 0 3.4
    endloop
  endfacet
  facet normal 0 0 1
    outer loop
      vertex 101 2.7 3.4
      vertex 0 15.5 3.4
      vertex 91 2.7 3.4
    endloop
  endfacet
  facet normal 0 0 1
    outer loop
      vertex 108.4 15.5 3.4
      vertex 0 15.5 3.4
      vertex 101 2.7 3.4
    endloop
  endfacet
  facet normal 0 0 1
    outer loop
      vertex 108.4 0 3.4
      vertex 101 2.7 3.4
      vertex 101 0 3.4
    endloop
  endfacet
  facet normal 0 0 1
    outer loop
      vertex 108.4 15.5 3.4
      vertex 101 2.7 3.4
      vertex 108.4 0 3.4
    endloop
  endfacet
  facet normal 1 0 0
    outer loop
      vertex 4 2.7 0
      vertex 4 2.7 3.4
      vertex 4 0 3.4
    endloop
  endfacet
  facet normal 1 0 0
    outer loop
      vertex 4 0 0
      vertex 4 2.7 0
      vertex 4 0 3.4
    endloop
  endfacet
  facet normal 0 -1 0
    outer loop
      vertex 14 2.7 0
      vertex 14 2.7 3.4
      vertex 4 2.7 3.4
    endloop
  endfacet
  facet normal 0 -1 0
    outer loop
      vertex 4 2.7 0
      vertex 14 2.7 0
      vertex 4 2.7 3.4
    endloop
  endfacet
  facet normal -1 0 0
    outer loop
      vertex 14 2.7 3.4
      vertex 14 2.7 0
      vertex 14 0 3.4
    endloop
  endfacet
  facet normal -1 0 0
    outer loop
      vertex 14 0 3.4
      vertex 14 2.7 0
      vertex 14 0 0
    endloop
  endfacet
  facet normal 0 -1 0
    outer loop
      vertex 14 0 3.4
      vertex 14 0 0
      vertex 37 0 0
    endloop
  endfacet
  facet normal 0 -1 0
    outer loop
      vertex 37 0 3.4
      vertex 14 0 3.4
      vertex 37 0 0
    endloop
  endfacet
  facet normal 1 0 0
    outer loop
      vertex 37 2.7 0
      vertex 37 2.7 3.4
      vertex 37 0 3.4
    endloop
  endfacet
  facet normal 1 0 0
    outer loop
      vertex 37 0 0
      vertex 37 2.7 0
      vertex 37 0 3.4
    endloop
  endfacet
  facet normal 0 -1 0
    outer loop
      vertex 47 2.7 0
      vertex 47 2.7 3.4
      vertex 37 2.7 3.4
    endloop
  endfacet
  facet normal 0 -1 0
    outer loop
      vertex 37 2.7 0
      vertex 47 2.7 0
      vertex 37 2.7 3.4
    endloop
  endfacet
  facet normal -1 0 0
    outer loop
      vertex 47 2.7 3.4
      vertex 47 2.7 0
      vertex 47 0 3.4
    endloop
  endfacet
  facet normal -1 0 0
    outer loop
      vertex 47 0 3.4
      vertex 47 2.7 0
      vertex 47 0 0
    endloop
  endfacet
  facet normal 0 -1 0
    outer loop
      vertex 47 0 3.4
      vertex 47 0 0
      vertex 91 0 0
    endloop
  endfacet
  facet normal 0 -1 0
    outer loop
      vertex 91 0 3.4
      vertex 47 0 3.4
      vertex 91 0 0
    endloop
  endfacet
  facet normal 1 0 0
    outer loop
      vertex 91 2.7 0
      vertex 91 2.7 3.4
      vertex 91 0 3.4
    endloop
  endfacet
  facet normal 1 0 0
    outer loop
      vertex 91 0 0
      vertex 91 2.7 0
      vertex 91 0 3.4
    endloop
  endfacet
  facet normal 0 -1 0
    outer loop
      vertex 101 2.7 0
      vertex 101 2.7 3.4
      vertex 91 2.7 3.4
    endloop
  endfacet
  facet normal 0 -1 0
    outer loop
      vertex 91 2.7 0
      vertex 101 2.7 0
      vertex 91 2.7 3.4
    endloop
  endfacet
  facet normal -1 0 0
    outer loop
      vertex 101 2.7 3.4
      vertex 101 2.7 0
      vertex 101 0 3.4
    endloop
  endfacet
  facet normal -1 0 0
    outer loop
      vertex 101 0 3.4
      vertex 101 2.7 0
      vertex 101 0 0
    endloop
  endfacet
  facet normal 0 -1 0
    outer loop
      vertex 101 0 3.4
      vertex 101 0 0
      vertex 108.4 0 0
    endloop
  endfacet
  facet normal 0 -1 0
    outer loop
      vertex 108.4 0 3.4
      vertex 101 0 3.4
      vertex 108.4 0 0
    endloop
  endfacet
  facet normal 1 0 0
    outer loop
      vertex 108.4 0 3.4
      vertex 108.4 0 0
      vertex 108.4 16.9 0
    endloop
  endfacet
  facet normal 1 0 0
    outer loop
      vertex 108.4 15.5 3.4
      vertex 108.4 0 3.4
      vertex 108.4 16.9 0
    endloop
  endfacet
  facet normal 1 0 0
    outer loop
      vertex 108.4 16.9 3.4
      vertex 108.4 15.5 3.4
      vertex 108.4 16.9 0
    endloop
  endfacet
  facet normal 1 0 0
    outer loop
      vertex 108.4 16.9 6.8
      vertex 108.4 15.5 3.4
      vertex 108.4 16.9 3.4
    endloop
  endfacet
  facet normal 1 0 0
    outer loop
      vertex 108.4 15.5 6.8
      vertex 108.4 15.5 3.4
      vertex 108.4 16.9 6.8
    endloop
  endfacet
endsolid OpenSCAD_Model
