solid OpenSCAD_Model
  facet normal -1 0 0
    outer loop
      vertex 0 0 0
      vertex 0 0 31.4
      vertex 0 18.9 0
    endloop
  endfacet
  facet normal -1 0 0
    outer loop
      vertex 0 18.9 0
      vertex 0 0 31.4
      vertex 0 18.9 31.4
    endloop
  endfacet
  facet normal 0 -1 0
    outer loop
      vertex 0 0 31.4
      vertex 0 0 0
      vertex 110.4 0 0
    endloop
  endfacet
  facet normal 0 -1 0
    outer loop
      vertex 110.4 0 31.4
      vertex 0 0 31.4
      vertex 110.4 0 0
    endloop
  endfacet
  facet normal 0 0 -1
    outer loop
      vertex 0 0 0
      vertex 0 18.9 0
      vertex 110.4 0 0
    endloop
  endfacet
  facet normal 0 0 -1
    outer loop
      vertex 110.4 0 0
      vertex 0 18.9 0
      vertex 110.4 18.9 0
    endloop
  endfacet
  facet normal 0 1 0
    outer loop
      vertex 0 18.9 0
      vertex 0 18.9 31.4
      vertex 110.4 18.9 0
    endloop
  endfacet
  facet normal 0 1 0
    outer loop
      vertex 110.4 18.9 0
      vertex 0 18.9 31.4
      vertex 110.4 18.9 31.4
    endloop
  endfacet
  facet normal 0 0 1
    outer loop
      vertex 0.7 0.7 31.4
      vertex 0 0 31.4
      vertex 110.4 0 31.4
    endloop
  endfacet
  facet normal 0 0 1
    outer loop
      vertex 0 18.9 31.4
      vertex 0 0 31.4
      vertex 0.7 0.7 31.4
    endloop
  endfacet
  facet normal 0 0 1
    outer loop
      vertex 0.7 18.2 31.4
      vertex 109.7 18.2 31.4
      vertex 0 18.9 31.4
    endloop
  endfacet
  facet normal 0 0 1
    outer loop
      vertex 0 18.9 31.4
      vertex 0.7 0.7 31.4
      vertex 0.7 18.2 31.4
    endloop
  endfacet
  facet normal 0 0 1
    outer loop
      vertex 110.4 18.9 31.4
      vertex 109.7 18.2 31.4
      vertex 110.4 0 31.4
    endloop
  endfacet
  facet normal 0 0 1
    outer loop
      vertex 110.4 18.9 31.4
      vertex 0 18.9 31.4
      vertex 109.7 18.2 31.4
    endloop
  endfacet
  facet normal 0 0 1
    outer loop
      vertex 109.7 18.2 31.4
      vertex 109.7 0.7 31.4
      vertex 110.4 0 31.4
    endloop
  endfacet
  facet normal 0 0 1
    outer loop
      vertex 109.7 0.7 31.4
      vertex 0.7 0.7 31.4
      vertex 110.4 0 31.4
    endloop
  endfacet
  facet normal 1 0 0
    outer loop
      vertex 110.4 0 31.4
      vertex 110.4 0 0
      vertex 110.4 18.9 0
    endloop
  endfacet
  facet normal 1 0 0
    outer loop
      vertex 110.4 18.9 31.4
      vertex 110.4 0 31.4
      vertex 110.4 18.9 0
    endloop
  endfacet
  facet normal 1 0 0
    outer loop
      vertex 0.7 18.2 0.7
      vertex 0.7 18.2 31.4
      vertex 0.7 0.7 31.4
    endloop
  endfacet
  facet normal 1 0 0
    outer loop
      vertex 0.7 0.7 0.7
      vertex 0.7 18.2 0.7
      vertex 0.7 0.7 31.4
    endloop
  endfacet
  facet normal 0 1 0
    outer loop
      vertex 109.7 0.7 31.4
      vertex 109.7 0.7 0.7
      vertex 0.7 0.7 31.4
    endloop
  endfacet
  facet normal 0 1 0
    outer loop
      vertex 0.7 0.7 31.4
      vertex 109.7 0.7 0.7
      vertex 0.7 0.7 0.7
    endloop
  endfacet
  facet normal -1 0 0
    outer loop
      vertex 109.7 18.2 31.4
      vertex 109.7 18.2 0.7
      vertex 109.7 0.7 31.4
    endloop
  endfacet
  facet normal -1 0 0
    outer loop
      vertex 109.7 0.7 31.4
      vertex 109.7 18.2 0.7
      vertex 109.7 0.7 0.7
    endloop
  endfacet
  facet normal 0 -1 0
    outer loop
      vertex 109.7 18.2 0.7
      vertex 109.7 18.2 31.4
      vertex 0.7 18.2 31.4
    endloop
  endfacet
  facet normal 0 -1 0
    outer loop
      vertex 0.7 18.2 0.7
      vertex 109.7 18.2 0.7
      vertex 0.7 18.2 31.4
    endloop
  endfacet
  facet normal 0 0 1
    outer loop
      vertex 109.7 0.7 0.7
      vertex 109.7 18.2 0.7
      vertex 0.7 18.2 0.7
    endloop
  endfacet
  facet normal 0 0 1
    outer loop
      vertex 0.7 0.7 0.7
      vertex 109.7 0.7 0.7
      vertex 0.7 18.2 0.7
    endloop
  endfacet
endsolid OpenSCAD_Model
