solid OpenSCAD_Model
  facet normal -1 0 0
    outer loop
      vertex -7.75 19.819 8.48972
      vertex -7.75 12 13
      vertex -7.75 25 13
    endloop
  endfacet
  facet normal -1 0 0
    outer loop
      vertex -7.75 12 0
      vertex -7.75 12 13
      vertex -7.75 17.3034 7.10674
    endloop
  endfacet
  facet normal -1 0 0
    outer loop
      vertex -7.75 17.3301 7.31855
      vertex -7.75 12 13
      vertex -7.75 17.3832 7.52533
    endloop
  endfacet
  facet normal -1 0 0
    outer loop
      vertex -7.75 12 0
      vertex -7.75 17.3034 7.10674
      vertex -7.75 17.3034 6.89326
    endloop
  endfacet
  facet normal -1 0 0
    outer loop
      vertex -7.75 12 0
      vertex -7.75 17.3034 6.89326
      vertex -7.75 17.3301 6.68145
    endloop
  endfacet
  facet normal -1 0 0
    outer loop
      vertex -7.75 12 0
      vertex -7.75 17.3301 6.68145
      vertex -7.75 17.3832 6.47467
    endloop
  endfacet
  facet normal -1 0 0
    outer loop
      vertex -7.75 12 0
      vertex -7.75 17.3832 6.47467
      vertex -7.75 17.4618 6.27618
    endloop
  endfacet
  facet normal -1 0 0
    outer loop
      vertex -7.75 12 0
      vertex -7.75 17.4618 6.27618
      vertex -7.75 17.5646 6.08909
    endloop
  endfacet
  facet normal -1 0 0
    outer loop
      vertex -7.75 12 0
      vertex -7.75 17.5646 6.08909
      vertex -7.75 17.6901 5.91638
    endloop
  endfacet
  facet normal -1 0 0
    outer loop
      vertex -7.75 12 0
      vertex -7.75 17.6901 5.91638
      vertex -7.75 17.8363 5.76075
    endloop
  endfacet
  facet normal -1 0 0
    outer loop
      vertex -7.75 12 0
      vertex -7.75 17.8363 5.76075
      vertex -7.75 18.0008 5.62467
    endloop
  endfacet
  facet normal -1 0 0
    outer loop
      vertex -7.75 12 0
      vertex -7.75 18.0008 5.62467
      vertex -7.75 25 0
    endloop
  endfacet
  facet normal -1 0 0
    outer loop
      vertex -7.75 18.3742 5.41938
      vertex -7.75 25 0
      vertex -7.75 18.181 5.51028
    endloop
  endfacet
  facet normal -1 0 0
    outer loop
      vertex -7.75 18.5772 5.35341
      vertex -7.75 25 0
      vertex -7.75 18.3742 5.41938
    endloop
  endfacet
  facet normal -1 0 0
    outer loop
      vertex -7.75 18.7869 5.31341
      vertex -7.75 25 0
      vertex -7.75 18.5772 5.35341
    endloop
  endfacet
  facet normal -1 0 0
    outer loop
      vertex -7.75 19 5.3
      vertex -7.75 25 0
      vertex -7.75 18.7869 5.31341
    endloop
  endfacet
  facet normal -1 0 0
    outer loop
      vertex -7.75 19.2131 5.31341
      vertex -7.75 25 0
      vertex -7.75 19 5.3
    endloop
  endfacet
  facet normal -1 0 0
    outer loop
      vertex -7.75 19.4228 5.35341
      vertex -7.75 25 0
      vertex -7.75 19.2131 5.31341
    endloop
  endfacet
  facet normal -1 0 0
    outer loop
      vertex -7.75 19.6258 5.41938
      vertex -7.75 25 0
      vertex -7.75 19.4228 5.35341
    endloop
  endfacet
  facet normal -1 0 0
    outer loop
      vertex -7.75 20.5382 6.27618
      vertex -7.75 25 13
      vertex -7.75 20.4354 6.08909
    endloop
  endfacet
  facet normal -1 0 0
    outer loop
      vertex -7.75 25 0
      vertex -7.75 19.6258 5.41938
      vertex -7.75 19.819 5.51028
    endloop
  endfacet
  facet normal -1 0 0
    outer loop
      vertex -7.75 25 0
      vertex -7.75 19.819 5.51028
      vertex -7.75 19.9992 5.62467
    endloop
  endfacet
  facet normal -1 0 0
    outer loop
      vertex -7.75 25 0
      vertex -7.75 19.9992 5.62467
      vertex -7.75 20.1637 5.76075
    endloop
  endfacet
  facet normal -1 0 0
    outer loop
      vertex -7.75 25 0
      vertex -7.75 20.1637 5.76075
      vertex -7.75 20.3099 5.91638
    endloop
  endfacet
  facet normal -1 0 0
    outer loop
      vertex -7.75 25 0
      vertex -7.75 20.3099 5.91638
      vertex -7.75 20.4354 6.08909
    endloop
  endfacet
  facet normal -1 0 0
    outer loop
      vertex -7.75 25 0
      vertex -7.75 20.4354 6.08909
      vertex -7.75 25 13
    endloop
  endfacet
  facet normal -1 0 0
    outer loop
      vertex -7.75 20.6168 6.47467
      vertex -7.75 25 13
      vertex -7.75 20.5382 6.27618
    endloop
  endfacet
  facet normal -1 0 0
    outer loop
      vertex -7.75 20.6699 6.68145
      vertex -7.75 25 13
      vertex -7.75 20.6168 6.47467
    endloop
  endfacet
  facet normal -1 0 0
    outer loop
      vertex -7.75 20.6966 6.89326
      vertex -7.75 25 13
      vertex -7.75 20.6699 6.68145
    endloop
  endfacet
  facet normal -1 0 0
    outer loop
      vertex -7.75 20.6966 7.10674
      vertex -7.75 25 13
      vertex -7.75 20.6966 6.89326
    endloop
  endfacet
  facet normal -1 0 0
    outer loop
      vertex -7.75 17.3832 7.52533
      vertex -7.75 12 13
      vertex -7.75 17.4618 7.72382
    endloop
  endfacet
  facet normal -1 0 0
    outer loop
      vertex -7.75 19.6258 8.58062
      vertex -7.75 12 13
      vertex -7.75 19.819 8.48972
    endloop
  endfacet
  facet normal -1 0 0
    outer loop
      vertex -7.75 18.3742 8.58062
      vertex -7.75 12 13
      vertex -7.75 18.5772 8.64659
    endloop
  endfacet
  facet normal -1 0 0
    outer loop
      vertex -7.75 20.6966 7.10674
      vertex -7.75 20.6699 7.31855
      vertex -7.75 25 13
    endloop
  endfacet
  facet normal -1 0 0
    outer loop
      vertex -7.75 18.5772 8.64659
      vertex -7.75 12 13
      vertex -7.75 18.7869 8.6866
    endloop
  endfacet
  facet normal -1 0 0
    outer loop
      vertex -7.75 20.6699 7.31855
      vertex -7.75 20.6168 7.52533
      vertex -7.75 25 13
    endloop
  endfacet
  facet normal -1 0 0
    outer loop
      vertex -7.75 20.6168 7.52533
      vertex -7.75 20.5382 7.72382
      vertex -7.75 25 13
    endloop
  endfacet
  facet normal -1 0 0
    outer loop
      vertex -7.75 18.7869 8.6866
      vertex -7.75 12 13
      vertex -7.75 19 8.7
    endloop
  endfacet
  facet normal -1 0 0
    outer loop
      vertex -7.75 20.5382 7.72382
      vertex -7.75 20.4354 7.91091
      vertex -7.75 25 13
    endloop
  endfacet
  facet normal -1 0 0
    outer loop
      vertex -7.75 19 8.7
      vertex -7.75 12 13
      vertex -7.75 19.2131 8.6866
    endloop
  endfacet
  facet normal -1 0 0
    outer loop
      vertex -7.75 20.4354 7.91091
      vertex -7.75 20.3099 8.08362
      vertex -7.75 25 13
    endloop
  endfacet
  facet normal -1 0 0
    outer loop
      vertex -7.75 19.2131 8.6866
      vertex -7.75 12 13
      vertex -7.75 19.4228 8.64659
    endloop
  endfacet
  facet normal -1 0 0
    outer loop
      vertex -7.75 20.3099 8.08362
      vertex -7.75 20.1637 8.23925
      vertex -7.75 25 13
    endloop
  endfacet
  facet normal -1 0 0
    outer loop
      vertex -7.75 19.4228 8.64659
      vertex -7.75 12 13
      vertex -7.75 19.6258 8.58062
    endloop
  endfacet
  facet normal -1 0 0
    outer loop
      vertex -7.75 20.1637 8.23925
      vertex -7.75 19.9992 8.37533
      vertex -7.75 25 13
    endloop
  endfacet
  facet normal -1 0 0
    outer loop
      vertex -7.75 19.9992 8.37533
      vertex -7.75 19.819 8.48972
      vertex -7.75 25 13
    endloop
  endfacet
  facet normal -1 0 0
    outer loop
      vertex -7.75 18.181 8.48972
      vertex -7.75 12 13
      vertex -7.75 18.3742 8.58062
    endloop
  endfacet
  facet normal -1 0 0
    outer loop
      vertex -7.75 18.0008 8.37533
      vertex -7.75 12 13
      vertex -7.75 18.181 8.48972
    endloop
  endfacet
  facet normal -1 0 0
    outer loop
      vertex -7.75 17.8363 8.23925
      vertex -7.75 12 13
      vertex -7.75 18.0008 8.37533
    endloop
  endfacet
  facet normal -1 0 0
    outer loop
      vertex -7.75 17.6901 8.08362
      vertex -7.75 12 13
      vertex -7.75 17.8363 8.23925
    endloop
  endfacet
  facet normal -1 0 0
    outer loop
      vertex -7.75 17.5646 7.91091
      vertex -7.75 12 13
      vertex -7.75 17.6901 8.08362
    endloop
  endfacet
  facet normal -1 0 0
    outer loop
      vertex -7.75 17.4618 7.72382
      vertex -7.75 12 13
      vertex -7.75 17.5646 7.91091
    endloop
  endfacet
  facet normal -1 0 0
    outer loop
      vertex -7.75 17.3034 7.10674
      vertex -7.75 12 13
      vertex -7.75 17.3301 7.31855
    endloop
  endfacet
  facet normal -1 0 0
    outer loop
      vertex -7.75 18.181 5.51028
      vertex -7.75 25 0
      vertex -7.75 18.0008 5.62467
    endloop
  endfacet
  facet normal 0 -1 0
    outer loop
      vertex 0 12 0
      vertex 0 12 13
      vertex -7.75 12 13
    endloop
  endfacet
  facet normal 0 -1 0
    outer loop
      vertex -7.75 12 0
      vertex 0 12 0
      vertex -7.75 12 13
    endloop
  endfacet
  facet normal 0 0 -1
    outer loop
      vertex -7.75 12 0
      vertex -7.75 25 0
      vertex 0 12 0
    endloop
  endfacet
  facet normal 0 0 -1
    outer loop
      vertex 0 12 0
      vertex -7.75 25 0
      vertex -3.26666 25 0
    endloop
  endfacet
  facet normal 0 0 -1
    outer loop
      vertex 0 12 0
      vertex -3.26666 25 0
      vertex 19.25 12 0
    endloop
  endfacet
  facet normal 0 0 -1
    outer loop
      vertex 0 12 0
      vertex 19.25 12 0
      vertex 19.25 10.5 0
    endloop
  endfacet
  facet normal 0 0 -1
    outer loop
      vertex 38.25 10.5 0
      vertex 38.25 13.5 0
      vertex 57.5 13.5 0
    endloop
  endfacet
  facet normal 0 0 -1
    outer loop
      vertex 38.25 10.5 0
      vertex 57.5 13.5 0
      vertex 57.5 10.5 0
    endloop
  endfacet
  facet normal 0 0 -1
    outer loop
      vertex 38.25 10.5 0
      vertex 57.5 10.5 0
      vertex 57.5 0 0
    endloop
  endfacet
  facet normal 0 0 -1
    outer loop
      vertex 38.25 10.5 0
      vertex 57.5 0 0
      vertex 19.25 10.5 0
    endloop
  endfacet
  facet normal 0 0 -1
    outer loop
      vertex 0 12 0
      vertex 19.25 10.5 0
      vertex 57.5 0 0
    endloop
  endfacet
  facet normal 0 0 -1
    outer loop
      vertex 0 12 0
      vertex 57.5 0 0
      vertex 0 0 0
    endloop
  endfacet
  facet normal 0 1 0
    outer loop
      vertex -6.25 25 13
      vertex -6.25 25 1.5
      vertex -7.75 25 13
    endloop
  endfacet
  facet normal 0 1 0
    outer loop
      vertex -3.26666 25 0
      vertex -6.25 25 1.5
      vertex -3.26666 25 1.5
    endloop
  endfacet
  facet normal 0 1 0
    outer loop
      vertex -7.75 25 0
      vertex -6.25 25 1.5
      vertex -3.26666 25 0
    endloop
  endfacet
  facet normal 0 1 0
    outer loop
      vertex -7.75 25 13
      vertex -6.25 25 1.5
      vertex -7.75 25 0
    endloop
  endfacet
  facet normal 0 0 1
    outer loop
      vertex -6.25 13.5 13
      vertex -7.75 12 13
      vertex 0 12 13
    endloop
  endfacet
  facet normal 0 0 1
    outer loop
      vertex -6.25 13.5 13
      vertex -6.25 25 13
      vertex -7.75 25 13
    endloop
  endfacet
  facet normal 0 0 1
    outer loop
      vertex -7.75 25 13
      vertex -7.75 12 13
      vertex -6.25 13.5 13
    endloop
  endfacet
  facet normal 0 0 1
    outer loop
      vertex 0 13.5 13
      vertex -6.25 13.5 13
      vertex 0 12 13
    endloop
  endfacet
  facet normal 2.78295e-017 0.992115 -0.125333
    outer loop
      vertex -6.25 17.3301 7.31855
      vertex -6.25 17.3034 7.10674
      vertex -7.75 17.3301 7.31855
    endloop
  endfacet
  facet normal 2.78295e-017 0.992115 -0.125333
    outer loop
      vertex -7.75 17.3301 7.31855
      vertex -6.25 17.3034 7.10674
      vertex -7.75 17.3034 7.10674
    endloop
  endfacet
  facet normal 0 1 0
    outer loop
      vertex -6.25 17.3034 7.10674
      vertex -6.25 17.3034 6.89326
      vertex -7.75 17.3034 7.10674
    endloop
  endfacet
  facet normal 0 1 0
    outer loop
      vertex -7.75 17.3034 7.10674
      vertex -6.25 17.3034 6.89326
      vertex -7.75 17.3034 6.89326
    endloop
  endfacet
  facet normal 5.52199e-017 0.968584 -0.248688
    outer loop
      vertex -6.25 17.3832 7.52533
      vertex -6.25 17.3301 7.31855
      vertex -7.75 17.3832 7.52533
    endloop
  endfacet
  facet normal 5.52199e-017 0.968584 -0.248688
    outer loop
      vertex -7.75 17.3832 7.52533
      vertex -6.25 17.3301 7.31855
      vertex -7.75 17.3301 7.31855
    endloop
  endfacet
  facet normal 8.174e-017 0.929777 -0.368124
    outer loop
      vertex -6.25 17.4618 7.72383
      vertex -6.25 17.3832 7.52533
      vertex -7.75 17.4618 7.72382
    endloop
  endfacet
  facet normal 8.174e-017 0.929777 -0.368124
    outer loop
      vertex -7.75 17.4618 7.72382
      vertex -6.25 17.3832 7.52533
      vertex -7.75 17.3832 7.52533
    endloop
  endfacet
  facet normal 1.06971e-016 0.876306 -0.481755
    outer loop
      vertex -6.25 17.5646 7.91091
      vertex -6.25 17.4618 7.72383
      vertex -7.75 17.5646 7.91091
    endloop
  endfacet
  facet normal 1.06971e-016 0.876306 -0.481755
    outer loop
      vertex -7.75 17.5646 7.91091
      vertex -6.25 17.4618 7.72383
      vertex -7.75 17.4618 7.72382
    endloop
  endfacet
  facet normal 1.30514e-016 0.809019 -0.587783
    outer loop
      vertex -6.25 17.6901 8.08362
      vertex -6.25 17.5646 7.91091
      vertex -7.75 17.6901 8.08362
    endloop
  endfacet
  facet normal 1.30514e-016 0.809019 -0.587783
    outer loop
      vertex -7.75 17.6901 8.08362
      vertex -6.25 17.5646 7.91091
      vertex -7.75 17.5646 7.91091
    endloop
  endfacet
  facet normal 1.52e-016 0.728968 -0.684548
    outer loop
      vertex -6.25 17.8363 8.23925
      vertex -6.25 17.6901 8.08362
      vertex -7.75 17.8363 8.23925
    endloop
  endfacet
  facet normal 1.52e-016 0.728968 -0.684548
    outer loop
      vertex -7.75 17.8363 8.23925
      vertex -6.25 17.6901 8.08362
      vertex -7.75 17.6901 8.08362
    endloop
  endfacet
  facet normal 1.71088e-016 0.637424 -0.770513
    outer loop
      vertex -6.25 18.0008 8.37533
      vertex -6.25 17.8363 8.23925
      vertex -7.75 18.0008 8.37533
    endloop
  endfacet
  facet normal 1.71088e-016 0.637424 -0.770513
    outer loop
      vertex -7.75 18.0008 8.37533
      vertex -6.25 17.8363 8.23925
      vertex -7.75 17.8363 8.23925
    endloop
  endfacet
  facet normal 1.87479e-016 0.535825 -0.844329
    outer loop
      vertex -6.25 18.181 8.48972
      vertex -6.25 18.0008 8.37533
      vertex -7.75 18.181 8.48972
    endloop
  endfacet
  facet normal 1.87479e-016 0.535825 -0.844329
    outer loop
      vertex -7.75 18.181 8.48972
      vertex -6.25 18.0008 8.37533
      vertex -7.75 18.0008 8.37533
    endloop
  endfacet
  facet normal 2.00912e-016 0.425781 -0.904826
    outer loop
      vertex -6.25 18.3742 8.58062
      vertex -6.25 18.181 8.48972
      vertex -7.75 18.3742 8.58062
    endloop
  endfacet
  facet normal 2.00912e-016 0.425781 -0.904826
    outer loop
      vertex -7.75 18.3742 8.58062
      vertex -6.25 18.181 8.48972
      vertex -7.75 18.181 8.48972
    endloop
  endfacet
  facet normal 2.11177e-016 0.309015 -0.951057
    outer loop
      vertex -6.25 18.5772 8.64659
      vertex -6.25 18.3742 8.58062
      vertex -7.75 18.5772 8.64659
    endloop
  endfacet
  facet normal 2.11177e-016 0.309015 -0.951057
    outer loop
      vertex -7.75 18.5772 8.64659
      vertex -6.25 18.3742 8.58062
      vertex -7.75 18.3742 8.58062
    endloop
  endfacet
  facet normal 2.18112e-016 0.187382 -0.982287
    outer loop
      vertex -6.25 18.7869 8.6866
      vertex -6.25 18.5772 8.64659
      vertex -7.75 18.7869 8.6866
    endloop
  endfacet
  facet normal 2.18112e-016 0.187382 -0.982287
    outer loop
      vertex -7.75 18.7869 8.6866
      vertex -6.25 18.5772 8.64659
      vertex -7.75 18.5772 8.64659
    endloop
  endfacet
  facet normal 2.21606e-016 0.0627906 -0.998027
    outer loop
      vertex -6.25 19 8.7
      vertex -6.25 18.7869 8.6866
      vertex -7.75 19 8.7
    endloop
  endfacet
  facet normal 2.21606e-016 0.0627906 -0.998027
    outer loop
      vertex -7.75 19 8.7
      vertex -6.25 18.7869 8.6866
      vertex -7.75 18.7869 8.6866
    endloop
  endfacet
  facet normal 2.21606e-016 -0.0627906 -0.998027
    outer loop
      vertex -6.25 19.2131 8.6866
      vertex -6.25 19 8.7
      vertex -7.75 19.2131 8.6866
    endloop
  endfacet
  facet normal 2.21606e-016 -0.0627906 -0.998027
    outer loop
      vertex -7.75 19.2131 8.6866
      vertex -6.25 19 8.7
      vertex -7.75 19 8.7
    endloop
  endfacet
  facet normal 2.18112e-016 -0.187382 -0.982287
    outer loop
      vertex -6.25 19.4228 8.64659
      vertex -6.25 19.2131 8.6866
      vertex -7.75 19.4228 8.64659
    endloop
  endfacet
  facet normal 2.18112e-016 -0.187382 -0.982287
    outer loop
      vertex -7.75 19.4228 8.64659
      vertex -6.25 19.2131 8.6866
      vertex -7.75 19.2131 8.6866
    endloop
  endfacet
  facet normal 2.11177e-016 -0.309015 -0.951057
    outer loop
      vertex -6.25 19.6258 8.58062
      vertex -6.25 19.4228 8.64659
      vertex -7.75 19.6258 8.58062
    endloop
  endfacet
  facet normal 2.11177e-016 -0.309015 -0.951057
    outer loop
      vertex -7.75 19.6258 8.58062
      vertex -6.25 19.4228 8.64659
      vertex -7.75 19.4228 8.64659
    endloop
  endfacet
  facet normal 2.00912e-016 -0.425781 -0.904826
    outer loop
      vertex -6.25 19.819 8.48972
      vertex -6.25 19.6258 8.58062
      vertex -7.75 19.819 8.48972
    endloop
  endfacet
  facet normal 2.00912e-016 -0.425781 -0.904826
    outer loop
      vertex -7.75 19.819 8.48972
      vertex -6.25 19.6258 8.58062
      vertex -7.75 19.6258 8.58062
    endloop
  endfacet
  facet normal 1.87479e-016 -0.535825 -0.844329
    outer loop
      vertex -6.25 19.9992 8.37533
      vertex -6.25 19.819 8.48972
      vertex -7.75 19.9992 8.37533
    endloop
  endfacet
  facet normal 1.87479e-016 -0.535825 -0.844329
    outer loop
      vertex -7.75 19.9992 8.37533
      vertex -6.25 19.819 8.48972
      vertex -7.75 19.819 8.48972
    endloop
  endfacet
  facet normal 1.71088e-016 -0.637424 -0.770513
    outer loop
      vertex -6.25 20.1637 8.23925
      vertex -6.25 19.9992 8.37533
      vertex -7.75 20.1637 8.23925
    endloop
  endfacet
  facet normal 1.71088e-016 -0.637424 -0.770513
    outer loop
      vertex -7.75 20.1637 8.23925
      vertex -6.25 19.9992 8.37533
      vertex -7.75 19.9992 8.37533
    endloop
  endfacet
  facet normal 1.52e-016 -0.728968 -0.684548
    outer loop
      vertex -7.75 20.3099 8.08362
      vertex -6.25 20.3099 8.08362
      vertex -6.25 20.1637 8.23925
    endloop
  endfacet
  facet normal 1.52e-016 -0.728968 -0.684548
    outer loop
      vertex -7.75 20.1637 8.23925
      vertex -7.75 20.3099 8.08362
      vertex -6.25 20.1637 8.23925
    endloop
  endfacet
  facet normal 1.30514e-016 -0.809019 -0.587783
    outer loop
      vertex -7.75 20.4354 7.91091
      vertex -6.25 20.4354 7.91091
      vertex -6.25 20.3099 8.08362
    endloop
  endfacet
  facet normal 1.30514e-016 -0.809019 -0.587783
    outer loop
      vertex -7.75 20.3099 8.08362
      vertex -7.75 20.4354 7.91091
      vertex -6.25 20.3099 8.08362
    endloop
  endfacet
  facet normal 1.06971e-016 -0.876306 -0.481755
    outer loop
      vertex -7.75 20.5382 7.72382
      vertex -6.25 20.5382 7.72383
      vertex -6.25 20.4354 7.91091
    endloop
  endfacet
  facet normal 1.06971e-016 -0.876306 -0.481755
    outer loop
      vertex -7.75 20.4354 7.91091
      vertex -7.75 20.5382 7.72382
      vertex -6.25 20.4354 7.91091
    endloop
  endfacet
  facet normal 8.174e-017 -0.929777 -0.368124
    outer loop
      vertex -7.75 20.6168 7.52533
      vertex -6.25 20.6168 7.52533
      vertex -6.25 20.5382 7.72383
    endloop
  endfacet
  facet normal 8.174e-017 -0.929777 -0.368124
    outer loop
      vertex -7.75 20.5382 7.72382
      vertex -7.75 20.6168 7.52533
      vertex -6.25 20.5382 7.72383
    endloop
  endfacet
  facet normal 5.52199e-017 -0.968584 -0.248688
    outer loop
      vertex -7.75 20.6699 7.31855
      vertex -6.25 20.6699 7.31855
      vertex -6.25 20.6168 7.52533
    endloop
  endfacet
  facet normal 5.52199e-017 -0.968584 -0.248688
    outer loop
      vertex -7.75 20.6168 7.52533
      vertex -7.75 20.6699 7.31855
      vertex -6.25 20.6168 7.52533
    endloop
  endfacet
  facet normal 2.78295e-017 -0.992115 -0.125333
    outer loop
      vertex -7.75 20.6966 7.10674
      vertex -6.25 20.6966 7.10674
      vertex -6.25 20.6699 7.31855
    endloop
  endfacet
  facet normal 2.78295e-017 -0.992115 -0.125333
    outer loop
      vertex -7.75 20.6699 7.31855
      vertex -7.75 20.6966 7.10674
      vertex -6.25 20.6699 7.31855
    endloop
  endfacet
  facet normal 0 -1 0
    outer loop
      vertex -6.25 20.6966 6.89326
      vertex -6.25 20.6966 7.10674
      vertex -7.75 20.6966 7.10674
    endloop
  endfacet
  facet normal 0 -1 0
    outer loop
      vertex -7.75 20.6966 6.89326
      vertex -6.25 20.6966 6.89326
      vertex -7.75 20.6966 7.10674
    endloop
  endfacet
  facet normal -2.78295e-017 -0.992115 0.125333
    outer loop
      vertex -6.25 20.6699 6.68145
      vertex -6.25 20.6966 6.89326
      vertex -7.75 20.6966 6.89326
    endloop
  endfacet
  facet normal -2.78295e-017 -0.992115 0.125333
    outer loop
      vertex -7.75 20.6699 6.68145
      vertex -6.25 20.6699 6.68145
      vertex -7.75 20.6966 6.89326
    endloop
  endfacet
  facet normal -5.52199e-017 -0.968584 0.248688
    outer loop
      vertex -6.25 20.6168 6.47467
      vertex -6.25 20.6699 6.68145
      vertex -7.75 20.6699 6.68145
    endloop
  endfacet
  facet normal -5.52199e-017 -0.968584 0.248688
    outer loop
      vertex -7.75 20.6168 6.47467
      vertex -6.25 20.6168 6.47467
      vertex -7.75 20.6699 6.68145
    endloop
  endfacet
  facet normal -8.174e-017 -0.929777 0.368124
    outer loop
      vertex -6.25 20.5382 6.27618
      vertex -6.25 20.6168 6.47467
      vertex -7.75 20.6168 6.47467
    endloop
  endfacet
  facet normal -8.174e-017 -0.929777 0.368124
    outer loop
      vertex -7.75 20.5382 6.27618
      vertex -6.25 20.5382 6.27618
      vertex -7.75 20.6168 6.47467
    endloop
  endfacet
  facet normal -1.06971e-016 -0.876306 0.481755
    outer loop
      vertex -6.25 20.4354 6.08909
      vertex -6.25 20.5382 6.27618
      vertex -7.75 20.5382 6.27618
    endloop
  endfacet
  facet normal -1.06971e-016 -0.876306 0.481755
    outer loop
      vertex -7.75 20.4354 6.08909
      vertex -6.25 20.4354 6.08909
      vertex -7.75 20.5382 6.27618
    endloop
  endfacet
  facet normal -1.30514e-016 -0.809019 0.587783
    outer loop
      vertex -6.25 20.3099 5.91638
      vertex -6.25 20.4354 6.08909
      vertex -7.75 20.4354 6.08909
    endloop
  endfacet
  facet normal -1.30514e-016 -0.809019 0.587783
    outer loop
      vertex -7.75 20.3099 5.91638
      vertex -6.25 20.3099 5.91638
      vertex -7.75 20.4354 6.08909
    endloop
  endfacet
  facet normal -1.52e-016 -0.728968 0.684548
    outer loop
      vertex -6.25 20.1637 5.76075
      vertex -6.25 20.3099 5.91638
      vertex -7.75 20.3099 5.91638
    endloop
  endfacet
  facet normal -1.52e-016 -0.728968 0.684548
    outer loop
      vertex -7.75 20.1637 5.76075
      vertex -6.25 20.1637 5.76075
      vertex -7.75 20.3099 5.91638
    endloop
  endfacet
  facet normal -1.71088e-016 -0.637424 0.770513
    outer loop
      vertex -6.25 19.9992 5.62467
      vertex -6.25 20.1637 5.76075
      vertex -7.75 20.1637 5.76075
    endloop
  endfacet
  facet normal -1.71088e-016 -0.637424 0.770513
    outer loop
      vertex -7.75 19.9992 5.62467
      vertex -6.25 19.9992 5.62467
      vertex -7.75 20.1637 5.76075
    endloop
  endfacet
  facet normal -1.87479e-016 -0.535825 0.844329
    outer loop
      vertex -6.25 19.819 5.51028
      vertex -6.25 19.9992 5.62467
      vertex -7.75 19.9992 5.62467
    endloop
  endfacet
  facet normal -1.87479e-016 -0.535825 0.844329
    outer loop
      vertex -7.75 19.819 5.51028
      vertex -6.25 19.819 5.51028
      vertex -7.75 19.9992 5.62467
    endloop
  endfacet
  facet normal -2.00912e-016 -0.425781 0.904826
    outer loop
      vertex -6.25 19.6258 5.41938
      vertex -6.25 19.819 5.51028
      vertex -7.75 19.819 5.51028
    endloop
  endfacet
  facet normal -2.00912e-016 -0.425781 0.904826
    outer loop
      vertex -7.75 19.6258 5.41938
      vertex -6.25 19.6258 5.41938
      vertex -7.75 19.819 5.51028
    endloop
  endfacet
  facet normal -2.11177e-016 -0.309015 0.951057
    outer loop
      vertex -6.25 19.4228 5.35341
      vertex -6.25 19.6258 5.41938
      vertex -7.75 19.6258 5.41938
    endloop
  endfacet
  facet normal -2.11177e-016 -0.309015 0.951057
    outer loop
      vertex -7.75 19.4228 5.35341
      vertex -6.25 19.4228 5.35341
      vertex -7.75 19.6258 5.41938
    endloop
  endfacet
  facet normal -2.18112e-016 -0.187382 0.982287
    outer loop
      vertex -6.25 19.2131 5.31341
      vertex -6.25 19.4228 5.35341
      vertex -7.75 19.4228 5.35341
    endloop
  endfacet
  facet normal -2.18112e-016 -0.187382 0.982287
    outer loop
      vertex -7.75 19.2131 5.31341
      vertex -6.25 19.2131 5.31341
      vertex -7.75 19.4228 5.35341
    endloop
  endfacet
  facet normal -2.21606e-016 -0.0627906 0.998027
    outer loop
      vertex -6.25 19 5.3
      vertex -6.25 19.2131 5.31341
      vertex -7.75 19.2131 5.31341
    endloop
  endfacet
  facet normal -2.21606e-016 -0.0627906 0.998027
    outer loop
      vertex -7.75 19 5.3
      vertex -6.25 19 5.3
      vertex -7.75 19.2131 5.31341
    endloop
  endfacet
  facet normal -2.21606e-016 0.0627906 0.998027
    outer loop
      vertex -6.25 18.7869 5.31341
      vertex -6.25 19 5.3
      vertex -7.75 19 5.3
    endloop
  endfacet
  facet normal -2.21606e-016 0.0627906 0.998027
    outer loop
      vertex -7.75 18.7869 5.31341
      vertex -6.25 18.7869 5.31341
      vertex -7.75 19 5.3
    endloop
  endfacet
  facet normal -2.18112e-016 0.187382 0.982287
    outer loop
      vertex -6.25 18.5772 5.35341
      vertex -6.25 18.7869 5.31341
      vertex -7.75 18.7869 5.31341
    endloop
  endfacet
  facet normal -2.18112e-016 0.187382 0.982287
    outer loop
      vertex -7.75 18.5772 5.35341
      vertex -6.25 18.5772 5.35341
      vertex -7.75 18.7869 5.31341
    endloop
  endfacet
  facet normal -2.11177e-016 0.309015 0.951057
    outer loop
      vertex -6.25 18.3742 5.41938
      vertex -6.25 18.5772 5.35341
      vertex -7.75 18.5772 5.35341
    endloop
  endfacet
  facet normal -2.11177e-016 0.309015 0.951057
    outer loop
      vertex -7.75 18.3742 5.41938
      vertex -6.25 18.3742 5.41938
      vertex -7.75 18.5772 5.35341
    endloop
  endfacet
  facet normal -2.00912e-016 0.425781 0.904826
    outer loop
      vertex -6.25 18.181 5.51028
      vertex -6.25 18.3742 5.41938
      vertex -7.75 18.3742 5.41938
    endloop
  endfacet
  facet normal -2.00912e-016 0.425781 0.904826
    outer loop
      vertex -7.75 18.181 5.51028
      vertex -6.25 18.181 5.51028
      vertex -7.75 18.3742 5.41938
    endloop
  endfacet
  facet normal -1.87479e-016 0.535825 0.844329
    outer loop
      vertex -6.25 18.0008 5.62467
      vertex -6.25 18.181 5.51028
      vertex -7.75 18.181 5.51028
    endloop
  endfacet
  facet normal -1.87479e-016 0.535825 0.844329
    outer loop
      vertex -7.75 18.0008 5.62467
      vertex -6.25 18.0008 5.62467
      vertex -7.75 18.181 5.51028
    endloop
  endfacet
  facet normal -1.71088e-016 0.637424 0.770513
    outer loop
      vertex -6.25 17.8363 5.76075
      vertex -6.25 18.0008 5.62467
      vertex -7.75 18.0008 5.62467
    endloop
  endfacet
  facet normal -1.71088e-016 0.637424 0.770513
    outer loop
      vertex -7.75 17.8363 5.76075
      vertex -6.25 17.8363 5.76075
      vertex -7.75 18.0008 5.62467
    endloop
  endfacet
  facet normal -1.52e-016 0.728968 0.684548
    outer loop
      vertex -6.25 17.8363 5.76075
      vertex -7.75 17.8363 5.76075
      vertex -6.25 17.6901 5.91638
    endloop
  endfacet
  facet normal -1.52e-016 0.728968 0.684548
    outer loop
      vertex -6.25 17.6901 5.91638
      vertex -7.75 17.8363 5.76075
      vertex -7.75 17.6901 5.91638
    endloop
  endfacet
  facet normal -1.30514e-016 0.809019 0.587783
    outer loop
      vertex -6.25 17.6901 5.91638
      vertex -7.75 17.6901 5.91638
      vertex -6.25 17.5646 6.08909
    endloop
  endfacet
  facet normal -1.30514e-016 0.809019 0.587783
    outer loop
      vertex -6.25 17.5646 6.08909
      vertex -7.75 17.6901 5.91638
      vertex -7.75 17.5646 6.08909
    endloop
  endfacet
  facet normal -1.06971e-016 0.876306 0.481755
    outer loop
      vertex -6.25 17.5646 6.08909
      vertex -7.75 17.5646 6.08909
      vertex -6.25 17.4618 6.27618
    endloop
  endfacet
  facet normal -1.06971e-016 0.876306 0.481755
    outer loop
      vertex -6.25 17.4618 6.27618
      vertex -7.75 17.5646 6.08909
      vertex -7.75 17.4618 6.27618
    endloop
  endfacet
  facet normal -8.174e-017 0.929777 0.368124
    outer loop
      vertex -6.25 17.4618 6.27618
      vertex -7.75 17.4618 6.27618
      vertex -6.25 17.3832 6.47467
    endloop
  endfacet
  facet normal -8.174e-017 0.929777 0.368124
    outer loop
      vertex -6.25 17.3832 6.47467
      vertex -7.75 17.4618 6.27618
      vertex -7.75 17.3832 6.47467
    endloop
  endfacet
  facet normal -5.52199e-017 0.968584 0.248688
    outer loop
      vertex -6.25 17.3832 6.47467
      vertex -7.75 17.3832 6.47467
      vertex -6.25 17.3301 6.68145
    endloop
  endfacet
  facet normal -5.52199e-017 0.968584 0.248688
    outer loop
      vertex -6.25 17.3301 6.68145
      vertex -7.75 17.3832 6.47467
      vertex -7.75 17.3301 6.68145
    endloop
  endfacet
  facet normal -2.78295e-017 0.992115 0.125333
    outer loop
      vertex -6.25 17.3301 6.68145
      vertex -7.75 17.3301 6.68145
      vertex -6.25 17.3034 6.89326
    endloop
  endfacet
  facet normal -2.78295e-017 0.992115 0.125333
    outer loop
      vertex -6.25 17.3034 6.89326
      vertex -7.75 17.3301 6.68145
      vertex -7.75 17.3034 6.89326
    endloop
  endfacet
  facet normal -1 0 0
    outer loop
      vertex 0 0 0
      vertex 0 0 51
      vertex 0 12 0
    endloop
  endfacet
  facet normal -1 0 0
    outer loop
      vertex 0 12 13
      vertex 0 0 51
      vertex 0 13.5 51
    endloop
  endfacet
  facet normal -1 0 0
    outer loop
      vertex 0 12 0
      vertex 0 0 51
      vertex 0 12 13
    endloop
  endfacet
  facet normal -1 0 0
    outer loop
      vertex 0 12 13
      vertex 0 13.5 51
      vertex 0 13.5 13
    endloop
  endfacet
  facet normal 0 -1 0
    outer loop
      vertex 49.314 0 3.50987
      vertex 0 0 0
      vertex 57.5 0 0
    endloop
  endfacet
  facet normal 0 -1 0
    outer loop
      vertex 57.5 0 51
      vertex 54 0 51
      vertex 57.5 0 0
    endloop
  endfacet
  facet normal 0 -1 0
    outer loop
      vertex 54 0 51
      vertex 54 0 8.5
      vertex 57.5 0 0
    endloop
  endfacet
  facet normal 0 -1 0
    outer loop
      vertex 54 0 8.5
      vertex 53.9606 0 7.87333
      vertex 57.5 0 0
    endloop
  endfacet
  facet normal 0 -1 0
    outer loop
      vertex 53.9606 0 7.87333
      vertex 53.8429 0 7.25655
      vertex 57.5 0 0
    endloop
  endfacet
  facet normal 0 -1 0
    outer loop
      vertex 53.8429 0 7.25655
      vertex 53.6489 0 6.65938
      vertex 57.5 0 0
    endloop
  endfacet
  facet normal 0 -1 0
    outer loop
      vertex 53.6489 0 6.65938
      vertex 53.3815 0 6.09123
      vertex 57.5 0 0
    endloop
  endfacet
  facet normal 0 -1 0
    outer loop
      vertex 53.3815 0 6.09123
      vertex 53.0451 0 5.56107
      vertex 57.5 0 0
    endloop
  endfacet
  facet normal 0 -1 0
    outer loop
      vertex 53.0451 0 5.56107
      vertex 52.6448 0 5.07726
      vertex 57.5 0 0
    endloop
  endfacet
  facet normal 0 -1 0
    outer loop
      vertex 52.1871 0 4.64743
      vertex 51.6791 0 4.27836
      vertex 57.5 0 0
    endloop
  endfacet
  facet normal 0 -1 0
    outer loop
      vertex 51.6791 0 4.27836
      vertex 51.1289 0 3.97587
      vertex 57.5 0 0
    endloop
  endfacet
  facet normal 0 -1 0
    outer loop
      vertex 51.1289 0 3.97587
      vertex 50.5451 0 3.74472
      vertex 57.5 0 0
    endloop
  endfacet
  facet normal 0 -1 0
    outer loop
      vertex 50.5451 0 3.74472
      vertex 49.9369 0 3.58856
      vertex 57.5 0 0
    endloop
  endfacet
  facet normal 0 -1 0
    outer loop
      vertex 49.9369 0 3.58856
      vertex 49.314 0 3.50987
      vertex 57.5 0 0
    endloop
  endfacet
  facet normal 0 -1 0
    outer loop
      vertex 7.56309 0 3.58856
      vertex 0 0 0
      vertex 8.18605 0 3.50987
    endloop
  endfacet
  facet normal 0 -1 0
    outer loop
      vertex 6.95491 0 3.74472
      vertex 0 0 0
      vertex 7.56309 0 3.58856
    endloop
  endfacet
  facet normal 0 -1 0
    outer loop
      vertex 6.3711 0 3.97587
      vertex 0 0 0
      vertex 6.95491 0 3.74472
    endloop
  endfacet
  facet normal 0 -1 0
    outer loop
      vertex 5.82087 0 4.27836
      vertex 0 0 0
      vertex 6.3711 0 3.97587
    endloop
  endfacet
  facet normal 0 -1 0
    outer loop
      vertex 5.31288 0 4.64743
      vertex 0 0 0
      vertex 5.82087 0 4.27836
    endloop
  endfacet
  facet normal 0 -1 0
    outer loop
      vertex 4.85516 0 5.07726
      vertex 0 0 0
      vertex 5.31288 0 4.64743
    endloop
  endfacet
  facet normal 0 -1 0
    outer loop
      vertex 4.45492 0 5.56107
      vertex 0 0 0
      vertex 4.85516 0 5.07726
    endloop
  endfacet
  facet normal 0 -1 0
    outer loop
      vertex 4.11847 0 6.09123
      vertex 0 0 0
      vertex 4.45492 0 5.56107
    endloop
  endfacet
  facet normal 0 -1 0
    outer loop
      vertex 3.85112 0 6.65938
      vertex 0 0 0
      vertex 4.11847 0 6.09123
    endloop
  endfacet
  facet normal 0 -1 0
    outer loop
      vertex 3.65708 0 7.25655
      vertex 0 0 0
      vertex 3.85112 0 6.65938
    endloop
  endfacet
  facet normal 0 -1 0
    outer loop
      vertex 3.53943 0 7.87333
      vertex 0 0 0
      vertex 3.65708 0 7.25655
    endloop
  endfacet
  facet normal 0 -1 0
    outer loop
      vertex 0 0 51
      vertex 0 0 0
      vertex 3.53943 0 7.87333
    endloop
  endfacet
  facet normal 0 -1 0
    outer loop
      vertex 0 0 51
      vertex 3.53943 0 7.87333
      vertex 3.5 0 8.5
    endloop
  endfacet
  facet normal 0 -1 0
    outer loop
      vertex 52.6448 0 5.07726
      vertex 52.1871 0 4.64743
      vertex 57.5 0 0
    endloop
  endfacet
  facet normal 0 -1 0
    outer loop
      vertex 49.314 0 3.50987
      vertex 8.18605 0 3.50987
      vertex 0 0 0
    endloop
  endfacet
  facet normal 0 -1 0
    outer loop
      vertex 3.5 0 8.5
      vertex 3.5 0 51
      vertex 0 0 51
    endloop
  endfacet
  facet normal 1 0 0
    outer loop
      vertex 57.5 0 51
      vertex 57.5 0 0
      vertex 57.5 10.5 0
    endloop
  endfacet
  facet normal 1 0 0
    outer loop
      vertex 57.5 10.5 51
      vertex 57.5 0 51
      vertex 57.5 10.5 0
    endloop
  endfacet
  facet normal 1 0 0
    outer loop
      vertex 57.5 10.5 51
      vertex 57.5 10.5 0
      vertex 57.5 13.5 0
    endloop
  endfacet
  facet normal 1 0 0
    outer loop
      vertex 57.5 13.5 51
      vertex 57.5 10.5 51
      vertex 57.5 13.5 0
    endloop
  endfacet
  facet normal 0 1 0
    outer loop
      vertex 38.25 13.5 0
      vertex 38.25 13.5 3.6299
      vertex 57.5 13.5 0
    endloop
  endfacet
  facet normal 0 1 0
    outer loop
      vertex 57.5 13.5 0
      vertex 38.25 13.5 3.6299
      vertex 38.6238 13.5 3.67713
    endloop
  endfacet
  facet normal 0 1 0
    outer loop
      vertex 57.5 13.5 0
      vertex 38.6238 13.5 3.67713
      vertex 39.8402 13.5 3.98944
    endloop
  endfacet
  facet normal 0 1 0
    outer loop
      vertex 39.8402 13.5 3.98944
      vertex 41.0078 13.5 4.45173
      vertex 57.5 13.5 0
    endloop
  endfacet
  facet normal 0 1 0
    outer loop
      vertex 41.0078 13.5 4.45173
      vertex 42.1083 13.5 5.05672
      vertex 57.5 13.5 0
    endloop
  endfacet
  facet normal 0 1 0
    outer loop
      vertex 42.1083 13.5 5.05672
      vertex 43.1242 13.5 5.79487
      vertex 57.5 13.5 0
    endloop
  endfacet
  facet normal 0 1 0
    outer loop
      vertex 43.1242 13.5 5.79487
      vertex 44.0397 13.5 6.65453
      vertex 57.5 13.5 0
    endloop
  endfacet
  facet normal 0 1 0
    outer loop
      vertex 44.0397 13.5 6.65453
      vertex 44.8402 13.5 7.62215
      vertex 57.5 13.5 0
    endloop
  endfacet
  facet normal 0 1 0
    outer loop
      vertex 44.8402 13.5 7.62215
      vertex 45.5131 13.5 8.68246
      vertex 57.5 13.5 0
    endloop
  endfacet
  facet normal 0 1 0
    outer loop
      vertex 45.5131 13.5 8.68246
      vertex 46.0478 13.5 9.81875
      vertex 57.5 13.5 0
    endloop
  endfacet
  facet normal 0 1 0
    outer loop
      vertex 46.0478 13.5 9.81875
      vertex 46.4358 13.5 11.0131
      vertex 57.5 13.5 0
    endloop
  endfacet
  facet normal 0 1 0
    outer loop
      vertex 46.4358 13.5 11.0131
      vertex 46.6711 13.5 12.2467
      vertex 57.5 13.5 0
    endloop
  endfacet
  facet normal 0 1 0
    outer loop
      vertex 46.6711 13.5 12.2467
      vertex 46.7185 13.5 13
      vertex 57.5 13.5 0
    endloop
  endfacet
  facet normal 0 1 0
    outer loop
      vertex 57.5 13.5 0
      vertex 46.7185 13.5 13
      vertex 54 13.5 13
    endloop
  endfacet
  facet normal 0 1 0
    outer loop
      vertex 57.5 13.5 0
      vertex 54 13.5 13
      vertex 54 13.5 51
    endloop
  endfacet
  facet normal 0 1 0
    outer loop
      vertex 57.5 13.5 0
      vertex 54 13.5 51
      vertex 57.5 13.5 51
    endloop
  endfacet
  facet normal -1 0 0
    outer loop
      vertex 38.25 12 1.5
      vertex 38.25 12 3.6299
      vertex 38.25 13.5 3.6299
    endloop
  endfacet
  facet normal -1 0 0
    outer loop
      vertex 38.25 12 1.5
      vertex 38.25 13.5 3.6299
      vertex 38.25 13.5 0
    endloop
  endfacet
  facet normal -1 0 0
    outer loop
      vertex 38.25 12 1.5
      vertex 38.25 13.5 0
      vertex 38.25 10.5 1.5
    endloop
  endfacet
  facet normal -1 0 0
    outer loop
      vertex 38.25 13.5 0
      vertex 38.25 10.5 0
      vertex 38.25 10.5 1.5
    endloop
  endfacet
  facet normal 0 1 0
    outer loop
      vertex 38.25 10.5 1.5
      vertex 38.25 10.5 0
      vertex 19.25 10.5 1.5
    endloop
  endfacet
  facet normal 0 1 0
    outer loop
      vertex 19.25 10.5 1.5
      vertex 38.25 10.5 0
      vertex 19.25 10.5 0
    endloop
  endfacet
  facet normal 1 0 0
    outer loop
      vertex 19.25 12 0
      vertex 19.25 12 1.5
      vertex 19.25 10.5 1.5
    endloop
  endfacet
  facet normal 1 0 0
    outer loop
      vertex 19.25 10.5 0
      vertex 19.25 12 0
      vertex 19.25 10.5 1.5
    endloop
  endfacet
  facet normal 0.5 0.866025 0
    outer loop
      vertex 17.6598 12.9181 3.98944
      vertex 16.6519 13.5 3.50987
      vertex 16.6519 13.5 4.38849
    endloop
  endfacet
  facet normal 0.5 0.866025 0
    outer loop
      vertex 16.6519 13.5 1.5
      vertex 16.6519 13.5 3.50987
      vertex 17.6598 12.9181 3.98944
    endloop
  endfacet
  facet normal 0.5 0.866025 0
    outer loop
      vertex 16.6519 13.5 1.5
      vertex 17.6598 12.9181 3.98944
      vertex 18.8762 12.2158 3.67713
    endloop
  endfacet
  facet normal 0.5 0.866025 0
    outer loop
      vertex 18.8762 12.2158 3.67713
      vertex 19.25 12 3.6299
      vertex 16.6519 13.5 1.5
    endloop
  endfacet
  facet normal 0.5 0.866025 0
    outer loop
      vertex 16.6519 13.5 1.5
      vertex 19.25 12 3.6299
      vertex 19.25 12 1.5
    endloop
  endfacet
  facet normal 0.5 0.866025 0
    outer loop
      vertex 16.6519 13.5 1.5
      vertex 19.25 12 1.5
      vertex 19.25 12 0
    endloop
  endfacet
  facet normal 0.5 0.866025 0
    outer loop
      vertex 16.6519 13.5 1.5
      vertex 19.25 12 0
      vertex -3.26666 25 1.5
    endloop
  endfacet
  facet normal 0.5 0.866025 0
    outer loop
      vertex 19.25 12 0
      vertex -3.26666 25 0
      vertex -3.26666 25 1.5
    endloop
  endfacet
  facet normal 0 0 1
    outer loop
      vertex 0 13.5 1.5
      vertex 16.6519 13.5 1.5
      vertex -3.26666 25 1.5
    endloop
  endfacet
  facet normal 0 0 1
    outer loop
      vertex -6.25 13.5 1.5
      vertex 0 13.5 1.5
      vertex -6.25 25 1.5
    endloop
  endfacet
  facet normal 0 0 1
    outer loop
      vertex -6.25 25 1.5
      vertex 0 13.5 1.5
      vertex -3.26666 25 1.5
    endloop
  endfacet
  facet normal 1 0 0
    outer loop
      vertex -6.25 18.181 8.48972
      vertex -6.25 25 13
      vertex -6.25 13.5 13
    endloop
  endfacet
  facet normal 1 0 0
    outer loop
      vertex -6.25 20.5382 7.72383
      vertex -6.25 20.6168 7.52533
      vertex -6.25 25 1.5
    endloop
  endfacet
  facet normal 1 0 0
    outer loop
      vertex -6.25 13.5 1.5
      vertex -6.25 17.3034 7.10674
      vertex -6.25 13.5 13
    endloop
  endfacet
  facet normal 1 0 0
    outer loop
      vertex -6.25 17.3034 7.10674
      vertex -6.25 17.3301 7.31855
      vertex -6.25 13.5 13
    endloop
  endfacet
  facet normal 1 0 0
    outer loop
      vertex -6.25 17.3301 7.31855
      vertex -6.25 17.3832 7.52533
      vertex -6.25 13.5 13
    endloop
  endfacet
  facet normal 1 0 0
    outer loop
      vertex -6.25 17.3832 7.52533
      vertex -6.25 17.4618 7.72383
      vertex -6.25 13.5 13
    endloop
  endfacet
  facet normal 1 0 0
    outer loop
      vertex -6.25 17.4618 7.72383
      vertex -6.25 17.5646 7.91091
      vertex -6.25 13.5 13
    endloop
  endfacet
  facet normal 1 0 0
    outer loop
      vertex -6.25 19.9992 5.62467
      vertex -6.25 19.819 5.51028
      vertex -6.25 25 1.5
    endloop
  endfacet
  facet normal 1 0 0
    outer loop
      vertex -6.25 17.5646 7.91091
      vertex -6.25 17.6901 8.08362
      vertex -6.25 13.5 13
    endloop
  endfacet
  facet normal 1 0 0
    outer loop
      vertex -6.25 17.6901 8.08362
      vertex -6.25 17.8363 8.23925
      vertex -6.25 13.5 13
    endloop
  endfacet
  facet normal 1 0 0
    outer loop
      vertex -6.25 17.8363 8.23925
      vertex -6.25 18.0008 8.37533
      vertex -6.25 13.5 13
    endloop
  endfacet
  facet normal 1 0 0
    outer loop
      vertex -6.25 18.3742 8.58062
      vertex -6.25 25 13
      vertex -6.25 18.181 8.48972
    endloop
  endfacet
  facet normal 1 0 0
    outer loop
      vertex -6.25 20.4354 6.08909
      vertex -6.25 20.3099 5.91638
      vertex -6.25 25 1.5
    endloop
  endfacet
  facet normal 1 0 0
    outer loop
      vertex -6.25 18.5772 8.64659
      vertex -6.25 25 13
      vertex -6.25 18.3742 8.58062
    endloop
  endfacet
  facet normal 1 0 0
    outer loop
      vertex -6.25 18.7869 8.6866
      vertex -6.25 25 13
      vertex -6.25 18.5772 8.64659
    endloop
  endfacet
  facet normal 1 0 0
    outer loop
      vertex -6.25 19 8.7
      vertex -6.25 25 13
      vertex -6.25 18.7869 8.6866
    endloop
  endfacet
  facet normal 1 0 0
    outer loop
      vertex -6.25 19.2131 8.6866
      vertex -6.25 25 13
      vertex -6.25 19 8.7
    endloop
  endfacet
  facet normal 1 0 0
    outer loop
      vertex -6.25 20.6699 6.68145
      vertex -6.25 20.6168 6.47467
      vertex -6.25 25 1.5
    endloop
  endfacet
  facet normal 1 0 0
    outer loop
      vertex -6.25 19.4228 8.64659
      vertex -6.25 25 13
      vertex -6.25 19.2131 8.6866
    endloop
  endfacet
  facet normal 1 0 0
    outer loop
      vertex -6.25 19.6258 8.58062
      vertex -6.25 25 13
      vertex -6.25 19.4228 8.64659
    endloop
  endfacet
  facet normal 1 0 0
    outer loop
      vertex -6.25 19.819 8.48972
      vertex -6.25 25 13
      vertex -6.25 19.6258 8.58062
    endloop
  endfacet
  facet normal 1 0 0
    outer loop
      vertex -6.25 19.9992 8.37533
      vertex -6.25 25 13
      vertex -6.25 19.819 8.48972
    endloop
  endfacet
  facet normal 1 0 0
    outer loop
      vertex -6.25 20.1637 8.23925
      vertex -6.25 25 13
      vertex -6.25 19.9992 8.37533
    endloop
  endfacet
  facet normal 1 0 0
    outer loop
      vertex -6.25 20.6168 7.52533
      vertex -6.25 20.6699 7.31855
      vertex -6.25 25 1.5
    endloop
  endfacet
  facet normal 1 0 0
    outer loop
      vertex -6.25 20.3099 8.08362
      vertex -6.25 25 13
      vertex -6.25 20.1637 8.23925
    endloop
  endfacet
  facet normal 1 0 0
    outer loop
      vertex -6.25 20.4354 7.91091
      vertex -6.25 25 13
      vertex -6.25 20.3099 8.08362
    endloop
  endfacet
  facet normal 1 0 0
    outer loop
      vertex -6.25 25 1.5
      vertex -6.25 25 13
      vertex -6.25 20.4354 7.91091
    endloop
  endfacet
  facet normal 1 0 0
    outer loop
      vertex -6.25 20.6966 6.89326
      vertex -6.25 20.6699 6.68145
      vertex -6.25 25 1.5
    endloop
  endfacet
  facet normal 1 0 0
    outer loop
      vertex -6.25 20.6699 7.31855
      vertex -6.25 20.6966 7.10674
      vertex -6.25 25 1.5
    endloop
  endfacet
  facet normal 1 0 0
    outer loop
      vertex -6.25 20.6966 7.10674
      vertex -6.25 20.6966 6.89326
      vertex -6.25 25 1.5
    endloop
  endfacet
  facet normal 1 0 0
    outer loop
      vertex -6.25 20.5382 6.27618
      vertex -6.25 20.4354 6.08909
      vertex -6.25 25 1.5
    endloop
  endfacet
  facet normal 1 0 0
    outer loop
      vertex -6.25 20.6168 6.47467
      vertex -6.25 20.5382 6.27618
      vertex -6.25 25 1.5
    endloop
  endfacet
  facet normal 1 0 0
    outer loop
      vertex -6.25 20.3099 5.91638
      vertex -6.25 20.1637 5.76075
      vertex -6.25 25 1.5
    endloop
  endfacet
  facet normal 1 0 0
    outer loop
      vertex -6.25 20.4354 7.91091
      vertex -6.25 20.5382 7.72383
      vertex -6.25 25 1.5
    endloop
  endfacet
  facet normal 1 0 0
    outer loop
      vertex -6.25 20.1637 5.76075
      vertex -6.25 19.9992 5.62467
      vertex -6.25 25 1.5
    endloop
  endfacet
  facet normal 1 0 0
    outer loop
      vertex -6.25 19.819 5.51028
      vertex -6.25 19.6258 5.41938
      vertex -6.25 25 1.5
    endloop
  endfacet
  facet normal 1 0 0
    outer loop
      vertex -6.25 19.6258 5.41938
      vertex -6.25 19.4228 5.35341
      vertex -6.25 25 1.5
    endloop
  endfacet
  facet normal 1 0 0
    outer loop
      vertex -6.25 13.5 1.5
      vertex -6.25 25 1.5
      vertex -6.25 19.4228 5.35341
    endloop
  endfacet
  facet normal 1 0 0
    outer loop
      vertex -6.25 13.5 1.5
      vertex -6.25 19.4228 5.35341
      vertex -6.25 19.2131 5.31341
    endloop
  endfacet
  facet normal 1 0 0
    outer loop
      vertex -6.25 13.5 1.5
      vertex -6.25 19.2131 5.31341
      vertex -6.25 19 5.3
    endloop
  endfacet
  facet normal 1 0 0
    outer loop
      vertex -6.25 13.5 1.5
      vertex -6.25 19 5.3
      vertex -6.25 18.7869 5.31341
    endloop
  endfacet
  facet normal 1 0 0
    outer loop
      vertex -6.25 13.5 1.5
      vertex -6.25 18.7869 5.31341
      vertex -6.25 18.5772 5.35341
    endloop
  endfacet
  facet normal 1 0 0
    outer loop
      vertex -6.25 13.5 1.5
      vertex -6.25 18.5772 5.35341
      vertex -6.25 18.3742 5.41938
    endloop
  endfacet
  facet normal 1 0 0
    outer loop
      vertex -6.25 13.5 1.5
      vertex -6.25 18.3742 5.41938
      vertex -6.25 18.181 5.51028
    endloop
  endfacet
  facet normal 1 0 0
    outer loop
      vertex -6.25 13.5 1.5
      vertex -6.25 18.181 5.51028
      vertex -6.25 18.0008 5.62467
    endloop
  endfacet
  facet normal 1 0 0
    outer loop
      vertex -6.25 13.5 1.5
      vertex -6.25 18.0008 5.62467
      vertex -6.25 17.8363 5.76075
    endloop
  endfacet
  facet normal 1 0 0
    outer loop
      vertex -6.25 13.5 1.5
      vertex -6.25 17.8363 5.76075
      vertex -6.25 17.6901 5.91638
    endloop
  endfacet
  facet normal 1 0 0
    outer loop
      vertex -6.25 13.5 1.5
      vertex -6.25 17.6901 5.91638
      vertex -6.25 17.5646 6.08909
    endloop
  endfacet
  facet normal 1 0 0
    outer loop
      vertex -6.25 13.5 1.5
      vertex -6.25 17.5646 6.08909
      vertex -6.25 17.4618 6.27618
    endloop
  endfacet
  facet normal 1 0 0
    outer loop
      vertex -6.25 13.5 1.5
      vertex -6.25 17.4618 6.27618
      vertex -6.25 17.3832 6.47467
    endloop
  endfacet
  facet normal 1 0 0
    outer loop
      vertex -6.25 13.5 1.5
      vertex -6.25 17.3832 6.47467
      vertex -6.25 17.3301 6.68145
    endloop
  endfacet
  facet normal 1 0 0
    outer loop
      vertex -6.25 13.5 1.5
      vertex -6.25 17.3034 6.89326
      vertex -6.25 17.3034 7.10674
    endloop
  endfacet
  facet normal 1 0 0
    outer loop
      vertex -6.25 13.5 1.5
      vertex -6.25 17.3301 6.68145
      vertex -6.25 17.3034 6.89326
    endloop
  endfacet
  facet normal 1 0 0
    outer loop
      vertex -6.25 18.0008 8.37533
      vertex -6.25 18.181 8.48972
      vertex -6.25 13.5 13
    endloop
  endfacet
  facet normal 0 1 0
    outer loop
      vertex -6.25 13.5 1.5
      vertex -6.25 13.5 13
      vertex 0 13.5 1.5
    endloop
  endfacet
  facet normal 0 1 0
    outer loop
      vertex 0 13.5 1.5
      vertex -6.25 13.5 13
      vertex 0 13.5 13
    endloop
  endfacet
  facet normal 0 1 0
    outer loop
      vertex 8.18605 13.5 3.50987
      vertex 16.6519 13.5 1.5
      vertex 7.56309 13.5 3.58856
    endloop
  endfacet
  facet normal 0 1 0
    outer loop
      vertex 3.5 13.5 13
      vertex 0 13.5 13
      vertex 0 13.5 51
    endloop
  endfacet
  facet normal 0 1 0
    outer loop
      vertex 3.5 13.5 8.5
      vertex 0 13.5 13
      vertex 3.5 13.5 13
    endloop
  endfacet
  facet normal 0 1 0
    outer loop
      vertex 0 13.5 1.5
      vertex 0 13.5 13
      vertex 3.5 13.5 8.5
    endloop
  endfacet
  facet normal 0 1 0
    outer loop
      vertex 0 13.5 1.5
      vertex 3.5 13.5 8.5
      vertex 3.53943 13.5 7.87333
    endloop
  endfacet
  facet normal 0 1 0
    outer loop
      vertex 0 13.5 1.5
      vertex 3.53943 13.5 7.87333
      vertex 3.65708 13.5 7.25655
    endloop
  endfacet
  facet normal 0 1 0
    outer loop
      vertex 0 13.5 1.5
      vertex 3.65708 13.5 7.25655
      vertex 3.85112 13.5 6.65938
    endloop
  endfacet
  facet normal 0 1 0
    outer loop
      vertex 0 13.5 1.5
      vertex 3.85112 13.5 6.65938
      vertex 4.11847 13.5 6.09123
    endloop
  endfacet
  facet normal 0 1 0
    outer loop
      vertex 0 13.5 1.5
      vertex 4.11847 13.5 6.09123
      vertex 4.45492 13.5 5.56107
    endloop
  endfacet
  facet normal 0 1 0
    outer loop
      vertex 0 13.5 1.5
      vertex 4.45492 13.5 5.56107
      vertex 4.85516 13.5 5.07726
    endloop
  endfacet
  facet normal 0 1 0
    outer loop
      vertex 0 13.5 1.5
      vertex 4.85516 13.5 5.07726
      vertex 5.31288 13.5 4.64743
    endloop
  endfacet
  facet normal 0 1 0
    outer loop
      vertex 0 13.5 1.5
      vertex 5.31288 13.5 4.64743
      vertex 5.82087 13.5 4.27836
    endloop
  endfacet
  facet normal 0 1 0
    outer loop
      vertex 0 13.5 1.5
      vertex 5.82087 13.5 4.27836
      vertex 6.3711 13.5 3.97586
    endloop
  endfacet
  facet normal 0 1 0
    outer loop
      vertex 0 13.5 1.5
      vertex 6.3711 13.5 3.97586
      vertex 6.95491 13.5 3.74472
    endloop
  endfacet
  facet normal 0 1 0
    outer loop
      vertex 0 13.5 1.5
      vertex 6.95491 13.5 3.74472
      vertex 7.56309 13.5 3.58856
    endloop
  endfacet
  facet normal 0 1 0
    outer loop
      vertex 0 13.5 1.5
      vertex 7.56309 13.5 3.58856
      vertex 16.6519 13.5 1.5
    endloop
  endfacet
  facet normal 0 1 0
    outer loop
      vertex 16.6519 13.5 3.50987
      vertex 16.6519 13.5 1.5
      vertex 8.18605 13.5 3.50987
    endloop
  endfacet
  facet normal 0 1 0
    outer loop
      vertex 3.5 13.5 13
      vertex 0 13.5 51
      vertex 3.5 13.5 51
    endloop
  endfacet
  facet normal 0 0 1
    outer loop
      vertex 0 13.5 51
      vertex 0 0 51
      vertex 3.5 0 51
    endloop
  endfacet
  facet normal 0 0 1
    outer loop
      vertex 3.5 13.5 51
      vertex 0 13.5 51
      vertex 3.5 0 51
    endloop
  endfacet
  facet normal 1 0 0
    outer loop
      vertex 3.5 13.5 51
      vertex 3.5 1.5 49.5
      vertex 3.5 12 49.5
    endloop
  endfacet
  facet normal 1 0 0
    outer loop
      vertex 3.5 12 13
      vertex 3.5 13.5 13
      vertex 3.5 12 49.5
    endloop
  endfacet
  facet normal 1 0 0
    outer loop
      vertex 3.5 1.5 8.5
      vertex 3.5 1.5 49.5
      vertex 3.5 0 51
    endloop
  endfacet
  facet normal 1 0 0
    outer loop
      vertex 3.5 13.5 13
      vertex 3.5 13.5 51
      vertex 3.5 12 49.5
    endloop
  endfacet
  facet normal 1 0 0
    outer loop
      vertex 3.5 13.5 51
      vertex 3.5 0 51
      vertex 3.5 1.5 49.5
    endloop
  endfacet
  facet normal 1 0 0
    outer loop
      vertex 3.5 0 51
      vertex 3.5 0 8.5
      vertex 3.5 1.5 8.5
    endloop
  endfacet
  facet normal 0.998027 1.39421e-017 0.0627898
    outer loop
      vertex 3.53943 0 7.87333
      vertex 3.53943 1.5 7.87333
      vertex 3.5 1.5 8.5
    endloop
  endfacet
  facet normal 0.998027 1.39421e-017 0.0627898
    outer loop
      vertex 3.5 0 8.5
      vertex 3.53943 0 7.87333
      vertex 3.5 1.5 8.5
    endloop
  endfacet
  facet normal 0.982287 4.16071e-017 0.187382
    outer loop
      vertex 3.65708 0 7.25655
      vertex 3.65708 1.5 7.25655
      vertex 3.53943 1.5 7.87333
    endloop
  endfacet
  facet normal 0.982287 4.16071e-017 0.187382
    outer loop
      vertex 3.53943 0 7.87333
      vertex 3.65708 0 7.25655
      vertex 3.53943 1.5 7.87333
    endloop
  endfacet
  facet normal 0.951056 6.86157e-017 0.309018
    outer loop
      vertex 3.85112 0 6.65938
      vertex 3.85112 1.5 6.65938
      vertex 3.65708 1.5 7.25655
    endloop
  endfacet
  facet normal 0.951056 6.86157e-017 0.309018
    outer loop
      vertex 3.65708 0 7.25655
      vertex 3.85112 0 6.65938
      vertex 3.65708 1.5 7.25655
    endloop
  endfacet
  facet normal 0.904827 9.45421e-017 0.42578
    outer loop
      vertex 4.11847 0 6.09123
      vertex 4.11847 1.5 6.09123
      vertex 3.85112 1.5 6.65938
    endloop
  endfacet
  facet normal 0.904827 9.45421e-017 0.42578
    outer loop
      vertex 3.85112 0 6.65938
      vertex 4.11847 0 6.09123
      vertex 3.85112 1.5 6.65938
    endloop
  endfacet
  facet normal 0.844328 1.18977e-016 0.535826
    outer loop
      vertex 4.45492 0 5.56107
      vertex 4.45492 1.5 5.56107
      vertex 4.11847 1.5 6.09123
    endloop
  endfacet
  facet normal 0.844328 1.18977e-016 0.535826
    outer loop
      vertex 4.11847 0 6.09123
      vertex 4.45492 0 5.56107
      vertex 4.11847 1.5 6.09123
    endloop
  endfacet
  facet normal 0.770514 1.41536e-016 0.637424
    outer loop
      vertex 4.85516 0 5.07726
      vertex 4.85516 1.5 5.07726
      vertex 4.45492 1.5 5.56107
    endloop
  endfacet
  facet normal 0.770514 1.41536e-016 0.637424
    outer loop
      vertex 4.45492 0 5.56107
      vertex 4.85516 0 5.07726
      vertex 4.45492 1.5 5.56107
    endloop
  endfacet
  facet normal 0.684547 1.61864e-016 0.728969
    outer loop
      vertex 5.31288 0 4.64743
      vertex 5.31288 1.5 4.64743
      vertex 4.85516 1.5 5.07726
    endloop
  endfacet
  facet normal 0.684547 1.61864e-016 0.728969
    outer loop
      vertex 4.85516 0 5.07726
      vertex 5.31288 0 4.64743
      vertex 4.85516 1.5 5.07726
    endloop
  endfacet
  facet normal 0.587786 1.79638e-016 0.809017
    outer loop
      vertex 5.82087 0 4.27836
      vertex 5.82087 1.5 4.27836
      vertex 5.31288 1.5 4.64743
    endloop
  endfacet
  facet normal 0.587786 1.79638e-016 0.809017
    outer loop
      vertex 5.31288 0 4.64743
      vertex 5.82087 0 4.27836
      vertex 5.31288 1.5 4.64743
    endloop
  endfacet
  facet normal 0.481753 1.94579e-016 0.876307
    outer loop
      vertex 6.3711 0 3.97587
      vertex 6.3711 1.5 3.97587
      vertex 5.82087 1.5 4.27836
    endloop
  endfacet
  facet normal 0.481753 1.94579e-016 0.876307
    outer loop
      vertex 5.82087 0 4.27836
      vertex 6.3711 0 3.97587
      vertex 5.82087 1.5 4.27836
    endloop
  endfacet
  facet normal 0.368126 2.06452e-016 0.929776
    outer loop
      vertex 6.95491 0 3.74472
      vertex 6.95491 1.5 3.74472
      vertex 6.3711 1.5 3.97587
    endloop
  endfacet
  facet normal 0.368126 2.06452e-016 0.929776
    outer loop
      vertex 6.3711 0 3.97587
      vertex 6.95491 0 3.74472
      vertex 6.3711 1.5 3.97587
    endloop
  endfacet
  facet normal 0.248689 2.15069e-016 0.968583
    outer loop
      vertex 7.56309 0 3.58856
      vertex 7.56309 1.5 3.58856
      vertex 6.95491 1.5 3.74472
    endloop
  endfacet
  facet normal 0.248689 2.15069e-016 0.968583
    outer loop
      vertex 6.95491 0 3.74472
      vertex 7.56309 0 3.58856
      vertex 6.95491 1.5 3.74472
    endloop
  endfacet
  facet normal 0.125334 2.20294e-016 0.992115
    outer loop
      vertex 8.18605 0 3.50987
      vertex 8.18605 1.5 3.50987
      vertex 7.56309 1.5 3.58856
    endloop
  endfacet
  facet normal 0.125334 2.20294e-016 0.992115
    outer loop
      vertex 7.56309 0 3.58856
      vertex 8.18605 0 3.50987
      vertex 7.56309 1.5 3.58856
    endloop
  endfacet
  facet normal 0 2.22045e-016 1
    outer loop
      vertex 49.314 0 3.50987
      vertex 49.314 1.5 3.50987
      vertex 8.18605 1.5 3.50987
    endloop
  endfacet
  facet normal 0 2.22045e-016 1
    outer loop
      vertex 8.18605 0 3.50987
      vertex 49.314 0 3.50987
      vertex 8.18605 1.5 3.50987
    endloop
  endfacet
  facet normal -0.125334 2.20294e-016 0.992115
    outer loop
      vertex 49.9369 0 3.58856
      vertex 49.9369 1.5 3.58856
      vertex 49.314 1.5 3.50987
    endloop
  endfacet
  facet normal -0.125334 2.20294e-016 0.992115
    outer loop
      vertex 49.314 0 3.50987
      vertex 49.9369 0 3.58856
      vertex 49.314 1.5 3.50987
    endloop
  endfacet
  facet normal -0.248689 2.15069e-016 0.968583
    outer loop
      vertex 50.5451 0 3.74472
      vertex 50.5451 1.5 3.74472
      vertex 49.9369 1.5 3.58856
    endloop
  endfacet
  facet normal -0.248689 2.15069e-016 0.968583
    outer loop
      vertex 49.9369 0 3.58856
      vertex 50.5451 0 3.74472
      vertex 49.9369 1.5 3.58856
    endloop
  endfacet
  facet normal -0.368126 2.06452e-016 0.929776
    outer loop
      vertex 51.1289 0 3.97587
      vertex 51.1289 1.5 3.97587
      vertex 50.5451 1.5 3.74472
    endloop
  endfacet
  facet normal -0.368126 2.06452e-016 0.929776
    outer loop
      vertex 50.5451 0 3.74472
      vertex 51.1289 0 3.97587
      vertex 50.5451 1.5 3.74472
    endloop
  endfacet
  facet normal -0.481753 1.94579e-016 0.876307
    outer loop
      vertex 51.6791 0 4.27836
      vertex 51.6791 1.5 4.27836
      vertex 51.1289 1.5 3.97587
    endloop
  endfacet
  facet normal -0.481753 1.94579e-016 0.876307
    outer loop
      vertex 51.1289 0 3.97587
      vertex 51.6791 0 4.27836
      vertex 51.1289 1.5 3.97587
    endloop
  endfacet
  facet normal -0.587786 1.79638e-016 0.809017
    outer loop
      vertex 52.1871 0 4.64743
      vertex 52.1871 1.5 4.64743
      vertex 51.6791 1.5 4.27836
    endloop
  endfacet
  facet normal -0.587786 1.79638e-016 0.809017
    outer loop
      vertex 51.6791 0 4.27836
      vertex 52.1871 0 4.64743
      vertex 51.6791 1.5 4.27836
    endloop
  endfacet
  facet normal -0.684547 1.61864e-016 0.728969
    outer loop
      vertex 52.6448 0 5.07726
      vertex 52.6448 1.5 5.07726
      vertex 52.1871 1.5 4.64743
    endloop
  endfacet
  facet normal -0.684547 1.61864e-016 0.728969
    outer loop
      vertex 52.1871 0 4.64743
      vertex 52.6448 0 5.07726
      vertex 52.1871 1.5 4.64743
    endloop
  endfacet
  facet normal -0.770514 1.41536e-016 0.637424
    outer loop
      vertex 53.0451 1.5 5.56107
      vertex 52.6448 1.5 5.07726
      vertex 53.0451 0 5.56107
    endloop
  endfacet
  facet normal -0.770514 1.41536e-016 0.637424
    outer loop
      vertex 53.0451 0 5.56107
      vertex 52.6448 1.5 5.07726
      vertex 52.6448 0 5.07726
    endloop
  endfacet
  facet normal -0.844328 1.18977e-016 0.535826
    outer loop
      vertex 53.3815 1.5 6.09123
      vertex 53.0451 1.5 5.56107
      vertex 53.3815 0 6.09123
    endloop
  endfacet
  facet normal -0.844328 1.18977e-016 0.535826
    outer loop
      vertex 53.3815 0 6.09123
      vertex 53.0451 1.5 5.56107
      vertex 53.0451 0 5.56107
    endloop
  endfacet
  facet normal -0.904827 9.45421e-017 0.42578
    outer loop
      vertex 53.6489 1.5 6.65938
      vertex 53.3815 1.5 6.09123
      vertex 53.6489 0 6.65938
    endloop
  endfacet
  facet normal -0.904827 9.45421e-017 0.42578
    outer loop
      vertex 53.6489 0 6.65938
      vertex 53.3815 1.5 6.09123
      vertex 53.3815 0 6.09123
    endloop
  endfacet
  facet normal -0.951056 6.86157e-017 0.309018
    outer loop
      vertex 53.8429 1.5 7.25655
      vertex 53.6489 1.5 6.65938
      vertex 53.8429 0 7.25655
    endloop
  endfacet
  facet normal -0.951056 6.86157e-017 0.309018
    outer loop
      vertex 53.8429 0 7.25655
      vertex 53.6489 1.5 6.65938
      vertex 53.6489 0 6.65938
    endloop
  endfacet
  facet normal -0.982287 4.16071e-017 0.187382
    outer loop
      vertex 53.9606 1.5 7.87333
      vertex 53.8429 1.5 7.25655
      vertex 53.9606 0 7.87333
    endloop
  endfacet
  facet normal -0.982287 4.16071e-017 0.187382
    outer loop
      vertex 53.9606 0 7.87333
      vertex 53.8429 1.5 7.25655
      vertex 53.8429 0 7.25655
    endloop
  endfacet
  facet normal -0.998027 1.39421e-017 0.0627898
    outer loop
      vertex 54 1.5 8.5
      vertex 53.9606 1.5 7.87333
      vertex 54 0 8.5
    endloop
  endfacet
  facet normal -0.998027 1.39421e-017 0.0627898
    outer loop
      vertex 54 0 8.5
      vertex 53.9606 1.5 7.87333
      vertex 53.9606 0 7.87333
    endloop
  endfacet
  facet normal -1 0 0
    outer loop
      vertex 54 13.5 51
      vertex 54 13.5 13
      vertex 54 12 49.5
    endloop
  endfacet
  facet normal -1 0 0
    outer loop
      vertex 54 13.5 51
      vertex 54 12 49.5
      vertex 54 0 51
    endloop
  endfacet
  facet normal -1 0 0
    outer loop
      vertex 54 1.5 8.5
      vertex 54 0 51
      vertex 54 1.5 49.5
    endloop
  endfacet
  facet normal -1 0 0
    outer loop
      vertex 54 12 49.5
      vertex 54 1.5 49.5
      vertex 54 0 51
    endloop
  endfacet
  facet normal -1 0 0
    outer loop
      vertex 54 0 51
      vertex 54 1.5 8.5
      vertex 54 0 8.5
    endloop
  endfacet
  facet normal -1 0 0
    outer loop
      vertex 54 12 49.5
      vertex 54 13.5 13
      vertex 54 12 13
    endloop
  endfacet
  facet normal 0 0 1
    outer loop
      vertex 54 13.5 51
      vertex 54 0 51
      vertex 57.5 0 51
    endloop
  endfacet
  facet normal 0 0 1
    outer loop
      vertex 57.5 13.5 51
      vertex 54 13.5 51
      vertex 57.5 10.5 51
    endloop
  endfacet
  facet normal 0 0 1
    outer loop
      vertex 57.5 10.5 51
      vertex 54 13.5 51
      vertex 57.5 0 51
    endloop
  endfacet
  facet normal 0 0 1
    outer loop
      vertex 46.7185 13.5 13
      vertex 46.7185 12 13
      vertex 54 12 13
    endloop
  endfacet
  facet normal 0 0 1
    outer loop
      vertex 54 13.5 13
      vertex 46.7185 13.5 13
      vertex 54 12 13
    endloop
  endfacet
  facet normal -0.998027 1.39423e-017 0.0627905
    outer loop
      vertex 46.7185 13.5 13
      vertex 46.6711 13.5 12.2467
      vertex 46.7185 12 13
    endloop
  endfacet
  facet normal -0.998027 1.39423e-017 0.0627905
    outer loop
      vertex 46.7185 12 13
      vertex 46.6711 13.5 12.2467
      vertex 46.6711 12 12.2467
    endloop
  endfacet
  facet normal -0.982287 4.16069e-017 0.187381
    outer loop
      vertex 46.6711 13.5 12.2467
      vertex 46.4358 13.5 11.0131
      vertex 46.6711 12 12.2467
    endloop
  endfacet
  facet normal -0.982287 4.16069e-017 0.187381
    outer loop
      vertex 46.6711 12 12.2467
      vertex 46.4358 13.5 11.0131
      vertex 46.4358 12 11.0131
    endloop
  endfacet
  facet normal -0.951056 6.86156e-017 0.309017
    outer loop
      vertex 46.4358 13.5 11.0131
      vertex 46.0478 13.5 9.81875
      vertex 46.4358 12 11.0131
    endloop
  endfacet
  facet normal -0.951056 6.86156e-017 0.309017
    outer loop
      vertex 46.4358 12 11.0131
      vertex 46.0478 13.5 9.81875
      vertex 46.0478 12 9.81875
    endloop
  endfacet
  facet normal -0.904827 9.4542e-017 0.425779
    outer loop
      vertex 46.0478 13.5 9.81875
      vertex 45.5131 13.5 8.68246
      vertex 46.0478 12 9.81875
    endloop
  endfacet
  facet normal -0.904827 9.4542e-017 0.425779
    outer loop
      vertex 46.0478 12 9.81875
      vertex 45.5131 13.5 8.68246
      vertex 45.5131 12 8.68246
    endloop
  endfacet
  facet normal -0.844328 1.18977e-016 0.535827
    outer loop
      vertex 45.5131 13.5 8.68246
      vertex 44.8402 13.5 7.62215
      vertex 45.5131 12 8.68246
    endloop
  endfacet
  facet normal -0.844328 1.18977e-016 0.535827
    outer loop
      vertex 45.5131 12 8.68246
      vertex 44.8402 13.5 7.62215
      vertex 44.8402 12 7.62215
    endloop
  endfacet
  facet normal -0.770513 1.41537e-016 0.637424
    outer loop
      vertex 44.8402 13.5 7.62215
      vertex 44.0397 13.5 6.65453
      vertex 44.8402 12 7.62215
    endloop
  endfacet
  facet normal -0.770513 1.41537e-016 0.637424
    outer loop
      vertex 44.8402 12 7.62215
      vertex 44.0397 13.5 6.65453
      vertex 44.0397 12 6.65453
    endloop
  endfacet
  facet normal -0.684547 1.61864e-016 0.728969
    outer loop
      vertex 44.0397 12 6.65453
      vertex 44.0397 13.5 6.65453
      vertex 43.1242 13.5 5.79487
    endloop
  endfacet
  facet normal -0.684547 1.61864e-016 0.728969
    outer loop
      vertex 43.1242 12 5.79487
      vertex 44.0397 12 6.65453
      vertex 43.1242 13.5 5.79487
    endloop
  endfacet
  facet normal -0.587785 1.79638e-016 0.809017
    outer loop
      vertex 43.1242 12 5.79487
      vertex 43.1242 13.5 5.79487
      vertex 42.1083 13.5 5.05672
    endloop
  endfacet
  facet normal -0.587785 1.79638e-016 0.809017
    outer loop
      vertex 42.1083 12 5.05672
      vertex 43.1242 12 5.79487
      vertex 42.1083 13.5 5.05672
    endloop
  endfacet
  facet normal -0.481754 1.94579e-016 0.876306
    outer loop
      vertex 42.1083 12 5.05672
      vertex 42.1083 13.5 5.05672
      vertex 41.0078 13.5 4.45173
    endloop
  endfacet
  facet normal -0.481754 1.94579e-016 0.876306
    outer loop
      vertex 41.0078 12 4.45173
      vertex 42.1083 12 5.05672
      vertex 41.0078 13.5 4.45173
    endloop
  endfacet
  facet normal -0.368124 2.06452e-016 0.929777
    outer loop
      vertex 41.0078 12 4.45173
      vertex 41.0078 13.5 4.45173
      vertex 39.8402 13.5 3.98944
    endloop
  endfacet
  facet normal -0.368124 2.06452e-016 0.929777
    outer loop
      vertex 39.8402 12 3.98944
      vertex 41.0078 12 4.45173
      vertex 39.8402 13.5 3.98944
    endloop
  endfacet
  facet normal -0.24869 2.15069e-016 0.968583
    outer loop
      vertex 39.8402 12 3.98944
      vertex 39.8402 13.5 3.98944
      vertex 38.6238 13.5 3.67713
    endloop
  endfacet
  facet normal -0.24869 2.15069e-016 0.968583
    outer loop
      vertex 38.6238 12 3.67713
      vertex 39.8402 12 3.98944
      vertex 38.6238 13.5 3.67713
    endloop
  endfacet
  facet normal -0.125333 2.20294e-016 0.992115
    outer loop
      vertex 38.6238 12 3.67713
      vertex 38.6238 13.5 3.67713
      vertex 38.25 13.5 3.6299
    endloop
  endfacet
  facet normal -0.125333 2.20294e-016 0.992115
    outer loop
      vertex 38.25 12 3.6299
      vertex 38.6238 12 3.67713
      vertex 38.25 13.5 3.6299
    endloop
  endfacet
  facet normal 0 0 1
    outer loop
      vertex 56 1.5 1.5
      vertex 56 12 1.5
      vertex 38.25 12 1.5
    endloop
  endfacet
  facet normal 0 0 1
    outer loop
      vertex 19.25 10.5 1.5
      vertex 56 1.5 1.5
      vertex 38.25 10.5 1.5
    endloop
  endfacet
  facet normal 0 0 1
    outer loop
      vertex 38.25 10.5 1.5
      vertex 56 1.5 1.5
      vertex 38.25 12 1.5
    endloop
  endfacet
  facet normal 0 0 1
    outer loop
      vertex 1.5 12 1.5
      vertex 56 1.5 1.5
      vertex 19.25 10.5 1.5
    endloop
  endfacet
  facet normal 0 0 1
    outer loop
      vertex 1.5 12 1.5
      vertex 19.25 10.5 1.5
      vertex 19.25 12 1.5
    endloop
  endfacet
  facet normal 0 0 1
    outer loop
      vertex 1.5 1.5 1.5
      vertex 56 1.5 1.5
      vertex 1.5 12 1.5
    endloop
  endfacet
  facet normal 0 -1 0
    outer loop
      vertex 56 12 1.5
      vertex 56 12 13
      vertex 54 12 13
    endloop
  endfacet
  facet normal 0 -1 0
    outer loop
      vertex 46.6711 12 12.2467
      vertex 56 12 1.5
      vertex 46.7185 12 13
    endloop
  endfacet
  facet normal 0 -1 0
    outer loop
      vertex 46.7185 12 13
      vertex 56 12 1.5
      vertex 54 12 13
    endloop
  endfacet
  facet normal 0 -1 0
    outer loop
      vertex 46.4358 12 11.0131
      vertex 56 12 1.5
      vertex 46.6711 12 12.2467
    endloop
  endfacet
  facet normal 0 -1 0
    outer loop
      vertex 46.0478 12 9.81875
      vertex 56 12 1.5
      vertex 46.4358 12 11.0131
    endloop
  endfacet
  facet normal 0 -1 0
    outer loop
      vertex 45.5131 12 8.68246
      vertex 56 12 1.5
      vertex 46.0478 12 9.81875
    endloop
  endfacet
  facet normal 0 -1 0
    outer loop
      vertex 44.8402 12 7.62215
      vertex 56 12 1.5
      vertex 45.5131 12 8.68246
    endloop
  endfacet
  facet normal 0 -1 0
    outer loop
      vertex 44.0397 12 6.65453
      vertex 56 12 1.5
      vertex 44.8402 12 7.62215
    endloop
  endfacet
  facet normal 0 -1 0
    outer loop
      vertex 43.1242 12 5.79487
      vertex 56 12 1.5
      vertex 44.0397 12 6.65453
    endloop
  endfacet
  facet normal 0 -1 0
    outer loop
      vertex 42.1083 12 5.05672
      vertex 56 12 1.5
      vertex 43.1242 12 5.79487
    endloop
  endfacet
  facet normal 0 -1 0
    outer loop
      vertex 41.0078 12 4.45173
      vertex 56 12 1.5
      vertex 42.1083 12 5.05672
    endloop
  endfacet
  facet normal 0 -1 0
    outer loop
      vertex 39.8402 12 3.98944
      vertex 56 12 1.5
      vertex 41.0078 12 4.45173
    endloop
  endfacet
  facet normal 0 -1 0
    outer loop
      vertex 38.6238 12 3.67713
      vertex 56 12 1.5
      vertex 39.8402 12 3.98944
    endloop
  endfacet
  facet normal 0 -1 0
    outer loop
      vertex 38.25 12 3.6299
      vertex 56 12 1.5
      vertex 38.6238 12 3.67713
    endloop
  endfacet
  facet normal 0 -1 0
    outer loop
      vertex 38.25 12 1.5
      vertex 56 12 1.5
      vertex 38.25 12 3.6299
    endloop
  endfacet
  facet normal 0 -1 0
    outer loop
      vertex 16.4922 12 4.45173
      vertex 15.3917 12 5.05672
      vertex 19.25 12 1.5
    endloop
  endfacet
  facet normal 0 -1 0
    outer loop
      vertex 19.25 12 1.5
      vertex 19.25 12 3.6299
      vertex 18.8762 12 3.67713
    endloop
  endfacet
  facet normal 0 -1 0
    outer loop
      vertex 15.3917 12 5.05672
      vertex 14.3758 12 5.79487
      vertex 19.25 12 1.5
    endloop
  endfacet
  facet normal 0 -1 0
    outer loop
      vertex 17.6598 12 3.98944
      vertex 19.25 12 1.5
      vertex 18.8762 12 3.67713
    endloop
  endfacet
  facet normal 0 -1 0
    outer loop
      vertex 17.6598 12 3.98944
      vertex 16.4922 12 4.45173
      vertex 19.25 12 1.5
    endloop
  endfacet
  facet normal 0 -1 0
    outer loop
      vertex 14.3758 12 5.79487
      vertex 3.5 12 13
      vertex 19.25 12 1.5
    endloop
  endfacet
  facet normal 0 -1 0
    outer loop
      vertex 13.4603 12 6.65453
      vertex 3.5 12 13
      vertex 14.3758 12 5.79487
    endloop
  endfacet
  facet normal 0 -1 0
    outer loop
      vertex 12.6598 12 7.62215
      vertex 3.5 12 13
      vertex 13.4603 12 6.65453
    endloop
  endfacet
  facet normal 0 -1 0
    outer loop
      vertex 11.9869 12 8.68246
      vertex 3.5 12 13
      vertex 12.6598 12 7.62215
    endloop
  endfacet
  facet normal 0 -1 0
    outer loop
      vertex 11.4522 12 9.81875
      vertex 3.5 12 13
      vertex 11.9869 12 8.68246
    endloop
  endfacet
  facet normal 0 -1 0
    outer loop
      vertex 11.0642 12 11.0131
      vertex 3.5 12 13
      vertex 11.4522 12 9.81875
    endloop
  endfacet
  facet normal 0 -1 0
    outer loop
      vertex 10.8289 12 12.2467
      vertex 3.5 12 13
      vertex 11.0642 12 11.0131
    endloop
  endfacet
  facet normal 0 -1 0
    outer loop
      vertex 10.7815 12 13
      vertex 3.5 12 13
      vertex 10.8289 12 12.2467
    endloop
  endfacet
  facet normal 0 -1 0
    outer loop
      vertex 3.5 12 13
      vertex 1.5 12 13
      vertex 19.25 12 1.5
    endloop
  endfacet
  facet normal 0 -1 0
    outer loop
      vertex 1.5 12 13
      vertex 1.5 12 1.5
      vertex 19.25 12 1.5
    endloop
  endfacet
  facet normal 0.125333 2.20294e-016 0.992115
    outer loop
      vertex 19.25 12 3.6299
      vertex 18.8762 12.2158 3.67713
      vertex 18.8762 12 3.67713
    endloop
  endfacet
  facet normal 0.24869 2.15069e-016 0.968583
    outer loop
      vertex 18.8762 12 3.67713
      vertex 18.8762 12.2158 3.67713
      vertex 17.6598 12.9181 3.98944
    endloop
  endfacet
  facet normal 0.24869 2.15069e-016 0.968583
    outer loop
      vertex 17.6598 12 3.98944
      vertex 18.8762 12 3.67713
      vertex 17.6598 12.9181 3.98944
    endloop
  endfacet
  facet normal 0.368124 2.06452e-016 0.929777
    outer loop
      vertex 17.6598 12 3.98944
      vertex 17.6598 12.9181 3.98944
      vertex 16.6519 13.5 4.38849
    endloop
  endfacet
  facet normal 0.368124 2.06452e-016 0.929777
    outer loop
      vertex 16.4922 12 4.45173
      vertex 17.6598 12 3.98944
      vertex 16.4922 13.5 4.45173
    endloop
  endfacet
  facet normal 0.368124 2.06452e-016 0.929777
    outer loop
      vertex 16.4922 13.5 4.45173
      vertex 17.6598 12 3.98944
      vertex 16.6519 13.5 4.38849
    endloop
  endfacet
  facet normal 0 1 0
    outer loop
      vertex 3.5 13.5 8.5
      vertex 3.5 13.5 13
      vertex 3.53943 13.5 7.87333
    endloop
  endfacet
  facet normal 0 1 0
    outer loop
      vertex 3.53943 13.5 7.87333
      vertex 3.5 13.5 13
      vertex 10.7815 13.5 13
    endloop
  endfacet
  facet normal 0 1 0
    outer loop
      vertex 3.53943 13.5 7.87333
      vertex 10.7815 13.5 13
      vertex 10.8289 13.5 12.2467
    endloop
  endfacet
  facet normal 0 1 0
    outer loop
      vertex 3.53943 13.5 7.87333
      vertex 10.8289 13.5 12.2467
      vertex 11.0642 13.5 11.0131
    endloop
  endfacet
  facet normal 0 1 0
    outer loop
      vertex 11.0642 13.5 11.0131
      vertex 11.4522 13.5 9.81875
      vertex 3.53943 13.5 7.87333
    endloop
  endfacet
  facet normal 0 1 0
    outer loop
      vertex 11.4522 13.5 9.81875
      vertex 11.9869 13.5 8.68246
      vertex 3.53943 13.5 7.87333
    endloop
  endfacet
  facet normal 0 1 0
    outer loop
      vertex 11.9869 13.5 8.68246
      vertex 12.6598 13.5 7.62215
      vertex 3.53943 13.5 7.87333
    endloop
  endfacet
  facet normal 0 1 0
    outer loop
      vertex 12.6598 13.5 7.62215
      vertex 13.4603 13.5 6.65453
      vertex 3.53943 13.5 7.87333
    endloop
  endfacet
  facet normal 0 1 0
    outer loop
      vertex 13.4603 13.5 6.65453
      vertex 14.3758 13.5 5.79487
      vertex 3.53943 13.5 7.87333
    endloop
  endfacet
  facet normal 0 1 0
    outer loop
      vertex 14.3758 13.5 5.79487
      vertex 15.3917 13.5 5.05672
      vertex 3.53943 13.5 7.87333
    endloop
  endfacet
  facet normal 0 1 0
    outer loop
      vertex 15.3917 13.5 5.05672
      vertex 16.4922 13.5 4.45173
      vertex 3.53943 13.5 7.87333
    endloop
  endfacet
  facet normal 0 1 0
    outer loop
      vertex 16.4922 13.5 4.45173
      vertex 16.6519 13.5 4.38849
      vertex 3.53943 13.5 7.87333
    endloop
  endfacet
  facet normal 0 1 0
    outer loop
      vertex 3.53943 13.5 7.87333
      vertex 16.6519 13.5 4.38849
      vertex 16.6519 13.5 3.50987
    endloop
  endfacet
  facet normal 0 1 0
    outer loop
      vertex 3.53943 13.5 7.87333
      vertex 16.6519 13.5 3.50987
      vertex 8.18605 13.5 3.50987
    endloop
  endfacet
  facet normal 0 1 0
    outer loop
      vertex 3.53943 13.5 7.87333
      vertex 8.18605 13.5 3.50987
      vertex 7.56309 13.5 3.58856
    endloop
  endfacet
  facet normal 0 1 0
    outer loop
      vertex 3.53943 13.5 7.87333
      vertex 7.56309 13.5 3.58856
      vertex 6.95491 13.5 3.74472
    endloop
  endfacet
  facet normal 0 1 0
    outer loop
      vertex 3.53943 13.5 7.87333
      vertex 6.95491 13.5 3.74472
      vertex 6.3711 13.5 3.97586
    endloop
  endfacet
  facet normal 0 1 0
    outer loop
      vertex 3.53943 13.5 7.87333
      vertex 6.3711 13.5 3.97586
      vertex 5.82087 13.5 4.27836
    endloop
  endfacet
  facet normal 0 1 0
    outer loop
      vertex 3.53943 13.5 7.87333
      vertex 5.82087 13.5 4.27836
      vertex 5.31288 13.5 4.64743
    endloop
  endfacet
  facet normal 0 1 0
    outer loop
      vertex 3.53943 13.5 7.87333
      vertex 5.31288 13.5 4.64743
      vertex 4.85516 13.5 5.07726
    endloop
  endfacet
  facet normal 0 1 0
    outer loop
      vertex 3.53943 13.5 7.87333
      vertex 4.85516 13.5 5.07726
      vertex 4.45492 13.5 5.56107
    endloop
  endfacet
  facet normal 0 1 0
    outer loop
      vertex 3.53943 13.5 7.87333
      vertex 4.45492 13.5 5.56107
      vertex 4.11847 13.5 6.09123
    endloop
  endfacet
  facet normal 0 1 0
    outer loop
      vertex 3.53943 13.5 7.87333
      vertex 4.11847 13.5 6.09123
      vertex 3.85112 13.5 6.65938
    endloop
  endfacet
  facet normal 0 1 0
    outer loop
      vertex 3.53943 13.5 7.87333
      vertex 3.85112 13.5 6.65938
      vertex 3.65708 13.5 7.25655
    endloop
  endfacet
  facet normal 0 0 1
    outer loop
      vertex 3.5 13.5 13
      vertex 3.5 12 13
      vertex 10.7815 12 13
    endloop
  endfacet
  facet normal 0 0 1
    outer loop
      vertex 10.7815 13.5 13
      vertex 3.5 13.5 13
      vertex 10.7815 12 13
    endloop
  endfacet
  facet normal 0 1 0
    outer loop
      vertex 3.5 1.5 49.5
      vertex 3.5 1.5 8.5
      vertex 1.5 1.5 49.5
    endloop
  endfacet
  facet normal 0 1 0
    outer loop
      vertex 1.5 1.5 49.5
      vertex 3.5 1.5 8.5
      vertex 1.5 1.5 1.5
    endloop
  endfacet
  facet normal 0 1 0
    outer loop
      vertex 3.5 1.5 8.5
      vertex 3.53943 1.5 7.87333
      vertex 1.5 1.5 1.5
    endloop
  endfacet
  facet normal 0 1 0
    outer loop
      vertex 3.53943 1.5 7.87333
      vertex 3.65708 1.5 7.25655
      vertex 1.5 1.5 1.5
    endloop
  endfacet
  facet normal 0 1 0
    outer loop
      vertex 3.65708 1.5 7.25655
      vertex 3.85112 1.5 6.65938
      vertex 1.5 1.5 1.5
    endloop
  endfacet
  facet normal 0 1 0
    outer loop
      vertex 3.85112 1.5 6.65938
      vertex 4.11847 1.5 6.09123
      vertex 1.5 1.5 1.5
    endloop
  endfacet
  facet normal 0 1 0
    outer loop
      vertex 4.11847 1.5 6.09123
      vertex 4.45492 1.5 5.56107
      vertex 1.5 1.5 1.5
    endloop
  endfacet
  facet normal 0 1 0
    outer loop
      vertex 4.45492 1.5 5.56107
      vertex 4.85516 1.5 5.07726
      vertex 1.5 1.5 1.5
    endloop
  endfacet
  facet normal 0 1 0
    outer loop
      vertex 4.85516 1.5 5.07726
      vertex 5.31288 1.5 4.64743
      vertex 1.5 1.5 1.5
    endloop
  endfacet
  facet normal 0 1 0
    outer loop
      vertex 5.31288 1.5 4.64743
      vertex 5.82087 1.5 4.27836
      vertex 1.5 1.5 1.5
    endloop
  endfacet
  facet normal 0 1 0
    outer loop
      vertex 5.82087 1.5 4.27836
      vertex 6.3711 1.5 3.97587
      vertex 1.5 1.5 1.5
    endloop
  endfacet
  facet normal 0 1 0
    outer loop
      vertex 6.3711 1.5 3.97587
      vertex 6.95491 1.5 3.74472
      vertex 1.5 1.5 1.5
    endloop
  endfacet
  facet normal 0 1 0
    outer loop
      vertex 6.95491 1.5 3.74472
      vertex 7.56309 1.5 3.58856
      vertex 1.5 1.5 1.5
    endloop
  endfacet
  facet normal 0 1 0
    outer loop
      vertex 1.5 1.5 1.5
      vertex 8.18605 1.5 3.50987
      vertex 56 1.5 1.5
    endloop
  endfacet
  facet normal 0 1 0
    outer loop
      vertex 8.18605 1.5 3.50987
      vertex 49.314 1.5 3.50987
      vertex 56 1.5 1.5
    endloop
  endfacet
  facet normal 0 1 0
    outer loop
      vertex 49.314 1.5 3.50987
      vertex 49.9369 1.5 3.58856
      vertex 56 1.5 1.5
    endloop
  endfacet
  facet normal 0 1 0
    outer loop
      vertex 49.9369 1.5 3.58856
      vertex 50.5451 1.5 3.74472
      vertex 56 1.5 1.5
    endloop
  endfacet
  facet normal 0 1 0
    outer loop
      vertex 50.5451 1.5 3.74472
      vertex 51.1289 1.5 3.97587
      vertex 56 1.5 1.5
    endloop
  endfacet
  facet normal 0 1 0
    outer loop
      vertex 51.1289 1.5 3.97587
      vertex 51.6791 1.5 4.27836
      vertex 56 1.5 1.5
    endloop
  endfacet
  facet normal 0 1 0
    outer loop
      vertex 51.6791 1.5 4.27836
      vertex 52.1871 1.5 4.64743
      vertex 56 1.5 1.5
    endloop
  endfacet
  facet normal 0 1 0
    outer loop
      vertex 52.1871 1.5 4.64743
      vertex 52.6448 1.5 5.07726
      vertex 56 1.5 1.5
    endloop
  endfacet
  facet normal 0 1 0
    outer loop
      vertex 52.6448 1.5 5.07726
      vertex 53.0451 1.5 5.56107
      vertex 56 1.5 1.5
    endloop
  endfacet
  facet normal 0 1 0
    outer loop
      vertex 53.0451 1.5 5.56107
      vertex 53.3815 1.5 6.09123
      vertex 56 1.5 1.5
    endloop
  endfacet
  facet normal 0 1 0
    outer loop
      vertex 53.3815 1.5 6.09123
      vertex 53.6489 1.5 6.65938
      vertex 56 1.5 1.5
    endloop
  endfacet
  facet normal 0 1 0
    outer loop
      vertex 53.6489 1.5 6.65938
      vertex 53.8429 1.5 7.25655
      vertex 56 1.5 1.5
    endloop
  endfacet
  facet normal 0 1 0
    outer loop
      vertex 53.8429 1.5 7.25655
      vertex 53.9606 1.5 7.87333
      vertex 56 1.5 1.5
    endloop
  endfacet
  facet normal 0 1 0
    outer loop
      vertex 56 1.5 49.5
      vertex 54 1.5 8.5
      vertex 54 1.5 49.5
    endloop
  endfacet
  facet normal 0 1 0
    outer loop
      vertex 56 1.5 1.5
      vertex 54 1.5 8.5
      vertex 56 1.5 49.5
    endloop
  endfacet
  facet normal 0 1 0
    outer loop
      vertex 53.9606 1.5 7.87333
      vertex 54 1.5 8.5
      vertex 56 1.5 1.5
    endloop
  endfacet
  facet normal 0 1 0
    outer loop
      vertex 7.56309 1.5 3.58856
      vertex 8.18605 1.5 3.50987
      vertex 1.5 1.5 1.5
    endloop
  endfacet
  facet normal 0 -1 0
    outer loop
      vertex 3.5 12 13
      vertex 3.5 12 49.5
      vertex 1.5 12 49.5
    endloop
  endfacet
  facet normal 0 -1 0
    outer loop
      vertex 1.5 12 13
      vertex 3.5 12 13
      vertex 1.5 12 49.5
    endloop
  endfacet
  facet normal 0 0 -1
    outer loop
      vertex 3.5 12 49.5
      vertex 3.5 1.5 49.5
      vertex 1.5 12 49.5
    endloop
  endfacet
  facet normal 0 0 -1
    outer loop
      vertex 1.5 12 49.5
      vertex 3.5 1.5 49.5
      vertex 1.5 1.5 49.5
    endloop
  endfacet
  facet normal 0 0 -1
    outer loop
      vertex 56 12 49.5
      vertex 56 1.5 49.5
      vertex 54 12 49.5
    endloop
  endfacet
  facet normal 0 0 -1
    outer loop
      vertex 54 12 49.5
      vertex 56 1.5 49.5
      vertex 54 1.5 49.5
    endloop
  endfacet
  facet normal 0 -1 0
    outer loop
      vertex 56 12 13
      vertex 56 12 49.5
      vertex 54 12 49.5
    endloop
  endfacet
  facet normal 0 -1 0
    outer loop
      vertex 54 12 13
      vertex 56 12 13
      vertex 54 12 49.5
    endloop
  endfacet
  facet normal -1 0 0
    outer loop
      vertex 56 12 49.5
      vertex 56 12 13
      vertex 56 1.5 49.5
    endloop
  endfacet
  facet normal -1 0 0
    outer loop
      vertex 56 1.5 49.5
      vertex 56 12 13
      vertex 56 12 1.5
    endloop
  endfacet
  facet normal -1 0 0
    outer loop
      vertex 56 1.5 49.5
      vertex 56 12 1.5
      vertex 56 1.5 1.5
    endloop
  endfacet
  facet normal 1 0 0
    outer loop
      vertex 1.5 12 13
      vertex 1.5 12 49.5
      vertex 1.5 1.5 49.5
    endloop
  endfacet
  facet normal 1 0 0
    outer loop
      vertex 1.5 12 1.5
      vertex 1.5 12 13
      vertex 1.5 1.5 49.5
    endloop
  endfacet
  facet normal 1 0 0
    outer loop
      vertex 1.5 1.5 1.5
      vertex 1.5 12 1.5
      vertex 1.5 1.5 49.5
    endloop
  endfacet
  facet normal 0.998027 1.39423e-017 0.0627905
    outer loop
      vertex 10.7815 12 13
      vertex 10.8289 12 12.2467
      vertex 10.8289 13.5 12.2467
    endloop
  endfacet
  facet normal 0.998027 1.39423e-017 0.0627905
    outer loop
      vertex 10.7815 13.5 13
      vertex 10.7815 12 13
      vertex 10.8289 13.5 12.2467
    endloop
  endfacet
  facet normal 0.982287 4.16069e-017 0.187381
    outer loop
      vertex 11.0642 12 11.0131
      vertex 11.0642 13.5 11.0131
      vertex 10.8289 13.5 12.2467
    endloop
  endfacet
  facet normal 0.982287 4.16069e-017 0.187381
    outer loop
      vertex 10.8289 12 12.2467
      vertex 11.0642 12 11.0131
      vertex 10.8289 13.5 12.2467
    endloop
  endfacet
  facet normal 0.951056 6.86156e-017 0.309017
    outer loop
      vertex 11.4522 12 9.81875
      vertex 11.4522 13.5 9.81875
      vertex 11.0642 13.5 11.0131
    endloop
  endfacet
  facet normal 0.951056 6.86156e-017 0.309017
    outer loop
      vertex 11.0642 12 11.0131
      vertex 11.4522 12 9.81875
      vertex 11.0642 13.5 11.0131
    endloop
  endfacet
  facet normal 0.904827 9.4542e-017 0.425779
    outer loop
      vertex 11.9869 12 8.68246
      vertex 11.9869 13.5 8.68246
      vertex 11.4522 13.5 9.81875
    endloop
  endfacet
  facet normal 0.904827 9.4542e-017 0.425779
    outer loop
      vertex 11.4522 12 9.81875
      vertex 11.9869 12 8.68246
      vertex 11.4522 13.5 9.81875
    endloop
  endfacet
  facet normal 0.844328 1.18977e-016 0.535827
    outer loop
      vertex 12.6598 12 7.62215
      vertex 12.6598 13.5 7.62215
      vertex 11.9869 13.5 8.68246
    endloop
  endfacet
  facet normal 0.844328 1.18977e-016 0.535827
    outer loop
      vertex 11.9869 12 8.68246
      vertex 12.6598 12 7.62215
      vertex 11.9869 13.5 8.68246
    endloop
  endfacet
  facet normal 0.770513 1.41537e-016 0.637424
    outer loop
      vertex 13.4603 12 6.65453
      vertex 13.4603 13.5 6.65453
      vertex 12.6598 13.5 7.62215
    endloop
  endfacet
  facet normal 0.770513 1.41537e-016 0.637424
    outer loop
      vertex 12.6598 12 7.62215
      vertex 13.4603 12 6.65453
      vertex 12.6598 13.5 7.62215
    endloop
  endfacet
  facet normal 0.684547 1.61864e-016 0.728969
    outer loop
      vertex 14.3758 12 5.79487
      vertex 14.3758 13.5 5.79487
      vertex 13.4603 13.5 6.65453
    endloop
  endfacet
  facet normal 0.684547 1.61864e-016 0.728969
    outer loop
      vertex 13.4603 12 6.65453
      vertex 14.3758 12 5.79487
      vertex 13.4603 13.5 6.65453
    endloop
  endfacet
  facet normal 0.587785 1.79638e-016 0.809017
    outer loop
      vertex 15.3917 12 5.05672
      vertex 15.3917 13.5 5.05672
      vertex 14.3758 13.5 5.79487
    endloop
  endfacet
  facet normal 0.587785 1.79638e-016 0.809017
    outer loop
      vertex 14.3758 12 5.79487
      vertex 15.3917 12 5.05672
      vertex 14.3758 13.5 5.79487
    endloop
  endfacet
  facet normal 0.481754 1.94579e-016 0.876306
    outer loop
      vertex 16.4922 12 4.45173
      vertex 16.4922 13.5 4.45173
      vertex 15.3917 13.5 5.05672
    endloop
  endfacet
  facet normal 0.481754 1.94579e-016 0.876306
    outer loop
      vertex 15.3917 12 5.05672
      vertex 16.4922 12 4.45173
      vertex 15.3917 13.5 5.05672
    endloop
  endfacet
endsolid OpenSCAD_Model
