solid OpenSCAD_Model
  facet normal -1 0 0
    outer loop
      vertex -7.5 20.319 8.48972
      vertex -7.5 12.5 13
      vertex -7.5 25.5 13
    endloop
  endfacet
  facet normal -1 0 0
    outer loop
      vertex -7.5 12.5 0
      vertex -7.5 12.5 13
      vertex -7.5 17.8034 7.10674
    endloop
  endfacet
  facet normal -1 0 0
    outer loop
      vertex -7.5 17.8301 7.31855
      vertex -7.5 12.5 13
      vertex -7.5 17.8832 7.52533
    endloop
  endfacet
  facet normal -1 0 0
    outer loop
      vertex -7.5 12.5 0
      vertex -7.5 17.8034 7.10674
      vertex -7.5 17.8034 6.89326
    endloop
  endfacet
  facet normal -1 0 0
    outer loop
      vertex -7.5 12.5 0
      vertex -7.5 17.8034 6.89326
      vertex -7.5 17.8301 6.68145
    endloop
  endfacet
  facet normal -1 0 0
    outer loop
      vertex -7.5 12.5 0
      vertex -7.5 17.8301 6.68145
      vertex -7.5 17.8832 6.47467
    endloop
  endfacet
  facet normal -1 0 0
    outer loop
      vertex -7.5 12.5 0
      vertex -7.5 17.8832 6.47467
      vertex -7.5 17.9618 6.27618
    endloop
  endfacet
  facet normal -1 0 0
    outer loop
      vertex -7.5 12.5 0
      vertex -7.5 17.9618 6.27618
      vertex -7.5 18.0646 6.08909
    endloop
  endfacet
  facet normal -1 0 0
    outer loop
      vertex -7.5 12.5 0
      vertex -7.5 18.0646 6.08909
      vertex -7.5 18.1901 5.91638
    endloop
  endfacet
  facet normal -1 0 0
    outer loop
      vertex -7.5 12.5 0
      vertex -7.5 18.1901 5.91638
      vertex -7.5 18.3363 5.76075
    endloop
  endfacet
  facet normal -1 0 0
    outer loop
      vertex -7.5 12.5 0
      vertex -7.5 18.3363 5.76075
      vertex -7.5 18.5008 5.62467
    endloop
  endfacet
  facet normal -1 0 0
    outer loop
      vertex -7.5 12.5 0
      vertex -7.5 18.5008 5.62467
      vertex -7.5 25.5 0
    endloop
  endfacet
  facet normal -1 0 0
    outer loop
      vertex -7.5 18.8742 5.41938
      vertex -7.5 25.5 0
      vertex -7.5 18.681 5.51028
    endloop
  endfacet
  facet normal -1 0 0
    outer loop
      vertex -7.5 19.0772 5.35341
      vertex -7.5 25.5 0
      vertex -7.5 18.8742 5.41938
    endloop
  endfacet
  facet normal -1 0 0
    outer loop
      vertex -7.5 19.2869 5.31341
      vertex -7.5 25.5 0
      vertex -7.5 19.0772 5.35341
    endloop
  endfacet
  facet normal -1 0 0
    outer loop
      vertex -7.5 19.5 5.3
      vertex -7.5 25.5 0
      vertex -7.5 19.2869 5.31341
    endloop
  endfacet
  facet normal -1 0 0
    outer loop
      vertex -7.5 19.7131 5.31341
      vertex -7.5 25.5 0
      vertex -7.5 19.5 5.3
    endloop
  endfacet
  facet normal -1 0 0
    outer loop
      vertex -7.5 19.9228 5.35341
      vertex -7.5 25.5 0
      vertex -7.5 19.7131 5.31341
    endloop
  endfacet
  facet normal -1 0 0
    outer loop
      vertex -7.5 20.1258 5.41938
      vertex -7.5 25.5 0
      vertex -7.5 19.9228 5.35341
    endloop
  endfacet
  facet normal -1 0 0
    outer loop
      vertex -7.5 21.0382 6.27618
      vertex -7.5 25.5 13
      vertex -7.5 20.9354 6.08909
    endloop
  endfacet
  facet normal -1 0 0
    outer loop
      vertex -7.5 25.5 0
      vertex -7.5 20.1258 5.41938
      vertex -7.5 20.319 5.51028
    endloop
  endfacet
  facet normal -1 0 0
    outer loop
      vertex -7.5 25.5 0
      vertex -7.5 20.319 5.51028
      vertex -7.5 20.4992 5.62467
    endloop
  endfacet
  facet normal -1 0 0
    outer loop
      vertex -7.5 25.5 0
      vertex -7.5 20.4992 5.62467
      vertex -7.5 20.6637 5.76075
    endloop
  endfacet
  facet normal -1 0 0
    outer loop
      vertex -7.5 25.5 0
      vertex -7.5 20.6637 5.76075
      vertex -7.5 20.8099 5.91638
    endloop
  endfacet
  facet normal -1 0 0
    outer loop
      vertex -7.5 25.5 0
      vertex -7.5 20.8099 5.91638
      vertex -7.5 20.9354 6.08909
    endloop
  endfacet
  facet normal -1 0 0
    outer loop
      vertex -7.5 25.5 0
      vertex -7.5 20.9354 6.08909
      vertex -7.5 25.5 13
    endloop
  endfacet
  facet normal -1 0 0
    outer loop
      vertex -7.5 21.1168 6.47467
      vertex -7.5 25.5 13
      vertex -7.5 21.0382 6.27618
    endloop
  endfacet
  facet normal -1 0 0
    outer loop
      vertex -7.5 21.1699 6.68145
      vertex -7.5 25.5 13
      vertex -7.5 21.1168 6.47467
    endloop
  endfacet
  facet normal -1 0 0
    outer loop
      vertex -7.5 21.1966 6.89326
      vertex -7.5 25.5 13
      vertex -7.5 21.1699 6.68145
    endloop
  endfacet
  facet normal -1 0 0
    outer loop
      vertex -7.5 21.1966 7.10674
      vertex -7.5 25.5 13
      vertex -7.5 21.1966 6.89326
    endloop
  endfacet
  facet normal -1 0 0
    outer loop
      vertex -7.5 17.8832 7.52533
      vertex -7.5 12.5 13
      vertex -7.5 17.9618 7.72382
    endloop
  endfacet
  facet normal -1 0 0
    outer loop
      vertex -7.5 20.1258 8.58062
      vertex -7.5 12.5 13
      vertex -7.5 20.319 8.48972
    endloop
  endfacet
  facet normal -1 0 0
    outer loop
      vertex -7.5 18.8742 8.58062
      vertex -7.5 12.5 13
      vertex -7.5 19.0772 8.64659
    endloop
  endfacet
  facet normal -1 0 0
    outer loop
      vertex -7.5 21.1966 7.10674
      vertex -7.5 21.1699 7.31855
      vertex -7.5 25.5 13
    endloop
  endfacet
  facet normal -1 0 0
    outer loop
      vertex -7.5 19.0772 8.64659
      vertex -7.5 12.5 13
      vertex -7.5 19.2869 8.6866
    endloop
  endfacet
  facet normal -1 0 0
    outer loop
      vertex -7.5 21.1699 7.31855
      vertex -7.5 21.1168 7.52533
      vertex -7.5 25.5 13
    endloop
  endfacet
  facet normal -1 0 0
    outer loop
      vertex -7.5 21.1168 7.52533
      vertex -7.5 21.0382 7.72382
      vertex -7.5 25.5 13
    endloop
  endfacet
  facet normal -1 0 0
    outer loop
      vertex -7.5 19.2869 8.6866
      vertex -7.5 12.5 13
      vertex -7.5 19.5 8.7
    endloop
  endfacet
  facet normal -1 0 0
    outer loop
      vertex -7.5 21.0382 7.72382
      vertex -7.5 20.9354 7.91091
      vertex -7.5 25.5 13
    endloop
  endfacet
  facet normal -1 0 0
    outer loop
      vertex -7.5 19.5 8.7
      vertex -7.5 12.5 13
      vertex -7.5 19.7131 8.6866
    endloop
  endfacet
  facet normal -1 0 0
    outer loop
      vertex -7.5 20.9354 7.91091
      vertex -7.5 20.8099 8.08362
      vertex -7.5 25.5 13
    endloop
  endfacet
  facet normal -1 0 0
    outer loop
      vertex -7.5 19.7131 8.6866
      vertex -7.5 12.5 13
      vertex -7.5 19.9228 8.64659
    endloop
  endfacet
  facet normal -1 0 0
    outer loop
      vertex -7.5 20.8099 8.08362
      vertex -7.5 20.6637 8.23925
      vertex -7.5 25.5 13
    endloop
  endfacet
  facet normal -1 0 0
    outer loop
      vertex -7.5 19.9228 8.64659
      vertex -7.5 12.5 13
      vertex -7.5 20.1258 8.58062
    endloop
  endfacet
  facet normal -1 0 0
    outer loop
      vertex -7.5 20.6637 8.23925
      vertex -7.5 20.4992 8.37533
      vertex -7.5 25.5 13
    endloop
  endfacet
  facet normal -1 0 0
    outer loop
      vertex -7.5 20.4992 8.37533
      vertex -7.5 20.319 8.48972
      vertex -7.5 25.5 13
    endloop
  endfacet
  facet normal -1 0 0
    outer loop
      vertex -7.5 18.681 8.48972
      vertex -7.5 12.5 13
      vertex -7.5 18.8742 8.58062
    endloop
  endfacet
  facet normal -1 0 0
    outer loop
      vertex -7.5 18.5008 8.37533
      vertex -7.5 12.5 13
      vertex -7.5 18.681 8.48972
    endloop
  endfacet
  facet normal -1 0 0
    outer loop
      vertex -7.5 18.3363 8.23925
      vertex -7.5 12.5 13
      vertex -7.5 18.5008 8.37533
    endloop
  endfacet
  facet normal -1 0 0
    outer loop
      vertex -7.5 18.1901 8.08362
      vertex -7.5 12.5 13
      vertex -7.5 18.3363 8.23925
    endloop
  endfacet
  facet normal -1 0 0
    outer loop
      vertex -7.5 18.0646 7.91091
      vertex -7.5 12.5 13
      vertex -7.5 18.1901 8.08362
    endloop
  endfacet
  facet normal -1 0 0
    outer loop
      vertex -7.5 17.9618 7.72382
      vertex -7.5 12.5 13
      vertex -7.5 18.0646 7.91091
    endloop
  endfacet
  facet normal -1 0 0
    outer loop
      vertex -7.5 17.8034 7.10674
      vertex -7.5 12.5 13
      vertex -7.5 17.8301 7.31855
    endloop
  endfacet
  facet normal -1 0 0
    outer loop
      vertex -7.5 18.681 5.51028
      vertex -7.5 25.5 0
      vertex -7.5 18.5008 5.62467
    endloop
  endfacet
  facet normal 0 -1 0
    outer loop
      vertex 0 12.5 0
      vertex 0 12.5 13
      vertex -7.5 12.5 13
    endloop
  endfacet
  facet normal 0 -1 0
    outer loop
      vertex -7.5 12.5 0
      vertex 0 12.5 0
      vertex -7.5 12.5 13
    endloop
  endfacet
  facet normal 0 0 -1
    outer loop
      vertex -7.5 12.5 0
      vertex -7.5 25.5 0
      vertex 0 12.5 0
    endloop
  endfacet
  facet normal 0 0 -1
    outer loop
      vertex 0 12.5 0
      vertex -7.5 25.5 0
      vertex -3.01666 25.5 0
    endloop
  endfacet
  facet normal 0 0 -1
    outer loop
      vertex 0 12.5 0
      vertex -3.01666 25.5 0
      vertex 19.5 12.5 0
    endloop
  endfacet
  facet normal 0 0 -1
    outer loop
      vertex 0 12.5 0
      vertex 19.5 12.5 0
      vertex 19.5 11 0
    endloop
  endfacet
  facet normal 0 0 -1
    outer loop
      vertex 38.5 11 0
      vertex 38.5 14 0
      vertex 58 14 0
    endloop
  endfacet
  facet normal 0 0 -1
    outer loop
      vertex 38.5 11 0
      vertex 58 14 0
      vertex 58 11 0
    endloop
  endfacet
  facet normal 0 0 -1
    outer loop
      vertex 38.5 11 0
      vertex 58 11 0
      vertex 58 0 0
    endloop
  endfacet
  facet normal 0 0 -1
    outer loop
      vertex 38.5 11 0
      vertex 58 0 0
      vertex 19.5 11 0
    endloop
  endfacet
  facet normal 0 0 -1
    outer loop
      vertex 0 12.5 0
      vertex 19.5 11 0
      vertex 58 0 0
    endloop
  endfacet
  facet normal 0 0 -1
    outer loop
      vertex 0 12.5 0
      vertex 58 0 0
      vertex 0 0 0
    endloop
  endfacet
  facet normal 0 1 0
    outer loop
      vertex -6 25.5 13
      vertex -6 25.5 1.5
      vertex -7.5 25.5 13
    endloop
  endfacet
  facet normal 0 1 0
    outer loop
      vertex -3.01666 25.5 0
      vertex -6 25.5 1.5
      vertex -3.01666 25.5 1.5
    endloop
  endfacet
  facet normal 0 1 0
    outer loop
      vertex -7.5 25.5 0
      vertex -6 25.5 1.5
      vertex -3.01666 25.5 0
    endloop
  endfacet
  facet normal 0 1 0
    outer loop
      vertex -7.5 25.5 13
      vertex -6 25.5 1.5
      vertex -7.5 25.5 0
    endloop
  endfacet
  facet normal 0 0 1
    outer loop
      vertex -6 14 13
      vertex -7.5 12.5 13
      vertex 0 12.5 13
    endloop
  endfacet
  facet normal 0 0 1
    outer loop
      vertex -6 14 13
      vertex -6 25.5 13
      vertex -7.5 25.5 13
    endloop
  endfacet
  facet normal 0 0 1
    outer loop
      vertex -7.5 25.5 13
      vertex -7.5 12.5 13
      vertex -6 14 13
    endloop
  endfacet
  facet normal 0 0 1
    outer loop
      vertex 0 14 13
      vertex -6 14 13
      vertex 0 12.5 13
    endloop
  endfacet
  facet normal 2.78295e-017 0.992115 -0.125333
    outer loop
      vertex -6 17.8301 7.31855
      vertex -6 17.8034 7.10674
      vertex -7.5 17.8301 7.31855
    endloop
  endfacet
  facet normal 2.78295e-017 0.992115 -0.125333
    outer loop
      vertex -7.5 17.8301 7.31855
      vertex -6 17.8034 7.10674
      vertex -7.5 17.8034 7.10674
    endloop
  endfacet
  facet normal 0 1 0
    outer loop
      vertex -6 17.8034 7.10674
      vertex -6 17.8034 6.89326
      vertex -7.5 17.8034 7.10674
    endloop
  endfacet
  facet normal 0 1 0
    outer loop
      vertex -7.5 17.8034 7.10674
      vertex -6 17.8034 6.89326
      vertex -7.5 17.8034 6.89326
    endloop
  endfacet
  facet normal 5.52199e-017 0.968584 -0.248688
    outer loop
      vertex -6 17.8832 7.52533
      vertex -6 17.8301 7.31855
      vertex -7.5 17.8832 7.52533
    endloop
  endfacet
  facet normal 5.52199e-017 0.968584 -0.248688
    outer loop
      vertex -7.5 17.8832 7.52533
      vertex -6 17.8301 7.31855
      vertex -7.5 17.8301 7.31855
    endloop
  endfacet
  facet normal 8.174e-017 0.929777 -0.368124
    outer loop
      vertex -6 17.9618 7.72383
      vertex -6 17.8832 7.52533
      vertex -7.5 17.9618 7.72382
    endloop
  endfacet
  facet normal 8.174e-017 0.929777 -0.368124
    outer loop
      vertex -7.5 17.9618 7.72382
      vertex -6 17.8832 7.52533
      vertex -7.5 17.8832 7.52533
    endloop
  endfacet
  facet normal 1.06971e-016 0.876306 -0.481755
    outer loop
      vertex -6 18.0646 7.91091
      vertex -6 17.9618 7.72383
      vertex -7.5 18.0646 7.91091
    endloop
  endfacet
  facet normal 1.06971e-016 0.876306 -0.481755
    outer loop
      vertex -7.5 18.0646 7.91091
      vertex -6 17.9618 7.72383
      vertex -7.5 17.9618 7.72382
    endloop
  endfacet
  facet normal 1.30514e-016 0.809019 -0.587783
    outer loop
      vertex -6 18.1901 8.08362
      vertex -6 18.0646 7.91091
      vertex -7.5 18.1901 8.08362
    endloop
  endfacet
  facet normal 1.30514e-016 0.809019 -0.587783
    outer loop
      vertex -7.5 18.1901 8.08362
      vertex -6 18.0646 7.91091
      vertex -7.5 18.0646 7.91091
    endloop
  endfacet
  facet normal 1.52e-016 0.728968 -0.684548
    outer loop
      vertex -6 18.3363 8.23925
      vertex -6 18.1901 8.08362
      vertex -7.5 18.3363 8.23925
    endloop
  endfacet
  facet normal 1.52e-016 0.728968 -0.684548
    outer loop
      vertex -7.5 18.3363 8.23925
      vertex -6 18.1901 8.08362
      vertex -7.5 18.1901 8.08362
    endloop
  endfacet
  facet normal 1.71088e-016 0.637424 -0.770513
    outer loop
      vertex -6 18.5008 8.37533
      vertex -6 18.3363 8.23925
      vertex -7.5 18.5008 8.37533
    endloop
  endfacet
  facet normal 1.71088e-016 0.637424 -0.770513
    outer loop
      vertex -7.5 18.5008 8.37533
      vertex -6 18.3363 8.23925
      vertex -7.5 18.3363 8.23925
    endloop
  endfacet
  facet normal 1.87479e-016 0.535825 -0.844329
    outer loop
      vertex -6 18.681 8.48972
      vertex -6 18.5008 8.37533
      vertex -7.5 18.681 8.48972
    endloop
  endfacet
  facet normal 1.87479e-016 0.535825 -0.844329
    outer loop
      vertex -7.5 18.681 8.48972
      vertex -6 18.5008 8.37533
      vertex -7.5 18.5008 8.37533
    endloop
  endfacet
  facet normal 2.00912e-016 0.425781 -0.904826
    outer loop
      vertex -6 18.8742 8.58062
      vertex -6 18.681 8.48972
      vertex -7.5 18.8742 8.58062
    endloop
  endfacet
  facet normal 2.00912e-016 0.425781 -0.904826
    outer loop
      vertex -7.5 18.8742 8.58062
      vertex -6 18.681 8.48972
      vertex -7.5 18.681 8.48972
    endloop
  endfacet
  facet normal 2.11177e-016 0.309015 -0.951057
    outer loop
      vertex -6 19.0772 8.64659
      vertex -6 18.8742 8.58062
      vertex -7.5 19.0772 8.64659
    endloop
  endfacet
  facet normal 2.11177e-016 0.309015 -0.951057
    outer loop
      vertex -7.5 19.0772 8.64659
      vertex -6 18.8742 8.58062
      vertex -7.5 18.8742 8.58062
    endloop
  endfacet
  facet normal 2.18112e-016 0.187382 -0.982287
    outer loop
      vertex -6 19.2869 8.6866
      vertex -6 19.0772 8.64659
      vertex -7.5 19.2869 8.6866
    endloop
  endfacet
  facet normal 2.18112e-016 0.187382 -0.982287
    outer loop
      vertex -7.5 19.2869 8.6866
      vertex -6 19.0772 8.64659
      vertex -7.5 19.0772 8.64659
    endloop
  endfacet
  facet normal 2.21606e-016 0.0627906 -0.998027
    outer loop
      vertex -6 19.5 8.7
      vertex -6 19.2869 8.6866
      vertex -7.5 19.5 8.7
    endloop
  endfacet
  facet normal 2.21606e-016 0.0627906 -0.998027
    outer loop
      vertex -7.5 19.5 8.7
      vertex -6 19.2869 8.6866
      vertex -7.5 19.2869 8.6866
    endloop
  endfacet
  facet normal 2.21606e-016 -0.0627906 -0.998027
    outer loop
      vertex -6 19.7131 8.6866
      vertex -6 19.5 8.7
      vertex -7.5 19.7131 8.6866
    endloop
  endfacet
  facet normal 2.21606e-016 -0.0627906 -0.998027
    outer loop
      vertex -7.5 19.7131 8.6866
      vertex -6 19.5 8.7
      vertex -7.5 19.5 8.7
    endloop
  endfacet
  facet normal 2.18112e-016 -0.187382 -0.982287
    outer loop
      vertex -6 19.9228 8.64659
      vertex -6 19.7131 8.6866
      vertex -7.5 19.9228 8.64659
    endloop
  endfacet
  facet normal 2.18112e-016 -0.187382 -0.982287
    outer loop
      vertex -7.5 19.9228 8.64659
      vertex -6 19.7131 8.6866
      vertex -7.5 19.7131 8.6866
    endloop
  endfacet
  facet normal 2.11177e-016 -0.309015 -0.951057
    outer loop
      vertex -6 20.1258 8.58062
      vertex -6 19.9228 8.64659
      vertex -7.5 20.1258 8.58062
    endloop
  endfacet
  facet normal 2.11177e-016 -0.309015 -0.951057
    outer loop
      vertex -7.5 20.1258 8.58062
      vertex -6 19.9228 8.64659
      vertex -7.5 19.9228 8.64659
    endloop
  endfacet
  facet normal 2.00912e-016 -0.425781 -0.904826
    outer loop
      vertex -6 20.319 8.48972
      vertex -6 20.1258 8.58062
      vertex -7.5 20.319 8.48972
    endloop
  endfacet
  facet normal 2.00912e-016 -0.425781 -0.904826
    outer loop
      vertex -7.5 20.319 8.48972
      vertex -6 20.1258 8.58062
      vertex -7.5 20.1258 8.58062
    endloop
  endfacet
  facet normal 1.87479e-016 -0.535825 -0.844329
    outer loop
      vertex -6 20.4992 8.37533
      vertex -6 20.319 8.48972
      vertex -7.5 20.4992 8.37533
    endloop
  endfacet
  facet normal 1.87479e-016 -0.535825 -0.844329
    outer loop
      vertex -7.5 20.4992 8.37533
      vertex -6 20.319 8.48972
      vertex -7.5 20.319 8.48972
    endloop
  endfacet
  facet normal 1.71088e-016 -0.637424 -0.770513
    outer loop
      vertex -6 20.6637 8.23925
      vertex -6 20.4992 8.37533
      vertex -7.5 20.6637 8.23925
    endloop
  endfacet
  facet normal 1.71088e-016 -0.637424 -0.770513
    outer loop
      vertex -7.5 20.6637 8.23925
      vertex -6 20.4992 8.37533
      vertex -7.5 20.4992 8.37533
    endloop
  endfacet
  facet normal 1.52e-016 -0.728968 -0.684548
    outer loop
      vertex -7.5 20.8099 8.08362
      vertex -6 20.8099 8.08362
      vertex -6 20.6637 8.23925
    endloop
  endfacet
  facet normal 1.52e-016 -0.728968 -0.684548
    outer loop
      vertex -7.5 20.6637 8.23925
      vertex -7.5 20.8099 8.08362
      vertex -6 20.6637 8.23925
    endloop
  endfacet
  facet normal 1.30514e-016 -0.809019 -0.587783
    outer loop
      vertex -7.5 20.9354 7.91091
      vertex -6 20.9354 7.91091
      vertex -6 20.8099 8.08362
    endloop
  endfacet
  facet normal 1.30514e-016 -0.809019 -0.587783
    outer loop
      vertex -7.5 20.8099 8.08362
      vertex -7.5 20.9354 7.91091
      vertex -6 20.8099 8.08362
    endloop
  endfacet
  facet normal 1.06971e-016 -0.876306 -0.481755
    outer loop
      vertex -7.5 21.0382 7.72382
      vertex -6 21.0382 7.72383
      vertex -6 20.9354 7.91091
    endloop
  endfacet
  facet normal 1.06971e-016 -0.876306 -0.481755
    outer loop
      vertex -7.5 20.9354 7.91091
      vertex -7.5 21.0382 7.72382
      vertex -6 20.9354 7.91091
    endloop
  endfacet
  facet normal 8.174e-017 -0.929777 -0.368124
    outer loop
      vertex -7.5 21.1168 7.52533
      vertex -6 21.1168 7.52533
      vertex -6 21.0382 7.72383
    endloop
  endfacet
  facet normal 8.174e-017 -0.929777 -0.368124
    outer loop
      vertex -7.5 21.0382 7.72382
      vertex -7.5 21.1168 7.52533
      vertex -6 21.0382 7.72383
    endloop
  endfacet
  facet normal 5.52199e-017 -0.968584 -0.248688
    outer loop
      vertex -7.5 21.1699 7.31855
      vertex -6 21.1699 7.31855
      vertex -6 21.1168 7.52533
    endloop
  endfacet
  facet normal 5.52199e-017 -0.968584 -0.248688
    outer loop
      vertex -7.5 21.1168 7.52533
      vertex -7.5 21.1699 7.31855
      vertex -6 21.1168 7.52533
    endloop
  endfacet
  facet normal 2.78295e-017 -0.992115 -0.125333
    outer loop
      vertex -7.5 21.1966 7.10674
      vertex -6 21.1966 7.10674
      vertex -6 21.1699 7.31855
    endloop
  endfacet
  facet normal 2.78295e-017 -0.992115 -0.125333
    outer loop
      vertex -7.5 21.1699 7.31855
      vertex -7.5 21.1966 7.10674
      vertex -6 21.1699 7.31855
    endloop
  endfacet
  facet normal 0 -1 0
    outer loop
      vertex -6 21.1966 6.89326
      vertex -6 21.1966 7.10674
      vertex -7.5 21.1966 7.10674
    endloop
  endfacet
  facet normal 0 -1 0
    outer loop
      vertex -7.5 21.1966 6.89326
      vertex -6 21.1966 6.89326
      vertex -7.5 21.1966 7.10674
    endloop
  endfacet
  facet normal -2.78295e-017 -0.992115 0.125333
    outer loop
      vertex -6 21.1699 6.68145
      vertex -6 21.1966 6.89326
      vertex -7.5 21.1966 6.89326
    endloop
  endfacet
  facet normal -2.78295e-017 -0.992115 0.125333
    outer loop
      vertex -7.5 21.1699 6.68145
      vertex -6 21.1699 6.68145
      vertex -7.5 21.1966 6.89326
    endloop
  endfacet
  facet normal -5.52199e-017 -0.968584 0.248688
    outer loop
      vertex -6 21.1168 6.47467
      vertex -6 21.1699 6.68145
      vertex -7.5 21.1699 6.68145
    endloop
  endfacet
  facet normal -5.52199e-017 -0.968584 0.248688
    outer loop
      vertex -7.5 21.1168 6.47467
      vertex -6 21.1168 6.47467
      vertex -7.5 21.1699 6.68145
    endloop
  endfacet
  facet normal -8.174e-017 -0.929777 0.368124
    outer loop
      vertex -6 21.0382 6.27618
      vertex -6 21.1168 6.47467
      vertex -7.5 21.1168 6.47467
    endloop
  endfacet
  facet normal -8.174e-017 -0.929777 0.368124
    outer loop
      vertex -7.5 21.0382 6.27618
      vertex -6 21.0382 6.27618
      vertex -7.5 21.1168 6.47467
    endloop
  endfacet
  facet normal -1.06971e-016 -0.876306 0.481755
    outer loop
      vertex -6 20.9354 6.08909
      vertex -6 21.0382 6.27618
      vertex -7.5 21.0382 6.27618
    endloop
  endfacet
  facet normal -1.06971e-016 -0.876306 0.481755
    outer loop
      vertex -7.5 20.9354 6.08909
      vertex -6 20.9354 6.08909
      vertex -7.5 21.0382 6.27618
    endloop
  endfacet
  facet normal -1.30514e-016 -0.809019 0.587783
    outer loop
      vertex -6 20.8099 5.91638
      vertex -6 20.9354 6.08909
      vertex -7.5 20.9354 6.08909
    endloop
  endfacet
  facet normal -1.30514e-016 -0.809019 0.587783
    outer loop
      vertex -7.5 20.8099 5.91638
      vertex -6 20.8099 5.91638
      vertex -7.5 20.9354 6.08909
    endloop
  endfacet
  facet normal -1.52e-016 -0.728968 0.684548
    outer loop
      vertex -6 20.6637 5.76075
      vertex -6 20.8099 5.91638
      vertex -7.5 20.8099 5.91638
    endloop
  endfacet
  facet normal -1.52e-016 -0.728968 0.684548
    outer loop
      vertex -7.5 20.6637 5.76075
      vertex -6 20.6637 5.76075
      vertex -7.5 20.8099 5.91638
    endloop
  endfacet
  facet normal -1.71088e-016 -0.637424 0.770513
    outer loop
      vertex -6 20.4992 5.62467
      vertex -6 20.6637 5.76075
      vertex -7.5 20.6637 5.76075
    endloop
  endfacet
  facet normal -1.71088e-016 -0.637424 0.770513
    outer loop
      vertex -7.5 20.4992 5.62467
      vertex -6 20.4992 5.62467
      vertex -7.5 20.6637 5.76075
    endloop
  endfacet
  facet normal -1.87479e-016 -0.535825 0.844329
    outer loop
      vertex -6 20.319 5.51028
      vertex -6 20.4992 5.62467
      vertex -7.5 20.4992 5.62467
    endloop
  endfacet
  facet normal -1.87479e-016 -0.535825 0.844329
    outer loop
      vertex -7.5 20.319 5.51028
      vertex -6 20.319 5.51028
      vertex -7.5 20.4992 5.62467
    endloop
  endfacet
  facet normal -2.00912e-016 -0.425781 0.904826
    outer loop
      vertex -6 20.1258 5.41938
      vertex -6 20.319 5.51028
      vertex -7.5 20.319 5.51028
    endloop
  endfacet
  facet normal -2.00912e-016 -0.425781 0.904826
    outer loop
      vertex -7.5 20.1258 5.41938
      vertex -6 20.1258 5.41938
      vertex -7.5 20.319 5.51028
    endloop
  endfacet
  facet normal -2.11177e-016 -0.309015 0.951057
    outer loop
      vertex -6 19.9228 5.35341
      vertex -6 20.1258 5.41938
      vertex -7.5 20.1258 5.41938
    endloop
  endfacet
  facet normal -2.11177e-016 -0.309015 0.951057
    outer loop
      vertex -7.5 19.9228 5.35341
      vertex -6 19.9228 5.35341
      vertex -7.5 20.1258 5.41938
    endloop
  endfacet
  facet normal -2.18112e-016 -0.187382 0.982287
    outer loop
      vertex -6 19.7131 5.31341
      vertex -6 19.9228 5.35341
      vertex -7.5 19.9228 5.35341
    endloop
  endfacet
  facet normal -2.18112e-016 -0.187382 0.982287
    outer loop
      vertex -7.5 19.7131 5.31341
      vertex -6 19.7131 5.31341
      vertex -7.5 19.9228 5.35341
    endloop
  endfacet
  facet normal -2.21606e-016 -0.0627906 0.998027
    outer loop
      vertex -6 19.5 5.3
      vertex -6 19.7131 5.31341
      vertex -7.5 19.7131 5.31341
    endloop
  endfacet
  facet normal -2.21606e-016 -0.0627906 0.998027
    outer loop
      vertex -7.5 19.5 5.3
      vertex -6 19.5 5.3
      vertex -7.5 19.7131 5.31341
    endloop
  endfacet
  facet normal -2.21606e-016 0.0627906 0.998027
    outer loop
      vertex -6 19.2869 5.31341
      vertex -6 19.5 5.3
      vertex -7.5 19.5 5.3
    endloop
  endfacet
  facet normal -2.21606e-016 0.0627906 0.998027
    outer loop
      vertex -7.5 19.2869 5.31341
      vertex -6 19.2869 5.31341
      vertex -7.5 19.5 5.3
    endloop
  endfacet
  facet normal -2.18112e-016 0.187382 0.982287
    outer loop
      vertex -6 19.0772 5.35341
      vertex -6 19.2869 5.31341
      vertex -7.5 19.2869 5.31341
    endloop
  endfacet
  facet normal -2.18112e-016 0.187382 0.982287
    outer loop
      vertex -7.5 19.0772 5.35341
      vertex -6 19.0772 5.35341
      vertex -7.5 19.2869 5.31341
    endloop
  endfacet
  facet normal -2.11177e-016 0.309015 0.951057
    outer loop
      vertex -6 18.8742 5.41938
      vertex -6 19.0772 5.35341
      vertex -7.5 19.0772 5.35341
    endloop
  endfacet
  facet normal -2.11177e-016 0.309015 0.951057
    outer loop
      vertex -7.5 18.8742 5.41938
      vertex -6 18.8742 5.41938
      vertex -7.5 19.0772 5.35341
    endloop
  endfacet
  facet normal -2.00912e-016 0.425781 0.904826
    outer loop
      vertex -6 18.681 5.51028
      vertex -6 18.8742 5.41938
      vertex -7.5 18.8742 5.41938
    endloop
  endfacet
  facet normal -2.00912e-016 0.425781 0.904826
    outer loop
      vertex -7.5 18.681 5.51028
      vertex -6 18.681 5.51028
      vertex -7.5 18.8742 5.41938
    endloop
  endfacet
  facet normal -1.87479e-016 0.535825 0.844329
    outer loop
      vertex -6 18.5008 5.62467
      vertex -6 18.681 5.51028
      vertex -7.5 18.681 5.51028
    endloop
  endfacet
  facet normal -1.87479e-016 0.535825 0.844329
    outer loop
      vertex -7.5 18.5008 5.62467
      vertex -6 18.5008 5.62467
      vertex -7.5 18.681 5.51028
    endloop
  endfacet
  facet normal -1.71088e-016 0.637424 0.770513
    outer loop
      vertex -6 18.3363 5.76075
      vertex -6 18.5008 5.62467
      vertex -7.5 18.5008 5.62467
    endloop
  endfacet
  facet normal -1.71088e-016 0.637424 0.770513
    outer loop
      vertex -7.5 18.3363 5.76075
      vertex -6 18.3363 5.76075
      vertex -7.5 18.5008 5.62467
    endloop
  endfacet
  facet normal -1.52e-016 0.728968 0.684548
    outer loop
      vertex -6 18.3363 5.76075
      vertex -7.5 18.3363 5.76075
      vertex -6 18.1901 5.91638
    endloop
  endfacet
  facet normal -1.52e-016 0.728968 0.684548
    outer loop
      vertex -6 18.1901 5.91638
      vertex -7.5 18.3363 5.76075
      vertex -7.5 18.1901 5.91638
    endloop
  endfacet
  facet normal -1.30514e-016 0.809019 0.587783
    outer loop
      vertex -6 18.1901 5.91638
      vertex -7.5 18.1901 5.91638
      vertex -6 18.0646 6.08909
    endloop
  endfacet
  facet normal -1.30514e-016 0.809019 0.587783
    outer loop
      vertex -6 18.0646 6.08909
      vertex -7.5 18.1901 5.91638
      vertex -7.5 18.0646 6.08909
    endloop
  endfacet
  facet normal -1.06971e-016 0.876306 0.481755
    outer loop
      vertex -6 18.0646 6.08909
      vertex -7.5 18.0646 6.08909
      vertex -6 17.9618 6.27618
    endloop
  endfacet
  facet normal -1.06971e-016 0.876306 0.481755
    outer loop
      vertex -6 17.9618 6.27618
      vertex -7.5 18.0646 6.08909
      vertex -7.5 17.9618 6.27618
    endloop
  endfacet
  facet normal -8.174e-017 0.929777 0.368124
    outer loop
      vertex -6 17.9618 6.27618
      vertex -7.5 17.9618 6.27618
      vertex -6 17.8832 6.47467
    endloop
  endfacet
  facet normal -8.174e-017 0.929777 0.368124
    outer loop
      vertex -6 17.8832 6.47467
      vertex -7.5 17.9618 6.27618
      vertex -7.5 17.8832 6.47467
    endloop
  endfacet
  facet normal -5.52199e-017 0.968584 0.248688
    outer loop
      vertex -6 17.8832 6.47467
      vertex -7.5 17.8832 6.47467
      vertex -6 17.8301 6.68145
    endloop
  endfacet
  facet normal -5.52199e-017 0.968584 0.248688
    outer loop
      vertex -6 17.8301 6.68145
      vertex -7.5 17.8832 6.47467
      vertex -7.5 17.8301 6.68145
    endloop
  endfacet
  facet normal -2.78295e-017 0.992115 0.125333
    outer loop
      vertex -6 17.8301 6.68145
      vertex -7.5 17.8301 6.68145
      vertex -6 17.8034 6.89326
    endloop
  endfacet
  facet normal -2.78295e-017 0.992115 0.125333
    outer loop
      vertex -6 17.8034 6.89326
      vertex -7.5 17.8301 6.68145
      vertex -7.5 17.8034 6.89326
    endloop
  endfacet
  facet normal -1 0 0
    outer loop
      vertex 0 0 0
      vertex 0 0 51
      vertex 0 12.5 0
    endloop
  endfacet
  facet normal -1 0 0
    outer loop
      vertex 0 12.5 13
      vertex 0 0 51
      vertex 0 14 51
    endloop
  endfacet
  facet normal -1 0 0
    outer loop
      vertex 0 12.5 0
      vertex 0 0 51
      vertex 0 12.5 13
    endloop
  endfacet
  facet normal -1 0 0
    outer loop
      vertex 0 12.5 13
      vertex 0 14 51
      vertex 0 14 13
    endloop
  endfacet
  facet normal 0 -1 0
    outer loop
      vertex 8.18605 0 13.5099
      vertex 0 0 0
      vertex 58 0 0
    endloop
  endfacet
  facet normal 0 -1 0
    outer loop
      vertex 58 0 51
      vertex 54.5 0 51
      vertex 58 0 0
    endloop
  endfacet
  facet normal 0 -1 0
    outer loop
      vertex 54.5 0 51
      vertex 54.5 0 18.5
      vertex 58 0 0
    endloop
  endfacet
  facet normal 0 -1 0
    outer loop
      vertex 54.5 0 18.5
      vertex 54.4606 0 17.8733
      vertex 58 0 0
    endloop
  endfacet
  facet normal 0 -1 0
    outer loop
      vertex 54.4606 0 17.8733
      vertex 54.3429 0 17.2566
      vertex 58 0 0
    endloop
  endfacet
  facet normal 0 -1 0
    outer loop
      vertex 54.3429 0 17.2566
      vertex 54.1489 0 16.6594
      vertex 58 0 0
    endloop
  endfacet
  facet normal 0 -1 0
    outer loop
      vertex 54.1489 0 16.6594
      vertex 53.8815 0 16.0912
      vertex 58 0 0
    endloop
  endfacet
  facet normal 0 -1 0
    outer loop
      vertex 53.8815 0 16.0912
      vertex 53.5451 0 15.5611
      vertex 58 0 0
    endloop
  endfacet
  facet normal 0 -1 0
    outer loop
      vertex 53.5451 0 15.5611
      vertex 53.1448 0 15.0773
      vertex 58 0 0
    endloop
  endfacet
  facet normal 0 -1 0
    outer loop
      vertex 53.1448 0 15.0773
      vertex 52.6871 0 14.6474
      vertex 58 0 0
    endloop
  endfacet
  facet normal 0 -1 0
    outer loop
      vertex 52.6871 0 14.6474
      vertex 52.1791 0 14.2784
      vertex 58 0 0
    endloop
  endfacet
  facet normal 0 -1 0
    outer loop
      vertex 52.1791 0 14.2784
      vertex 51.6289 0 13.9759
      vertex 58 0 0
    endloop
  endfacet
  facet normal 0 -1 0
    outer loop
      vertex 51.6289 0 13.9759
      vertex 51.0451 0 13.7447
      vertex 58 0 0
    endloop
  endfacet
  facet normal 0 -1 0
    outer loop
      vertex 51.0451 0 13.7447
      vertex 50.4369 0 13.5886
      vertex 58 0 0
    endloop
  endfacet
  facet normal 0 -1 0
    outer loop
      vertex 50.4369 0 13.5886
      vertex 49.814 0 13.5099
      vertex 58 0 0
    endloop
  endfacet
  facet normal 0 -1 0
    outer loop
      vertex 7.56309 0 13.5886
      vertex 0 0 0
      vertex 8.18605 0 13.5099
    endloop
  endfacet
  facet normal 0 -1 0
    outer loop
      vertex 6.95491 0 13.7447
      vertex 0 0 0
      vertex 7.56309 0 13.5886
    endloop
  endfacet
  facet normal 0 -1 0
    outer loop
      vertex 6.3711 0 13.9759
      vertex 0 0 0
      vertex 6.95491 0 13.7447
    endloop
  endfacet
  facet normal 0 -1 0
    outer loop
      vertex 5.82087 0 14.2784
      vertex 0 0 0
      vertex 6.3711 0 13.9759
    endloop
  endfacet
  facet normal 0 -1 0
    outer loop
      vertex 5.31288 0 14.6474
      vertex 0 0 0
      vertex 5.82087 0 14.2784
    endloop
  endfacet
  facet normal 0 -1 0
    outer loop
      vertex 4.85516 0 15.0773
      vertex 0 0 0
      vertex 5.31288 0 14.6474
    endloop
  endfacet
  facet normal 0 -1 0
    outer loop
      vertex 4.45492 0 15.5611
      vertex 0 0 0
      vertex 4.85516 0 15.0773
    endloop
  endfacet
  facet normal 0 -1 0
    outer loop
      vertex 4.11847 0 16.0912
      vertex 0 0 0
      vertex 4.45492 0 15.5611
    endloop
  endfacet
  facet normal 0 -1 0
    outer loop
      vertex 3.85112 0 16.6594
      vertex 0 0 0
      vertex 4.11847 0 16.0912
    endloop
  endfacet
  facet normal 0 -1 0
    outer loop
      vertex 3.65708 0 17.2566
      vertex 0 0 0
      vertex 3.85112 0 16.6594
    endloop
  endfacet
  facet normal 0 -1 0
    outer loop
      vertex 3.53943 0 17.8733
      vertex 0 0 0
      vertex 3.65708 0 17.2566
    endloop
  endfacet
  facet normal 0 -1 0
    outer loop
      vertex 0 0 51
      vertex 0 0 0
      vertex 3.53943 0 17.8733
    endloop
  endfacet
  facet normal 0 -1 0
    outer loop
      vertex 0 0 51
      vertex 3.53943 0 17.8733
      vertex 3.5 0 18.5
    endloop
  endfacet
  facet normal 0 -1 0
    outer loop
      vertex 49.814 0 13.5099
      vertex 8.18605 0 13.5099
      vertex 58 0 0
    endloop
  endfacet
  facet normal 0 -1 0
    outer loop
      vertex 3.5 0 18.5
      vertex 3.5 0 51
      vertex 0 0 51
    endloop
  endfacet
  facet normal 1 0 0
    outer loop
      vertex 58 0 51
      vertex 58 0 0
      vertex 58 11 0
    endloop
  endfacet
  facet normal 1 0 0
    outer loop
      vertex 58 11 51
      vertex 58 0 51
      vertex 58 11 0
    endloop
  endfacet
  facet normal 1 0 0
    outer loop
      vertex 58 11 51
      vertex 58 11 0
      vertex 58 14 0
    endloop
  endfacet
  facet normal 1 0 0
    outer loop
      vertex 58 14 51
      vertex 58 11 51
      vertex 58 14 0
    endloop
  endfacet
  facet normal 0 1 0
    outer loop
      vertex 38.5 14 0
      vertex 38.5 14 13.5099
      vertex 58 14 0
    endloop
  endfacet
  facet normal 0 1 0
    outer loop
      vertex 58 14 0
      vertex 38.5 14 13.5099
      vertex 49.814 14 13.5099
    endloop
  endfacet
  facet normal 0 1 0
    outer loop
      vertex 58 14 0
      vertex 49.814 14 13.5099
      vertex 50.4369 14 13.5886
    endloop
  endfacet
  facet normal 0 1 0
    outer loop
      vertex 50.4369 14 13.5886
      vertex 51.0451 14 13.7447
      vertex 58 14 0
    endloop
  endfacet
  facet normal 0 1 0
    outer loop
      vertex 51.0451 14 13.7447
      vertex 51.6289 14 13.9759
      vertex 58 14 0
    endloop
  endfacet
  facet normal 0 1 0
    outer loop
      vertex 51.6289 14 13.9759
      vertex 52.1791 14 14.2784
      vertex 58 14 0
    endloop
  endfacet
  facet normal 0 1 0
    outer loop
      vertex 52.1791 14 14.2784
      vertex 52.6871 14 14.6474
      vertex 58 14 0
    endloop
  endfacet
  facet normal 0 1 0
    outer loop
      vertex 52.6871 14 14.6474
      vertex 53.1448 14 15.0773
      vertex 58 14 0
    endloop
  endfacet
  facet normal 0 1 0
    outer loop
      vertex 53.1448 14 15.0773
      vertex 53.5451 14 15.5611
      vertex 58 14 0
    endloop
  endfacet
  facet normal 0 1 0
    outer loop
      vertex 53.5451 14 15.5611
      vertex 53.8815 14 16.0912
      vertex 58 14 0
    endloop
  endfacet
  facet normal 0 1 0
    outer loop
      vertex 53.8815 14 16.0912
      vertex 54.1489 14 16.6594
      vertex 58 14 0
    endloop
  endfacet
  facet normal 0 1 0
    outer loop
      vertex 54.1489 14 16.6594
      vertex 54.3429 14 17.2566
      vertex 58 14 0
    endloop
  endfacet
  facet normal 0 1 0
    outer loop
      vertex 54.3429 14 17.2566
      vertex 54.4606 14 17.8733
      vertex 58 14 0
    endloop
  endfacet
  facet normal 0 1 0
    outer loop
      vertex 54.4606 14 17.8733
      vertex 54.5 14 18.5
      vertex 58 14 0
    endloop
  endfacet
  facet normal 0 1 0
    outer loop
      vertex 54.5 14 18.5
      vertex 54.5 14 51
      vertex 58 14 0
    endloop
  endfacet
  facet normal 0 1 0
    outer loop
      vertex 58 14 0
      vertex 54.5 14 51
      vertex 58 14 51
    endloop
  endfacet
  facet normal -1 0 0
    outer loop
      vertex 38.5 14 13.5099
      vertex 38.5 12.5 3.6299
      vertex 38.5 12.5 13.5099
    endloop
  endfacet
  facet normal -1 0 0
    outer loop
      vertex 38.5 12.5 1.5
      vertex 38.5 12.5 3.6299
      vertex 38.5 14 13.5099
    endloop
  endfacet
  facet normal -1 0 0
    outer loop
      vertex 38.5 12.5 1.5
      vertex 38.5 14 13.5099
      vertex 38.5 14 0
    endloop
  endfacet
  facet normal -1 0 0
    outer loop
      vertex 38.5 12.5 1.5
      vertex 38.5 14 0
      vertex 38.5 11 1.5
    endloop
  endfacet
  facet normal -1 0 0
    outer loop
      vertex 38.5 14 0
      vertex 38.5 11 0
      vertex 38.5 11 1.5
    endloop
  endfacet
  facet normal 0 1 0
    outer loop
      vertex 38.5 11 1.5
      vertex 38.5 11 0
      vertex 19.5 11 1.5
    endloop
  endfacet
  facet normal 0 1 0
    outer loop
      vertex 19.5 11 1.5
      vertex 38.5 11 0
      vertex 19.5 11 0
    endloop
  endfacet
  facet normal 1 0 0
    outer loop
      vertex 19.5 12.5 0
      vertex 19.5 12.5 1.5
      vertex 19.5 11 1.5
    endloop
  endfacet
  facet normal 1 0 0
    outer loop
      vertex 19.5 11 0
      vertex 19.5 12.5 0
      vertex 19.5 11 1.5
    endloop
  endfacet
  facet normal 0.5 0.866025 0
    outer loop
      vertex 16.9019 14 1.5
      vertex 16.9019 14 13.5099
      vertex 19.5 12.5 13.5099
    endloop
  endfacet
  facet normal 0.5 0.866025 0
    outer loop
      vertex 16.9019 14 1.5
      vertex 19.5 12.5 13.5099
      vertex 19.5 12.5 3.6299
    endloop
  endfacet
  facet normal 0.5 0.866025 0
    outer loop
      vertex 16.9019 14 1.5
      vertex 19.5 12.5 3.6299
      vertex 19.5 12.5 1.5
    endloop
  endfacet
  facet normal 0.5 0.866025 0
    outer loop
      vertex 16.9019 14 1.5
      vertex 19.5 12.5 1.5
      vertex 19.5 12.5 0
    endloop
  endfacet
  facet normal 0.5 0.866025 0
    outer loop
      vertex 16.9019 14 1.5
      vertex 19.5 12.5 0
      vertex -3.01666 25.5 1.5
    endloop
  endfacet
  facet normal 0.5 0.866025 0
    outer loop
      vertex 19.5 12.5 0
      vertex -3.01666 25.5 0
      vertex -3.01666 25.5 1.5
    endloop
  endfacet
  facet normal 0 0 1
    outer loop
      vertex 0 14 1.5
      vertex 16.9019 14 1.5
      vertex -3.01666 25.5 1.5
    endloop
  endfacet
  facet normal 0 0 1
    outer loop
      vertex -6 14 1.5
      vertex 0 14 1.5
      vertex -6 25.5 1.5
    endloop
  endfacet
  facet normal 0 0 1
    outer loop
      vertex -6 25.5 1.5
      vertex 0 14 1.5
      vertex -3.01666 25.5 1.5
    endloop
  endfacet
  facet normal 1 0 0
    outer loop
      vertex -6 18.681 8.48972
      vertex -6 25.5 13
      vertex -6 14 13
    endloop
  endfacet
  facet normal 1 0 0
    outer loop
      vertex -6 21.0382 7.72383
      vertex -6 21.1168 7.52533
      vertex -6 25.5 1.5
    endloop
  endfacet
  facet normal 1 0 0
    outer loop
      vertex -6 14 1.5
      vertex -6 17.8034 7.10674
      vertex -6 14 13
    endloop
  endfacet
  facet normal 1 0 0
    outer loop
      vertex -6 17.8034 7.10674
      vertex -6 17.8301 7.31855
      vertex -6 14 13
    endloop
  endfacet
  facet normal 1 0 0
    outer loop
      vertex -6 17.8301 7.31855
      vertex -6 17.8832 7.52533
      vertex -6 14 13
    endloop
  endfacet
  facet normal 1 0 0
    outer loop
      vertex -6 17.8832 7.52533
      vertex -6 17.9618 7.72383
      vertex -6 14 13
    endloop
  endfacet
  facet normal 1 0 0
    outer loop
      vertex -6 17.9618 7.72383
      vertex -6 18.0646 7.91091
      vertex -6 14 13
    endloop
  endfacet
  facet normal 1 0 0
    outer loop
      vertex -6 20.4992 5.62467
      vertex -6 20.319 5.51028
      vertex -6 25.5 1.5
    endloop
  endfacet
  facet normal 1 0 0
    outer loop
      vertex -6 18.0646 7.91091
      vertex -6 18.1901 8.08362
      vertex -6 14 13
    endloop
  endfacet
  facet normal 1 0 0
    outer loop
      vertex -6 18.1901 8.08362
      vertex -6 18.3363 8.23925
      vertex -6 14 13
    endloop
  endfacet
  facet normal 1 0 0
    outer loop
      vertex -6 18.3363 8.23925
      vertex -6 18.5008 8.37533
      vertex -6 14 13
    endloop
  endfacet
  facet normal 1 0 0
    outer loop
      vertex -6 18.8742 8.58062
      vertex -6 25.5 13
      vertex -6 18.681 8.48972
    endloop
  endfacet
  facet normal 1 0 0
    outer loop
      vertex -6 20.9354 6.08909
      vertex -6 20.8099 5.91638
      vertex -6 25.5 1.5
    endloop
  endfacet
  facet normal 1 0 0
    outer loop
      vertex -6 19.0772 8.64659
      vertex -6 25.5 13
      vertex -6 18.8742 8.58062
    endloop
  endfacet
  facet normal 1 0 0
    outer loop
      vertex -6 19.2869 8.6866
      vertex -6 25.5 13
      vertex -6 19.0772 8.64659
    endloop
  endfacet
  facet normal 1 0 0
    outer loop
      vertex -6 19.5 8.7
      vertex -6 25.5 13
      vertex -6 19.2869 8.6866
    endloop
  endfacet
  facet normal 1 0 0
    outer loop
      vertex -6 19.7131 8.6866
      vertex -6 25.5 13
      vertex -6 19.5 8.7
    endloop
  endfacet
  facet normal 1 0 0
    outer loop
      vertex -6 21.1699 6.68145
      vertex -6 21.1168 6.47467
      vertex -6 25.5 1.5
    endloop
  endfacet
  facet normal 1 0 0
    outer loop
      vertex -6 19.9228 8.64659
      vertex -6 25.5 13
      vertex -6 19.7131 8.6866
    endloop
  endfacet
  facet normal 1 0 0
    outer loop
      vertex -6 20.1258 8.58062
      vertex -6 25.5 13
      vertex -6 19.9228 8.64659
    endloop
  endfacet
  facet normal 1 0 0
    outer loop
      vertex -6 20.319 8.48972
      vertex -6 25.5 13
      vertex -6 20.1258 8.58062
    endloop
  endfacet
  facet normal 1 0 0
    outer loop
      vertex -6 20.4992 8.37533
      vertex -6 25.5 13
      vertex -6 20.319 8.48972
    endloop
  endfacet
  facet normal 1 0 0
    outer loop
      vertex -6 20.6637 8.23925
      vertex -6 25.5 13
      vertex -6 20.4992 8.37533
    endloop
  endfacet
  facet normal 1 0 0
    outer loop
      vertex -6 21.1168 7.52533
      vertex -6 21.1699 7.31855
      vertex -6 25.5 1.5
    endloop
  endfacet
  facet normal 1 0 0
    outer loop
      vertex -6 20.8099 8.08362
      vertex -6 25.5 13
      vertex -6 20.6637 8.23925
    endloop
  endfacet
  facet normal 1 0 0
    outer loop
      vertex -6 20.9354 7.91091
      vertex -6 25.5 13
      vertex -6 20.8099 8.08362
    endloop
  endfacet
  facet normal 1 0 0
    outer loop
      vertex -6 25.5 1.5
      vertex -6 25.5 13
      vertex -6 20.9354 7.91091
    endloop
  endfacet
  facet normal 1 0 0
    outer loop
      vertex -6 21.1966 6.89326
      vertex -6 21.1699 6.68145
      vertex -6 25.5 1.5
    endloop
  endfacet
  facet normal 1 0 0
    outer loop
      vertex -6 21.1699 7.31855
      vertex -6 21.1966 7.10674
      vertex -6 25.5 1.5
    endloop
  endfacet
  facet normal 1 0 0
    outer loop
      vertex -6 21.1966 7.10674
      vertex -6 21.1966 6.89326
      vertex -6 25.5 1.5
    endloop
  endfacet
  facet normal 1 0 0
    outer loop
      vertex -6 21.0382 6.27618
      vertex -6 20.9354 6.08909
      vertex -6 25.5 1.5
    endloop
  endfacet
  facet normal 1 0 0
    outer loop
      vertex -6 21.1168 6.47467
      vertex -6 21.0382 6.27618
      vertex -6 25.5 1.5
    endloop
  endfacet
  facet normal 1 0 0
    outer loop
      vertex -6 20.8099 5.91638
      vertex -6 20.6637 5.76075
      vertex -6 25.5 1.5
    endloop
  endfacet
  facet normal 1 0 0
    outer loop
      vertex -6 20.9354 7.91091
      vertex -6 21.0382 7.72383
      vertex -6 25.5 1.5
    endloop
  endfacet
  facet normal 1 0 0
    outer loop
      vertex -6 20.6637 5.76075
      vertex -6 20.4992 5.62467
      vertex -6 25.5 1.5
    endloop
  endfacet
  facet normal 1 0 0
    outer loop
      vertex -6 20.319 5.51028
      vertex -6 20.1258 5.41938
      vertex -6 25.5 1.5
    endloop
  endfacet
  facet normal 1 0 0
    outer loop
      vertex -6 20.1258 5.41938
      vertex -6 19.9228 5.35341
      vertex -6 25.5 1.5
    endloop
  endfacet
  facet normal 1 0 0
    outer loop
      vertex -6 14 1.5
      vertex -6 25.5 1.5
      vertex -6 19.9228 5.35341
    endloop
  endfacet
  facet normal 1 0 0
    outer loop
      vertex -6 14 1.5
      vertex -6 19.9228 5.35341
      vertex -6 19.7131 5.31341
    endloop
  endfacet
  facet normal 1 0 0
    outer loop
      vertex -6 14 1.5
      vertex -6 19.7131 5.31341
      vertex -6 19.5 5.3
    endloop
  endfacet
  facet normal 1 0 0
    outer loop
      vertex -6 14 1.5
      vertex -6 19.5 5.3
      vertex -6 19.2869 5.31341
    endloop
  endfacet
  facet normal 1 0 0
    outer loop
      vertex -6 14 1.5
      vertex -6 19.2869 5.31341
      vertex -6 19.0772 5.35341
    endloop
  endfacet
  facet normal 1 0 0
    outer loop
      vertex -6 14 1.5
      vertex -6 19.0772 5.35341
      vertex -6 18.8742 5.41938
    endloop
  endfacet
  facet normal 1 0 0
    outer loop
      vertex -6 14 1.5
      vertex -6 18.8742 5.41938
      vertex -6 18.681 5.51028
    endloop
  endfacet
  facet normal 1 0 0
    outer loop
      vertex -6 14 1.5
      vertex -6 18.681 5.51028
      vertex -6 18.5008 5.62467
    endloop
  endfacet
  facet normal 1 0 0
    outer loop
      vertex -6 14 1.5
      vertex -6 18.5008 5.62467
      vertex -6 18.3363 5.76075
    endloop
  endfacet
  facet normal 1 0 0
    outer loop
      vertex -6 14 1.5
      vertex -6 18.3363 5.76075
      vertex -6 18.1901 5.91638
    endloop
  endfacet
  facet normal 1 0 0
    outer loop
      vertex -6 14 1.5
      vertex -6 18.1901 5.91638
      vertex -6 18.0646 6.08909
    endloop
  endfacet
  facet normal 1 0 0
    outer loop
      vertex -6 14 1.5
      vertex -6 18.0646 6.08909
      vertex -6 17.9618 6.27618
    endloop
  endfacet
  facet normal 1 0 0
    outer loop
      vertex -6 14 1.5
      vertex -6 17.9618 6.27618
      vertex -6 17.8832 6.47467
    endloop
  endfacet
  facet normal 1 0 0
    outer loop
      vertex -6 14 1.5
      vertex -6 17.8832 6.47467
      vertex -6 17.8301 6.68145
    endloop
  endfacet
  facet normal 1 0 0
    outer loop
      vertex -6 14 1.5
      vertex -6 17.8034 6.89326
      vertex -6 17.8034 7.10674
    endloop
  endfacet
  facet normal 1 0 0
    outer loop
      vertex -6 14 1.5
      vertex -6 17.8301 6.68145
      vertex -6 17.8034 6.89326
    endloop
  endfacet
  facet normal 1 0 0
    outer loop
      vertex -6 18.5008 8.37533
      vertex -6 18.681 8.48972
      vertex -6 14 13
    endloop
  endfacet
  facet normal 0 1 0
    outer loop
      vertex -6 14 1.5
      vertex -6 14 13
      vertex 0 14 1.5
    endloop
  endfacet
  facet normal 0 1 0
    outer loop
      vertex 0 14 1.5
      vertex -6 14 13
      vertex 0 14 13
    endloop
  endfacet
  facet normal 0 1 0
    outer loop
      vertex 0 14 1.5
      vertex 0 14 13
      vertex 16.9019 14 1.5
    endloop
  endfacet
  facet normal 0 1 0
    outer loop
      vertex 3.5 14 18.5
      vertex 0 14 13
      vertex 0 14 51
    endloop
  endfacet
  facet normal 0 1 0
    outer loop
      vertex 3.53943 14 17.8733
      vertex 0 14 13
      vertex 3.5 14 18.5
    endloop
  endfacet
  facet normal 0 1 0
    outer loop
      vertex 5.31288 14 14.6474
      vertex 16.9019 14 1.5
      vertex 4.85516 14 15.0773
    endloop
  endfacet
  facet normal 0 1 0
    outer loop
      vertex 3.65708 14 17.2566
      vertex 0 14 13
      vertex 3.53943 14 17.8733
    endloop
  endfacet
  facet normal 0 1 0
    outer loop
      vertex 3.85112 14 16.6594
      vertex 0 14 13
      vertex 3.65708 14 17.2566
    endloop
  endfacet
  facet normal 0 1 0
    outer loop
      vertex 4.11847 14 16.0912
      vertex 0 14 13
      vertex 3.85112 14 16.6594
    endloop
  endfacet
  facet normal 0 1 0
    outer loop
      vertex 4.45492 14 15.5611
      vertex 0 14 13
      vertex 4.11847 14 16.0912
    endloop
  endfacet
  facet normal 0 1 0
    outer loop
      vertex 4.85516 14 15.0773
      vertex 0 14 13
      vertex 4.45492 14 15.5611
    endloop
  endfacet
  facet normal 0 1 0
    outer loop
      vertex 16.9019 14 1.5
      vertex 0 14 13
      vertex 4.85516 14 15.0773
    endloop
  endfacet
  facet normal 0 1 0
    outer loop
      vertex 5.82087 14 14.2784
      vertex 16.9019 14 1.5
      vertex 5.31288 14 14.6474
    endloop
  endfacet
  facet normal 0 1 0
    outer loop
      vertex 6.3711 14 13.9759
      vertex 16.9019 14 1.5
      vertex 5.82087 14 14.2784
    endloop
  endfacet
  facet normal 0 1 0
    outer loop
      vertex 6.95491 14 13.7447
      vertex 16.9019 14 1.5
      vertex 6.3711 14 13.9759
    endloop
  endfacet
  facet normal 0 1 0
    outer loop
      vertex 7.56309 14 13.5886
      vertex 16.9019 14 1.5
      vertex 6.95491 14 13.7447
    endloop
  endfacet
  facet normal 0 1 0
    outer loop
      vertex 16.9019 14 13.5099
      vertex 16.9019 14 1.5
      vertex 8.18605 14 13.5099
    endloop
  endfacet
  facet normal 0 1 0
    outer loop
      vertex 16.9019 14 1.5
      vertex 7.56309 14 13.5886
      vertex 8.18605 14 13.5099
    endloop
  endfacet
  facet normal 0 1 0
    outer loop
      vertex 3.5 14 18.5
      vertex 0 14 51
      vertex 3.5 14 51
    endloop
  endfacet
  facet normal 0 0 1
    outer loop
      vertex 0 14 51
      vertex 0 0 51
      vertex 3.5 0 51
    endloop
  endfacet
  facet normal 0 0 1
    outer loop
      vertex 3.5 14 51
      vertex 0 14 51
      vertex 3.5 0 51
    endloop
  endfacet
  facet normal 1 0 0
    outer loop
      vertex 3.5 14 51
      vertex 3.5 1.5 49.5
      vertex 3.5 12.5 49.5
    endloop
  endfacet
  facet normal 1 0 0
    outer loop
      vertex 3.5 1.5 18.5
      vertex 3.5 1.5 49.5
      vertex 3.5 0 51
    endloop
  endfacet
  facet normal 1 0 0
    outer loop
      vertex 3.5 12.5 18.5
      vertex 3.5 14 18.5
      vertex 3.5 12.5 49.5
    endloop
  endfacet
  facet normal 1 0 0
    outer loop
      vertex 3.5 14 18.5
      vertex 3.5 14 51
      vertex 3.5 12.5 49.5
    endloop
  endfacet
  facet normal 1 0 0
    outer loop
      vertex 3.5 14 51
      vertex 3.5 0 51
      vertex 3.5 1.5 49.5
    endloop
  endfacet
  facet normal 1 0 0
    outer loop
      vertex 3.5 0 51
      vertex 3.5 0 18.5
      vertex 3.5 1.5 18.5
    endloop
  endfacet
  facet normal 0.998027 1.39421e-017 0.0627898
    outer loop
      vertex 3.53943 0 17.8733
      vertex 3.53943 1.5 17.8733
      vertex 3.5 1.5 18.5
    endloop
  endfacet
  facet normal 0.998027 1.39421e-017 0.0627898
    outer loop
      vertex 3.5 0 18.5
      vertex 3.53943 0 17.8733
      vertex 3.5 1.5 18.5
    endloop
  endfacet
  facet normal 0.982287 4.16071e-017 0.187382
    outer loop
      vertex 3.65708 0 17.2566
      vertex 3.65708 1.5 17.2566
      vertex 3.53943 1.5 17.8733
    endloop
  endfacet
  facet normal 0.982287 4.16071e-017 0.187382
    outer loop
      vertex 3.53943 0 17.8733
      vertex 3.65708 0 17.2566
      vertex 3.53943 1.5 17.8733
    endloop
  endfacet
  facet normal 0.951056 6.86157e-017 0.309018
    outer loop
      vertex 3.85112 0 16.6594
      vertex 3.85112 1.5 16.6594
      vertex 3.65708 1.5 17.2566
    endloop
  endfacet
  facet normal 0.951056 6.86157e-017 0.309018
    outer loop
      vertex 3.65708 0 17.2566
      vertex 3.85112 0 16.6594
      vertex 3.65708 1.5 17.2566
    endloop
  endfacet
  facet normal 0.904827 9.45421e-017 0.42578
    outer loop
      vertex 4.11847 0 16.0912
      vertex 4.11847 1.5 16.0912
      vertex 3.85112 1.5 16.6594
    endloop
  endfacet
  facet normal 0.904827 9.45421e-017 0.42578
    outer loop
      vertex 3.85112 0 16.6594
      vertex 4.11847 0 16.0912
      vertex 3.85112 1.5 16.6594
    endloop
  endfacet
  facet normal 0.844328 1.18977e-016 0.535826
    outer loop
      vertex 4.45492 0 15.5611
      vertex 4.45492 1.5 15.5611
      vertex 4.11847 1.5 16.0912
    endloop
  endfacet
  facet normal 0.844328 1.18977e-016 0.535826
    outer loop
      vertex 4.11847 0 16.0912
      vertex 4.45492 0 15.5611
      vertex 4.11847 1.5 16.0912
    endloop
  endfacet
  facet normal 0.770514 1.41536e-016 0.637424
    outer loop
      vertex 4.85516 0 15.0773
      vertex 4.85516 1.5 15.0773
      vertex 4.45492 1.5 15.5611
    endloop
  endfacet
  facet normal 0.770514 1.41536e-016 0.637424
    outer loop
      vertex 4.45492 0 15.5611
      vertex 4.85516 0 15.0773
      vertex 4.45492 1.5 15.5611
    endloop
  endfacet
  facet normal 0.684547 1.61864e-016 0.728969
    outer loop
      vertex 5.31288 0 14.6474
      vertex 5.31288 1.5 14.6474
      vertex 4.85516 1.5 15.0773
    endloop
  endfacet
  facet normal 0.684547 1.61864e-016 0.728969
    outer loop
      vertex 4.85516 0 15.0773
      vertex 5.31288 0 14.6474
      vertex 4.85516 1.5 15.0773
    endloop
  endfacet
  facet normal 0.587786 1.79638e-016 0.809017
    outer loop
      vertex 5.82087 0 14.2784
      vertex 5.82087 1.5 14.2784
      vertex 5.31288 1.5 14.6474
    endloop
  endfacet
  facet normal 0.587786 1.79638e-016 0.809017
    outer loop
      vertex 5.31288 0 14.6474
      vertex 5.82087 0 14.2784
      vertex 5.31288 1.5 14.6474
    endloop
  endfacet
  facet normal 0.481753 1.94579e-016 0.876307
    outer loop
      vertex 6.3711 0 13.9759
      vertex 6.3711 1.5 13.9759
      vertex 5.82087 1.5 14.2784
    endloop
  endfacet
  facet normal 0.481753 1.94579e-016 0.876307
    outer loop
      vertex 5.82087 0 14.2784
      vertex 6.3711 0 13.9759
      vertex 5.82087 1.5 14.2784
    endloop
  endfacet
  facet normal 0.368126 2.06452e-016 0.929776
    outer loop
      vertex 6.95491 0 13.7447
      vertex 6.95491 1.5 13.7447
      vertex 6.3711 1.5 13.9759
    endloop
  endfacet
  facet normal 0.368126 2.06452e-016 0.929776
    outer loop
      vertex 6.3711 0 13.9759
      vertex 6.95491 0 13.7447
      vertex 6.3711 1.5 13.9759
    endloop
  endfacet
  facet normal 0.248689 2.15069e-016 0.968583
    outer loop
      vertex 7.56309 0 13.5886
      vertex 7.56309 1.5 13.5886
      vertex 6.95491 1.5 13.7447
    endloop
  endfacet
  facet normal 0.248689 2.15069e-016 0.968583
    outer loop
      vertex 6.95491 0 13.7447
      vertex 7.56309 0 13.5886
      vertex 6.95491 1.5 13.7447
    endloop
  endfacet
  facet normal 0.125334 2.20294e-016 0.992115
    outer loop
      vertex 8.18605 0 13.5099
      vertex 8.18605 1.5 13.5099
      vertex 7.56309 1.5 13.5886
    endloop
  endfacet
  facet normal 0.125334 2.20294e-016 0.992115
    outer loop
      vertex 7.56309 0 13.5886
      vertex 8.18605 0 13.5099
      vertex 7.56309 1.5 13.5886
    endloop
  endfacet
  facet normal 0 2.22045e-016 1
    outer loop
      vertex 49.814 0 13.5099
      vertex 49.814 1.5 13.5099
      vertex 8.18605 1.5 13.5099
    endloop
  endfacet
  facet normal 0 2.22045e-016 1
    outer loop
      vertex 8.18605 0 13.5099
      vertex 49.814 0 13.5099
      vertex 8.18605 1.5 13.5099
    endloop
  endfacet
  facet normal -0.125334 2.20294e-016 0.992115
    outer loop
      vertex 50.4369 0 13.5886
      vertex 50.4369 1.5 13.5886
      vertex 49.814 1.5 13.5099
    endloop
  endfacet
  facet normal -0.125334 2.20294e-016 0.992115
    outer loop
      vertex 49.814 0 13.5099
      vertex 50.4369 0 13.5886
      vertex 49.814 1.5 13.5099
    endloop
  endfacet
  facet normal -0.248689 2.15069e-016 0.968583
    outer loop
      vertex 51.0451 0 13.7447
      vertex 51.0451 1.5 13.7447
      vertex 50.4369 1.5 13.5886
    endloop
  endfacet
  facet normal -0.248689 2.15069e-016 0.968583
    outer loop
      vertex 50.4369 0 13.5886
      vertex 51.0451 0 13.7447
      vertex 50.4369 1.5 13.5886
    endloop
  endfacet
  facet normal -0.368126 2.06452e-016 0.929776
    outer loop
      vertex 51.6289 0 13.9759
      vertex 51.6289 1.5 13.9759
      vertex 51.0451 1.5 13.7447
    endloop
  endfacet
  facet normal -0.368126 2.06452e-016 0.929776
    outer loop
      vertex 51.0451 0 13.7447
      vertex 51.6289 0 13.9759
      vertex 51.0451 1.5 13.7447
    endloop
  endfacet
  facet normal -0.481753 1.94579e-016 0.876307
    outer loop
      vertex 52.1791 0 14.2784
      vertex 52.1791 1.5 14.2784
      vertex 51.6289 1.5 13.9759
    endloop
  endfacet
  facet normal -0.481753 1.94579e-016 0.876307
    outer loop
      vertex 51.6289 0 13.9759
      vertex 52.1791 0 14.2784
      vertex 51.6289 1.5 13.9759
    endloop
  endfacet
  facet normal -0.587786 1.79638e-016 0.809017
    outer loop
      vertex 52.6871 0 14.6474
      vertex 52.6871 1.5 14.6474
      vertex 52.1791 1.5 14.2784
    endloop
  endfacet
  facet normal -0.587786 1.79638e-016 0.809017
    outer loop
      vertex 52.1791 0 14.2784
      vertex 52.6871 0 14.6474
      vertex 52.1791 1.5 14.2784
    endloop
  endfacet
  facet normal -0.684547 1.61864e-016 0.728969
    outer loop
      vertex 53.1448 0 15.0773
      vertex 53.1448 1.5 15.0773
      vertex 52.6871 1.5 14.6474
    endloop
  endfacet
  facet normal -0.684547 1.61864e-016 0.728969
    outer loop
      vertex 52.6871 0 14.6474
      vertex 53.1448 0 15.0773
      vertex 52.6871 1.5 14.6474
    endloop
  endfacet
  facet normal -0.770514 1.41536e-016 0.637424
    outer loop
      vertex 53.5451 1.5 15.5611
      vertex 53.1448 1.5 15.0773
      vertex 53.5451 0 15.5611
    endloop
  endfacet
  facet normal -0.770514 1.41536e-016 0.637424
    outer loop
      vertex 53.5451 0 15.5611
      vertex 53.1448 1.5 15.0773
      vertex 53.1448 0 15.0773
    endloop
  endfacet
  facet normal -0.844328 1.18977e-016 0.535826
    outer loop
      vertex 53.8815 1.5 16.0912
      vertex 53.5451 1.5 15.5611
      vertex 53.8815 0 16.0912
    endloop
  endfacet
  facet normal -0.844328 1.18977e-016 0.535826
    outer loop
      vertex 53.8815 0 16.0912
      vertex 53.5451 1.5 15.5611
      vertex 53.5451 0 15.5611
    endloop
  endfacet
  facet normal -0.904827 9.45421e-017 0.42578
    outer loop
      vertex 54.1489 1.5 16.6594
      vertex 53.8815 1.5 16.0912
      vertex 54.1489 0 16.6594
    endloop
  endfacet
  facet normal -0.904827 9.45421e-017 0.42578
    outer loop
      vertex 54.1489 0 16.6594
      vertex 53.8815 1.5 16.0912
      vertex 53.8815 0 16.0912
    endloop
  endfacet
  facet normal -0.951056 6.86157e-017 0.309018
    outer loop
      vertex 54.3429 1.5 17.2566
      vertex 54.1489 1.5 16.6594
      vertex 54.3429 0 17.2566
    endloop
  endfacet
  facet normal -0.951056 6.86157e-017 0.309018
    outer loop
      vertex 54.3429 0 17.2566
      vertex 54.1489 1.5 16.6594
      vertex 54.1489 0 16.6594
    endloop
  endfacet
  facet normal -0.982287 4.16071e-017 0.187382
    outer loop
      vertex 54.4606 1.5 17.8733
      vertex 54.3429 1.5 17.2566
      vertex 54.4606 0 17.8733
    endloop
  endfacet
  facet normal -0.982287 4.16071e-017 0.187382
    outer loop
      vertex 54.4606 0 17.8733
      vertex 54.3429 1.5 17.2566
      vertex 54.3429 0 17.2566
    endloop
  endfacet
  facet normal -0.998027 1.39421e-017 0.0627898
    outer loop
      vertex 54.5 1.5 18.5
      vertex 54.4606 1.5 17.8733
      vertex 54.5 0 18.5
    endloop
  endfacet
  facet normal -0.998027 1.39421e-017 0.0627898
    outer loop
      vertex 54.5 0 18.5
      vertex 54.4606 1.5 17.8733
      vertex 54.4606 0 17.8733
    endloop
  endfacet
  facet normal -1 0 0
    outer loop
      vertex 54.5 14 51
      vertex 54.5 14 18.5
      vertex 54.5 12.5 49.5
    endloop
  endfacet
  facet normal -1 0 0
    outer loop
      vertex 54.5 14 51
      vertex 54.5 12.5 49.5
      vertex 54.5 0 51
    endloop
  endfacet
  facet normal -1 0 0
    outer loop
      vertex 54.5 1.5 18.5
      vertex 54.5 0 51
      vertex 54.5 1.5 49.5
    endloop
  endfacet
  facet normal -1 0 0
    outer loop
      vertex 54.5 12.5 49.5
      vertex 54.5 1.5 49.5
      vertex 54.5 0 51
    endloop
  endfacet
  facet normal -1 0 0
    outer loop
      vertex 54.5 0 51
      vertex 54.5 1.5 18.5
      vertex 54.5 0 18.5
    endloop
  endfacet
  facet normal -1 0 0
    outer loop
      vertex 54.5 12.5 49.5
      vertex 54.5 14 18.5
      vertex 54.5 12.5 18.5
    endloop
  endfacet
  facet normal 0 0 1
    outer loop
      vertex 54.5 14 51
      vertex 54.5 0 51
      vertex 58 0 51
    endloop
  endfacet
  facet normal 0 0 1
    outer loop
      vertex 58 14 51
      vertex 54.5 14 51
      vertex 58 11 51
    endloop
  endfacet
  facet normal 0 0 1
    outer loop
      vertex 58 11 51
      vertex 54.5 14 51
      vertex 58 0 51
    endloop
  endfacet
  facet normal -0.998027 1.39421e-017 0.0627898
    outer loop
      vertex 54.5 14 18.5
      vertex 54.4606 14 17.8733
      vertex 54.5 12.5 18.5
    endloop
  endfacet
  facet normal -0.998027 1.39421e-017 0.0627898
    outer loop
      vertex 54.5 12.5 18.5
      vertex 54.4606 14 17.8733
      vertex 54.4606 12.5 17.8733
    endloop
  endfacet
  facet normal -0.982287 4.16071e-017 0.187382
    outer loop
      vertex 54.4606 14 17.8733
      vertex 54.3429 14 17.2566
      vertex 54.4606 12.5 17.8733
    endloop
  endfacet
  facet normal -0.982287 4.16071e-017 0.187382
    outer loop
      vertex 54.4606 12.5 17.8733
      vertex 54.3429 14 17.2566
      vertex 54.3429 12.5 17.2566
    endloop
  endfacet
  facet normal -0.951056 6.86157e-017 0.309018
    outer loop
      vertex 54.3429 14 17.2566
      vertex 54.1489 14 16.6594
      vertex 54.3429 12.5 17.2566
    endloop
  endfacet
  facet normal -0.951056 6.86157e-017 0.309018
    outer loop
      vertex 54.3429 12.5 17.2566
      vertex 54.1489 14 16.6594
      vertex 54.1489 12.5 16.6594
    endloop
  endfacet
  facet normal -0.904827 9.45421e-017 0.42578
    outer loop
      vertex 54.1489 14 16.6594
      vertex 53.8815 14 16.0912
      vertex 54.1489 12.5 16.6594
    endloop
  endfacet
  facet normal -0.904827 9.45421e-017 0.42578
    outer loop
      vertex 54.1489 12.5 16.6594
      vertex 53.8815 14 16.0912
      vertex 53.8815 12.5 16.0912
    endloop
  endfacet
  facet normal -0.844328 1.18977e-016 0.535826
    outer loop
      vertex 53.8815 14 16.0912
      vertex 53.5451 14 15.5611
      vertex 53.8815 12.5 16.0912
    endloop
  endfacet
  facet normal -0.844328 1.18977e-016 0.535826
    outer loop
      vertex 53.8815 12.5 16.0912
      vertex 53.5451 14 15.5611
      vertex 53.5451 12.5 15.5611
    endloop
  endfacet
  facet normal -0.770514 1.41536e-016 0.637424
    outer loop
      vertex 53.5451 14 15.5611
      vertex 53.1448 14 15.0773
      vertex 53.5451 12.5 15.5611
    endloop
  endfacet
  facet normal -0.770514 1.41536e-016 0.637424
    outer loop
      vertex 53.5451 12.5 15.5611
      vertex 53.1448 14 15.0773
      vertex 53.1448 12.5 15.0773
    endloop
  endfacet
  facet normal -0.684547 1.61864e-016 0.728969
    outer loop
      vertex 53.1448 12.5 15.0773
      vertex 53.1448 14 15.0773
      vertex 52.6871 14 14.6474
    endloop
  endfacet
  facet normal -0.684547 1.61864e-016 0.728969
    outer loop
      vertex 52.6871 12.5 14.6474
      vertex 53.1448 12.5 15.0773
      vertex 52.6871 14 14.6474
    endloop
  endfacet
  facet normal -0.587786 1.79638e-016 0.809017
    outer loop
      vertex 52.6871 12.5 14.6474
      vertex 52.6871 14 14.6474
      vertex 52.1791 14 14.2784
    endloop
  endfacet
  facet normal -0.587786 1.79638e-016 0.809017
    outer loop
      vertex 52.1791 12.5 14.2784
      vertex 52.6871 12.5 14.6474
      vertex 52.1791 14 14.2784
    endloop
  endfacet
  facet normal -0.481753 1.94579e-016 0.876307
    outer loop
      vertex 52.1791 12.5 14.2784
      vertex 52.1791 14 14.2784
      vertex 51.6289 14 13.9759
    endloop
  endfacet
  facet normal -0.481753 1.94579e-016 0.876307
    outer loop
      vertex 51.6289 12.5 13.9759
      vertex 52.1791 12.5 14.2784
      vertex 51.6289 14 13.9759
    endloop
  endfacet
  facet normal -0.368126 2.06452e-016 0.929776
    outer loop
      vertex 51.6289 12.5 13.9759
      vertex 51.6289 14 13.9759
      vertex 51.0451 14 13.7447
    endloop
  endfacet
  facet normal -0.368126 2.06452e-016 0.929776
    outer loop
      vertex 51.0451 12.5 13.7447
      vertex 51.6289 12.5 13.9759
      vertex 51.0451 14 13.7447
    endloop
  endfacet
  facet normal -0.248689 2.15069e-016 0.968583
    outer loop
      vertex 51.0451 12.5 13.7447
      vertex 51.0451 14 13.7447
      vertex 50.4369 14 13.5886
    endloop
  endfacet
  facet normal -0.248689 2.15069e-016 0.968583
    outer loop
      vertex 50.4369 12.5 13.5886
      vertex 51.0451 12.5 13.7447
      vertex 50.4369 14 13.5886
    endloop
  endfacet
  facet normal -0.125334 2.20294e-016 0.992115
    outer loop
      vertex 50.4369 12.5 13.5886
      vertex 50.4369 14 13.5886
      vertex 49.814 14 13.5099
    endloop
  endfacet
  facet normal -0.125334 2.20294e-016 0.992115
    outer loop
      vertex 49.814 12.5 13.5099
      vertex 50.4369 12.5 13.5886
      vertex 49.814 14 13.5099
    endloop
  endfacet
  facet normal 0 2.22045e-016 1
    outer loop
      vertex 49.814 12.5 13.5099
      vertex 49.814 14 13.5099
      vertex 38.5 14 13.5099
    endloop
  endfacet
  facet normal 0 2.22045e-016 1
    outer loop
      vertex 38.5 12.5 13.5099
      vertex 49.814 12.5 13.5099
      vertex 38.5 14 13.5099
    endloop
  endfacet
  facet normal 0 0 1
    outer loop
      vertex 56.5 1.5 1.5
      vertex 56.5 12.5 1.5
      vertex 38.5 12.5 1.5
    endloop
  endfacet
  facet normal 0 0 1
    outer loop
      vertex 19.5 11 1.5
      vertex 56.5 1.5 1.5
      vertex 38.5 11 1.5
    endloop
  endfacet
  facet normal 0 0 1
    outer loop
      vertex 38.5 11 1.5
      vertex 56.5 1.5 1.5
      vertex 38.5 12.5 1.5
    endloop
  endfacet
  facet normal 0 0 1
    outer loop
      vertex 1.5 12.5 1.5
      vertex 56.5 1.5 1.5
      vertex 19.5 11 1.5
    endloop
  endfacet
  facet normal 0 0 1
    outer loop
      vertex 1.5 12.5 1.5
      vertex 19.5 11 1.5
      vertex 19.5 12.5 1.5
    endloop
  endfacet
  facet normal 0 0 1
    outer loop
      vertex 1.5 1.5 1.5
      vertex 56.5 1.5 1.5
      vertex 1.5 12.5 1.5
    endloop
  endfacet
  facet normal 0 -1 0
    outer loop
      vertex 38.8738 12.5 3.67713
      vertex 40.0902 12.5 3.98944
      vertex 41.2578 12.5 4.45173
    endloop
  endfacet
  facet normal 0 -1 0
    outer loop
      vertex 43.3742 12.5 5.79487
      vertex 38.8738 12.5 3.67713
      vertex 42.3583 12.5 5.05672
    endloop
  endfacet
  facet normal 0 -1 0
    outer loop
      vertex 42.3583 12.5 5.05672
      vertex 38.8738 12.5 3.67713
      vertex 41.2578 12.5 4.45173
    endloop
  endfacet
  facet normal 0 -1 0
    outer loop
      vertex 44.2897 12.5 6.65453
      vertex 38.8738 12.5 3.67713
      vertex 43.3742 12.5 5.79487
    endloop
  endfacet
  facet normal 0 -1 0
    outer loop
      vertex 45.0902 12.5 7.62215
      vertex 38.8738 12.5 3.67713
      vertex 44.2897 12.5 6.65453
    endloop
  endfacet
  facet normal 0 -1 0
    outer loop
      vertex 45.7631 12.5 8.68246
      vertex 38.8738 12.5 3.67713
      vertex 45.0902 12.5 7.62215
    endloop
  endfacet
  facet normal 0 -1 0
    outer loop
      vertex 46.2978 12.5 9.81875
      vertex 38.8738 12.5 3.67713
      vertex 45.7631 12.5 8.68246
    endloop
  endfacet
  facet normal 0 -1 0
    outer loop
      vertex 46.6858 12.5 11.0131
      vertex 38.8738 12.5 3.67713
      vertex 46.2978 12.5 9.81875
    endloop
  endfacet
  facet normal 0 -1 0
    outer loop
      vertex 46.9211 12.5 12.2467
      vertex 38.8738 12.5 3.67713
      vertex 46.6858 12.5 11.0131
    endloop
  endfacet
  facet normal 0 -1 0
    outer loop
      vertex 46.9685 12.5 13
      vertex 38.8738 12.5 3.67713
      vertex 46.9211 12.5 12.2467
    endloop
  endfacet
  facet normal 0 -1 0
    outer loop
      vertex 56.5 12.5 13
      vertex 56.5 12.5 49.5
      vertex 54.5 12.5 18.5
    endloop
  endfacet
  facet normal 0 -1 0
    outer loop
      vertex 56.5 12.5 13
      vertex 54.5 12.5 18.5
      vertex 54.4606 12.5 17.8733
    endloop
  endfacet
  facet normal 0 -1 0
    outer loop
      vertex 56.5 12.5 13
      vertex 54.4606 12.5 17.8733
      vertex 54.3429 12.5 17.2566
    endloop
  endfacet
  facet normal 0 -1 0
    outer loop
      vertex 56.5 12.5 13
      vertex 54.3429 12.5 17.2566
      vertex 54.1489 12.5 16.6594
    endloop
  endfacet
  facet normal 0 -1 0
    outer loop
      vertex 56.5 12.5 13
      vertex 54.1489 12.5 16.6594
      vertex 53.8815 12.5 16.0912
    endloop
  endfacet
  facet normal 0 -1 0
    outer loop
      vertex 56.5 12.5 13
      vertex 53.8815 12.5 16.0912
      vertex 53.5451 12.5 15.5611
    endloop
  endfacet
  facet normal 0 -1 0
    outer loop
      vertex 56.5 12.5 13
      vertex 53.5451 12.5 15.5611
      vertex 53.1448 12.5 15.0773
    endloop
  endfacet
  facet normal 0 -1 0
    outer loop
      vertex 56.5 12.5 13
      vertex 53.1448 12.5 15.0773
      vertex 52.6871 12.5 14.6474
    endloop
  endfacet
  facet normal 0 -1 0
    outer loop
      vertex 56.5 12.5 13
      vertex 52.6871 12.5 14.6474
      vertex 52.1791 12.5 14.2784
    endloop
  endfacet
  facet normal 0 -1 0
    outer loop
      vertex 56.5 12.5 13
      vertex 52.1791 12.5 14.2784
      vertex 51.6289 12.5 13.9759
    endloop
  endfacet
  facet normal 0 -1 0
    outer loop
      vertex 56.5 12.5 13
      vertex 51.6289 12.5 13.9759
      vertex 51.0451 12.5 13.7447
    endloop
  endfacet
  facet normal 0 -1 0
    outer loop
      vertex 56.5 12.5 13
      vertex 50.4369 12.5 13.5886
      vertex 46.9685 12.5 13
    endloop
  endfacet
  facet normal 0 -1 0
    outer loop
      vertex 56.5 12.5 13
      vertex 51.0451 12.5 13.7447
      vertex 50.4369 12.5 13.5886
    endloop
  endfacet
  facet normal 0 -1 0
    outer loop
      vertex 50.4369 12.5 13.5886
      vertex 49.814 12.5 13.5099
      vertex 46.9685 12.5 13
    endloop
  endfacet
  facet normal 0 -1 0
    outer loop
      vertex 38.5 12.5 3.6299
      vertex 38.8738 12.5 3.67713
      vertex 38.5 12.5 13.5099
    endloop
  endfacet
  facet normal 0 -1 0
    outer loop
      vertex 54.5 12.5 49.5
      vertex 54.5 12.5 18.5
      vertex 56.5 12.5 49.5
    endloop
  endfacet
  facet normal 0 -1 0
    outer loop
      vertex 46.9685 12.5 13
      vertex 38.5 12.5 13.5099
      vertex 38.8738 12.5 3.67713
    endloop
  endfacet
  facet normal 0 -1 0
    outer loop
      vertex 49.814 12.5 13.5099
      vertex 38.5 12.5 13.5099
      vertex 46.9685 12.5 13
    endloop
  endfacet
  facet normal 0 -1 0
    outer loop
      vertex 56.5 12.5 1.5
      vertex 56.5 12.5 13
      vertex 46.9685 12.5 13
    endloop
  endfacet
  facet normal 0 -1 0
    outer loop
      vertex 46.6858 12.5 11.0131
      vertex 56.5 12.5 1.5
      vertex 46.9211 12.5 12.2467
    endloop
  endfacet
  facet normal 0 -1 0
    outer loop
      vertex 46.9211 12.5 12.2467
      vertex 56.5 12.5 1.5
      vertex 46.9685 12.5 13
    endloop
  endfacet
  facet normal 0 -1 0
    outer loop
      vertex 46.2978 12.5 9.81875
      vertex 56.5 12.5 1.5
      vertex 46.6858 12.5 11.0131
    endloop
  endfacet
  facet normal 0 -1 0
    outer loop
      vertex 45.7631 12.5 8.68246
      vertex 56.5 12.5 1.5
      vertex 46.2978 12.5 9.81875
    endloop
  endfacet
  facet normal 0 -1 0
    outer loop
      vertex 45.0902 12.5 7.62215
      vertex 56.5 12.5 1.5
      vertex 45.7631 12.5 8.68246
    endloop
  endfacet
  facet normal 0 -1 0
    outer loop
      vertex 44.2897 12.5 6.65453
      vertex 56.5 12.5 1.5
      vertex 45.0902 12.5 7.62215
    endloop
  endfacet
  facet normal 0 -1 0
    outer loop
      vertex 43.3742 12.5 5.79487
      vertex 56.5 12.5 1.5
      vertex 44.2897 12.5 6.65453
    endloop
  endfacet
  facet normal 0 -1 0
    outer loop
      vertex 42.3583 12.5 5.05672
      vertex 56.5 12.5 1.5
      vertex 43.3742 12.5 5.79487
    endloop
  endfacet
  facet normal 0 -1 0
    outer loop
      vertex 41.2578 12.5 4.45173
      vertex 56.5 12.5 1.5
      vertex 42.3583 12.5 5.05672
    endloop
  endfacet
  facet normal 0 -1 0
    outer loop
      vertex 40.0902 12.5 3.98944
      vertex 56.5 12.5 1.5
      vertex 41.2578 12.5 4.45173
    endloop
  endfacet
  facet normal 0 -1 0
    outer loop
      vertex 38.8738 12.5 3.67713
      vertex 56.5 12.5 1.5
      vertex 40.0902 12.5 3.98944
    endloop
  endfacet
  facet normal 0 -1 0
    outer loop
      vertex 38.5 12.5 3.6299
      vertex 56.5 12.5 1.5
      vertex 38.8738 12.5 3.67713
    endloop
  endfacet
  facet normal 0 -1 0
    outer loop
      vertex 38.5 12.5 1.5
      vertex 56.5 12.5 1.5
      vertex 38.5 12.5 3.6299
    endloop
  endfacet
  facet normal 0 -1 0
    outer loop
      vertex 16.7422 12.5 4.45173
      vertex 15.6417 12.5 5.05672
      vertex 19.5 12.5 1.5
    endloop
  endfacet
  facet normal 0 -1 0
    outer loop
      vertex 19.5 12.5 1.5
      vertex 19.5 12.5 3.6299
      vertex 19.1262 12.5 3.67713
    endloop
  endfacet
  facet normal 0 -1 0
    outer loop
      vertex 15.6417 12.5 5.05672
      vertex 14.6258 12.5 5.79487
      vertex 19.5 12.5 1.5
    endloop
  endfacet
  facet normal 0 -1 0
    outer loop
      vertex 17.9098 12.5 3.98944
      vertex 19.5 12.5 1.5
      vertex 19.1262 12.5 3.67713
    endloop
  endfacet
  facet normal 0 -1 0
    outer loop
      vertex 17.9098 12.5 3.98944
      vertex 16.7422 12.5 4.45173
      vertex 19.5 12.5 1.5
    endloop
  endfacet
  facet normal 0 -1 0
    outer loop
      vertex 14.6258 12.5 5.79487
      vertex 1.5 12.5 13
      vertex 19.5 12.5 1.5
    endloop
  endfacet
  facet normal 0 -1 0
    outer loop
      vertex 13.7103 12.5 6.65453
      vertex 1.5 12.5 13
      vertex 14.6258 12.5 5.79487
    endloop
  endfacet
  facet normal 0 -1 0
    outer loop
      vertex 12.9098 12.5 7.62215
      vertex 1.5 12.5 13
      vertex 13.7103 12.5 6.65453
    endloop
  endfacet
  facet normal 0 -1 0
    outer loop
      vertex 12.2369 12.5 8.68246
      vertex 1.5 12.5 13
      vertex 12.9098 12.5 7.62215
    endloop
  endfacet
  facet normal 0 -1 0
    outer loop
      vertex 11.7022 12.5 9.81875
      vertex 1.5 12.5 13
      vertex 12.2369 12.5 8.68246
    endloop
  endfacet
  facet normal 0 -1 0
    outer loop
      vertex 11.3142 12.5 11.0131
      vertex 1.5 12.5 13
      vertex 11.7022 12.5 9.81875
    endloop
  endfacet
  facet normal 0 -1 0
    outer loop
      vertex 11.0789 12.5 12.2467
      vertex 1.5 12.5 13
      vertex 11.3142 12.5 11.0131
    endloop
  endfacet
  facet normal 0 -1 0
    outer loop
      vertex 11.0315 12.5 13
      vertex 1.5 12.5 13
      vertex 11.0789 12.5 12.2467
    endloop
  endfacet
  facet normal 0 -1 0
    outer loop
      vertex 1.5 12.5 13
      vertex 1.5 12.5 1.5
      vertex 19.5 12.5 1.5
    endloop
  endfacet
  facet normal 0 -1 0
    outer loop
      vertex 11.0315 12.5 13
      vertex 11.0789 12.5 12.2467
      vertex 11.3142 12.5 11.0131
    endloop
  endfacet
  facet normal 0 -1 0
    outer loop
      vertex 12.2369 12.5 8.68246
      vertex 11.0315 12.5 13
      vertex 11.7022 12.5 9.81875
    endloop
  endfacet
  facet normal 0 -1 0
    outer loop
      vertex 11.7022 12.5 9.81875
      vertex 11.0315 12.5 13
      vertex 11.3142 12.5 11.0131
    endloop
  endfacet
  facet normal 0 -1 0
    outer loop
      vertex 12.9098 12.5 7.62215
      vertex 11.0315 12.5 13
      vertex 12.2369 12.5 8.68246
    endloop
  endfacet
  facet normal 0 -1 0
    outer loop
      vertex 13.7103 12.5 6.65453
      vertex 11.0315 12.5 13
      vertex 12.9098 12.5 7.62215
    endloop
  endfacet
  facet normal 0 -1 0
    outer loop
      vertex 14.6258 12.5 5.79487
      vertex 11.0315 12.5 13
      vertex 13.7103 12.5 6.65453
    endloop
  endfacet
  facet normal 0 -1 0
    outer loop
      vertex 15.6417 12.5 5.05672
      vertex 11.0315 12.5 13
      vertex 14.6258 12.5 5.79487
    endloop
  endfacet
  facet normal 0 -1 0
    outer loop
      vertex 16.7422 12.5 4.45173
      vertex 11.0315 12.5 13
      vertex 15.6417 12.5 5.05672
    endloop
  endfacet
  facet normal 0 -1 0
    outer loop
      vertex 17.9098 12.5 3.98944
      vertex 11.0315 12.5 13
      vertex 16.7422 12.5 4.45173
    endloop
  endfacet
  facet normal 0 -1 0
    outer loop
      vertex 19.1262 12.5 3.67713
      vertex 11.0315 12.5 13
      vertex 17.9098 12.5 3.98944
    endloop
  endfacet
  facet normal 0 -1 0
    outer loop
      vertex 19.5 12.5 3.6299
      vertex 11.0315 12.5 13
      vertex 19.1262 12.5 3.67713
    endloop
  endfacet
  facet normal 0 -1 0
    outer loop
      vertex 19.5 12.5 13.5099
      vertex 11.0315 12.5 13
      vertex 19.5 12.5 3.6299
    endloop
  endfacet
  facet normal 0 -1 0
    outer loop
      vertex 8.18605 12.5 13.5099
      vertex 11.0315 12.5 13
      vertex 19.5 12.5 13.5099
    endloop
  endfacet
  facet normal 0 -1 0
    outer loop
      vertex 1.5 12.5 13
      vertex 4.85516 12.5 15.0773
      vertex 4.45492 12.5 15.5611
    endloop
  endfacet
  facet normal 0 -1 0
    outer loop
      vertex 1.5 12.5 13
      vertex 4.45492 12.5 15.5611
      vertex 4.11847 12.5 16.0912
    endloop
  endfacet
  facet normal 0 -1 0
    outer loop
      vertex 1.5 12.5 13
      vertex 4.11847 12.5 16.0912
      vertex 3.85112 12.5 16.6594
    endloop
  endfacet
  facet normal 0 -1 0
    outer loop
      vertex 1.5 12.5 13
      vertex 3.85112 12.5 16.6594
      vertex 3.65708 12.5 17.2566
    endloop
  endfacet
  facet normal 0 -1 0
    outer loop
      vertex 1.5 12.5 13
      vertex 3.65708 12.5 17.2566
      vertex 3.53943 12.5 17.8733
    endloop
  endfacet
  facet normal 0 -1 0
    outer loop
      vertex 1.5 12.5 49.5
      vertex 3.53943 12.5 17.8733
      vertex 3.5 12.5 18.5
    endloop
  endfacet
  facet normal 0 -1 0
    outer loop
      vertex 1.5 12.5 49.5
      vertex 3.5 12.5 18.5
      vertex 3.5 12.5 49.5
    endloop
  endfacet
  facet normal 0 -1 0
    outer loop
      vertex 1.5 12.5 13
      vertex 3.53943 12.5 17.8733
      vertex 1.5 12.5 49.5
    endloop
  endfacet
  facet normal 0 -1 0
    outer loop
      vertex 1.5 12.5 13
      vertex 5.31288 12.5 14.6474
      vertex 4.85516 12.5 15.0773
    endloop
  endfacet
  facet normal 0 -1 0
    outer loop
      vertex 1.5 12.5 13
      vertex 5.82087 12.5 14.2784
      vertex 5.31288 12.5 14.6474
    endloop
  endfacet
  facet normal 0 -1 0
    outer loop
      vertex 1.5 12.5 13
      vertex 6.3711 12.5 13.9759
      vertex 5.82087 12.5 14.2784
    endloop
  endfacet
  facet normal 0 -1 0
    outer loop
      vertex 1.5 12.5 13
      vertex 6.95491 12.5 13.7447
      vertex 6.3711 12.5 13.9759
    endloop
  endfacet
  facet normal 0 -1 0
    outer loop
      vertex 1.5 12.5 13
      vertex 7.56309 12.5 13.5886
      vertex 6.95491 12.5 13.7447
    endloop
  endfacet
  facet normal 0 -1 0
    outer loop
      vertex 1.5 12.5 13
      vertex 8.18605 12.5 13.5099
      vertex 7.56309 12.5 13.5886
    endloop
  endfacet
  facet normal 0 -1 0
    outer loop
      vertex 1.5 12.5 13
      vertex 11.0315 12.5 13
      vertex 8.18605 12.5 13.5099
    endloop
  endfacet
  facet normal 0 2.22045e-016 1
    outer loop
      vertex 19.5 12.5 13.5099
      vertex 16.9019 14 13.5099
      vertex 8.18605 14 13.5099
    endloop
  endfacet
  facet normal 0 2.22045e-016 1
    outer loop
      vertex 8.18605 12.5 13.5099
      vertex 19.5 12.5 13.5099
      vertex 8.18605 14 13.5099
    endloop
  endfacet
  facet normal 0.125334 2.20294e-016 0.992115
    outer loop
      vertex 8.18605 12.5 13.5099
      vertex 8.18605 14 13.5099
      vertex 7.56309 14 13.5886
    endloop
  endfacet
  facet normal 0.125334 2.20294e-016 0.992115
    outer loop
      vertex 7.56309 12.5 13.5886
      vertex 8.18605 12.5 13.5099
      vertex 7.56309 14 13.5886
    endloop
  endfacet
  facet normal 0.248689 2.15069e-016 0.968583
    outer loop
      vertex 7.56309 12.5 13.5886
      vertex 7.56309 14 13.5886
      vertex 6.95491 14 13.7447
    endloop
  endfacet
  facet normal 0.248689 2.15069e-016 0.968583
    outer loop
      vertex 6.95491 12.5 13.7447
      vertex 7.56309 12.5 13.5886
      vertex 6.95491 14 13.7447
    endloop
  endfacet
  facet normal 0.368126 2.06452e-016 0.929776
    outer loop
      vertex 6.95491 12.5 13.7447
      vertex 6.95491 14 13.7447
      vertex 6.3711 14 13.9759
    endloop
  endfacet
  facet normal 0.368126 2.06452e-016 0.929776
    outer loop
      vertex 6.3711 12.5 13.9759
      vertex 6.95491 12.5 13.7447
      vertex 6.3711 14 13.9759
    endloop
  endfacet
  facet normal 0.481753 1.94579e-016 0.876307
    outer loop
      vertex 6.3711 12.5 13.9759
      vertex 6.3711 14 13.9759
      vertex 5.82087 14 14.2784
    endloop
  endfacet
  facet normal 0.481753 1.94579e-016 0.876307
    outer loop
      vertex 5.82087 12.5 14.2784
      vertex 6.3711 12.5 13.9759
      vertex 5.82087 14 14.2784
    endloop
  endfacet
  facet normal 0.587786 1.79638e-016 0.809017
    outer loop
      vertex 5.82087 12.5 14.2784
      vertex 5.82087 14 14.2784
      vertex 5.31288 14 14.6474
    endloop
  endfacet
  facet normal 0.587786 1.79638e-016 0.809017
    outer loop
      vertex 5.31288 12.5 14.6474
      vertex 5.82087 12.5 14.2784
      vertex 5.31288 14 14.6474
    endloop
  endfacet
  facet normal 0.684547 1.61864e-016 0.728969
    outer loop
      vertex 5.31288 12.5 14.6474
      vertex 5.31288 14 14.6474
      vertex 4.85516 14 15.0773
    endloop
  endfacet
  facet normal 0.684547 1.61864e-016 0.728969
    outer loop
      vertex 4.85516 12.5 15.0773
      vertex 5.31288 12.5 14.6474
      vertex 4.85516 14 15.0773
    endloop
  endfacet
  facet normal 0.770514 1.41536e-016 0.637424
    outer loop
      vertex 4.85516 12.5 15.0773
      vertex 4.85516 14 15.0773
      vertex 4.45492 14 15.5611
    endloop
  endfacet
  facet normal 0.770514 1.41536e-016 0.637424
    outer loop
      vertex 4.45492 12.5 15.5611
      vertex 4.85516 12.5 15.0773
      vertex 4.45492 14 15.5611
    endloop
  endfacet
  facet normal 0.844328 1.18977e-016 0.535826
    outer loop
      vertex 4.45492 12.5 15.5611
      vertex 4.45492 14 15.5611
      vertex 4.11847 14 16.0912
    endloop
  endfacet
  facet normal 0.844328 1.18977e-016 0.535826
    outer loop
      vertex 4.11847 12.5 16.0912
      vertex 4.45492 12.5 15.5611
      vertex 4.11847 14 16.0912
    endloop
  endfacet
  facet normal 0.904827 9.45421e-017 0.42578
    outer loop
      vertex 4.11847 12.5 16.0912
      vertex 4.11847 14 16.0912
      vertex 3.85112 14 16.6594
    endloop
  endfacet
  facet normal 0.904827 9.45421e-017 0.42578
    outer loop
      vertex 3.85112 12.5 16.6594
      vertex 4.11847 12.5 16.0912
      vertex 3.85112 14 16.6594
    endloop
  endfacet
  facet normal 0.951056 6.86157e-017 0.309018
    outer loop
      vertex 3.85112 12.5 16.6594
      vertex 3.85112 14 16.6594
      vertex 3.65708 14 17.2566
    endloop
  endfacet
  facet normal 0.951056 6.86157e-017 0.309018
    outer loop
      vertex 3.65708 12.5 17.2566
      vertex 3.85112 12.5 16.6594
      vertex 3.65708 14 17.2566
    endloop
  endfacet
  facet normal 0.982287 4.16071e-017 0.187382
    outer loop
      vertex 3.65708 12.5 17.2566
      vertex 3.65708 14 17.2566
      vertex 3.53943 14 17.8733
    endloop
  endfacet
  facet normal 0.982287 4.16071e-017 0.187382
    outer loop
      vertex 3.53943 12.5 17.8733
      vertex 3.65708 12.5 17.2566
      vertex 3.53943 14 17.8733
    endloop
  endfacet
  facet normal 0.998027 1.39421e-017 0.0627898
    outer loop
      vertex 3.53943 12.5 17.8733
      vertex 3.53943 14 17.8733
      vertex 3.5 14 18.5
    endloop
  endfacet
  facet normal 0.998027 1.39421e-017 0.0627898
    outer loop
      vertex 3.5 12.5 18.5
      vertex 3.53943 12.5 17.8733
      vertex 3.5 14 18.5
    endloop
  endfacet
  facet normal 0 1 0
    outer loop
      vertex 3.5 1.5 49.5
      vertex 3.5 1.5 18.5
      vertex 1.5 1.5 49.5
    endloop
  endfacet
  facet normal 0 1 0
    outer loop
      vertex 1.5 1.5 49.5
      vertex 3.5 1.5 18.5
      vertex 3.53943 1.5 17.8733
    endloop
  endfacet
  facet normal 0 1 0
    outer loop
      vertex 3.53943 1.5 17.8733
      vertex 1.5 1.5 1.5
      vertex 1.5 1.5 49.5
    endloop
  endfacet
  facet normal 0 1 0
    outer loop
      vertex 3.65708 1.5 17.2566
      vertex 1.5 1.5 1.5
      vertex 3.53943 1.5 17.8733
    endloop
  endfacet
  facet normal 0 1 0
    outer loop
      vertex 3.85112 1.5 16.6594
      vertex 1.5 1.5 1.5
      vertex 3.65708 1.5 17.2566
    endloop
  endfacet
  facet normal 0 1 0
    outer loop
      vertex 4.11847 1.5 16.0912
      vertex 1.5 1.5 1.5
      vertex 3.85112 1.5 16.6594
    endloop
  endfacet
  facet normal 0 1 0
    outer loop
      vertex 4.45492 1.5 15.5611
      vertex 1.5 1.5 1.5
      vertex 4.11847 1.5 16.0912
    endloop
  endfacet
  facet normal 0 1 0
    outer loop
      vertex 4.85516 1.5 15.0773
      vertex 1.5 1.5 1.5
      vertex 4.45492 1.5 15.5611
    endloop
  endfacet
  facet normal 0 1 0
    outer loop
      vertex 5.31288 1.5 14.6474
      vertex 1.5 1.5 1.5
      vertex 4.85516 1.5 15.0773
    endloop
  endfacet
  facet normal 0 1 0
    outer loop
      vertex 6.3711 1.5 13.9759
      vertex 6.95491 1.5 13.7447
      vertex 1.5 1.5 1.5
    endloop
  endfacet
  facet normal 0 1 0
    outer loop
      vertex 6.95491 1.5 13.7447
      vertex 7.56309 1.5 13.5886
      vertex 1.5 1.5 1.5
    endloop
  endfacet
  facet normal 0 1 0
    outer loop
      vertex 7.56309 1.5 13.5886
      vertex 56.5 1.5 1.5
      vertex 1.5 1.5 1.5
    endloop
  endfacet
  facet normal 0 1 0
    outer loop
      vertex 8.18605 1.5 13.5099
      vertex 56.5 1.5 1.5
      vertex 7.56309 1.5 13.5886
    endloop
  endfacet
  facet normal 0 1 0
    outer loop
      vertex 49.814 1.5 13.5099
      vertex 56.5 1.5 1.5
      vertex 8.18605 1.5 13.5099
    endloop
  endfacet
  facet normal 0 1 0
    outer loop
      vertex 50.4369 1.5 13.5886
      vertex 56.5 1.5 1.5
      vertex 49.814 1.5 13.5099
    endloop
  endfacet
  facet normal 0 1 0
    outer loop
      vertex 51.0451 1.5 13.7447
      vertex 56.5 1.5 1.5
      vertex 50.4369 1.5 13.5886
    endloop
  endfacet
  facet normal 0 1 0
    outer loop
      vertex 51.6289 1.5 13.9759
      vertex 56.5 1.5 1.5
      vertex 51.0451 1.5 13.7447
    endloop
  endfacet
  facet normal 0 1 0
    outer loop
      vertex 52.1791 1.5 14.2784
      vertex 56.5 1.5 1.5
      vertex 51.6289 1.5 13.9759
    endloop
  endfacet
  facet normal 0 1 0
    outer loop
      vertex 52.6871 1.5 14.6474
      vertex 56.5 1.5 1.5
      vertex 52.1791 1.5 14.2784
    endloop
  endfacet
  facet normal 0 1 0
    outer loop
      vertex 53.1448 1.5 15.0773
      vertex 56.5 1.5 1.5
      vertex 52.6871 1.5 14.6474
    endloop
  endfacet
  facet normal 0 1 0
    outer loop
      vertex 53.5451 1.5 15.5611
      vertex 56.5 1.5 1.5
      vertex 53.1448 1.5 15.0773
    endloop
  endfacet
  facet normal 0 1 0
    outer loop
      vertex 53.8815 1.5 16.0912
      vertex 56.5 1.5 1.5
      vertex 53.5451 1.5 15.5611
    endloop
  endfacet
  facet normal 0 1 0
    outer loop
      vertex 54.1489 1.5 16.6594
      vertex 56.5 1.5 1.5
      vertex 53.8815 1.5 16.0912
    endloop
  endfacet
  facet normal 0 1 0
    outer loop
      vertex 54.3429 1.5 17.2566
      vertex 56.5 1.5 1.5
      vertex 54.1489 1.5 16.6594
    endloop
  endfacet
  facet normal 0 1 0
    outer loop
      vertex 54.5 1.5 18.5
      vertex 54.5 1.5 49.5
      vertex 56.5 1.5 49.5
    endloop
  endfacet
  facet normal 0 1 0
    outer loop
      vertex 54.5 1.5 18.5
      vertex 56.5 1.5 49.5
      vertex 54.4606 1.5 17.8733
    endloop
  endfacet
  facet normal 0 1 0
    outer loop
      vertex 54.4606 1.5 17.8733
      vertex 56.5 1.5 49.5
      vertex 56.5 1.5 1.5
    endloop
  endfacet
  facet normal 0 1 0
    outer loop
      vertex 54.4606 1.5 17.8733
      vertex 56.5 1.5 1.5
      vertex 54.3429 1.5 17.2566
    endloop
  endfacet
  facet normal 0 1 0
    outer loop
      vertex 5.82087 1.5 14.2784
      vertex 6.3711 1.5 13.9759
      vertex 1.5 1.5 1.5
    endloop
  endfacet
  facet normal 0 1 0
    outer loop
      vertex 5.82087 1.5 14.2784
      vertex 1.5 1.5 1.5
      vertex 5.31288 1.5 14.6474
    endloop
  endfacet
  facet normal 0 0 -1
    outer loop
      vertex 3.5 12.5 49.5
      vertex 3.5 1.5 49.5
      vertex 1.5 12.5 49.5
    endloop
  endfacet
  facet normal 0 0 -1
    outer loop
      vertex 1.5 12.5 49.5
      vertex 3.5 1.5 49.5
      vertex 1.5 1.5 49.5
    endloop
  endfacet
  facet normal 0 0 -1
    outer loop
      vertex 56.5 12.5 49.5
      vertex 56.5 1.5 49.5
      vertex 54.5 12.5 49.5
    endloop
  endfacet
  facet normal 0 0 -1
    outer loop
      vertex 54.5 12.5 49.5
      vertex 56.5 1.5 49.5
      vertex 54.5 1.5 49.5
    endloop
  endfacet
  facet normal -1 0 0
    outer loop
      vertex 56.5 12.5 49.5
      vertex 56.5 12.5 13
      vertex 56.5 1.5 49.5
    endloop
  endfacet
  facet normal -1 0 0
    outer loop
      vertex 56.5 1.5 49.5
      vertex 56.5 12.5 13
      vertex 56.5 12.5 1.5
    endloop
  endfacet
  facet normal -1 0 0
    outer loop
      vertex 56.5 1.5 49.5
      vertex 56.5 12.5 1.5
      vertex 56.5 1.5 1.5
    endloop
  endfacet
  facet normal 1 0 0
    outer loop
      vertex 1.5 12.5 13
      vertex 1.5 12.5 49.5
      vertex 1.5 1.5 49.5
    endloop
  endfacet
  facet normal 1 0 0
    outer loop
      vertex 1.5 12.5 1.5
      vertex 1.5 12.5 13
      vertex 1.5 1.5 49.5
    endloop
  endfacet
  facet normal 1 0 0
    outer loop
      vertex 1.5 1.5 1.5
      vertex 1.5 12.5 1.5
      vertex 1.5 1.5 49.5
    endloop
  endfacet
endsolid OpenSCAD_Model
