solid OpenSCAD_Model
  facet normal 0 0 -1
    outer loop
      vertex -50.7 0 0
      vertex -50.3002 6.35439 0
      vertex -50.3002 -6.35439 0
    endloop
  endfacet
  facet normal 0 0 -1
    outer loop
      vertex -49.6057 6.26666 0
      vertex -50.3002 6.35439 0
      vertex -49.1072 12.6086 0
    endloop
  endfacet
  facet normal 0 0 -1
    outer loop
      vertex -48.4292 12.4345 0
      vertex -49.1072 12.6086 0
      vertex -47.1397 18.6639 0
    endloop
  endfacet
  facet normal 0 0 -1
    outer loop
      vertex -46.4888 18.4062 0
      vertex -47.1397 18.6639 0
      vertex -44.4287 24.4249 0
    endloop
  endfacet
  facet normal 0 0 -1
    outer loop
      vertex -43.8153 24.0877 0
      vertex -44.4287 24.4249 0
      vertex -41.0172 29.8007 0
    endloop
  endfacet
  facet normal 0 0 -1
    outer loop
      vertex -40.4508 29.3893 0
      vertex -41.0172 29.8007 0
      vertex -36.9587 34.7065 0
    endloop
  endfacet
  facet normal 0 0 -1
    outer loop
      vertex -36.4484 34.2274 0
      vertex -36.9587 34.7065 0
      vertex -32.3174 39.065 0
    endloop
  endfacet
  facet normal 0 0 -1
    outer loop
      vertex -31.8712 38.5257 0
      vertex -32.3174 39.065 0
      vertex -27.1664 42.8074 0
    endloop
  endfacet
  facet normal 0 0 -1
    outer loop
      vertex -26.7913 42.2164 0
      vertex -27.1664 42.8074 0
      vertex -21.587 45.8747 0
    endloop
  endfacet
  facet normal 0 0 -1
    outer loop
      vertex -21.289 45.2414 0
      vertex -21.587 45.8747 0
      vertex -15.6672 48.2186 0
    endloop
  endfacet
  facet normal 0 0 -1
    outer loop
      vertex -15.4508 47.5528 0
      vertex -15.6672 48.2186 0
      vertex -9.50023 49.802 0
    endloop
  endfacet
  facet normal 0 0 -1
    outer loop
      vertex -9.36907 49.1144 0
      vertex -9.50023 49.802 0
      vertex -3.18348 50.6 0
    endloop
  endfacet
  facet normal 0 0 -1
    outer loop
      vertex -3.13953 49.9013 0
      vertex -3.18348 50.6 0
      vertex 3.18348 50.6 0
    endloop
  endfacet
  facet normal 0 0 -1
    outer loop
      vertex 3.13953 49.9013 0
      vertex 3.18348 50.6 0
      vertex 9.50023 49.802 0
    endloop
  endfacet
  facet normal 0 0 -1
    outer loop
      vertex 9.36907 49.1144 0
      vertex 9.50023 49.802 0
      vertex 15.6672 48.2186 0
    endloop
  endfacet
  facet normal 0 0 -1
    outer loop
      vertex 15.4508 47.5528 0
      vertex 15.6672 48.2186 0
      vertex 21.587 45.8747 0
    endloop
  endfacet
  facet normal 0 0 -1
    outer loop
      vertex 21.289 45.2414 0
      vertex 21.587 45.8747 0
      vertex 27.1664 42.8074 0
    endloop
  endfacet
  facet normal 0 0 -1
    outer loop
      vertex 26.7913 42.2164 0
      vertex 27.1664 42.8074 0
      vertex 32.3174 39.065 0
    endloop
  endfacet
  facet normal 0 0 -1
    outer loop
      vertex 33.4959 37 0
      vertex 32.3174 39.065 0
      vertex 34.5164 37 0
    endloop
  endfacet
  facet normal 0 0 -1
    outer loop
      vertex 31.8712 38.5257 0
      vertex 32.3174 39.065 0
      vertex 33.4959 37 0
    endloop
  endfacet
  facet normal 0 0 -1
    outer loop
      vertex 21.289 45.2414 0
      vertex 27.1664 42.8074 0
      vertex 26.7913 42.2164 0
    endloop
  endfacet
  facet normal 0 0 -1
    outer loop
      vertex 15.4508 47.5528 0
      vertex 21.587 45.8747 0
      vertex 21.289 45.2414 0
    endloop
  endfacet
  facet normal 0 0 -1
    outer loop
      vertex 9.36907 49.1144 0
      vertex 15.6672 48.2186 0
      vertex 15.4508 47.5528 0
    endloop
  endfacet
  facet normal 0 0 -1
    outer loop
      vertex 3.13953 49.9013 0
      vertex 9.50023 49.802 0
      vertex 9.36907 49.1144 0
    endloop
  endfacet
  facet normal 0 0 -1
    outer loop
      vertex -3.13953 49.9013 0
      vertex 3.18348 50.6 0
      vertex 3.13953 49.9013 0
    endloop
  endfacet
  facet normal 0 0 -1
    outer loop
      vertex -9.36907 49.1144 0
      vertex -3.18348 50.6 0
      vertex -3.13953 49.9013 0
    endloop
  endfacet
  facet normal 0 0 -1
    outer loop
      vertex -15.4508 47.5528 0
      vertex -9.50023 49.802 0
      vertex -9.36907 49.1144 0
    endloop
  endfacet
  facet normal 0 0 -1
    outer loop
      vertex -21.289 45.2414 0
      vertex -15.6672 48.2186 0
      vertex -15.4508 47.5528 0
    endloop
  endfacet
  facet normal 0 0 -1
    outer loop
      vertex -26.7913 42.2164 0
      vertex -21.587 45.8747 0
      vertex -21.289 45.2414 0
    endloop
  endfacet
  facet normal 0 0 -1
    outer loop
      vertex -31.8712 38.5257 0
      vertex -27.1664 42.8074 0
      vertex -26.7913 42.2164 0
    endloop
  endfacet
  facet normal 0 0 -1
    outer loop
      vertex -36.4484 34.2274 0
      vertex -32.3174 39.065 0
      vertex -31.8712 38.5257 0
    endloop
  endfacet
  facet normal 0 0 -1
    outer loop
      vertex -40.4508 29.3893 0
      vertex -36.9587 34.7065 0
      vertex -36.4484 34.2274 0
    endloop
  endfacet
  facet normal 0 0 -1
    outer loop
      vertex -43.8153 24.0877 0
      vertex -41.0172 29.8007 0
      vertex -40.4508 29.3893 0
    endloop
  endfacet
  facet normal 0 0 -1
    outer loop
      vertex -46.4888 18.4062 0
      vertex -44.4287 24.4249 0
      vertex -43.8153 24.0877 0
    endloop
  endfacet
  facet normal 0 0 -1
    outer loop
      vertex -48.4292 12.4345 0
      vertex -47.1397 18.6639 0
      vertex -46.4888 18.4062 0
    endloop
  endfacet
  facet normal 0 0 -1
    outer loop
      vertex -49.6057 6.26666 0
      vertex -49.1072 12.6086 0
      vertex -48.4292 12.4345 0
    endloop
  endfacet
  facet normal 0 0 -1
    outer loop
      vertex -50 0 0
      vertex -50.3002 6.35439 0
      vertex -49.6057 6.26666 0
    endloop
  endfacet
  facet normal 0 0 -1
    outer loop
      vertex -49.6057 -6.26666 0
      vertex -50.3002 -6.35439 0
      vertex -50 0 0
    endloop
  endfacet
  facet normal 0 0 -1
    outer loop
      vertex -50.3002 -6.35439 0
      vertex -50.3002 6.35439 0
      vertex -50 0 0
    endloop
  endfacet
  facet normal 0 0 -1
    outer loop
      vertex -50.3002 -6.35439 0
      vertex -49.6057 -6.26666 0
      vertex -48.4292 -12.4345 0
    endloop
  endfacet
  facet normal 0 0 -1
    outer loop
      vertex -48.4292 -12.4345 0
      vertex -47.1397 -18.6639 0
      vertex -50.3002 -6.35439 0
    endloop
  endfacet
  facet normal 0 0 -1
    outer loop
      vertex 31.8712 -38.5257 0
      vertex 33.4959 -37 0
      vertex 34.5164 -37 0
    endloop
  endfacet
  facet normal 0 0 -1
    outer loop
      vertex 31.8712 -38.5257 0
      vertex 34.5164 -37 0
      vertex 26.7913 -42.2164 0
    endloop
  endfacet
  facet normal 0 0 -1
    outer loop
      vertex 26.7913 -42.2164 0
      vertex 34.5164 -37 0
      vertex 32.3174 -39.065 0
    endloop
  endfacet
  facet normal 0 0 -1
    outer loop
      vertex 26.7913 -42.2164 0
      vertex 32.3174 -39.065 0
      vertex 27.1664 -42.8074 0
    endloop
  endfacet
  facet normal 0 0 -1
    outer loop
      vertex 26.7913 -42.2164 0
      vertex 27.1664 -42.8074 0
      vertex 21.289 -45.2414 0
    endloop
  endfacet
  facet normal 0 0 -1
    outer loop
      vertex 21.289 -45.2414 0
      vertex 27.1664 -42.8074 0
      vertex 21.587 -45.8747 0
    endloop
  endfacet
  facet normal 0 0 -1
    outer loop
      vertex 21.289 -45.2414 0
      vertex 21.587 -45.8747 0
      vertex 15.4508 -47.5528 0
    endloop
  endfacet
  facet normal 0 0 -1
    outer loop
      vertex 15.4508 -47.5528 0
      vertex 21.587 -45.8747 0
      vertex 15.6672 -48.2186 0
    endloop
  endfacet
  facet normal 0 0 -1
    outer loop
      vertex 15.4508 -47.5528 0
      vertex 15.6672 -48.2186 0
      vertex 9.36907 -49.1144 0
    endloop
  endfacet
  facet normal 0 0 -1
    outer loop
      vertex 9.36907 -49.1144 0
      vertex 15.6672 -48.2186 0
      vertex 9.50023 -49.802 0
    endloop
  endfacet
  facet normal 0 0 -1
    outer loop
      vertex 9.36907 -49.1144 0
      vertex 9.50023 -49.802 0
      vertex 3.13953 -49.9013 0
    endloop
  endfacet
  facet normal 0 0 -1
    outer loop
      vertex 3.13953 -49.9013 0
      vertex 9.50023 -49.802 0
      vertex 3.18348 -50.6 0
    endloop
  endfacet
  facet normal 0 0 -1
    outer loop
      vertex 3.13953 -49.9013 0
      vertex 3.18348 -50.6 0
      vertex -3.13953 -49.9013 0
    endloop
  endfacet
  facet normal 0 0 -1
    outer loop
      vertex -3.13953 -49.9013 0
      vertex 3.18348 -50.6 0
      vertex -3.18348 -50.6 0
    endloop
  endfacet
  facet normal 0 0 -1
    outer loop
      vertex -3.13953 -49.9013 0
      vertex -3.18348 -50.6 0
      vertex -9.36907 -49.1144 0
    endloop
  endfacet
  facet normal 0 0 -1
    outer loop
      vertex -9.36907 -49.1144 0
      vertex -3.18348 -50.6 0
      vertex -9.50023 -49.802 0
    endloop
  endfacet
  facet normal 0 0 -1
    outer loop
      vertex -9.36907 -49.1144 0
      vertex -9.50023 -49.802 0
      vertex -15.4508 -47.5528 0
    endloop
  endfacet
  facet normal 0 0 -1
    outer loop
      vertex -15.4508 -47.5528 0
      vertex -9.50023 -49.802 0
      vertex -15.6672 -48.2186 0
    endloop
  endfacet
  facet normal 0 0 -1
    outer loop
      vertex -15.4508 -47.5528 0
      vertex -15.6672 -48.2186 0
      vertex -21.289 -45.2414 0
    endloop
  endfacet
  facet normal 0 0 -1
    outer loop
      vertex -21.289 -45.2414 0
      vertex -15.6672 -48.2186 0
      vertex -21.587 -45.8747 0
    endloop
  endfacet
  facet normal 0 0 -1
    outer loop
      vertex -21.289 -45.2414 0
      vertex -21.587 -45.8747 0
      vertex -26.7913 -42.2164 0
    endloop
  endfacet
  facet normal 0 0 -1
    outer loop
      vertex -26.7913 -42.2164 0
      vertex -21.587 -45.8747 0
      vertex -27.1664 -42.8074 0
    endloop
  endfacet
  facet normal 0 0 -1
    outer loop
      vertex -26.7913 -42.2164 0
      vertex -27.1664 -42.8074 0
      vertex -31.8712 -38.5257 0
    endloop
  endfacet
  facet normal 0 0 -1
    outer loop
      vertex -31.8712 -38.5257 0
      vertex -27.1664 -42.8074 0
      vertex -32.3174 -39.065 0
    endloop
  endfacet
  facet normal 0 0 -1
    outer loop
      vertex -31.8712 -38.5257 0
      vertex -32.3174 -39.065 0
      vertex -36.4484 -34.2274 0
    endloop
  endfacet
  facet normal 0 0 -1
    outer loop
      vertex -36.4484 -34.2274 0
      vertex -32.3174 -39.065 0
      vertex -36.9587 -34.7065 0
    endloop
  endfacet
  facet normal 0 0 -1
    outer loop
      vertex -36.4484 -34.2274 0
      vertex -36.9587 -34.7065 0
      vertex -40.4508 -29.3893 0
    endloop
  endfacet
  facet normal 0 0 -1
    outer loop
      vertex -40.4508 -29.3893 0
      vertex -36.9587 -34.7065 0
      vertex -41.0172 -29.8007 0
    endloop
  endfacet
  facet normal 0 0 -1
    outer loop
      vertex -40.4508 -29.3893 0
      vertex -41.0172 -29.8007 0
      vertex -43.8153 -24.0877 0
    endloop
  endfacet
  facet normal 0 0 -1
    outer loop
      vertex -43.8153 -24.0877 0
      vertex -41.0172 -29.8007 0
      vertex -44.4287 -24.4249 0
    endloop
  endfacet
  facet normal 0 0 -1
    outer loop
      vertex -43.8153 -24.0877 0
      vertex -44.4287 -24.4249 0
      vertex -46.4888 -18.4062 0
    endloop
  endfacet
  facet normal 0 0 -1
    outer loop
      vertex -46.4888 -18.4062 0
      vertex -44.4287 -24.4249 0
      vertex -47.1397 -18.6639 0
    endloop
  endfacet
  facet normal 0 0 -1
    outer loop
      vertex -46.4888 -18.4062 0
      vertex -47.1397 -18.6639 0
      vertex -48.4292 -12.4345 0
    endloop
  endfacet
  facet normal 0 0 -1
    outer loop
      vertex -50.3002 -6.35439 0
      vertex -47.1397 -18.6639 0
      vertex -49.1072 -12.6086 0
    endloop
  endfacet
  facet normal 0 0 -1
    outer loop
      vertex 26.7913 42.2164 0
      vertex 32.3174 39.065 0
      vertex 31.8712 38.5257 0
    endloop
  endfacet
  facet normal -0.998027 0.0627906 0
    outer loop
      vertex -50.7 0 0
      vertex -50.7 0 140
      vertex -50.3002 6.35439 0
    endloop
  endfacet
  facet normal -0.998027 0.0627906 0
    outer loop
      vertex -50.3002 6.35439 0
      vertex -50.7 0 140
      vertex -50.3002 6.35439 140
    endloop
  endfacet
  facet normal -0.998027 -0.0627906 0
    outer loop
      vertex -50.7 0 0
      vertex -50.3002 -6.35439 0
      vertex -50.7 0 140
    endloop
  endfacet
  facet normal -0.998027 -0.0627906 0
    outer loop
      vertex -50.7 0 140
      vertex -50.3002 -6.35439 0
      vertex -50.3002 -6.35439 140
    endloop
  endfacet
  facet normal -0.982287 -0.187381 0
    outer loop
      vertex -50.3002 -6.35439 0
      vertex -49.1072 -12.6086 0
      vertex -50.3002 -6.35439 140
    endloop
  endfacet
  facet normal -0.982287 -0.187381 0
    outer loop
      vertex -50.3002 -6.35439 140
      vertex -49.1072 -12.6086 0
      vertex -49.1072 -12.6086 140
    endloop
  endfacet
  facet normal -0.951057 -0.309017 0
    outer loop
      vertex -49.1072 -12.6086 0
      vertex -47.1397 -18.6639 0
      vertex -49.1072 -12.6086 140
    endloop
  endfacet
  facet normal -0.951057 -0.309017 0
    outer loop
      vertex -49.1072 -12.6086 140
      vertex -47.1397 -18.6639 0
      vertex -47.1397 -18.6639 140
    endloop
  endfacet
  facet normal -0.904827 -0.425779 0
    outer loop
      vertex -47.1397 -18.6639 0
      vertex -44.4287 -24.4249 0
      vertex -47.1397 -18.6639 140
    endloop
  endfacet
  facet normal -0.904827 -0.425779 0
    outer loop
      vertex -47.1397 -18.6639 140
      vertex -44.4287 -24.4249 0
      vertex -44.4287 -24.4249 140
    endloop
  endfacet
  facet normal -0.844328 -0.535827 0
    outer loop
      vertex -44.4287 -24.4249 0
      vertex -41.0172 -29.8007 0
      vertex -44.4287 -24.4249 140
    endloop
  endfacet
  facet normal -0.844328 -0.535827 0
    outer loop
      vertex -44.4287 -24.4249 140
      vertex -41.0172 -29.8007 0
      vertex -41.0172 -29.8007 140
    endloop
  endfacet
  facet normal -0.770513 -0.637424 0
    outer loop
      vertex -41.0172 -29.8007 0
      vertex -36.9587 -34.7065 0
      vertex -41.0172 -29.8007 140
    endloop
  endfacet
  facet normal -0.770513 -0.637424 0
    outer loop
      vertex -41.0172 -29.8007 140
      vertex -36.9587 -34.7065 0
      vertex -36.9587 -34.7065 140
    endloop
  endfacet
  facet normal -0.684547 -0.728969 0
    outer loop
      vertex -36.9587 -34.7065 140
      vertex -36.9587 -34.7065 0
      vertex -32.3174 -39.065 0
    endloop
  endfacet
  facet normal -0.684547 -0.728969 0
    outer loop
      vertex -32.3174 -39.065 140
      vertex -36.9587 -34.7065 140
      vertex -32.3174 -39.065 0
    endloop
  endfacet
  facet normal -0.587785 -0.809017 0
    outer loop
      vertex -32.3174 -39.065 140
      vertex -32.3174 -39.065 0
      vertex -27.1664 -42.8074 0
    endloop
  endfacet
  facet normal -0.587785 -0.809017 0
    outer loop
      vertex -27.1664 -42.8074 140
      vertex -32.3174 -39.065 140
      vertex -27.1664 -42.8074 0
    endloop
  endfacet
  facet normal -0.481754 -0.876307 0
    outer loop
      vertex -27.1664 -42.8074 140
      vertex -27.1664 -42.8074 0
      vertex -21.587 -45.8747 0
    endloop
  endfacet
  facet normal -0.481754 -0.876307 0
    outer loop
      vertex -21.587 -45.8747 140
      vertex -27.1664 -42.8074 140
      vertex -21.587 -45.8747 0
    endloop
  endfacet
  facet normal -0.368124 -0.929777 0
    outer loop
      vertex -21.587 -45.8747 140
      vertex -21.587 -45.8747 0
      vertex -15.6672 -48.2186 0
    endloop
  endfacet
  facet normal -0.368124 -0.929777 0
    outer loop
      vertex -15.6672 -48.2186 140
      vertex -21.587 -45.8747 140
      vertex -15.6672 -48.2186 0
    endloop
  endfacet
  facet normal -0.24869 -0.968583 0
    outer loop
      vertex -15.6672 -48.2186 140
      vertex -15.6672 -48.2186 0
      vertex -9.50023 -49.802 0
    endloop
  endfacet
  facet normal -0.24869 -0.968583 0
    outer loop
      vertex -9.50023 -49.802 140
      vertex -15.6672 -48.2186 140
      vertex -9.50023 -49.802 0
    endloop
  endfacet
  facet normal -0.125333 -0.992115 0
    outer loop
      vertex -9.50023 -49.802 140
      vertex -9.50023 -49.802 0
      vertex -3.18348 -50.6 0
    endloop
  endfacet
  facet normal -0.125333 -0.992115 0
    outer loop
      vertex -3.18348 -50.6 140
      vertex -9.50023 -49.802 140
      vertex -3.18348 -50.6 0
    endloop
  endfacet
  facet normal 0 -1 0
    outer loop
      vertex -3.18348 -50.6 140
      vertex -3.18348 -50.6 0
      vertex 3.18348 -50.6 0
    endloop
  endfacet
  facet normal 0 -1 0
    outer loop
      vertex 3.18348 -50.6 140
      vertex -3.18348 -50.6 140
      vertex 3.18348 -50.6 0
    endloop
  endfacet
  facet normal 0.125333 -0.992115 0
    outer loop
      vertex 3.18348 -50.6 140
      vertex 3.18348 -50.6 0
      vertex 9.50023 -49.802 0
    endloop
  endfacet
  facet normal 0.125333 -0.992115 0
    outer loop
      vertex 9.50023 -49.802 140
      vertex 3.18348 -50.6 140
      vertex 9.50023 -49.802 0
    endloop
  endfacet
  facet normal 0.24869 -0.968583 0
    outer loop
      vertex 9.50023 -49.802 140
      vertex 9.50023 -49.802 0
      vertex 15.6672 -48.2186 0
    endloop
  endfacet
  facet normal 0.24869 -0.968583 0
    outer loop
      vertex 15.6672 -48.2186 140
      vertex 9.50023 -49.802 140
      vertex 15.6672 -48.2186 0
    endloop
  endfacet
  facet normal 0.368124 -0.929777 0
    outer loop
      vertex 15.6672 -48.2186 140
      vertex 15.6672 -48.2186 0
      vertex 21.587 -45.8747 0
    endloop
  endfacet
  facet normal 0.368124 -0.929777 0
    outer loop
      vertex 21.587 -45.8747 140
      vertex 15.6672 -48.2186 140
      vertex 21.587 -45.8747 0
    endloop
  endfacet
  facet normal 0.481754 -0.876307 0
    outer loop
      vertex 21.587 -45.8747 140
      vertex 21.587 -45.8747 0
      vertex 27.1664 -42.8074 0
    endloop
  endfacet
  facet normal 0.481754 -0.876307 0
    outer loop
      vertex 27.1664 -42.8074 140
      vertex 21.587 -45.8747 140
      vertex 27.1664 -42.8074 0
    endloop
  endfacet
  facet normal 0.587785 -0.809017 0
    outer loop
      vertex 27.1664 -42.8074 140
      vertex 27.1664 -42.8074 0
      vertex 32.3174 -39.065 0
    endloop
  endfacet
  facet normal 0.587785 -0.809017 0
    outer loop
      vertex 32.3174 -39.065 140
      vertex 27.1664 -42.8074 140
      vertex 32.3174 -39.065 0
    endloop
  endfacet
  facet normal 0.684547 -0.728969 0
    outer loop
      vertex 32.3174 -39.065 140
      vertex 32.3174 -39.065 0
      vertex 34.5164 -37 0
    endloop
  endfacet
  facet normal 0.684547 -0.728969 0
    outer loop
      vertex 36.9587 -34.7065 35
      vertex 32.3174 -39.065 140
      vertex 34.5164 -37 35
    endloop
  endfacet
  facet normal 0.684547 -0.728969 0
    outer loop
      vertex 34.5164 -37 35
      vertex 32.3174 -39.065 140
      vertex 34.5164 -37 0
    endloop
  endfacet
  facet normal 0.684547 -0.728969 0
    outer loop
      vertex 36.9587 -34.7065 140
      vertex 32.3174 -39.065 140
      vertex 36.9587 -34.7065 35
    endloop
  endfacet
  facet normal 0 1 0
    outer loop
      vertex 34.5164 -37 35
      vertex 34.5164 -37 0
      vertex 33.4959 -37 35
    endloop
  endfacet
  facet normal 0 1 0
    outer loop
      vertex 33.4959 -37 35
      vertex 34.5164 -37 0
      vertex 33.4959 -37 0
    endloop
  endfacet
  facet normal -0.684547 0.728969 0
    outer loop
      vertex 36.4484 -34.2274 140
      vertex 36.4484 -34.2274 35
      vertex 31.8712 -38.5257 140
    endloop
  endfacet
  facet normal -0.684547 0.728969 0
    outer loop
      vertex 31.8712 -38.5257 140
      vertex 36.4484 -34.2274 35
      vertex 33.4959 -37 35
    endloop
  endfacet
  facet normal -0.684547 0.728969 0
    outer loop
      vertex 31.8712 -38.5257 140
      vertex 33.4959 -37 35
      vertex 33.4959 -37 0
    endloop
  endfacet
  facet normal -0.684547 0.728969 0
    outer loop
      vertex 31.8712 -38.5257 140
      vertex 33.4959 -37 0
      vertex 31.8712 -38.5257 0
    endloop
  endfacet
  facet normal -0.587785 0.809017 0
    outer loop
      vertex 31.8712 -38.5257 140
      vertex 31.8712 -38.5257 0
      vertex 26.7913 -42.2164 140
    endloop
  endfacet
  facet normal -0.587785 0.809017 0
    outer loop
      vertex 26.7913 -42.2164 140
      vertex 31.8712 -38.5257 0
      vertex 26.7913 -42.2164 0
    endloop
  endfacet
  facet normal -0.481754 0.876307 0
    outer loop
      vertex 26.7913 -42.2164 140
      vertex 26.7913 -42.2164 0
      vertex 21.289 -45.2414 140
    endloop
  endfacet
  facet normal -0.481754 0.876307 0
    outer loop
      vertex 21.289 -45.2414 140
      vertex 26.7913 -42.2164 0
      vertex 21.289 -45.2414 0
    endloop
  endfacet
  facet normal -0.368125 0.929776 0
    outer loop
      vertex 21.289 -45.2414 140
      vertex 21.289 -45.2414 0
      vertex 15.4508 -47.5528 140
    endloop
  endfacet
  facet normal -0.368125 0.929776 0
    outer loop
      vertex 15.4508 -47.5528 140
      vertex 21.289 -45.2414 0
      vertex 15.4508 -47.5528 0
    endloop
  endfacet
  facet normal -0.24869 0.968583 0
    outer loop
      vertex 15.4508 -47.5528 140
      vertex 15.4508 -47.5528 0
      vertex 9.36907 -49.1144 140
    endloop
  endfacet
  facet normal -0.24869 0.968583 0
    outer loop
      vertex 9.36907 -49.1144 140
      vertex 15.4508 -47.5528 0
      vertex 9.36907 -49.1144 0
    endloop
  endfacet
  facet normal -0.125333 0.992115 0
    outer loop
      vertex 9.36907 -49.1144 140
      vertex 9.36907 -49.1144 0
      vertex 3.13953 -49.9013 140
    endloop
  endfacet
  facet normal -0.125333 0.992115 0
    outer loop
      vertex 3.13953 -49.9013 140
      vertex 9.36907 -49.1144 0
      vertex 3.13953 -49.9013 0
    endloop
  endfacet
  facet normal 0 1 0
    outer loop
      vertex 3.13953 -49.9013 140
      vertex 3.13953 -49.9013 0
      vertex -3.13953 -49.9013 140
    endloop
  endfacet
  facet normal 0 1 0
    outer loop
      vertex -3.13953 -49.9013 140
      vertex 3.13953 -49.9013 0
      vertex -3.13953 -49.9013 0
    endloop
  endfacet
  facet normal 0.125333 0.992115 0
    outer loop
      vertex -3.13953 -49.9013 140
      vertex -3.13953 -49.9013 0
      vertex -9.36907 -49.1144 140
    endloop
  endfacet
  facet normal 0.125333 0.992115 0
    outer loop
      vertex -9.36907 -49.1144 140
      vertex -3.13953 -49.9013 0
      vertex -9.36907 -49.1144 0
    endloop
  endfacet
  facet normal 0.24869 0.968583 0
    outer loop
      vertex -9.36907 -49.1144 140
      vertex -9.36907 -49.1144 0
      vertex -15.4508 -47.5528 140
    endloop
  endfacet
  facet normal 0.24869 0.968583 0
    outer loop
      vertex -15.4508 -47.5528 140
      vertex -9.36907 -49.1144 0
      vertex -15.4508 -47.5528 0
    endloop
  endfacet
  facet normal 0.368125 0.929776 0
    outer loop
      vertex -15.4508 -47.5528 140
      vertex -15.4508 -47.5528 0
      vertex -21.289 -45.2414 140
    endloop
  endfacet
  facet normal 0.368125 0.929776 0
    outer loop
      vertex -21.289 -45.2414 140
      vertex -15.4508 -47.5528 0
      vertex -21.289 -45.2414 0
    endloop
  endfacet
  facet normal 0.481754 0.876307 0
    outer loop
      vertex -21.289 -45.2414 140
      vertex -21.289 -45.2414 0
      vertex -26.7913 -42.2164 140
    endloop
  endfacet
  facet normal 0.481754 0.876307 0
    outer loop
      vertex -26.7913 -42.2164 140
      vertex -21.289 -45.2414 0
      vertex -26.7913 -42.2164 0
    endloop
  endfacet
  facet normal 0.587785 0.809017 0
    outer loop
      vertex -26.7913 -42.2164 140
      vertex -26.7913 -42.2164 0
      vertex -31.8712 -38.5257 140
    endloop
  endfacet
  facet normal 0.587785 0.809017 0
    outer loop
      vertex -31.8712 -38.5257 140
      vertex -26.7913 -42.2164 0
      vertex -31.8712 -38.5257 0
    endloop
  endfacet
  facet normal 0.684547 0.728969 0
    outer loop
      vertex -31.8712 -38.5257 140
      vertex -31.8712 -38.5257 0
      vertex -36.4484 -34.2274 140
    endloop
  endfacet
  facet normal 0.684547 0.728969 0
    outer loop
      vertex -36.4484 -34.2274 140
      vertex -31.8712 -38.5257 0
      vertex -36.4484 -34.2274 0
    endloop
  endfacet
  facet normal 0.770513 0.637424 0
    outer loop
      vertex -40.4508 -29.3893 140
      vertex -36.4484 -34.2274 140
      vertex -36.4484 -34.2274 0
    endloop
  endfacet
  facet normal 0.770513 0.637424 0
    outer loop
      vertex -40.4508 -29.3893 0
      vertex -40.4508 -29.3893 140
      vertex -36.4484 -34.2274 0
    endloop
  endfacet
  facet normal 0.844328 0.535827 0
    outer loop
      vertex -43.8153 -24.0877 140
      vertex -40.4508 -29.3893 140
      vertex -40.4508 -29.3893 0
    endloop
  endfacet
  facet normal 0.844328 0.535827 0
    outer loop
      vertex -43.8153 -24.0877 0
      vertex -43.8153 -24.0877 140
      vertex -40.4508 -29.3893 0
    endloop
  endfacet
  facet normal 0.904827 0.425779 0
    outer loop
      vertex -46.4888 -18.4062 140
      vertex -43.8153 -24.0877 140
      vertex -43.8153 -24.0877 0
    endloop
  endfacet
  facet normal 0.904827 0.425779 0
    outer loop
      vertex -46.4888 -18.4062 0
      vertex -46.4888 -18.4062 140
      vertex -43.8153 -24.0877 0
    endloop
  endfacet
  facet normal 0.951057 0.309017 0
    outer loop
      vertex -48.4292 -12.4345 140
      vertex -46.4888 -18.4062 140
      vertex -46.4888 -18.4062 0
    endloop
  endfacet
  facet normal 0.951057 0.309017 0
    outer loop
      vertex -48.4292 -12.4345 0
      vertex -48.4292 -12.4345 140
      vertex -46.4888 -18.4062 0
    endloop
  endfacet
  facet normal 0.982287 0.187381 0
    outer loop
      vertex -49.6057 -6.26666 140
      vertex -48.4292 -12.4345 140
      vertex -48.4292 -12.4345 0
    endloop
  endfacet
  facet normal 0.982287 0.187381 0
    outer loop
      vertex -49.6057 -6.26666 0
      vertex -49.6057 -6.26666 140
      vertex -48.4292 -12.4345 0
    endloop
  endfacet
  facet normal 0.998027 0.0627905 0
    outer loop
      vertex -50 0 140
      vertex -49.6057 -6.26666 140
      vertex -49.6057 -6.26666 0
    endloop
  endfacet
  facet normal 0.998027 0.0627905 0
    outer loop
      vertex -50 0 0
      vertex -50 0 140
      vertex -49.6057 -6.26666 0
    endloop
  endfacet
  facet normal 0.998027 -0.0627905 0
    outer loop
      vertex -49.6057 6.26666 0
      vertex -49.6057 6.26666 140
      vertex -50 0 140
    endloop
  endfacet
  facet normal 0.998027 -0.0627905 0
    outer loop
      vertex -50 0 0
      vertex -49.6057 6.26666 0
      vertex -50 0 140
    endloop
  endfacet
  facet normal 0.982287 -0.187381 0
    outer loop
      vertex -48.4292 12.4345 0
      vertex -48.4292 12.4345 140
      vertex -49.6057 6.26666 140
    endloop
  endfacet
  facet normal 0.982287 -0.187381 0
    outer loop
      vertex -49.6057 6.26666 0
      vertex -48.4292 12.4345 0
      vertex -49.6057 6.26666 140
    endloop
  endfacet
  facet normal 0.951057 -0.309017 0
    outer loop
      vertex -46.4888 18.4062 0
      vertex -46.4888 18.4062 140
      vertex -48.4292 12.4345 140
    endloop
  endfacet
  facet normal 0.951057 -0.309017 0
    outer loop
      vertex -48.4292 12.4345 0
      vertex -46.4888 18.4062 0
      vertex -48.4292 12.4345 140
    endloop
  endfacet
  facet normal 0.904827 -0.425779 0
    outer loop
      vertex -43.8153 24.0877 0
      vertex -43.8153 24.0877 140
      vertex -46.4888 18.4062 140
    endloop
  endfacet
  facet normal 0.904827 -0.425779 0
    outer loop
      vertex -46.4888 18.4062 0
      vertex -43.8153 24.0877 0
      vertex -46.4888 18.4062 140
    endloop
  endfacet
  facet normal 0.844328 -0.535827 0
    outer loop
      vertex -40.4508 29.3893 0
      vertex -40.4508 29.3893 140
      vertex -43.8153 24.0877 140
    endloop
  endfacet
  facet normal 0.844328 -0.535827 0
    outer loop
      vertex -43.8153 24.0877 0
      vertex -40.4508 29.3893 0
      vertex -43.8153 24.0877 140
    endloop
  endfacet
  facet normal 0.770513 -0.637424 0
    outer loop
      vertex -36.4484 34.2274 0
      vertex -36.4484 34.2274 140
      vertex -40.4508 29.3893 140
    endloop
  endfacet
  facet normal 0.770513 -0.637424 0
    outer loop
      vertex -40.4508 29.3893 0
      vertex -36.4484 34.2274 0
      vertex -40.4508 29.3893 140
    endloop
  endfacet
  facet normal 0.684547 -0.728969 0
    outer loop
      vertex -31.8712 38.5257 0
      vertex -31.8712 38.5257 140
      vertex -36.4484 34.2274 140
    endloop
  endfacet
  facet normal 0.684547 -0.728969 0
    outer loop
      vertex -36.4484 34.2274 0
      vertex -31.8712 38.5257 0
      vertex -36.4484 34.2274 140
    endloop
  endfacet
  facet normal 0.587785 -0.809017 0
    outer loop
      vertex -26.7913 42.2164 0
      vertex -26.7913 42.2164 140
      vertex -31.8712 38.5257 140
    endloop
  endfacet
  facet normal 0.587785 -0.809017 0
    outer loop
      vertex -31.8712 38.5257 0
      vertex -26.7913 42.2164 0
      vertex -31.8712 38.5257 140
    endloop
  endfacet
  facet normal 0.481754 -0.876307 0
    outer loop
      vertex -21.289 45.2414 0
      vertex -21.289 45.2414 140
      vertex -26.7913 42.2164 140
    endloop
  endfacet
  facet normal 0.481754 -0.876307 0
    outer loop
      vertex -26.7913 42.2164 0
      vertex -21.289 45.2414 0
      vertex -26.7913 42.2164 140
    endloop
  endfacet
  facet normal 0.368125 -0.929776 0
    outer loop
      vertex -15.4508 47.5528 0
      vertex -15.4508 47.5528 140
      vertex -21.289 45.2414 140
    endloop
  endfacet
  facet normal 0.368125 -0.929776 0
    outer loop
      vertex -21.289 45.2414 0
      vertex -15.4508 47.5528 0
      vertex -21.289 45.2414 140
    endloop
  endfacet
  facet normal 0.24869 -0.968583 0
    outer loop
      vertex -9.36907 49.1144 0
      vertex -9.36907 49.1144 140
      vertex -15.4508 47.5528 140
    endloop
  endfacet
  facet normal 0.24869 -0.968583 0
    outer loop
      vertex -15.4508 47.5528 0
      vertex -9.36907 49.1144 0
      vertex -15.4508 47.5528 140
    endloop
  endfacet
  facet normal 0.125333 -0.992115 0
    outer loop
      vertex -3.13953 49.9013 0
      vertex -3.13953 49.9013 140
      vertex -9.36907 49.1144 140
    endloop
  endfacet
  facet normal 0.125333 -0.992115 0
    outer loop
      vertex -9.36907 49.1144 0
      vertex -3.13953 49.9013 0
      vertex -9.36907 49.1144 140
    endloop
  endfacet
  facet normal 0 -1 0
    outer loop
      vertex 3.13953 49.9013 0
      vertex 3.13953 49.9013 140
      vertex -3.13953 49.9013 140
    endloop
  endfacet
  facet normal 0 -1 0
    outer loop
      vertex -3.13953 49.9013 0
      vertex 3.13953 49.9013 0
      vertex -3.13953 49.9013 140
    endloop
  endfacet
  facet normal -0.125333 -0.992115 0
    outer loop
      vertex 9.36907 49.1144 0
      vertex 9.36907 49.1144 140
      vertex 3.13953 49.9013 140
    endloop
  endfacet
  facet normal -0.125333 -0.992115 0
    outer loop
      vertex 3.13953 49.9013 0
      vertex 9.36907 49.1144 0
      vertex 3.13953 49.9013 140
    endloop
  endfacet
  facet normal -0.24869 -0.968583 0
    outer loop
      vertex 15.4508 47.5528 0
      vertex 15.4508 47.5528 140
      vertex 9.36907 49.1144 140
    endloop
  endfacet
  facet normal -0.24869 -0.968583 0
    outer loop
      vertex 9.36907 49.1144 0
      vertex 15.4508 47.5528 0
      vertex 9.36907 49.1144 140
    endloop
  endfacet
  facet normal -0.368125 -0.929776 0
    outer loop
      vertex 21.289 45.2414 0
      vertex 21.289 45.2414 140
      vertex 15.4508 47.5528 140
    endloop
  endfacet
  facet normal -0.368125 -0.929776 0
    outer loop
      vertex 15.4508 47.5528 0
      vertex 21.289 45.2414 0
      vertex 15.4508 47.5528 140
    endloop
  endfacet
  facet normal -0.481754 -0.876307 0
    outer loop
      vertex 26.7913 42.2164 0
      vertex 26.7913 42.2164 140
      vertex 21.289 45.2414 140
    endloop
  endfacet
  facet normal -0.481754 -0.876307 0
    outer loop
      vertex 21.289 45.2414 0
      vertex 26.7913 42.2164 0
      vertex 21.289 45.2414 140
    endloop
  endfacet
  facet normal -0.587785 -0.809017 0
    outer loop
      vertex 31.8712 38.5257 0
      vertex 31.8712 38.5257 140
      vertex 26.7913 42.2164 140
    endloop
  endfacet
  facet normal -0.587785 -0.809017 0
    outer loop
      vertex 26.7913 42.2164 0
      vertex 31.8712 38.5257 0
      vertex 26.7913 42.2164 140
    endloop
  endfacet
  facet normal -0.684547 -0.728969 0
    outer loop
      vertex 36.4484 34.2274 140
      vertex 33.4959 37 35
      vertex 36.4484 34.2274 35
    endloop
  endfacet
  facet normal -0.684547 -0.728969 0
    outer loop
      vertex 31.8712 38.5257 140
      vertex 33.4959 37 35
      vertex 36.4484 34.2274 140
    endloop
  endfacet
  facet normal -0.684547 -0.728969 0
    outer loop
      vertex 33.4959 37 0
      vertex 33.4959 37 35
      vertex 31.8712 38.5257 140
    endloop
  endfacet
  facet normal -0.684547 -0.728969 0
    outer loop
      vertex 31.8712 38.5257 0
      vertex 33.4959 37 0
      vertex 31.8712 38.5257 140
    endloop
  endfacet
  facet normal 0 -1 0
    outer loop
      vertex 34.5164 37 0
      vertex 34.5164 37 35
      vertex 33.4959 37 35
    endloop
  endfacet
  facet normal 0 -1 0
    outer loop
      vertex 33.4959 37 0
      vertex 34.5164 37 0
      vertex 33.4959 37 35
    endloop
  endfacet
  facet normal 0.684547 0.728969 0
    outer loop
      vertex 32.3174 39.065 0
      vertex 32.3174 39.065 140
      vertex 34.5164 37 0
    endloop
  endfacet
  facet normal 0.684547 0.728969 0
    outer loop
      vertex 34.5164 37 35
      vertex 32.3174 39.065 140
      vertex 36.9587 34.7065 140
    endloop
  endfacet
  facet normal 0.684547 0.728969 0
    outer loop
      vertex 34.5164 37 0
      vertex 32.3174 39.065 140
      vertex 34.5164 37 35
    endloop
  endfacet
  facet normal 0.684547 0.728969 0
    outer loop
      vertex 34.5164 37 35
      vertex 36.9587 34.7065 140
      vertex 36.9587 34.7065 35
    endloop
  endfacet
  facet normal 0.587785 0.809017 0
    outer loop
      vertex 27.1664 42.8074 0
      vertex 27.1664 42.8074 140
      vertex 32.3174 39.065 0
    endloop
  endfacet
  facet normal 0.587785 0.809017 0
    outer loop
      vertex 32.3174 39.065 0
      vertex 27.1664 42.8074 140
      vertex 32.3174 39.065 140
    endloop
  endfacet
  facet normal 0.481754 0.876307 0
    outer loop
      vertex 21.587 45.8747 0
      vertex 21.587 45.8747 140
      vertex 27.1664 42.8074 0
    endloop
  endfacet
  facet normal 0.481754 0.876307 0
    outer loop
      vertex 27.1664 42.8074 0
      vertex 21.587 45.8747 140
      vertex 27.1664 42.8074 140
    endloop
  endfacet
  facet normal 0.368124 0.929777 0
    outer loop
      vertex 15.6672 48.2186 0
      vertex 15.6672 48.2186 140
      vertex 21.587 45.8747 0
    endloop
  endfacet
  facet normal 0.368124 0.929777 0
    outer loop
      vertex 21.587 45.8747 0
      vertex 15.6672 48.2186 140
      vertex 21.587 45.8747 140
    endloop
  endfacet
  facet normal 0.24869 0.968583 0
    outer loop
      vertex 9.50023 49.802 0
      vertex 9.50023 49.802 140
      vertex 15.6672 48.2186 0
    endloop
  endfacet
  facet normal 0.24869 0.968583 0
    outer loop
      vertex 15.6672 48.2186 0
      vertex 9.50023 49.802 140
      vertex 15.6672 48.2186 140
    endloop
  endfacet
  facet normal 0.125333 0.992115 0
    outer loop
      vertex 3.18348 50.6 0
      vertex 3.18348 50.6 140
      vertex 9.50023 49.802 0
    endloop
  endfacet
  facet normal 0.125333 0.992115 0
    outer loop
      vertex 9.50023 49.802 0
      vertex 3.18348 50.6 140
      vertex 9.50023 49.802 140
    endloop
  endfacet
  facet normal 0 1 0
    outer loop
      vertex -3.18348 50.6 0
      vertex -3.18348 50.6 140
      vertex 3.18348 50.6 0
    endloop
  endfacet
  facet normal 0 1 0
    outer loop
      vertex 3.18348 50.6 0
      vertex -3.18348 50.6 140
      vertex 3.18348 50.6 140
    endloop
  endfacet
  facet normal -0.125333 0.992115 0
    outer loop
      vertex -9.50023 49.802 0
      vertex -9.50023 49.802 140
      vertex -3.18348 50.6 0
    endloop
  endfacet
  facet normal -0.125333 0.992115 0
    outer loop
      vertex -3.18348 50.6 0
      vertex -9.50023 49.802 140
      vertex -3.18348 50.6 140
    endloop
  endfacet
  facet normal -0.24869 0.968583 0
    outer loop
      vertex -15.6672 48.2186 0
      vertex -15.6672 48.2186 140
      vertex -9.50023 49.802 0
    endloop
  endfacet
  facet normal -0.24869 0.968583 0
    outer loop
      vertex -9.50023 49.802 0
      vertex -15.6672 48.2186 140
      vertex -9.50023 49.802 140
    endloop
  endfacet
  facet normal -0.368124 0.929777 0
    outer loop
      vertex -21.587 45.8747 0
      vertex -21.587 45.8747 140
      vertex -15.6672 48.2186 0
    endloop
  endfacet
  facet normal -0.368124 0.929777 0
    outer loop
      vertex -15.6672 48.2186 0
      vertex -21.587 45.8747 140
      vertex -15.6672 48.2186 140
    endloop
  endfacet
  facet normal -0.481754 0.876307 0
    outer loop
      vertex -27.1664 42.8074 0
      vertex -27.1664 42.8074 140
      vertex -21.587 45.8747 0
    endloop
  endfacet
  facet normal -0.481754 0.876307 0
    outer loop
      vertex -21.587 45.8747 0
      vertex -27.1664 42.8074 140
      vertex -21.587 45.8747 140
    endloop
  endfacet
  facet normal -0.587785 0.809017 0
    outer loop
      vertex -32.3174 39.065 0
      vertex -32.3174 39.065 140
      vertex -27.1664 42.8074 0
    endloop
  endfacet
  facet normal -0.587785 0.809017 0
    outer loop
      vertex -27.1664 42.8074 0
      vertex -32.3174 39.065 140
      vertex -27.1664 42.8074 140
    endloop
  endfacet
  facet normal -0.684547 0.728969 0
    outer loop
      vertex -36.9587 34.7065 0
      vertex -36.9587 34.7065 140
      vertex -32.3174 39.065 0
    endloop
  endfacet
  facet normal -0.684547 0.728969 0
    outer loop
      vertex -32.3174 39.065 0
      vertex -36.9587 34.7065 140
      vertex -32.3174 39.065 140
    endloop
  endfacet
  facet normal -0.770513 0.637424 0
    outer loop
      vertex -41.0172 29.8007 0
      vertex -41.0172 29.8007 140
      vertex -36.9587 34.7065 0
    endloop
  endfacet
  facet normal -0.770513 0.637424 0
    outer loop
      vertex -36.9587 34.7065 0
      vertex -41.0172 29.8007 140
      vertex -36.9587 34.7065 140
    endloop
  endfacet
  facet normal -0.844328 0.535827 0
    outer loop
      vertex -44.4287 24.4249 0
      vertex -44.4287 24.4249 140
      vertex -41.0172 29.8007 0
    endloop
  endfacet
  facet normal -0.844328 0.535827 0
    outer loop
      vertex -41.0172 29.8007 0
      vertex -44.4287 24.4249 140
      vertex -41.0172 29.8007 140
    endloop
  endfacet
  facet normal -0.904827 0.425779 0
    outer loop
      vertex -47.1397 18.6639 0
      vertex -47.1397 18.6639 140
      vertex -44.4287 24.4249 0
    endloop
  endfacet
  facet normal -0.904827 0.425779 0
    outer loop
      vertex -44.4287 24.4249 0
      vertex -47.1397 18.6639 140
      vertex -44.4287 24.4249 140
    endloop
  endfacet
  facet normal -0.951057 0.309017 0
    outer loop
      vertex -49.1072 12.6086 0
      vertex -49.1072 12.6086 140
      vertex -47.1397 18.6639 0
    endloop
  endfacet
  facet normal -0.951057 0.309017 0
    outer loop
      vertex -47.1397 18.6639 0
      vertex -49.1072 12.6086 140
      vertex -47.1397 18.6639 140
    endloop
  endfacet
  facet normal -0.982287 0.187381 0
    outer loop
      vertex -50.3002 6.35439 0
      vertex -50.3002 6.35439 140
      vertex -49.1072 12.6086 0
    endloop
  endfacet
  facet normal -0.982287 0.187381 0
    outer loop
      vertex -49.1072 12.6086 0
      vertex -50.3002 6.35439 140
      vertex -49.1072 12.6086 140
    endloop
  endfacet
  facet normal 0 0 1
    outer loop
      vertex -50.3002 6.35439 140
      vertex -50.7 0 140
      vertex -50.3002 -6.35439 140
    endloop
  endfacet
  facet normal 0 0 1
    outer loop
      vertex -50 0 140
      vertex -50.3002 6.35439 140
      vertex -50.3002 -6.35439 140
    endloop
  endfacet
  facet normal 0 0 1
    outer loop
      vertex -49.6057 6.26666 140
      vertex -48.4292 12.4345 140
      vertex -50.3002 6.35439 140
    endloop
  endfacet
  facet normal 0 0 1
    outer loop
      vertex 48.4292 12.4345 140
      vertex 49.6057 6.26666 140
      vertex 50.3002 6.35439 140
    endloop
  endfacet
  facet normal 0 0 1
    outer loop
      vertex 46.4888 18.4062 140
      vertex 48.4292 12.4345 140
      vertex 49.1072 12.6086 140
    endloop
  endfacet
  facet normal 0 0 1
    outer loop
      vertex 43.8153 24.0877 140
      vertex 46.4888 18.4062 140
      vertex 47.1397 18.6639 140
    endloop
  endfacet
  facet normal 0 0 1
    outer loop
      vertex 40.4508 29.3893 140
      vertex 43.8153 24.0877 140
      vertex 44.4287 24.4249 140
    endloop
  endfacet
  facet normal 0 0 1
    outer loop
      vertex 36.4484 34.2274 140
      vertex 40.4508 29.3893 140
      vertex 41.0172 29.8007 140
    endloop
  endfacet
  facet normal 0 0 1
    outer loop
      vertex 31.8712 38.5257 140
      vertex 36.4484 34.2274 140
      vertex 36.9587 34.7065 140
    endloop
  endfacet
  facet normal 0 0 1
    outer loop
      vertex 26.7913 42.2164 140
      vertex 31.8712 38.5257 140
      vertex 32.3174 39.065 140
    endloop
  endfacet
  facet normal 0 0 1
    outer loop
      vertex 21.289 45.2414 140
      vertex 26.7913 42.2164 140
      vertex 27.1664 42.8074 140
    endloop
  endfacet
  facet normal 0 0 1
    outer loop
      vertex 15.4508 47.5528 140
      vertex 21.289 45.2414 140
      vertex 21.587 45.8747 140
    endloop
  endfacet
  facet normal 0 0 1
    outer loop
      vertex 9.36907 49.1144 140
      vertex 15.4508 47.5528 140
      vertex 15.6672 48.2186 140
    endloop
  endfacet
  facet normal 0 0 1
    outer loop
      vertex 3.13953 49.9013 140
      vertex 9.36907 49.1144 140
      vertex 9.50023 49.802 140
    endloop
  endfacet
  facet normal 0 0 1
    outer loop
      vertex -3.13953 49.9013 140
      vertex 3.13953 49.9013 140
      vertex 3.18348 50.6 140
    endloop
  endfacet
  facet normal 0 0 1
    outer loop
      vertex -9.36907 49.1144 140
      vertex -3.13953 49.9013 140
      vertex -3.18348 50.6 140
    endloop
  endfacet
  facet normal 0 0 1
    outer loop
      vertex -15.4508 47.5528 140
      vertex -9.36907 49.1144 140
      vertex -9.50023 49.802 140
    endloop
  endfacet
  facet normal 0 0 1
    outer loop
      vertex -21.289 45.2414 140
      vertex -15.4508 47.5528 140
      vertex -15.6672 48.2186 140
    endloop
  endfacet
  facet normal 0 0 1
    outer loop
      vertex -26.7913 42.2164 140
      vertex -21.289 45.2414 140
      vertex -21.587 45.8747 140
    endloop
  endfacet
  facet normal 0 0 1
    outer loop
      vertex -31.8712 38.5257 140
      vertex -26.7913 42.2164 140
      vertex -27.1664 42.8074 140
    endloop
  endfacet
  facet normal 0 0 1
    outer loop
      vertex -36.4484 34.2274 140
      vertex -31.8712 38.5257 140
      vertex -32.3174 39.065 140
    endloop
  endfacet
  facet normal 0 0 1
    outer loop
      vertex 49.6057 6.26666 140
      vertex 50 0 140
      vertex 50.7 0 140
    endloop
  endfacet
  facet normal 0 0 1
    outer loop
      vertex -49.1072 12.6086 140
      vertex -50.3002 6.35439 140
      vertex -47.1397 18.6639 140
    endloop
  endfacet
  facet normal 0 0 1
    outer loop
      vertex -49.1072 -12.6086 140
      vertex -49.6057 -6.26666 140
      vertex -50.3002 -6.35439 140
    endloop
  endfacet
  facet normal 0 0 1
    outer loop
      vertex -49.6057 -6.26666 140
      vertex -50 0 140
      vertex -50.3002 -6.35439 140
    endloop
  endfacet
  facet normal 0 0 1
    outer loop
      vertex 48.4292 -12.4345 140
      vertex 46.4888 -18.4062 140
      vertex 49.1072 -12.6086 140
    endloop
  endfacet
  facet normal 0 0 1
    outer loop
      vertex -43.8153 24.0877 140
      vertex -40.4508 29.3893 140
      vertex -41.0172 29.8007 140
    endloop
  endfacet
  facet normal 0 0 1
    outer loop
      vertex -47.1397 18.6639 140
      vertex -50.3002 6.35439 140
      vertex -48.4292 12.4345 140
    endloop
  endfacet
  facet normal 0 0 1
    outer loop
      vertex -47.1397 18.6639 140
      vertex -46.4888 18.4062 140
      vertex -44.4287 24.4249 140
    endloop
  endfacet
  facet normal 0 0 1
    outer loop
      vertex -47.1397 18.6639 140
      vertex -48.4292 12.4345 140
      vertex -46.4888 18.4062 140
    endloop
  endfacet
  facet normal 0 0 1
    outer loop
      vertex -44.4287 24.4249 140
      vertex -43.8153 24.0877 140
      vertex -41.0172 29.8007 140
    endloop
  endfacet
  facet normal 0 0 1
    outer loop
      vertex -46.4888 18.4062 140
      vertex -43.8153 24.0877 140
      vertex -44.4287 24.4249 140
    endloop
  endfacet
  facet normal 0 0 1
    outer loop
      vertex -41.0172 29.8007 140
      vertex -40.4508 29.3893 140
      vertex -36.9587 34.7065 140
    endloop
  endfacet
  facet normal 0 0 1
    outer loop
      vertex -36.9587 34.7065 140
      vertex -36.4484 34.2274 140
      vertex -32.3174 39.065 140
    endloop
  endfacet
  facet normal 0 0 1
    outer loop
      vertex -32.3174 39.065 140
      vertex -31.8712 38.5257 140
      vertex -27.1664 42.8074 140
    endloop
  endfacet
  facet normal 0 0 1
    outer loop
      vertex -27.1664 42.8074 140
      vertex -26.7913 42.2164 140
      vertex -21.587 45.8747 140
    endloop
  endfacet
  facet normal 0 0 1
    outer loop
      vertex -21.587 45.8747 140
      vertex -21.289 45.2414 140
      vertex -15.6672 48.2186 140
    endloop
  endfacet
  facet normal 0 0 1
    outer loop
      vertex -15.6672 48.2186 140
      vertex -15.4508 47.5528 140
      vertex -9.50023 49.802 140
    endloop
  endfacet
  facet normal 0 0 1
    outer loop
      vertex -9.50023 49.802 140
      vertex -9.36907 49.1144 140
      vertex -3.18348 50.6 140
    endloop
  endfacet
  facet normal 0 0 1
    outer loop
      vertex -3.18348 50.6 140
      vertex -3.13953 49.9013 140
      vertex 3.18348 50.6 140
    endloop
  endfacet
  facet normal 0 0 1
    outer loop
      vertex 3.18348 50.6 140
      vertex 3.13953 49.9013 140
      vertex 9.50023 49.802 140
    endloop
  endfacet
  facet normal 0 0 1
    outer loop
      vertex 9.50023 49.802 140
      vertex 9.36907 49.1144 140
      vertex 15.6672 48.2186 140
    endloop
  endfacet
  facet normal 0 0 1
    outer loop
      vertex 15.6672 48.2186 140
      vertex 15.4508 47.5528 140
      vertex 21.587 45.8747 140
    endloop
  endfacet
  facet normal 0 0 1
    outer loop
      vertex 21.587 45.8747 140
      vertex 21.289 45.2414 140
      vertex 27.1664 42.8074 140
    endloop
  endfacet
  facet normal 0 0 1
    outer loop
      vertex 27.1664 42.8074 140
      vertex 26.7913 42.2164 140
      vertex 32.3174 39.065 140
    endloop
  endfacet
  facet normal 0 0 1
    outer loop
      vertex 32.3174 39.065 140
      vertex 31.8712 38.5257 140
      vertex 36.9587 34.7065 140
    endloop
  endfacet
  facet normal 0 0 1
    outer loop
      vertex 36.9587 34.7065 140
      vertex 36.4484 34.2274 140
      vertex 41.0172 29.8007 140
    endloop
  endfacet
  facet normal 0 0 1
    outer loop
      vertex 41.0172 29.8007 140
      vertex 40.4508 29.3893 140
      vertex 44.4287 24.4249 140
    endloop
  endfacet
  facet normal 0 0 1
    outer loop
      vertex 44.4287 24.4249 140
      vertex 43.8153 24.0877 140
      vertex 47.1397 18.6639 140
    endloop
  endfacet
  facet normal 0 0 1
    outer loop
      vertex 47.1397 18.6639 140
      vertex 46.4888 18.4062 140
      vertex 49.1072 12.6086 140
    endloop
  endfacet
  facet normal 0 0 1
    outer loop
      vertex 49.1072 12.6086 140
      vertex 48.4292 12.4345 140
      vertex 50.3002 6.35439 140
    endloop
  endfacet
  facet normal 0 0 1
    outer loop
      vertex 50.3002 6.35439 140
      vertex 49.6057 6.26666 140
      vertex 50.7 0 140
    endloop
  endfacet
  facet normal 0 0 1
    outer loop
      vertex 50.7 0 140
      vertex 50 0 140
      vertex 50.3002 -6.35439 140
    endloop
  endfacet
  facet normal 0 0 1
    outer loop
      vertex 50.3002 -6.35439 140
      vertex 49.6057 -6.26666 140
      vertex 49.1072 -12.6086 140
    endloop
  endfacet
  facet normal 0 0 1
    outer loop
      vertex -40.4508 29.3893 140
      vertex -36.4484 34.2274 140
      vertex -36.9587 34.7065 140
    endloop
  endfacet
  facet normal 0 0 1
    outer loop
      vertex 49.6057 -6.26666 140
      vertex 48.4292 -12.4345 140
      vertex 49.1072 -12.6086 140
    endloop
  endfacet
  facet normal 0 0 1
    outer loop
      vertex 49.1072 -12.6086 140
      vertex 46.4888 -18.4062 140
      vertex 47.1397 -18.6639 140
    endloop
  endfacet
  facet normal 0 0 1
    outer loop
      vertex 47.1397 -18.6639 140
      vertex 43.8153 -24.0877 140
      vertex 44.4287 -24.4249 140
    endloop
  endfacet
  facet normal 0 0 1
    outer loop
      vertex 44.4287 -24.4249 140
      vertex 40.4508 -29.3893 140
      vertex 41.0172 -29.8007 140
    endloop
  endfacet
  facet normal 0 0 1
    outer loop
      vertex 41.0172 -29.8007 140
      vertex 36.4484 -34.2274 140
      vertex 36.9587 -34.7065 140
    endloop
  endfacet
  facet normal 0 0 1
    outer loop
      vertex 36.9587 -34.7065 140
      vertex 31.8712 -38.5257 140
      vertex 32.3174 -39.065 140
    endloop
  endfacet
  facet normal 0 0 1
    outer loop
      vertex 32.3174 -39.065 140
      vertex 26.7913 -42.2164 140
      vertex 27.1664 -42.8074 140
    endloop
  endfacet
  facet normal 0 0 1
    outer loop
      vertex 27.1664 -42.8074 140
      vertex 21.289 -45.2414 140
      vertex 21.587 -45.8747 140
    endloop
  endfacet
  facet normal 0 0 1
    outer loop
      vertex 21.587 -45.8747 140
      vertex 15.4508 -47.5528 140
      vertex 15.6672 -48.2186 140
    endloop
  endfacet
  facet normal 0 0 1
    outer loop
      vertex 15.6672 -48.2186 140
      vertex 9.36907 -49.1144 140
      vertex 9.50023 -49.802 140
    endloop
  endfacet
  facet normal 0 0 1
    outer loop
      vertex 9.50023 -49.802 140
      vertex 3.13953 -49.9013 140
      vertex 3.18348 -50.6 140
    endloop
  endfacet
  facet normal 0 0 1
    outer loop
      vertex 3.18348 -50.6 140
      vertex -3.13953 -49.9013 140
      vertex -3.18348 -50.6 140
    endloop
  endfacet
  facet normal 0 0 1
    outer loop
      vertex -3.18348 -50.6 140
      vertex -9.36907 -49.1144 140
      vertex -9.50023 -49.802 140
    endloop
  endfacet
  facet normal 0 0 1
    outer loop
      vertex -9.50023 -49.802 140
      vertex -15.4508 -47.5528 140
      vertex -15.6672 -48.2186 140
    endloop
  endfacet
  facet normal 0 0 1
    outer loop
      vertex -15.6672 -48.2186 140
      vertex -21.289 -45.2414 140
      vertex -21.587 -45.8747 140
    endloop
  endfacet
  facet normal 0 0 1
    outer loop
      vertex -21.587 -45.8747 140
      vertex -26.7913 -42.2164 140
      vertex -27.1664 -42.8074 140
    endloop
  endfacet
  facet normal 0 0 1
    outer loop
      vertex -27.1664 -42.8074 140
      vertex -31.8712 -38.5257 140
      vertex -32.3174 -39.065 140
    endloop
  endfacet
  facet normal 0 0 1
    outer loop
      vertex -32.3174 -39.065 140
      vertex -36.4484 -34.2274 140
      vertex -36.9587 -34.7065 140
    endloop
  endfacet
  facet normal 0 0 1
    outer loop
      vertex -36.9587 -34.7065 140
      vertex -40.4508 -29.3893 140
      vertex -41.0172 -29.8007 140
    endloop
  endfacet
  facet normal 0 0 1
    outer loop
      vertex -41.0172 -29.8007 140
      vertex -43.8153 -24.0877 140
      vertex -44.4287 -24.4249 140
    endloop
  endfacet
  facet normal 0 0 1
    outer loop
      vertex -44.4287 -24.4249 140
      vertex -46.4888 -18.4062 140
      vertex -47.1397 -18.6639 140
    endloop
  endfacet
  facet normal 0 0 1
    outer loop
      vertex 50 0 140
      vertex 49.6057 -6.26666 140
      vertex 50.3002 -6.35439 140
    endloop
  endfacet
  facet normal 0 0 1
    outer loop
      vertex -47.1397 -18.6639 140
      vertex -48.4292 -12.4345 140
      vertex -49.1072 -12.6086 140
    endloop
  endfacet
  facet normal 0 0 1
    outer loop
      vertex -48.4292 -12.4345 140
      vertex -49.6057 -6.26666 140
      vertex -49.1072 -12.6086 140
    endloop
  endfacet
  facet normal 0 0 1
    outer loop
      vertex 46.4888 -18.4062 140
      vertex 43.8153 -24.0877 140
      vertex 47.1397 -18.6639 140
    endloop
  endfacet
  facet normal 0 0 1
    outer loop
      vertex 43.8153 -24.0877 140
      vertex 40.4508 -29.3893 140
      vertex 44.4287 -24.4249 140
    endloop
  endfacet
  facet normal 0 0 1
    outer loop
      vertex 40.4508 -29.3893 140
      vertex 36.4484 -34.2274 140
      vertex 41.0172 -29.8007 140
    endloop
  endfacet
  facet normal 0 0 1
    outer loop
      vertex 36.4484 -34.2274 140
      vertex 31.8712 -38.5257 140
      vertex 36.9587 -34.7065 140
    endloop
  endfacet
  facet normal 0 0 1
    outer loop
      vertex 31.8712 -38.5257 140
      vertex 26.7913 -42.2164 140
      vertex 32.3174 -39.065 140
    endloop
  endfacet
  facet normal 0 0 1
    outer loop
      vertex 26.7913 -42.2164 140
      vertex 21.289 -45.2414 140
      vertex 27.1664 -42.8074 140
    endloop
  endfacet
  facet normal 0 0 1
    outer loop
      vertex 21.289 -45.2414 140
      vertex 15.4508 -47.5528 140
      vertex 21.587 -45.8747 140
    endloop
  endfacet
  facet normal 0 0 1
    outer loop
      vertex 15.4508 -47.5528 140
      vertex 9.36907 -49.1144 140
      vertex 15.6672 -48.2186 140
    endloop
  endfacet
  facet normal 0 0 1
    outer loop
      vertex 9.36907 -49.1144 140
      vertex 3.13953 -49.9013 140
      vertex 9.50023 -49.802 140
    endloop
  endfacet
  facet normal 0 0 1
    outer loop
      vertex 3.13953 -49.9013 140
      vertex -3.13953 -49.9013 140
      vertex 3.18348 -50.6 140
    endloop
  endfacet
  facet normal 0 0 1
    outer loop
      vertex -3.13953 -49.9013 140
      vertex -9.36907 -49.1144 140
      vertex -3.18348 -50.6 140
    endloop
  endfacet
  facet normal 0 0 1
    outer loop
      vertex -9.36907 -49.1144 140
      vertex -15.4508 -47.5528 140
      vertex -9.50023 -49.802 140
    endloop
  endfacet
  facet normal 0 0 1
    outer loop
      vertex -15.4508 -47.5528 140
      vertex -21.289 -45.2414 140
      vertex -15.6672 -48.2186 140
    endloop
  endfacet
  facet normal 0 0 1
    outer loop
      vertex -21.289 -45.2414 140
      vertex -26.7913 -42.2164 140
      vertex -21.587 -45.8747 140
    endloop
  endfacet
  facet normal 0 0 1
    outer loop
      vertex -26.7913 -42.2164 140
      vertex -31.8712 -38.5257 140
      vertex -27.1664 -42.8074 140
    endloop
  endfacet
  facet normal 0 0 1
    outer loop
      vertex -31.8712 -38.5257 140
      vertex -36.4484 -34.2274 140
      vertex -32.3174 -39.065 140
    endloop
  endfacet
  facet normal 0 0 1
    outer loop
      vertex -36.4484 -34.2274 140
      vertex -40.4508 -29.3893 140
      vertex -36.9587 -34.7065 140
    endloop
  endfacet
  facet normal 0 0 1
    outer loop
      vertex -40.4508 -29.3893 140
      vertex -43.8153 -24.0877 140
      vertex -41.0172 -29.8007 140
    endloop
  endfacet
  facet normal 0 0 1
    outer loop
      vertex -43.8153 -24.0877 140
      vertex -46.4888 -18.4062 140
      vertex -44.4287 -24.4249 140
    endloop
  endfacet
  facet normal 0 0 1
    outer loop
      vertex -46.4888 -18.4062 140
      vertex -48.4292 -12.4345 140
      vertex -47.1397 -18.6639 140
    endloop
  endfacet
  facet normal 0 0 1
    outer loop
      vertex -50 0 140
      vertex -49.6057 6.26666 140
      vertex -50.3002 6.35439 140
    endloop
  endfacet
  facet normal 0.770513 -0.637424 0
    outer loop
      vertex 36.9587 -34.7065 140
      vertex 36.9587 -34.7065 35
      vertex 41.0172 -29.8007 35
    endloop
  endfacet
  facet normal 0.770513 -0.637424 0
    outer loop
      vertex 41.0172 -29.8007 140
      vertex 36.9587 -34.7065 140
      vertex 41.0172 -29.8007 35
    endloop
  endfacet
  facet normal 0 0 -1
    outer loop
      vertex 44.4287 -24.4249 35
      vertex 43.8153 -24.0877 35
      vertex 47.1397 -18.6639 35
    endloop
  endfacet
  facet normal 0 0 -1
    outer loop
      vertex 47.1397 -18.6639 35
      vertex 46.4888 -18.4062 35
      vertex 49.1072 -12.6086 35
    endloop
  endfacet
  facet normal 0 0 -1
    outer loop
      vertex 49.1072 -12.6086 35
      vertex 48.4292 -12.4345 35
      vertex 50.3002 -6.35439 35
    endloop
  endfacet
  facet normal 0 0 -1
    outer loop
      vertex 50.3002 -6.35439 35
      vertex 49.6057 -6.26666 35
      vertex 50.7 0 35
    endloop
  endfacet
  facet normal 0 0 -1
    outer loop
      vertex 50.7 0 35
      vertex 50 0 35
      vertex 50.3002 6.35439 35
    endloop
  endfacet
  facet normal 0 0 -1
    outer loop
      vertex 50.3002 6.35439 35
      vertex 49.6057 6.26666 35
      vertex 49.1072 12.6086 35
    endloop
  endfacet
  facet normal 0 0 -1
    outer loop
      vertex 49.1072 12.6086 35
      vertex 48.4292 12.4345 35
      vertex 47.1397 18.6639 35
    endloop
  endfacet
  facet normal 0 0 -1
    outer loop
      vertex 47.1397 18.6639 35
      vertex 46.4888 18.4062 35
      vertex 44.4287 24.4249 35
    endloop
  endfacet
  facet normal 0 0 -1
    outer loop
      vertex 44.4287 24.4249 35
      vertex 43.8153 24.0877 35
      vertex 41.0172 29.8007 35
    endloop
  endfacet
  facet normal 0 0 -1
    outer loop
      vertex 36.9587 34.7065 35
      vertex 40.4508 29.3893 35
      vertex 34.5164 37 35
    endloop
  endfacet
  facet normal 0 0 -1
    outer loop
      vertex 34.5164 37 35
      vertex 36.4484 34.2274 35
      vertex 33.4959 37 35
    endloop
  endfacet
  facet normal 0 0 -1
    outer loop
      vertex 40.4508 29.3893 35
      vertex 36.4484 34.2274 35
      vertex 34.5164 37 35
    endloop
  endfacet
  facet normal 0 0 -1
    outer loop
      vertex 41.0172 29.8007 35
      vertex 40.4508 29.3893 35
      vertex 36.9587 34.7065 35
    endloop
  endfacet
  facet normal 0 0 -1
    outer loop
      vertex 43.8153 24.0877 35
      vertex 40.4508 29.3893 35
      vertex 41.0172 29.8007 35
    endloop
  endfacet
  facet normal 0 0 -1
    outer loop
      vertex 46.4888 18.4062 35
      vertex 43.8153 24.0877 35
      vertex 44.4287 24.4249 35
    endloop
  endfacet
  facet normal 0 0 -1
    outer loop
      vertex 48.4292 12.4345 35
      vertex 46.4888 18.4062 35
      vertex 47.1397 18.6639 35
    endloop
  endfacet
  facet normal 0 0 -1
    outer loop
      vertex 49.6057 6.26666 35
      vertex 48.4292 12.4345 35
      vertex 49.1072 12.6086 35
    endloop
  endfacet
  facet normal 0 0 -1
    outer loop
      vertex 50 0 35
      vertex 49.6057 6.26666 35
      vertex 50.3002 6.35439 35
    endloop
  endfacet
  facet normal 0 0 -1
    outer loop
      vertex 49.6057 -6.26666 35
      vertex 50 0 35
      vertex 50.7 0 35
    endloop
  endfacet
  facet normal 0 0 -1
    outer loop
      vertex 48.4292 -12.4345 35
      vertex 49.6057 -6.26666 35
      vertex 50.3002 -6.35439 35
    endloop
  endfacet
  facet normal 0 0 -1
    outer loop
      vertex 46.4888 -18.4062 35
      vertex 48.4292 -12.4345 35
      vertex 49.1072 -12.6086 35
    endloop
  endfacet
  facet normal 0 0 -1
    outer loop
      vertex 43.8153 -24.0877 35
      vertex 46.4888 -18.4062 35
      vertex 47.1397 -18.6639 35
    endloop
  endfacet
  facet normal 0 0 -1
    outer loop
      vertex 40.4508 -29.3893 35
      vertex 43.8153 -24.0877 35
      vertex 44.4287 -24.4249 35
    endloop
  endfacet
  facet normal 0 0 -1
    outer loop
      vertex 40.4508 -29.3893 35
      vertex 44.4287 -24.4249 35
      vertex 41.0172 -29.8007 35
    endloop
  endfacet
  facet normal 0 0 -1
    outer loop
      vertex 40.4508 -29.3893 35
      vertex 41.0172 -29.8007 35
      vertex 36.4484 -34.2274 35
    endloop
  endfacet
  facet normal 0 0 -1
    outer loop
      vertex 41.0172 -29.8007 35
      vertex 36.9587 -34.7065 35
      vertex 36.4484 -34.2274 35
    endloop
  endfacet
  facet normal 0 0 -1
    outer loop
      vertex 36.9587 -34.7065 35
      vertex 34.5164 -37 35
      vertex 36.4484 -34.2274 35
    endloop
  endfacet
  facet normal 0 0 -1
    outer loop
      vertex 36.4484 -34.2274 35
      vertex 34.5164 -37 35
      vertex 33.4959 -37 35
    endloop
  endfacet
  facet normal -0.770513 0.637424 0
    outer loop
      vertex 40.4508 -29.3893 140
      vertex 40.4508 -29.3893 35
      vertex 36.4484 -34.2274 140
    endloop
  endfacet
  facet normal -0.770513 0.637424 0
    outer loop
      vertex 36.4484 -34.2274 140
      vertex 40.4508 -29.3893 35
      vertex 36.4484 -34.2274 35
    endloop
  endfacet
  facet normal -0.770513 -0.637424 0
    outer loop
      vertex 40.4508 29.3893 140
      vertex 36.4484 34.2274 140
      vertex 40.4508 29.3893 35
    endloop
  endfacet
  facet normal -0.770513 -0.637424 0
    outer loop
      vertex 40.4508 29.3893 35
      vertex 36.4484 34.2274 140
      vertex 36.4484 34.2274 35
    endloop
  endfacet
  facet normal 0.770513 0.637424 0
    outer loop
      vertex 41.0172 29.8007 35
      vertex 36.9587 34.7065 35
      vertex 36.9587 34.7065 140
    endloop
  endfacet
  facet normal 0.770513 0.637424 0
    outer loop
      vertex 41.0172 29.8007 140
      vertex 41.0172 29.8007 35
      vertex 36.9587 34.7065 140
    endloop
  endfacet
  facet normal 0.844328 0.535827 0
    outer loop
      vertex 44.4287 24.4249 35
      vertex 41.0172 29.8007 35
      vertex 41.0172 29.8007 140
    endloop
  endfacet
  facet normal 0.844328 0.535827 0
    outer loop
      vertex 44.4287 24.4249 140
      vertex 44.4287 24.4249 35
      vertex 41.0172 29.8007 140
    endloop
  endfacet
  facet normal 0.904827 0.425779 0
    outer loop
      vertex 47.1397 18.6639 35
      vertex 44.4287 24.4249 35
      vertex 44.4287 24.4249 140
    endloop
  endfacet
  facet normal 0.904827 0.425779 0
    outer loop
      vertex 47.1397 18.6639 140
      vertex 47.1397 18.6639 35
      vertex 44.4287 24.4249 140
    endloop
  endfacet
  facet normal 0.951057 0.309017 0
    outer loop
      vertex 49.1072 12.6086 35
      vertex 47.1397 18.6639 35
      vertex 47.1397 18.6639 140
    endloop
  endfacet
  facet normal 0.951057 0.309017 0
    outer loop
      vertex 49.1072 12.6086 140
      vertex 49.1072 12.6086 35
      vertex 47.1397 18.6639 140
    endloop
  endfacet
  facet normal 0.982287 0.187381 0
    outer loop
      vertex 50.3002 6.35439 35
      vertex 49.1072 12.6086 35
      vertex 49.1072 12.6086 140
    endloop
  endfacet
  facet normal 0.982287 0.187381 0
    outer loop
      vertex 50.3002 6.35439 140
      vertex 50.3002 6.35439 35
      vertex 49.1072 12.6086 140
    endloop
  endfacet
  facet normal 0.998027 0.0627906 0
    outer loop
      vertex 50.7 0 35
      vertex 50.3002 6.35439 35
      vertex 50.3002 6.35439 140
    endloop
  endfacet
  facet normal 0.998027 0.0627906 0
    outer loop
      vertex 50.7 0 140
      vertex 50.7 0 35
      vertex 50.3002 6.35439 140
    endloop
  endfacet
  facet normal 0.998027 -0.0627906 0
    outer loop
      vertex 50.3002 -6.35439 140
      vertex 50.3002 -6.35439 35
      vertex 50.7 0 35
    endloop
  endfacet
  facet normal 0.998027 -0.0627906 0
    outer loop
      vertex 50.7 0 140
      vertex 50.3002 -6.35439 140
      vertex 50.7 0 35
    endloop
  endfacet
  facet normal 0.982287 -0.187381 0
    outer loop
      vertex 49.1072 -12.6086 140
      vertex 49.1072 -12.6086 35
      vertex 50.3002 -6.35439 35
    endloop
  endfacet
  facet normal 0.982287 -0.187381 0
    outer loop
      vertex 50.3002 -6.35439 140
      vertex 49.1072 -12.6086 140
      vertex 50.3002 -6.35439 35
    endloop
  endfacet
  facet normal 0.951057 -0.309017 0
    outer loop
      vertex 47.1397 -18.6639 140
      vertex 47.1397 -18.6639 35
      vertex 49.1072 -12.6086 35
    endloop
  endfacet
  facet normal 0.951057 -0.309017 0
    outer loop
      vertex 49.1072 -12.6086 140
      vertex 47.1397 -18.6639 140
      vertex 49.1072 -12.6086 35
    endloop
  endfacet
  facet normal 0.904827 -0.425779 0
    outer loop
      vertex 44.4287 -24.4249 140
      vertex 44.4287 -24.4249 35
      vertex 47.1397 -18.6639 35
    endloop
  endfacet
  facet normal 0.904827 -0.425779 0
    outer loop
      vertex 47.1397 -18.6639 140
      vertex 44.4287 -24.4249 140
      vertex 47.1397 -18.6639 35
    endloop
  endfacet
  facet normal 0.844328 -0.535827 0
    outer loop
      vertex 41.0172 -29.8007 140
      vertex 41.0172 -29.8007 35
      vertex 44.4287 -24.4249 35
    endloop
  endfacet
  facet normal 0.844328 -0.535827 0
    outer loop
      vertex 44.4287 -24.4249 140
      vertex 41.0172 -29.8007 140
      vertex 44.4287 -24.4249 35
    endloop
  endfacet
  facet normal -0.844328 0.535827 0
    outer loop
      vertex 43.8153 -24.0877 140
      vertex 43.8153 -24.0877 35
      vertex 40.4508 -29.3893 140
    endloop
  endfacet
  facet normal -0.844328 0.535827 0
    outer loop
      vertex 40.4508 -29.3893 140
      vertex 43.8153 -24.0877 35
      vertex 40.4508 -29.3893 35
    endloop
  endfacet
  facet normal -0.904827 0.425779 0
    outer loop
      vertex 46.4888 -18.4062 140
      vertex 46.4888 -18.4062 35
      vertex 43.8153 -24.0877 140
    endloop
  endfacet
  facet normal -0.904827 0.425779 0
    outer loop
      vertex 43.8153 -24.0877 140
      vertex 46.4888 -18.4062 35
      vertex 43.8153 -24.0877 35
    endloop
  endfacet
  facet normal -0.951057 0.309017 0
    outer loop
      vertex 48.4292 -12.4345 140
      vertex 48.4292 -12.4345 35
      vertex 46.4888 -18.4062 140
    endloop
  endfacet
  facet normal -0.951057 0.309017 0
    outer loop
      vertex 46.4888 -18.4062 140
      vertex 48.4292 -12.4345 35
      vertex 46.4888 -18.4062 35
    endloop
  endfacet
  facet normal -0.982287 0.187381 0
    outer loop
      vertex 49.6057 -6.26666 140
      vertex 49.6057 -6.26666 35
      vertex 48.4292 -12.4345 140
    endloop
  endfacet
  facet normal -0.982287 0.187381 0
    outer loop
      vertex 48.4292 -12.4345 140
      vertex 49.6057 -6.26666 35
      vertex 48.4292 -12.4345 35
    endloop
  endfacet
  facet normal -0.998027 0.0627905 0
    outer loop
      vertex 50 0 140
      vertex 50 0 35
      vertex 49.6057 -6.26666 140
    endloop
  endfacet
  facet normal -0.998027 0.0627905 0
    outer loop
      vertex 49.6057 -6.26666 140
      vertex 50 0 35
      vertex 49.6057 -6.26666 35
    endloop
  endfacet
  facet normal -0.998027 -0.0627905 0
    outer loop
      vertex 50 0 140
      vertex 49.6057 6.26666 140
      vertex 50 0 35
    endloop
  endfacet
  facet normal -0.998027 -0.0627905 0
    outer loop
      vertex 50 0 35
      vertex 49.6057 6.26666 140
      vertex 49.6057 6.26666 35
    endloop
  endfacet
  facet normal -0.982287 -0.187381 0
    outer loop
      vertex 49.6057 6.26666 140
      vertex 48.4292 12.4345 140
      vertex 49.6057 6.26666 35
    endloop
  endfacet
  facet normal -0.982287 -0.187381 0
    outer loop
      vertex 49.6057 6.26666 35
      vertex 48.4292 12.4345 140
      vertex 48.4292 12.4345 35
    endloop
  endfacet
  facet normal -0.951057 -0.309017 0
    outer loop
      vertex 48.4292 12.4345 140
      vertex 46.4888 18.4062 140
      vertex 48.4292 12.4345 35
    endloop
  endfacet
  facet normal -0.951057 -0.309017 0
    outer loop
      vertex 48.4292 12.4345 35
      vertex 46.4888 18.4062 140
      vertex 46.4888 18.4062 35
    endloop
  endfacet
  facet normal -0.904827 -0.425779 0
    outer loop
      vertex 46.4888 18.4062 140
      vertex 43.8153 24.0877 140
      vertex 46.4888 18.4062 35
    endloop
  endfacet
  facet normal -0.904827 -0.425779 0
    outer loop
      vertex 46.4888 18.4062 35
      vertex 43.8153 24.0877 140
      vertex 43.8153 24.0877 35
    endloop
  endfacet
  facet normal -0.844328 -0.535827 0
    outer loop
      vertex 43.8153 24.0877 140
      vertex 40.4508 29.3893 140
      vertex 43.8153 24.0877 35
    endloop
  endfacet
  facet normal -0.844328 -0.535827 0
    outer loop
      vertex 43.8153 24.0877 35
      vertex 40.4508 29.3893 140
      vertex 40.4508 29.3893 35
    endloop
  endfacet
endsolid OpenSCAD_Model
