solid OpenSCAD_Model
  facet normal -1 0 0
    outer loop
      vertex 0 0 0
      vertex 0 0 64
      vertex 0 36 0
    endloop
  endfacet
  facet normal -1 0 0
    outer loop
      vertex 0 36 0
      vertex 0 0 64
      vertex 0 36 64
    endloop
  endfacet
  facet normal 0 -1 0
    outer loop
      vertex 0 0 64
      vertex 0 0 0
      vertex 81.5 0 0
    endloop
  endfacet
  facet normal 0 -1 0
    outer loop
      vertex 81.5 0 64
      vertex 0 0 64
      vertex 81.5 0 0
    endloop
  endfacet
  facet normal 0 0 -1
    outer loop
      vertex 0 0 0
      vertex 0 36 0
      vertex 81.5 0 0
    endloop
  endfacet
  facet normal 0 0 -1
    outer loop
      vertex 81.5 0 0
      vertex 0 36 0
      vertex 81.5 36 0
    endloop
  endfacet
  facet normal 0 1 0
    outer loop
      vertex 0 36 0
      vertex 0 36 64
      vertex 81.5 36 0
    endloop
  endfacet
  facet normal 0 1 0
    outer loop
      vertex 81.5 36 0
      vertex 0 36 64
      vertex 81.5 36 64
    endloop
  endfacet
  facet normal 0 0 1
    outer loop
      vertex 1.5 1.5 64
      vertex 0 0 64
      vertex 81.5 0 64
    endloop
  endfacet
  facet normal 0 0 1
    outer loop
      vertex 0 36 64
      vertex 0 0 64
      vertex 1.5 1.5 64
    endloop
  endfacet
  facet normal 0 0 1
    outer loop
      vertex 1.5 34.5 64
      vertex 80 34.5 64
      vertex 0 36 64
    endloop
  endfacet
  facet normal 0 0 1
    outer loop
      vertex 0 36 64
      vertex 1.5 1.5 64
      vertex 1.5 34.5 64
    endloop
  endfacet
  facet normal 0 0 1
    outer loop
      vertex 81.5 36 64
      vertex 80 34.5 64
      vertex 81.5 0 64
    endloop
  endfacet
  facet normal 0 0 1
    outer loop
      vertex 81.5 36 64
      vertex 0 36 64
      vertex 80 34.5 64
    endloop
  endfacet
  facet normal 0 0 1
    outer loop
      vertex 80 34.5 64
      vertex 80 1.5 64
      vertex 81.5 0 64
    endloop
  endfacet
  facet normal 0 0 1
    outer loop
      vertex 80 1.5 64
      vertex 1.5 1.5 64
      vertex 81.5 0 64
    endloop
  endfacet
  facet normal 1 0 0
    outer loop
      vertex 81.5 0 64
      vertex 81.5 0 0
      vertex 81.5 36 0
    endloop
  endfacet
  facet normal 1 0 0
    outer loop
      vertex 81.5 36 64
      vertex 81.5 0 64
      vertex 81.5 36 0
    endloop
  endfacet
  facet normal 1 0 0
    outer loop
      vertex 1.5 34.5 64
      vertex 1.5 14 56.5
      vertex 1.5 15.5 56.5
    endloop
  endfacet
  facet normal 1 0 0
    outer loop
      vertex 1.5 17.5 56.5
      vertex 1.5 34.5 64
      vertex 1.5 15.5 56.5
    endloop
  endfacet
  facet normal 1 0 0
    outer loop
      vertex 1.5 15.5 6.5
      vertex 1.5 17.5 6.5
      vertex 1.5 15.5 56.5
    endloop
  endfacet
  facet normal 1 0 0
    outer loop
      vertex 1.5 14 1.5
      vertex 1.5 14 56.5
      vertex 1.5 1.5 64
    endloop
  endfacet
  facet normal 1 0 0
    outer loop
      vertex 1.5 17.5 6.5
      vertex 1.5 17.5 56.5
      vertex 1.5 15.5 56.5
    endloop
  endfacet
  facet normal 1 0 0
    outer loop
      vertex 1.5 19 56.5
      vertex 1.5 34.5 64
      vertex 1.5 17.5 56.5
    endloop
  endfacet
  facet normal 1 0 0
    outer loop
      vertex 1.5 19 1.5
      vertex 1.5 34.5 1.5
      vertex 1.5 19 56.5
    endloop
  endfacet
  facet normal 1 0 0
    outer loop
      vertex 1.5 34.5 1.5
      vertex 1.5 34.5 64
      vertex 1.5 19 56.5
    endloop
  endfacet
  facet normal 1 0 0
    outer loop
      vertex 1.5 34.5 64
      vertex 1.5 1.5 64
      vertex 1.5 14 56.5
    endloop
  endfacet
  facet normal 1 0 0
    outer loop
      vertex 1.5 1.5 64
      vertex 1.5 1.5 1.5
      vertex 1.5 14 1.5
    endloop
  endfacet
  facet normal 0 1 0
    outer loop
      vertex 80 1.5 64
      vertex 80 1.5 1.5
      vertex 1.5 1.5 64
    endloop
  endfacet
  facet normal 0 1 0
    outer loop
      vertex 1.5 1.5 64
      vertex 80 1.5 1.5
      vertex 1.5 1.5 1.5
    endloop
  endfacet
  facet normal -1 0 0
    outer loop
      vertex 80 34.5 64
      vertex 80 34.5 1.5
      vertex 80 19 56.5
    endloop
  endfacet
  facet normal -1 0 0
    outer loop
      vertex 80 34.5 64
      vertex 80 19 56.5
      vertex 80 1.5 64
    endloop
  endfacet
  facet normal -1 0 0
    outer loop
      vertex 80 19 56.5
      vertex 80 17.5 56.5
      vertex 80 1.5 64
    endloop
  endfacet
  facet normal -1 0 0
    outer loop
      vertex 80 15.5 56.5
      vertex 80 17.5 6.5
      vertex 80 15.5 6.5
    endloop
  endfacet
  facet normal -1 0 0
    outer loop
      vertex 80 14 1.5
      vertex 80 1.5 64
      vertex 80 14 56.5
    endloop
  endfacet
  facet normal -1 0 0
    outer loop
      vertex 80 17.5 56.5
      vertex 80 15.5 56.5
      vertex 80 1.5 64
    endloop
  endfacet
  facet normal -1 0 0
    outer loop
      vertex 80 17.5 6.5
      vertex 80 15.5 56.5
      vertex 80 17.5 56.5
    endloop
  endfacet
  facet normal -1 0 0
    outer loop
      vertex 80 15.5 56.5
      vertex 80 14 56.5
      vertex 80 1.5 64
    endloop
  endfacet
  facet normal -1 0 0
    outer loop
      vertex 80 1.5 64
      vertex 80 14 1.5
      vertex 80 1.5 1.5
    endloop
  endfacet
  facet normal -1 0 0
    outer loop
      vertex 80 19 56.5
      vertex 80 34.5 1.5
      vertex 80 19 1.5
    endloop
  endfacet
  facet normal 0 -1 0
    outer loop
      vertex 80 34.5 1.5
      vertex 80 34.5 64
      vertex 1.5 34.5 64
    endloop
  endfacet
  facet normal 0 -1 0
    outer loop
      vertex 1.5 34.5 1.5
      vertex 80 34.5 1.5
      vertex 1.5 34.5 64
    endloop
  endfacet
  facet normal 0 -1 0
    outer loop
      vertex 1.5 14 56.5
      vertex 1.5 14 1.5
      vertex 3 14 1.5
    endloop
  endfacet
  facet normal 0 -1 0
    outer loop
      vertex 3 14 56.5
      vertex 1.5 14 56.5
      vertex 3 14 1.5
    endloop
  endfacet
  facet normal 0 0 1
    outer loop
      vertex 78.5 19 1.5
      vertex 1.5 34.5 1.5
      vertex 78.5 14 1.5
    endloop
  endfacet
  facet normal 0 0 1
    outer loop
      vertex 80 1.5 1.5
      vertex 80 14 1.5
      vertex 78.5 14 1.5
    endloop
  endfacet
  facet normal 0 0 1
    outer loop
      vertex 3 14 1.5
      vertex 1.5 14 1.5
      vertex 80 1.5 1.5
    endloop
  endfacet
  facet normal 0 0 1
    outer loop
      vertex 1.5 34.5 1.5
      vertex 80 1.5 1.5
      vertex 78.5 14 1.5
    endloop
  endfacet
  facet normal 0 0 1
    outer loop
      vertex 80 19 1.5
      vertex 80 34.5 1.5
      vertex 78.5 19 1.5
    endloop
  endfacet
  facet normal 0 0 1
    outer loop
      vertex 80 34.5 1.5
      vertex 1.5 34.5 1.5
      vertex 78.5 19 1.5
    endloop
  endfacet
  facet normal 0 0 1
    outer loop
      vertex 1.5 34.5 1.5
      vertex 3 19 1.5
      vertex 80 1.5 1.5
    endloop
  endfacet
  facet normal 0 0 1
    outer loop
      vertex 1.5 34.5 1.5
      vertex 1.5 19 1.5
      vertex 3 19 1.5
    endloop
  endfacet
  facet normal 0 0 1
    outer loop
      vertex 1.5 14 1.5
      vertex 1.5 1.5 1.5
      vertex 80 1.5 1.5
    endloop
  endfacet
  facet normal 0 0 1
    outer loop
      vertex 3 19 1.5
      vertex 3 14 1.5
      vertex 80 1.5 1.5
    endloop
  endfacet
  facet normal 0 1 0
    outer loop
      vertex 1.5 19 1.5
      vertex 1.5 19 56.5
      vertex 3 19 1.5
    endloop
  endfacet
  facet normal 0 1 0
    outer loop
      vertex 3 19 1.5
      vertex 1.5 19 56.5
      vertex 3 19 56.5
    endloop
  endfacet
  facet normal 0 0 1
    outer loop
      vertex 1.5 19 56.5
      vertex 1.5 17.5 56.5
      vertex 3 17.5 56.5
    endloop
  endfacet
  facet normal 0 0 1
    outer loop
      vertex 3 19 56.5
      vertex 1.5 19 56.5
      vertex 3 17.5 56.5
    endloop
  endfacet
  facet normal 0 -1 0
    outer loop
      vertex 3 17.5 6.5
      vertex 3 17.5 56.5
      vertex 1.5 17.5 56.5
    endloop
  endfacet
  facet normal 0 -1 0
    outer loop
      vertex 1.5 17.5 6.5
      vertex 3 17.5 6.5
      vertex 1.5 17.5 56.5
    endloop
  endfacet
  facet normal 0 0 1
    outer loop
      vertex 3 15.5 6.5
      vertex 3 17.5 6.5
      vertex 1.5 17.5 6.5
    endloop
  endfacet
  facet normal 0 0 1
    outer loop
      vertex 1.5 15.5 6.5
      vertex 3 15.5 6.5
      vertex 1.5 17.5 6.5
    endloop
  endfacet
  facet normal 0 1 0
    outer loop
      vertex 3 15.5 56.5
      vertex 3 15.5 6.5
      vertex 1.5 15.5 56.5
    endloop
  endfacet
  facet normal 0 1 0
    outer loop
      vertex 1.5 15.5 56.5
      vertex 3 15.5 6.5
      vertex 1.5 15.5 6.5
    endloop
  endfacet
  facet normal 0 0 1
    outer loop
      vertex 1.5 15.5 56.5
      vertex 1.5 14 56.5
      vertex 3 14 56.5
    endloop
  endfacet
  facet normal 0 0 1
    outer loop
      vertex 3 15.5 56.5
      vertex 1.5 15.5 56.5
      vertex 3 14 56.5
    endloop
  endfacet
  facet normal 0 -1 0
    outer loop
      vertex 78.5 14 56.5
      vertex 78.5 14 1.5
      vertex 80 14 1.5
    endloop
  endfacet
  facet normal 0 -1 0
    outer loop
      vertex 80 14 56.5
      vertex 78.5 14 56.5
      vertex 80 14 1.5
    endloop
  endfacet
  facet normal 0 0 1
    outer loop
      vertex 78.5 15.5 56.5
      vertex 78.5 14 56.5
      vertex 80 14 56.5
    endloop
  endfacet
  facet normal 0 0 1
    outer loop
      vertex 80 15.5 56.5
      vertex 78.5 15.5 56.5
      vertex 80 14 56.5
    endloop
  endfacet
  facet normal 0 1 0
    outer loop
      vertex 80 15.5 56.5
      vertex 80 15.5 6.5
      vertex 78.5 15.5 56.5
    endloop
  endfacet
  facet normal 0 1 0
    outer loop
      vertex 78.5 15.5 56.5
      vertex 80 15.5 6.5
      vertex 78.5 15.5 6.5
    endloop
  endfacet
  facet normal 0 0 1
    outer loop
      vertex 80 15.5 6.5
      vertex 80 17.5 6.5
      vertex 78.5 17.5 6.5
    endloop
  endfacet
  facet normal 0 0 1
    outer loop
      vertex 78.5 15.5 6.5
      vertex 80 15.5 6.5
      vertex 78.5 17.5 6.5
    endloop
  endfacet
  facet normal 0 -1 0
    outer loop
      vertex 80 17.5 6.5
      vertex 80 17.5 56.5
      vertex 78.5 17.5 56.5
    endloop
  endfacet
  facet normal 0 -1 0
    outer loop
      vertex 78.5 17.5 6.5
      vertex 80 17.5 6.5
      vertex 78.5 17.5 56.5
    endloop
  endfacet
  facet normal 0 0 1
    outer loop
      vertex 78.5 19 56.5
      vertex 78.5 17.5 56.5
      vertex 80 17.5 56.5
    endloop
  endfacet
  facet normal 0 0 1
    outer loop
      vertex 80 19 56.5
      vertex 78.5 19 56.5
      vertex 80 17.5 56.5
    endloop
  endfacet
  facet normal 0 1 0
    outer loop
      vertex 78.5 19 1.5
      vertex 78.5 19 56.5
      vertex 80 19 1.5
    endloop
  endfacet
  facet normal 0 1 0
    outer loop
      vertex 80 19 1.5
      vertex 78.5 19 56.5
      vertex 80 19 56.5
    endloop
  endfacet
  facet normal 1 0 0
    outer loop
      vertex 3 17.5 6.5
      vertex 3 14 1.5
      vertex 3 19 1.5
    endloop
  endfacet
  facet normal 1 0 0
    outer loop
      vertex 3 15.5 6.5
      vertex 3 15.5 56.5
      vertex 3 14 56.5
    endloop
  endfacet
  facet normal 1 0 0
    outer loop
      vertex 3 19 56.5
      vertex 3 17.5 56.5
      vertex 3 19 1.5
    endloop
  endfacet
  facet normal 1 0 0
    outer loop
      vertex 3 15.5 6.5
      vertex 3 14 1.5
      vertex 3 17.5 6.5
    endloop
  endfacet
  facet normal 1 0 0
    outer loop
      vertex 3 14 56.5
      vertex 3 14 1.5
      vertex 3 15.5 6.5
    endloop
  endfacet
  facet normal 1 0 0
    outer loop
      vertex 3 17.5 56.5
      vertex 3 17.5 6.5
      vertex 3 19 1.5
    endloop
  endfacet
  facet normal -1 0 0
    outer loop
      vertex 78.5 14 1.5
      vertex 78.5 14 56.5
      vertex 78.5 15.5 6.5
    endloop
  endfacet
  facet normal -1 0 0
    outer loop
      vertex 78.5 14 1.5
      vertex 78.5 15.5 6.5
      vertex 78.5 19 1.5
    endloop
  endfacet
  facet normal -1 0 0
    outer loop
      vertex 78.5 17.5 56.5
      vertex 78.5 19 1.5
      vertex 78.5 17.5 6.5
    endloop
  endfacet
  facet normal -1 0 0
    outer loop
      vertex 78.5 15.5 6.5
      vertex 78.5 17.5 6.5
      vertex 78.5 19 1.5
    endloop
  endfacet
  facet normal -1 0 0
    outer loop
      vertex 78.5 19 1.5
      vertex 78.5 17.5 56.5
      vertex 78.5 19 56.5
    endloop
  endfacet
  facet normal -1 0 0
    outer loop
      vertex 78.5 15.5 6.5
      vertex 78.5 14 56.5
      vertex 78.5 15.5 56.5
    endloop
  endfacet
endsolid OpenSCAD_Model
