solid OpenSCAD_Model
  facet normal -1 0 0
    outer loop
      vertex 0 0 0
      vertex 0 0 16.4
      vertex 0 2 7.5
    endloop
  endfacet
  facet normal -1 0 0
    outer loop
      vertex 0 0 0
      vertex 0 2 7.5
      vertex 0 56.4 0
    endloop
  endfacet
  facet normal -1 0 0
    outer loop
      vertex 0 5 16.4
      vertex 0 56.4 0
      vertex 0 5 7.5
    endloop
  endfacet
  facet normal -1 0 0
    outer loop
      vertex 0 2 7.5
      vertex 0 5 7.5
      vertex 0 56.4 0
    endloop
  endfacet
  facet normal -1 0 0
    outer loop
      vertex 0 31.2 13
      vertex 0 56.4 0
      vertex 0 25.2 13
    endloop
  endfacet
  facet normal -1 0 0
    outer loop
      vertex 0 25.2 15
      vertex 0 5 16.4
      vertex 0 56.4 16.4
    endloop
  endfacet
  facet normal -1 0 0
    outer loop
      vertex 0 25.2 13
      vertex 0 5 16.4
      vertex 0 25.2 15
    endloop
  endfacet
  facet normal -1 0 0
    outer loop
      vertex 0 31.2 15
      vertex 0 25.2 15
      vertex 0 56.4 16.4
    endloop
  endfacet
  facet normal -1 0 0
    outer loop
      vertex 0 56.4 0
      vertex 0 5 16.4
      vertex 0 25.2 13
    endloop
  endfacet
  facet normal -1 0 0
    outer loop
      vertex 0 56.4 0
      vertex 0 31.2 13
      vertex 0 56.4 16.4
    endloop
  endfacet
  facet normal -1 0 0
    outer loop
      vertex 0 31.2 13
      vertex 0 31.2 15
      vertex 0 56.4 16.4
    endloop
  endfacet
  facet normal -1 0 0
    outer loop
      vertex 0 2 7.5
      vertex 0 0 16.4
      vertex 0 2 16.4
    endloop
  endfacet
  facet normal 0 -1 0
    outer loop
      vertex 0 0 16.4
      vertex 0 0 0
      vertex 66.4 0 0
    endloop
  endfacet
  facet normal 0 -1 0
    outer loop
      vertex 30.2 0 13
      vertex 0 0 16.4
      vertex 66.4 0 0
    endloop
  endfacet
  facet normal 0 -1 0
    outer loop
      vertex 36.2 0 13
      vertex 30.2 0 13
      vertex 66.4 0 0
    endloop
  endfacet
  facet normal 0 -1 0
    outer loop
      vertex 30.2 0 15
      vertex 0 0 16.4
      vertex 30.2 0 13
    endloop
  endfacet
  facet normal 0 -1 0
    outer loop
      vertex 66.4 0 16.4
      vertex 0 0 16.4
      vertex 30.2 0 15
    endloop
  endfacet
  facet normal 0 -1 0
    outer loop
      vertex 66.4 0 16.4
      vertex 30.2 0 15
      vertex 36.2 0 15
    endloop
  endfacet
  facet normal 0 -1 0
    outer loop
      vertex 66.4 0 16.4
      vertex 36.2 0 13
      vertex 66.4 0 0
    endloop
  endfacet
  facet normal 0 -1 0
    outer loop
      vertex 36.2 0 15
      vertex 36.2 0 13
      vertex 66.4 0 16.4
    endloop
  endfacet
  facet normal 0 0 -1
    outer loop
      vertex 0 0 0
      vertex 0 56.4 0
      vertex 66.4 0 0
    endloop
  endfacet
  facet normal 0 0 -1
    outer loop
      vertex 66.4 0 0
      vertex 0 56.4 0
      vertex 66.4 56.4 0
    endloop
  endfacet
  facet normal 0 1 0
    outer loop
      vertex 0 56.4 0
      vertex 0 56.4 16.4
      vertex 66.4 56.4 0
    endloop
  endfacet
  facet normal 0 1 0
    outer loop
      vertex 30.2 56.4 15
      vertex 0 56.4 16.4
      vertex 66.4 56.4 16.4
    endloop
  endfacet
  facet normal 0 1 0
    outer loop
      vertex 30.2 56.4 13
      vertex 0 56.4 16.4
      vertex 30.2 56.4 15
    endloop
  endfacet
  facet normal 0 1 0
    outer loop
      vertex 36.2 56.4 15
      vertex 30.2 56.4 15
      vertex 66.4 56.4 16.4
    endloop
  endfacet
  facet normal 0 1 0
    outer loop
      vertex 66.4 56.4 0
      vertex 0 56.4 16.4
      vertex 30.2 56.4 13
    endloop
  endfacet
  facet normal 0 1 0
    outer loop
      vertex 66.4 56.4 0
      vertex 36.2 56.4 13
      vertex 66.4 56.4 16.4
    endloop
  endfacet
  facet normal 0 1 0
    outer loop
      vertex 36.2 56.4 13
      vertex 36.2 56.4 15
      vertex 66.4 56.4 16.4
    endloop
  endfacet
  facet normal 0 1 0
    outer loop
      vertex 36.2 56.4 13
      vertex 66.4 56.4 0
      vertex 30.2 56.4 13
    endloop
  endfacet
  facet normal 0 0 1
    outer loop
      vertex 0.7 0.7 16.4
      vertex 0 0 16.4
      vertex 66.4 0 16.4
    endloop
  endfacet
  facet normal 0 0 1
    outer loop
      vertex 65.7 0.7 16.4
      vertex 0.7 0.7 16.4
      vertex 66.4 0 16.4
    endloop
  endfacet
  facet normal 0 0 1
    outer loop
      vertex 0.7 0.7 16.4
      vertex 0.7 2 16.4
      vertex 0 2 16.4
    endloop
  endfacet
  facet normal 0 0 1
    outer loop
      vertex 0 56.4 16.4
      vertex 0.7 55.7 16.4
      vertex 66.4 56.4 16.4
    endloop
  endfacet
  facet normal 0 0 1
    outer loop
      vertex 0 56.4 16.4
      vertex 0 5 16.4
      vertex 0.7 55.7 16.4
    endloop
  endfacet
  facet normal 0 0 1
    outer loop
      vertex 66.4 56.4 16.4
      vertex 65.7 55.7 16.4
      vertex 66.4 0 16.4
    endloop
  endfacet
  facet normal 0 0 1
    outer loop
      vertex 65.7 55.7 16.4
      vertex 65.7 0.7 16.4
      vertex 66.4 0 16.4
    endloop
  endfacet
  facet normal 0 0 1
    outer loop
      vertex 0 2 16.4
      vertex 0 0 16.4
      vertex 0.7 0.7 16.4
    endloop
  endfacet
  facet normal 0 0 1
    outer loop
      vertex 0.7 5 16.4
      vertex 0.7 55.7 16.4
      vertex 0 5 16.4
    endloop
  endfacet
  facet normal 0 0 1
    outer loop
      vertex 0.7 55.7 16.4
      vertex 65.7 55.7 16.4
      vertex 66.4 56.4 16.4
    endloop
  endfacet
  facet normal 0 -1 0
    outer loop
      vertex 0.7 5 7.5
      vertex 0.7 5 16.4
      vertex 0 5 16.4
    endloop
  endfacet
  facet normal 0 -1 0
    outer loop
      vertex 0 5 7.5
      vertex 0.7 5 7.5
      vertex 0 5 16.4
    endloop
  endfacet
  facet normal 0 0 1
    outer loop
      vertex 0.7 2 7.5
      vertex 0.7 5 7.5
      vertex 0 5 7.5
    endloop
  endfacet
  facet normal 0 0 1
    outer loop
      vertex 0 2 7.5
      vertex 0.7 2 7.5
      vertex 0 5 7.5
    endloop
  endfacet
  facet normal 0 1 0
    outer loop
      vertex 0.7 2 16.4
      vertex 0.7 2 7.5
      vertex 0 2 16.4
    endloop
  endfacet
  facet normal 0 1 0
    outer loop
      vertex 0 2 16.4
      vertex 0.7 2 7.5
      vertex 0 2 7.5
    endloop
  endfacet
  facet normal 0 1 0
    outer loop
      vertex 0.7 25.2 15
      vertex 0.7 25.2 13
      vertex 0 25.2 15
    endloop
  endfacet
  facet normal 0 1 0
    outer loop
      vertex 0 25.2 15
      vertex 0.7 25.2 13
      vertex 0 25.2 13
    endloop
  endfacet
  facet normal 0 0 -1
    outer loop
      vertex 0.7 31.2 15
      vertex 0.7 25.2 15
      vertex 0 31.2 15
    endloop
  endfacet
  facet normal 0 0 -1
    outer loop
      vertex 0 31.2 15
      vertex 0.7 25.2 15
      vertex 0 25.2 15
    endloop
  endfacet
  facet normal 0 -1 0
    outer loop
      vertex 0.7 31.2 13
      vertex 0.7 31.2 15
      vertex 0 31.2 15
    endloop
  endfacet
  facet normal 0 -1 0
    outer loop
      vertex 0 31.2 13
      vertex 0.7 31.2 13
      vertex 0 31.2 15
    endloop
  endfacet
  facet normal 0 0 1
    outer loop
      vertex 0.7 25.2 13
      vertex 0.7 31.2 13
      vertex 0 31.2 13
    endloop
  endfacet
  facet normal 0 0 1
    outer loop
      vertex 0 25.2 13
      vertex 0.7 25.2 13
      vertex 0 31.2 13
    endloop
  endfacet
  facet normal 1 0 0
    outer loop
      vertex 66.4 0 16.4
      vertex 66.4 0 0
      vertex 66.4 56.4 0
    endloop
  endfacet
  facet normal 1 0 0
    outer loop
      vertex 66.4 25.2 13
      vertex 66.4 0 16.4
      vertex 66.4 56.4 0
    endloop
  endfacet
  facet normal 1 0 0
    outer loop
      vertex 66.4 31.2 13
      vertex 66.4 25.2 13
      vertex 66.4 56.4 0
    endloop
  endfacet
  facet normal 1 0 0
    outer loop
      vertex 66.4 25.2 15
      vertex 66.4 0 16.4
      vertex 66.4 25.2 13
    endloop
  endfacet
  facet normal 1 0 0
    outer loop
      vertex 66.4 56.4 16.4
      vertex 66.4 0 16.4
      vertex 66.4 25.2 15
    endloop
  endfacet
  facet normal 1 0 0
    outer loop
      vertex 66.4 56.4 16.4
      vertex 66.4 25.2 15
      vertex 66.4 31.2 15
    endloop
  endfacet
  facet normal 1 0 0
    outer loop
      vertex 66.4 56.4 16.4
      vertex 66.4 31.2 13
      vertex 66.4 56.4 0
    endloop
  endfacet
  facet normal 1 0 0
    outer loop
      vertex 66.4 31.2 15
      vertex 66.4 31.2 13
      vertex 66.4 56.4 16.4
    endloop
  endfacet
  facet normal 1 0 0
    outer loop
      vertex 30.2 0.7 13
      vertex 30.2 0.7 15
      vertex 30.2 0 15
    endloop
  endfacet
  facet normal 1 0 0
    outer loop
      vertex 30.2 0 13
      vertex 30.2 0.7 13
      vertex 30.2 0 15
    endloop
  endfacet
  facet normal 0 0 1
    outer loop
      vertex 36.2 0 13
      vertex 36.2 0.7 13
      vertex 30.2 0.7 13
    endloop
  endfacet
  facet normal 0 0 1
    outer loop
      vertex 30.2 0 13
      vertex 36.2 0 13
      vertex 30.2 0.7 13
    endloop
  endfacet
  facet normal -1 0 0
    outer loop
      vertex 36.2 0.7 15
      vertex 36.2 0.7 13
      vertex 36.2 0 15
    endloop
  endfacet
  facet normal -1 0 0
    outer loop
      vertex 36.2 0 15
      vertex 36.2 0.7 13
      vertex 36.2 0 13
    endloop
  endfacet
  facet normal 0 0 -1
    outer loop
      vertex 36.2 0.7 15
      vertex 36.2 0 15
      vertex 30.2 0.7 15
    endloop
  endfacet
  facet normal 0 0 -1
    outer loop
      vertex 30.2 0.7 15
      vertex 36.2 0 15
      vertex 30.2 0 15
    endloop
  endfacet
  facet normal 1 0 0
    outer loop
      vertex 30.2 56.4 13
      vertex 30.2 56.4 15
      vertex 30.2 55.7 15
    endloop
  endfacet
  facet normal 1 0 0
    outer loop
      vertex 30.2 55.7 13
      vertex 30.2 56.4 13
      vertex 30.2 55.7 15
    endloop
  endfacet
  facet normal 0 0 -1
    outer loop
      vertex 36.2 56.4 15
      vertex 36.2 55.7 15
      vertex 30.2 56.4 15
    endloop
  endfacet
  facet normal 0 0 -1
    outer loop
      vertex 30.2 56.4 15
      vertex 36.2 55.7 15
      vertex 30.2 55.7 15
    endloop
  endfacet
  facet normal -1 0 0
    outer loop
      vertex 36.2 56.4 15
      vertex 36.2 56.4 13
      vertex 36.2 55.7 15
    endloop
  endfacet
  facet normal -1 0 0
    outer loop
      vertex 36.2 55.7 15
      vertex 36.2 56.4 13
      vertex 36.2 55.7 13
    endloop
  endfacet
  facet normal 0 0 1
    outer loop
      vertex 36.2 55.7 13
      vertex 36.2 56.4 13
      vertex 30.2 56.4 13
    endloop
  endfacet
  facet normal 0 0 1
    outer loop
      vertex 30.2 55.7 13
      vertex 36.2 55.7 13
      vertex 30.2 56.4 13
    endloop
  endfacet
  facet normal 1 0 0
    outer loop
      vertex 0.7 25.2 15
      vertex 0.7 55.7 16.4
      vertex 0.7 5 16.4
    endloop
  endfacet
  facet normal 1 0 0
    outer loop
      vertex 0.7 2 7.5
      vertex 0.7 55.7 0.7
      vertex 0.7 5 7.5
    endloop
  endfacet
  facet normal 1 0 0
    outer loop
      vertex 0.7 5 7.5
      vertex 0.7 55.7 0.7
      vertex 0.7 5 16.4
    endloop
  endfacet
  facet normal 1 0 0
    outer loop
      vertex 0.7 0.7 0.7
      vertex 0.7 55.7 0.7
      vertex 0.7 2 7.5
    endloop
  endfacet
  facet normal 1 0 0
    outer loop
      vertex 0.7 0.7 16.4
      vertex 0.7 2 7.5
      vertex 0.7 2 16.4
    endloop
  endfacet
  facet normal 1 0 0
    outer loop
      vertex 0.7 0.7 0.7
      vertex 0.7 2 7.5
      vertex 0.7 0.7 16.4
    endloop
  endfacet
  facet normal 1 0 0
    outer loop
      vertex 0.7 25.2 13
      vertex 0.7 25.2 15
      vertex 0.7 5 16.4
    endloop
  endfacet
  facet normal 1 0 0
    outer loop
      vertex 0.7 31.2 15
      vertex 0.7 55.7 16.4
      vertex 0.7 25.2 15
    endloop
  endfacet
  facet normal 1 0 0
    outer loop
      vertex 0.7 55.7 0.7
      vertex 0.7 55.7 16.4
      vertex 0.7 31.2 15
    endloop
  endfacet
  facet normal 1 0 0
    outer loop
      vertex 0.7 55.7 0.7
      vertex 0.7 31.2 15
      vertex 0.7 31.2 13
    endloop
  endfacet
  facet normal 1 0 0
    outer loop
      vertex 0.7 55.7 0.7
      vertex 0.7 25.2 13
      vertex 0.7 5 16.4
    endloop
  endfacet
  facet normal 1 0 0
    outer loop
      vertex 0.7 31.2 13
      vertex 0.7 25.2 13
      vertex 0.7 55.7 0.7
    endloop
  endfacet
  facet normal 0 1 0
    outer loop
      vertex 30.2 0.7 13
      vertex 65.7 0.7 0.7
      vertex 0.7 0.7 16.4
    endloop
  endfacet
  facet normal 0 1 0
    outer loop
      vertex 0.7 0.7 16.4
      vertex 65.7 0.7 0.7
      vertex 0.7 0.7 0.7
    endloop
  endfacet
  facet normal 0 1 0
    outer loop
      vertex 36.2 0.7 13
      vertex 65.7 0.7 0.7
      vertex 30.2 0.7 13
    endloop
  endfacet
  facet normal 0 1 0
    outer loop
      vertex 30.2 0.7 15
      vertex 30.2 0.7 13
      vertex 0.7 0.7 16.4
    endloop
  endfacet
  facet normal 0 1 0
    outer loop
      vertex 65.7 0.7 16.4
      vertex 65.7 0.7 0.7
      vertex 36.2 0.7 13
    endloop
  endfacet
  facet normal 0 1 0
    outer loop
      vertex 65.7 0.7 16.4
      vertex 36.2 0.7 15
      vertex 0.7 0.7 16.4
    endloop
  endfacet
  facet normal 0 1 0
    outer loop
      vertex 36.2 0.7 15
      vertex 30.2 0.7 15
      vertex 0.7 0.7 16.4
    endloop
  endfacet
  facet normal 0 1 0
    outer loop
      vertex 36.2 0.7 15
      vertex 65.7 0.7 16.4
      vertex 36.2 0.7 13
    endloop
  endfacet
  facet normal -1 0 0
    outer loop
      vertex 65.7 25.2 13
      vertex 65.7 55.7 0.7
      vertex 65.7 0.7 16.4
    endloop
  endfacet
  facet normal -1 0 0
    outer loop
      vertex 65.7 0.7 16.4
      vertex 65.7 55.7 0.7
      vertex 65.7 0.7 0.7
    endloop
  endfacet
  facet normal -1 0 0
    outer loop
      vertex 65.7 31.2 13
      vertex 65.7 55.7 0.7
      vertex 65.7 25.2 13
    endloop
  endfacet
  facet normal -1 0 0
    outer loop
      vertex 65.7 25.2 15
      vertex 65.7 25.2 13
      vertex 65.7 0.7 16.4
    endloop
  endfacet
  facet normal -1 0 0
    outer loop
      vertex 65.7 55.7 16.4
      vertex 65.7 55.7 0.7
      vertex 65.7 31.2 13
    endloop
  endfacet
  facet normal -1 0 0
    outer loop
      vertex 65.7 55.7 16.4
      vertex 65.7 31.2 15
      vertex 65.7 0.7 16.4
    endloop
  endfacet
  facet normal -1 0 0
    outer loop
      vertex 65.7 31.2 15
      vertex 65.7 25.2 15
      vertex 65.7 0.7 16.4
    endloop
  endfacet
  facet normal -1 0 0
    outer loop
      vertex 65.7 31.2 15
      vertex 65.7 55.7 16.4
      vertex 65.7 31.2 13
    endloop
  endfacet
  facet normal 0 -1 0
    outer loop
      vertex 30.2 55.7 15
      vertex 65.7 55.7 16.4
      vertex 0.7 55.7 16.4
    endloop
  endfacet
  facet normal 0 -1 0
    outer loop
      vertex 0.7 55.7 0.7
      vertex 65.7 55.7 0.7
      vertex 0.7 55.7 16.4
    endloop
  endfacet
  facet normal 0 -1 0
    outer loop
      vertex 30.2 55.7 13
      vertex 30.2 55.7 15
      vertex 0.7 55.7 16.4
    endloop
  endfacet
  facet normal 0 -1 0
    outer loop
      vertex 36.2 55.7 15
      vertex 65.7 55.7 16.4
      vertex 30.2 55.7 15
    endloop
  endfacet
  facet normal 0 -1 0
    outer loop
      vertex 65.7 55.7 0.7
      vertex 65.7 55.7 16.4
      vertex 36.2 55.7 15
    endloop
  endfacet
  facet normal 0 -1 0
    outer loop
      vertex 65.7 55.7 0.7
      vertex 36.2 55.7 15
      vertex 36.2 55.7 13
    endloop
  endfacet
  facet normal 0 -1 0
    outer loop
      vertex 65.7 55.7 0.7
      vertex 30.2 55.7 13
      vertex 0.7 55.7 16.4
    endloop
  endfacet
  facet normal 0 -1 0
    outer loop
      vertex 36.2 55.7 13
      vertex 30.2 55.7 13
      vertex 65.7 55.7 0.7
    endloop
  endfacet
  facet normal 0 0 1
    outer loop
      vertex 66.4 25.2 13
      vertex 66.4 31.2 13
      vertex 65.7 31.2 13
    endloop
  endfacet
  facet normal 0 0 1
    outer loop
      vertex 65.7 25.2 13
      vertex 66.4 25.2 13
      vertex 65.7 31.2 13
    endloop
  endfacet
  facet normal 0 1 0
    outer loop
      vertex 66.4 25.2 15
      vertex 66.4 25.2 13
      vertex 65.7 25.2 15
    endloop
  endfacet
  facet normal 0 1 0
    outer loop
      vertex 65.7 25.2 15
      vertex 66.4 25.2 13
      vertex 65.7 25.2 13
    endloop
  endfacet
  facet normal 0 -1 0
    outer loop
      vertex 66.4 31.2 13
      vertex 66.4 31.2 15
      vertex 65.7 31.2 15
    endloop
  endfacet
  facet normal 0 -1 0
    outer loop
      vertex 65.7 31.2 13
      vertex 66.4 31.2 13
      vertex 65.7 31.2 15
    endloop
  endfacet
  facet normal 0 0 -1
    outer loop
      vertex 66.4 31.2 15
      vertex 66.4 25.2 15
      vertex 65.7 31.2 15
    endloop
  endfacet
  facet normal 0 0 -1
    outer loop
      vertex 65.7 31.2 15
      vertex 66.4 25.2 15
      vertex 65.7 25.2 15
    endloop
  endfacet
  facet normal 0 0 1
    outer loop
      vertex 65.7 0.7 0.7
      vertex 65.7 55.7 0.7
      vertex 0.7 55.7 0.7
    endloop
  endfacet
  facet normal 0 0 1
    outer loop
      vertex 0.7 0.7 0.7
      vertex 65.7 0.7 0.7
      vertex 0.7 55.7 0.7
    endloop
  endfacet
endsolid OpenSCAD_Model
