solid OpenSCAD_Model
  facet normal -1 0 0
    outer loop
      vertex 0 -14 0
      vertex 0 -14 9.5
      vertex 0 34.5 0
    endloop
  endfacet
  facet normal -1 0 0
    outer loop
      vertex 0 34.5 0
      vertex 0 -14 9.5
      vertex 0 -11 9.5
    endloop
  endfacet
  facet normal -1 0 0
    outer loop
      vertex 0 34.5 0
      vertex 0 -11 9.5
      vertex 0 -9.23664 10.0729
    endloop
  endfacet
  facet normal -1 0 0
    outer loop
      vertex 0 13.5 6.5
      vertex 0 34.5 0
      vertex 0 9.5 6.5
    endloop
  endfacet
  facet normal -1 0 0
    outer loop
      vertex 0 -8.14683 11.5729
      vertex 0 -8.14683 23
      vertex 0 6.64683 8.57295
    endloop
  endfacet
  facet normal -1 0 0
    outer loop
      vertex 0 -9.23664 10.0729
      vertex 0 -8.14683 11.5729
      vertex 0 7.73664 7.07295
    endloop
  endfacet
  facet normal -1 0 0
    outer loop
      vertex 0 -9.23664 10.0729
      vertex 0 7.73664 7.07295
      vertex 0 9.5 6.5
    endloop
  endfacet
  facet normal -1 0 0
    outer loop
      vertex 0 -9.23664 10.0729
      vertex 0 9.5 6.5
      vertex 0 34.5 0
    endloop
  endfacet
  facet normal -1 0 0
    outer loop
      vertex 0 7.73664 7.07295
      vertex 0 -8.14683 11.5729
      vertex 0 6.64683 8.57295
    endloop
  endfacet
  facet normal -1 0 0
    outer loop
      vertex 0 16.3532 23
      vertex 0 34.5 0
      vertex 0 16.3532 8.57295
    endloop
  endfacet
  facet normal -1 0 0
    outer loop
      vertex 0 13.5 6.5
      vertex 0 15.2634 7.07295
      vertex 0 34.5 0
    endloop
  endfacet
  facet normal -1 0 0
    outer loop
      vertex 0 15.2634 7.07295
      vertex 0 16.3532 8.57295
      vertex 0 34.5 0
    endloop
  endfacet
  facet normal -1 0 0
    outer loop
      vertex 0 31 6.5
      vertex 0 34.5 0
      vertex 0 29.2366 7.07295
    endloop
  endfacet
  facet normal -1 0 0
    outer loop
      vertex 0 28.1468 8.57295
      vertex 0 16.3532 23
      vertex 0 28.1468 23
    endloop
  endfacet
  facet normal -1 0 0
    outer loop
      vertex 0 29.2366 7.07295
      vertex 0 16.3532 23
      vertex 0 28.1468 8.57295
    endloop
  endfacet
  facet normal -1 0 0
    outer loop
      vertex 0 34.5 0
      vertex 0 16.3532 23
      vertex 0 29.2366 7.07295
    endloop
  endfacet
  facet normal -1 0 0
    outer loop
      vertex 0 34.5 6.5
      vertex 0 34.5 0
      vertex 0 31 6.5
    endloop
  endfacet
  facet normal -1 0 0
    outer loop
      vertex 0 6.64683 8.57295
      vertex 0 -8.14683 23
      vertex 0 6.64683 23
    endloop
  endfacet
  facet normal 0 -1 0
    outer loop
      vertex 1.5 -14 1.5
      vertex 0 -14 0
      vertex 34.5 -14 0
    endloop
  endfacet
  facet normal 0 -1 0
    outer loop
      vertex 1.5 -14 1.5
      vertex 1.5 -14 9.5
      vertex 0 -14 9.5
    endloop
  endfacet
  facet normal 0 -1 0
    outer loop
      vertex 0 -14 9.5
      vertex 0 -14 0
      vertex 1.5 -14 1.5
    endloop
  endfacet
  facet normal 0 -1 0
    outer loop
      vertex 34.5 -14 1.5
      vertex 1.5 -14 1.5
      vertex 34.5 -14 0
    endloop
  endfacet
  facet normal 0 0 -1
    outer loop
      vertex 6.5 31 0
      vertex 0 34.5 0
      vertex 6.5 34.5 0
    endloop
  endfacet
  facet normal 0 0 -1
    outer loop
      vertex 7.07295 29.2366 0
      vertex 0 34.5 0
      vertex 6.5 31 0
    endloop
  endfacet
  facet normal 0 0 -1
    outer loop
      vertex 145.427 6.64683 0
      vertex 128.525 -4.3832 0
      vertex 127.475 -4.3832 0
    endloop
  endfacet
  facet normal 0 0 -1
    outer loop
      vertex 147.5 31 0
      vertex 147.5 34.5 0
      vertex 154 34.5 0
    endloop
  endfacet
  facet normal 0 0 -1
    outer loop
      vertex 147.5 31 0
      vertex 154 34.5 0
      vertex 146.927 29.2366 0
    endloop
  endfacet
  facet normal 0 0 -1
    outer loop
      vertex 146.927 29.2366 0
      vertex 154 34.5 0
      vertex 154 -14 0
    endloop
  endfacet
  facet normal 0 0 -1
    outer loop
      vertex 146.927 29.2366 0
      vertex 154 -14 0
      vertex 145.427 28.1468 0
    endloop
  endfacet
  facet normal 0 0 -1
    outer loop
      vertex 128.525 -7.6168 0
      vertex 154 -14 0
      vertex 119.5 -14 0
    endloop
  endfacet
  facet normal 0 0 -1
    outer loop
      vertex 145.427 6.64683 0
      vertex 129.375 -5.00076 0
      vertex 128.525 -4.3832 0
    endloop
  endfacet
  facet normal 0 0 -1
    outer loop
      vertex 0 -14 0
      vertex 0 34.5 0
      vertex 6.5 13.5 0
    endloop
  endfacet
  facet normal 0 0 -1
    outer loop
      vertex 0 -14 0
      vertex 6.5 13.5 0
      vertex 6.5 9.5 0
    endloop
  endfacet
  facet normal 0 0 -1
    outer loop
      vertex 0 -14 0
      vertex 6.5 9.5 0
      vertex 7.07295 7.73664 0
    endloop
  endfacet
  facet normal 0 0 -1
    outer loop
      vertex 26.5253 -7.6168 0
      vertex 34.5 -14 0
      vertex 25.4747 -7.6168 0
    endloop
  endfacet
  facet normal 0 0 -1
    outer loop
      vertex 146.927 7.73664 0
      vertex 154 -14 0
      vertex 145.427 6.64683 0
    endloop
  endfacet
  facet normal 0 0 -1
    outer loop
      vertex 147.5 9.5 0
      vertex 154 -14 0
      vertex 146.927 7.73664 0
    endloop
  endfacet
  facet normal 0 0 -1
    outer loop
      vertex 147.5 13.5 0
      vertex 154 -14 0
      vertex 147.5 9.5 0
    endloop
  endfacet
  facet normal 0 0 -1
    outer loop
      vertex 145.427 28.1468 0
      vertex 154 -14 0
      vertex 147.5 13.5 0
    endloop
  endfacet
  facet normal 0 0 -1
    outer loop
      vertex 145.427 28.1468 0
      vertex 147.5 13.5 0
      vertex 146.927 15.2634 0
    endloop
  endfacet
  facet normal 0 0 -1
    outer loop
      vertex 27.3753 -6.99924 0
      vertex 34.5 -14 0
      vertex 26.5253 -7.6168 0
    endloop
  endfacet
  facet normal 0 0 -1
    outer loop
      vertex 8.57295 16.3532 0
      vertex 145.427 28.1468 0
      vertex 145.427 16.3532 0
    endloop
  endfacet
  facet normal 0 0 -1
    outer loop
      vertex 7.07295 15.2634 0
      vertex 0 34.5 0
      vertex 8.57295 16.3532 0
    endloop
  endfacet
  facet normal 0 0 -1
    outer loop
      vertex 6.5 13.5 0
      vertex 0 34.5 0
      vertex 7.07295 15.2634 0
    endloop
  endfacet
  facet normal 0 0 -1
    outer loop
      vertex 0 -14 0
      vertex 7.07295 7.73664 0
      vertex 24.3 -6 0
    endloop
  endfacet
  facet normal 0 0 -1
    outer loop
      vertex 0 -14 0
      vertex 24.3 -6 0
      vertex 24.6247 -6.99924 0
    endloop
  endfacet
  facet normal 0 0 -1
    outer loop
      vertex 0 -14 0
      vertex 24.6247 -6.99924 0
      vertex 25.4747 -7.6168 0
    endloop
  endfacet
  facet normal 0 0 -1
    outer loop
      vertex 0 -14 0
      vertex 25.4747 -7.6168 0
      vertex 34.5 -14 0
    endloop
  endfacet
  facet normal 0 0 -1
    outer loop
      vertex 27.7 -6 0
      vertex 27.3753 -5.00076 0
      vertex 34.5 -14 0
    endloop
  endfacet
  facet normal 0 0 -1
    outer loop
      vertex 126.625 -5.00076 0
      vertex 126.3 -6 0
      vertex 119.5 -14 0
    endloop
  endfacet
  facet normal 0 0 -1
    outer loop
      vertex 128.525 -7.6168 0
      vertex 119.5 -14 0
      vertex 127.475 -7.6168 0
    endloop
  endfacet
  facet normal 0 0 -1
    outer loop
      vertex 126.625 -6.99924 0
      vertex 127.475 -7.6168 0
      vertex 119.5 -14 0
    endloop
  endfacet
  facet normal 0 0 -1
    outer loop
      vertex 129.375 -6.99924 0
      vertex 154 -14 0
      vertex 128.525 -7.6168 0
    endloop
  endfacet
  facet normal 0 0 -1
    outer loop
      vertex 129.7 -6 0
      vertex 145.427 6.64683 0
      vertex 129.375 -6.99924 0
    endloop
  endfacet
  facet normal 0 0 -1
    outer loop
      vertex 145.427 6.64683 0
      vertex 154 -14 0
      vertex 129.375 -6.99924 0
    endloop
  endfacet
  facet normal 0 0 -1
    outer loop
      vertex 129.375 -5.00076 0
      vertex 145.427 6.64683 0
      vertex 129.7 -6 0
    endloop
  endfacet
  facet normal 0 0 -1
    outer loop
      vertex 145.427 16.3532 0
      vertex 145.427 28.1468 0
      vertex 146.927 15.2634 0
    endloop
  endfacet
  facet normal 0 0 -1
    outer loop
      vertex 126.625 -5.00076 0
      vertex 119.5 -14 0
      vertex 119.5 -11 0
    endloop
  endfacet
  facet normal 0 0 -1
    outer loop
      vertex 126.625 -5.00076 0
      vertex 119.5 -11 0
      vertex 118.927 -9.23664 0
    endloop
  endfacet
  facet normal 0 0 -1
    outer loop
      vertex 127.475 -4.3832 0
      vertex 126.625 -5.00076 0
      vertex 118.927 -9.23664 0
    endloop
  endfacet
  facet normal 0 0 -1
    outer loop
      vertex 145.427 6.64683 0
      vertex 127.475 -4.3832 0
      vertex 118.927 -9.23664 0
    endloop
  endfacet
  facet normal 0 0 -1
    outer loop
      vertex 145.427 6.64683 0
      vertex 118.927 -9.23664 0
      vertex 117.427 -8.14683 0
    endloop
  endfacet
  facet normal 0 0 -1
    outer loop
      vertex 145.427 6.64683 0
      vertex 117.427 -8.14683 0
      vertex 36.5729 -8.14683 0
    endloop
  endfacet
  facet normal 0 0 -1
    outer loop
      vertex 34.5 -11 0
      vertex 34.5 -14 0
      vertex 27.3753 -5.00076 0
    endloop
  endfacet
  facet normal 0 0 -1
    outer loop
      vertex 35.0729 -9.23664 0
      vertex 34.5 -11 0
      vertex 27.3753 -5.00076 0
    endloop
  endfacet
  facet normal 0 0 -1
    outer loop
      vertex 36.5729 -8.14683 0
      vertex 35.0729 -9.23664 0
      vertex 27.3753 -5.00076 0
    endloop
  endfacet
  facet normal 0 0 -1
    outer loop
      vertex 145.427 6.64683 0
      vertex 36.5729 -8.14683 0
      vertex 27.3753 -5.00076 0
    endloop
  endfacet
  facet normal 0 0 -1
    outer loop
      vertex 145.427 6.64683 0
      vertex 27.3753 -5.00076 0
      vertex 26.5253 -4.3832 0
    endloop
  endfacet
  facet normal 0 0 -1
    outer loop
      vertex 126.625 -6.99924 0
      vertex 119.5 -14 0
      vertex 126.3 -6 0
    endloop
  endfacet
  facet normal 0 0 -1
    outer loop
      vertex 145.427 6.64683 0
      vertex 26.5253 -4.3832 0
      vertex 25.4747 -4.3832 0
    endloop
  endfacet
  facet normal 0 0 -1
    outer loop
      vertex 27.7 -6 0
      vertex 34.5 -14 0
      vertex 27.3753 -6.99924 0
    endloop
  endfacet
  facet normal 0 0 -1
    outer loop
      vertex 25.4747 -4.3832 0
      vertex 24.6247 -5.00076 0
      vertex 8.57295 6.64683 0
    endloop
  endfacet
  facet normal 0 0 -1
    outer loop
      vertex 145.427 6.64683 0
      vertex 25.4747 -4.3832 0
      vertex 8.57295 6.64683 0
    endloop
  endfacet
  facet normal 0 0 -1
    outer loop
      vertex 8.57295 16.3532 0
      vertex 0 34.5 0
      vertex 7.07295 29.2366 0
    endloop
  endfacet
  facet normal 0 0 -1
    outer loop
      vertex 8.57295 16.3532 0
      vertex 7.07295 29.2366 0
      vertex 8.57295 28.1468 0
    endloop
  endfacet
  facet normal 0 0 -1
    outer loop
      vertex 8.57295 16.3532 0
      vertex 8.57295 28.1468 0
      vertex 145.427 28.1468 0
    endloop
  endfacet
  facet normal 0 0 -1
    outer loop
      vertex 24.3 -6 0
      vertex 7.07295 7.73664 0
      vertex 8.57295 6.64683 0
    endloop
  endfacet
  facet normal 0 0 -1
    outer loop
      vertex 24.3 -6 0
      vertex 8.57295 6.64683 0
      vertex 24.6247 -5.00076 0
    endloop
  endfacet
  facet normal 0 1 0
    outer loop
      vertex 1.5 34.5 6.5
      vertex 1.5 34.5 1.5
      vertex 0 34.5 6.5
    endloop
  endfacet
  facet normal 0 1 0
    outer loop
      vertex 6.5 34.5 0
      vertex 1.5 34.5 1.5
      vertex 6.5 34.5 1.5
    endloop
  endfacet
  facet normal 0 1 0
    outer loop
      vertex 0 34.5 0
      vertex 1.5 34.5 1.5
      vertex 6.5 34.5 0
    endloop
  endfacet
  facet normal 0 1 0
    outer loop
      vertex 0 34.5 6.5
      vertex 1.5 34.5 1.5
      vertex 0 34.5 0
    endloop
  endfacet
  facet normal 2.22045e-016 0 1
    outer loop
      vertex 1.5 31 6.5
      vertex 1.5 34.5 6.5
      vertex 0 34.5 6.5
    endloop
  endfacet
  facet normal 2.22045e-016 0 1
    outer loop
      vertex 0 31 6.5
      vertex 1.5 31 6.5
      vertex 0 34.5 6.5
    endloop
  endfacet
  facet normal 2.11177e-016 0.309017 0.951057
    outer loop
      vertex 1.5 29.2366 7.07295
      vertex 1.5 31 6.5
      vertex 0 31 6.5
    endloop
  endfacet
  facet normal 2.11177e-016 0.309017 0.951057
    outer loop
      vertex 0 29.2366 7.07295
      vertex 1.5 29.2366 7.07295
      vertex 0 31 6.5
    endloop
  endfacet
  facet normal 1.30515e-016 0.809017 0.587785
    outer loop
      vertex 1.5 29.2366 7.07295
      vertex 0 29.2366 7.07295
      vertex 1.5 28.1468 8.57295
    endloop
  endfacet
  facet normal 1.30515e-016 0.809017 0.587785
    outer loop
      vertex 1.5 28.1468 8.57295
      vertex 0 29.2366 7.07295
      vertex 0 28.1468 8.57295
    endloop
  endfacet
  facet normal 0 1 0
    outer loop
      vertex 1.5 28.1468 23
      vertex 1.5 28.1468 8.57295
      vertex 0 28.1468 23
    endloop
  endfacet
  facet normal 0 1 0
    outer loop
      vertex 0 28.1468 23
      vertex 1.5 28.1468 8.57295
      vertex 0 28.1468 8.57295
    endloop
  endfacet
  facet normal 0 0 1
    outer loop
      vertex 0 28.1468 23
      vertex 0 16.3532 23
      vertex 1.5 16.3532 23
    endloop
  endfacet
  facet normal 0 0 1
    outer loop
      vertex 1.5 23 23
      vertex 0 28.1468 23
      vertex 1.5 21.5 23
    endloop
  endfacet
  facet normal 0 0 1
    outer loop
      vertex 1.5 21.5 23
      vertex 0 28.1468 23
      vertex 1.5 16.3532 23
    endloop
  endfacet
  facet normal 0 0 1
    outer loop
      vertex 26.5 21.5 23
      vertex 6.5 23 23
      vertex 1.5 21.5 23
    endloop
  endfacet
  facet normal 0 0 1
    outer loop
      vertex 6.5 23 23
      vertex 1.5 23 23
      vertex 1.5 21.5 23
    endloop
  endfacet
  facet normal 0 0 1
    outer loop
      vertex 26.5 23 23
      vertex 6.5 23 23
      vertex 26.5 21.5 23
    endloop
  endfacet
  facet normal 0 0 1
    outer loop
      vertex 1.5 23 23
      vertex 1.5 28.1468 23
      vertex 0 28.1468 23
    endloop
  endfacet
  facet normal 0 -1 0
    outer loop
      vertex 1.5 16.3532 8.57295
      vertex 1.5 16.3532 23
      vertex 0 16.3532 23
    endloop
  endfacet
  facet normal 0 -1 0
    outer loop
      vertex 0 16.3532 8.57295
      vertex 1.5 16.3532 8.57295
      vertex 0 16.3532 23
    endloop
  endfacet
  facet normal 1.30515e-016 -0.809017 0.587785
    outer loop
      vertex 1.5 15.2634 7.07295
      vertex 1.5 16.3532 8.57295
      vertex 0 16.3532 8.57295
    endloop
  endfacet
  facet normal 1.30515e-016 -0.809017 0.587785
    outer loop
      vertex 0 15.2634 7.07295
      vertex 1.5 15.2634 7.07295
      vertex 0 16.3532 8.57295
    endloop
  endfacet
  facet normal 2.11177e-016 -0.309017 0.951057
    outer loop
      vertex 1.5 13.5 6.5
      vertex 1.5 15.2634 7.07295
      vertex 0 15.2634 7.07295
    endloop
  endfacet
  facet normal 2.11177e-016 -0.309017 0.951057
    outer loop
      vertex 0 13.5 6.5
      vertex 1.5 13.5 6.5
      vertex 0 15.2634 7.07295
    endloop
  endfacet
  facet normal 2.22045e-016 0 1
    outer loop
      vertex 1.5 9.5 6.5
      vertex 1.5 13.5 6.5
      vertex 0 13.5 6.5
    endloop
  endfacet
  facet normal 2.22045e-016 0 1
    outer loop
      vertex 0 9.5 6.5
      vertex 1.5 9.5 6.5
      vertex 0 13.5 6.5
    endloop
  endfacet
  facet normal 2.11177e-016 0.309017 0.951057
    outer loop
      vertex 1.5 7.73664 7.07295
      vertex 1.5 9.5 6.5
      vertex 0 9.5 6.5
    endloop
  endfacet
  facet normal 2.11177e-016 0.309017 0.951057
    outer loop
      vertex 0 7.73664 7.07295
      vertex 1.5 7.73664 7.07295
      vertex 0 9.5 6.5
    endloop
  endfacet
  facet normal 1.30515e-016 0.809017 0.587785
    outer loop
      vertex 1.5 7.73664 7.07295
      vertex 0 7.73664 7.07295
      vertex 1.5 6.64683 8.57295
    endloop
  endfacet
  facet normal 1.30515e-016 0.809017 0.587785
    outer loop
      vertex 1.5 6.64683 8.57295
      vertex 0 7.73664 7.07295
      vertex 0 6.64683 8.57295
    endloop
  endfacet
  facet normal 0 1 0
    outer loop
      vertex 1.5 6.64683 23
      vertex 1.5 6.64683 8.57295
      vertex 0 6.64683 23
    endloop
  endfacet
  facet normal 0 1 0
    outer loop
      vertex 0 6.64683 23
      vertex 1.5 6.64683 8.57295
      vertex 0 6.64683 8.57295
    endloop
  endfacet
  facet normal 0 0 1
    outer loop
      vertex 0 6.64683 23
      vertex 0 -8.14683 23
      vertex 1.5 -8.14683 23
    endloop
  endfacet
  facet normal 0 0 1
    outer loop
      vertex 1.5 1.5 23
      vertex 0 6.64683 23
      vertex 1.5 0 23
    endloop
  endfacet
  facet normal 0 0 1
    outer loop
      vertex 1.5 0 23
      vertex 0 6.64683 23
      vertex 1.5 -8.14683 23
    endloop
  endfacet
  facet normal 0 0 1
    outer loop
      vertex 1.5 1.5 23
      vertex 1.5 6.64683 23
      vertex 0 6.64683 23
    endloop
  endfacet
  facet normal 0 0 1
    outer loop
      vertex 6.5 0 23
      vertex 1.5 1.5 23
      vertex 1.5 0 23
    endloop
  endfacet
  facet normal 0 0 1
    outer loop
      vertex 9.5 1.5 23
      vertex 6.5 0 23
      vertex 9.5 0 23
    endloop
  endfacet
  facet normal 0 0 1
    outer loop
      vertex 9.5 1.5 23
      vertex 1.5 1.5 23
      vertex 6.5 0 23
    endloop
  endfacet
  facet normal 0 -1 0
    outer loop
      vertex 0 -8.14683 23
      vertex 0 -8.14683 11.5729
      vertex 1.5 -8.14683 11.5729
    endloop
  endfacet
  facet normal 0 -1 0
    outer loop
      vertex 1.5 -8.14683 23
      vertex 0 -8.14683 23
      vertex 1.5 -8.14683 11.5729
    endloop
  endfacet
  facet normal 1.30515e-016 -0.809017 0.587785
    outer loop
      vertex 0 -8.14683 11.5729
      vertex 0 -9.23664 10.0729
      vertex 1.5 -9.23664 10.0729
    endloop
  endfacet
  facet normal 1.30515e-016 -0.809017 0.587785
    outer loop
      vertex 1.5 -8.14683 11.5729
      vertex 0 -8.14683 11.5729
      vertex 1.5 -9.23664 10.0729
    endloop
  endfacet
  facet normal 2.11177e-016 -0.309017 0.951057
    outer loop
      vertex 0 -9.23664 10.0729
      vertex 0 -11 9.5
      vertex 1.5 -11 9.5
    endloop
  endfacet
  facet normal 2.11177e-016 -0.309017 0.951057
    outer loop
      vertex 1.5 -9.23664 10.0729
      vertex 0 -9.23664 10.0729
      vertex 1.5 -11 9.5
    endloop
  endfacet
  facet normal 2.22045e-016 0 1
    outer loop
      vertex 0 -11 9.5
      vertex 0 -14 9.5
      vertex 1.5 -14 9.5
    endloop
  endfacet
  facet normal 2.22045e-016 0 1
    outer loop
      vertex 1.5 -11 9.5
      vertex 0 -11 9.5
      vertex 1.5 -14 9.5
    endloop
  endfacet
  facet normal 1 0 0
    outer loop
      vertex 1.5 -14 9.5
      vertex 1.5 -14 1.5
      vertex 1.5 0 1.5
    endloop
  endfacet
  facet normal 1 0 0
    outer loop
      vertex 1.5 -11 9.5
      vertex 1.5 -14 9.5
      vertex 1.5 0 1.5
    endloop
  endfacet
  facet normal 1 0 0
    outer loop
      vertex 1.5 0 23
      vertex 1.5 -8.14683 11.5729
      vertex 1.5 0 1.5
    endloop
  endfacet
  facet normal 1 0 0
    outer loop
      vertex 1.5 -8.14683 11.5729
      vertex 1.5 -9.23664 10.0729
      vertex 1.5 0 1.5
    endloop
  endfacet
  facet normal 1 0 0
    outer loop
      vertex 1.5 -9.23664 10.0729
      vertex 1.5 -11 9.5
      vertex 1.5 0 1.5
    endloop
  endfacet
  facet normal 1 0 0
    outer loop
      vertex 1.5 -8.14683 23
      vertex 1.5 -8.14683 11.5729
      vertex 1.5 0 23
    endloop
  endfacet
  facet normal 0 0 1
    outer loop
      vertex 1.5 0 1.5
      vertex 1.5 -14 1.5
      vertex 34.5 -14 1.5
    endloop
  endfacet
  facet normal 0 0 1
    outer loop
      vertex 25.4747 -7.6168 1.5
      vertex 1.5 0 1.5
      vertex 34.5 -11 1.5
    endloop
  endfacet
  facet normal 0 0 1
    outer loop
      vertex 34.5 -11 1.5
      vertex 1.5 0 1.5
      vertex 34.5 -14 1.5
    endloop
  endfacet
  facet normal 0 0 1
    outer loop
      vertex 26.5253 -4.3832 1.5
      vertex 27.3753 -5.00076 1.5
      vertex 117.427 -8.14683 1.5
    endloop
  endfacet
  facet normal 0 0 1
    outer loop
      vertex 126.3 -6 1.5
      vertex 1.5 0 1.5
      vertex 117.427 -8.14683 1.5
    endloop
  endfacet
  facet normal 0 0 1
    outer loop
      vertex 152.5 -14 1.5
      vertex 117.427 -8.14683 1.5
      vertex 118.927 -9.23664 1.5
    endloop
  endfacet
  facet normal 0 0 1
    outer loop
      vertex 152.5 -14 1.5
      vertex 118.927 -9.23664 1.5
      vertex 119.5 -11 1.5
    endloop
  endfacet
  facet normal 0 0 1
    outer loop
      vertex 152.5 -14 1.5
      vertex 119.5 -11 1.5
      vertex 119.5 -14 1.5
    endloop
  endfacet
  facet normal 0 0 1
    outer loop
      vertex 128.525 -7.6168 1.5
      vertex 117.427 -8.14683 1.5
      vertex 152.5 -14 1.5
    endloop
  endfacet
  facet normal 0 0 1
    outer loop
      vertex 24.3 -6 1.5
      vertex 24.6247 -5.00076 1.5
      vertex 1.5 0 1.5
    endloop
  endfacet
  facet normal 0 0 1
    outer loop
      vertex 27.3753 -6.99924 1.5
      vertex 26.5253 -7.6168 1.5
      vertex 35.0729 -9.23664 1.5
    endloop
  endfacet
  facet normal 0 0 1
    outer loop
      vertex 27.3753 -5.00076 1.5
      vertex 27.7 -6 1.5
      vertex 36.5729 -8.14683 1.5
    endloop
  endfacet
  facet normal 0 0 1
    outer loop
      vertex 27.7 -6 1.5
      vertex 35.0729 -9.23664 1.5
      vertex 36.5729 -8.14683 1.5
    endloop
  endfacet
  facet normal 0 0 1
    outer loop
      vertex 25.4747 -4.3832 1.5
      vertex 1.5 0 1.5
      vertex 24.6247 -5.00076 1.5
    endloop
  endfacet
  facet normal 0 0 1
    outer loop
      vertex 26.5253 -4.3832 1.5
      vertex 1.5 0 1.5
      vertex 25.4747 -4.3832 1.5
    endloop
  endfacet
  facet normal 0 0 1
    outer loop
      vertex 27.3753 -5.00076 1.5
      vertex 36.5729 -8.14683 1.5
      vertex 117.427 -8.14683 1.5
    endloop
  endfacet
  facet normal 0 0 1
    outer loop
      vertex 117.427 -8.14683 1.5
      vertex 1.5 0 1.5
      vertex 26.5253 -4.3832 1.5
    endloop
  endfacet
  facet normal 0 0 1
    outer loop
      vertex 27.7 -6 1.5
      vertex 27.3753 -6.99924 1.5
      vertex 35.0729 -9.23664 1.5
    endloop
  endfacet
  facet normal 0 0 1
    outer loop
      vertex 126.625 -6.99924 1.5
      vertex 126.3 -6 1.5
      vertex 117.427 -8.14683 1.5
    endloop
  endfacet
  facet normal 0 0 1
    outer loop
      vertex 35.0729 -9.23664 1.5
      vertex 26.5253 -7.6168 1.5
      vertex 34.5 -11 1.5
    endloop
  endfacet
  facet normal 0 0 1
    outer loop
      vertex 24.6247 -6.99924 1.5
      vertex 1.5 0 1.5
      vertex 25.4747 -7.6168 1.5
    endloop
  endfacet
  facet normal 0 0 1
    outer loop
      vertex 126.625 -5.00076 1.5
      vertex 1.5 0 1.5
      vertex 126.3 -6 1.5
    endloop
  endfacet
  facet normal 0 0 1
    outer loop
      vertex 127.475 -4.3832 1.5
      vertex 1.5 0 1.5
      vertex 126.625 -5.00076 1.5
    endloop
  endfacet
  facet normal 0 0 1
    outer loop
      vertex 152.5 0 1.5
      vertex 1.5 0 1.5
      vertex 127.475 -4.3832 1.5
    endloop
  endfacet
  facet normal 0 0 1
    outer loop
      vertex 129.375 -5.00076 1.5
      vertex 129.7 -6 1.5
      vertex 152.5 0 1.5
    endloop
  endfacet
  facet normal 0 0 1
    outer loop
      vertex 152.5 0 1.5
      vertex 127.475 -4.3832 1.5
      vertex 128.525 -4.3832 1.5
    endloop
  endfacet
  facet normal 0 0 1
    outer loop
      vertex 129.7 -6 1.5
      vertex 129.375 -6.99924 1.5
      vertex 152.5 0 1.5
    endloop
  endfacet
  facet normal 0 0 1
    outer loop
      vertex 129.375 -6.99924 1.5
      vertex 128.525 -7.6168 1.5
      vertex 152.5 -14 1.5
    endloop
  endfacet
  facet normal 0 0 1
    outer loop
      vertex 128.525 -4.3832 1.5
      vertex 129.375 -5.00076 1.5
      vertex 152.5 0 1.5
    endloop
  endfacet
  facet normal 0 0 1
    outer loop
      vertex 152.5 0 1.5
      vertex 129.375 -6.99924 1.5
      vertex 152.5 -14 1.5
    endloop
  endfacet
  facet normal 0 0 1
    outer loop
      vertex 127.475 -7.6168 1.5
      vertex 117.427 -8.14683 1.5
      vertex 128.525 -7.6168 1.5
    endloop
  endfacet
  facet normal 0 0 1
    outer loop
      vertex 126.625 -6.99924 1.5
      vertex 117.427 -8.14683 1.5
      vertex 127.475 -7.6168 1.5
    endloop
  endfacet
  facet normal 0 0 1
    outer loop
      vertex 26.5253 -7.6168 1.5
      vertex 25.4747 -7.6168 1.5
      vertex 34.5 -11 1.5
    endloop
  endfacet
  facet normal 0 0 1
    outer loop
      vertex 24.6247 -6.99924 1.5
      vertex 24.3 -6 1.5
      vertex 1.5 0 1.5
    endloop
  endfacet
  facet normal 1 0 0
    outer loop
      vertex 34.5 -14 1.5
      vertex 34.5 -14 0
      vertex 34.5 -11 0
    endloop
  endfacet
  facet normal 1 0 0
    outer loop
      vertex 34.5 -11 1.5
      vertex 34.5 -14 1.5
      vertex 34.5 -11 0
    endloop
  endfacet
  facet normal 0.951057 -0.309017 0
    outer loop
      vertex 34.5 -11 1.5
      vertex 34.5 -11 0
      vertex 35.0729 -9.23664 0
    endloop
  endfacet
  facet normal 0.951057 -0.309017 0
    outer loop
      vertex 35.0729 -9.23664 1.5
      vertex 34.5 -11 1.5
      vertex 35.0729 -9.23664 0
    endloop
  endfacet
  facet normal 0.587785 -0.809017 0
    outer loop
      vertex 35.0729 -9.23664 1.5
      vertex 35.0729 -9.23664 0
      vertex 36.5729 -8.14683 0
    endloop
  endfacet
  facet normal 0.587785 -0.809017 0
    outer loop
      vertex 36.5729 -8.14683 1.5
      vertex 35.0729 -9.23664 1.5
      vertex 36.5729 -8.14683 0
    endloop
  endfacet
  facet normal 0 -1 0
    outer loop
      vertex 36.5729 -8.14683 1.5
      vertex 36.5729 -8.14683 0
      vertex 117.427 -8.14683 0
    endloop
  endfacet
  facet normal 0 -1 0
    outer loop
      vertex 117.427 -8.14683 1.5
      vertex 36.5729 -8.14683 1.5
      vertex 117.427 -8.14683 0
    endloop
  endfacet
  facet normal -0.587785 -0.809017 0
    outer loop
      vertex 117.427 -8.14683 1.5
      vertex 117.427 -8.14683 0
      vertex 118.927 -9.23664 0
    endloop
  endfacet
  facet normal -0.587785 -0.809017 0
    outer loop
      vertex 118.927 -9.23664 1.5
      vertex 117.427 -8.14683 1.5
      vertex 118.927 -9.23664 0
    endloop
  endfacet
  facet normal -0.951057 -0.309017 0
    outer loop
      vertex 118.927 -9.23664 0
      vertex 119.5 -11 0
      vertex 118.927 -9.23664 1.5
    endloop
  endfacet
  facet normal -0.951057 -0.309017 0
    outer loop
      vertex 118.927 -9.23664 1.5
      vertex 119.5 -11 0
      vertex 119.5 -11 1.5
    endloop
  endfacet
  facet normal -1 0 0
    outer loop
      vertex 119.5 -14 0
      vertex 119.5 -14 1.5
      vertex 119.5 -11 0
    endloop
  endfacet
  facet normal -1 0 0
    outer loop
      vertex 119.5 -11 0
      vertex 119.5 -14 1.5
      vertex 119.5 -11 1.5
    endloop
  endfacet
  facet normal 0 -1 0
    outer loop
      vertex 119.5 -14 1.5
      vertex 119.5 -14 0
      vertex 154 -14 0
    endloop
  endfacet
  facet normal 0 -1 0
    outer loop
      vertex 152.5 -14 1.5
      vertex 119.5 -14 1.5
      vertex 154 -14 0
    endloop
  endfacet
  facet normal 0 -1 0
    outer loop
      vertex 154 -14 9.5
      vertex 152.5 -14 1.5
      vertex 154 -14 0
    endloop
  endfacet
  facet normal 0 -1 0
    outer loop
      vertex 152.5 -14 9.5
      vertex 152.5 -14 1.5
      vertex 154 -14 9.5
    endloop
  endfacet
  facet normal 1 0 0
    outer loop
      vertex 154 -14 9.5
      vertex 154 -14 0
      vertex 154 34.5 0
    endloop
  endfacet
  facet normal 1 0 0
    outer loop
      vertex 154 9.5 6.5
      vertex 154 -14 9.5
      vertex 154 34.5 0
    endloop
  endfacet
  facet normal 1 0 0
    outer loop
      vertex 154 34.5 6.5
      vertex 154 31 6.5
      vertex 154 34.5 0
    endloop
  endfacet
  facet normal 1 0 0
    outer loop
      vertex 154 7.73664 7.07295
      vertex 154 6.64683 8.57295
      vertex 154 -14 9.5
    endloop
  endfacet
  facet normal 1 0 0
    outer loop
      vertex 154 28.1468 8.57295
      vertex 154 16.3532 8.57295
      vertex 154 29.2366 7.07295
    endloop
  endfacet
  facet normal 1 0 0
    outer loop
      vertex 154 31 6.5
      vertex 154 15.2634 7.07295
      vertex 154 34.5 0
    endloop
  endfacet
  facet normal 1 0 0
    outer loop
      vertex 154 15.2634 7.07295
      vertex 154 13.5 6.5
      vertex 154 34.5 0
    endloop
  endfacet
  facet normal 1 0 0
    outer loop
      vertex 154 13.5 6.5
      vertex 154 9.5 6.5
      vertex 154 34.5 0
    endloop
  endfacet
  facet normal 1 0 0
    outer loop
      vertex 154 7.73664 7.07295
      vertex 154 -14 9.5
      vertex 154 9.5 6.5
    endloop
  endfacet
  facet normal 1 0 0
    outer loop
      vertex 154 6.64683 8.57295
      vertex 154 -11 9.5
      vertex 154 -14 9.5
    endloop
  endfacet
  facet normal 1 0 0
    outer loop
      vertex 154 6.64683 8.57295
      vertex 154 -9.23664 10.0729
      vertex 154 -11 9.5
    endloop
  endfacet
  facet normal 1 0 0
    outer loop
      vertex 154 6.64683 8.57295
      vertex 154 6.64683 23
      vertex 154 -8.14683 11.5729
    endloop
  endfacet
  facet normal 1 0 0
    outer loop
      vertex 154 -8.14683 23
      vertex 154 -8.14683 11.5729
      vertex 154 6.64683 23
    endloop
  endfacet
  facet normal 1 0 0
    outer loop
      vertex 154 16.3532 8.57295
      vertex 154 15.2634 7.07295
      vertex 154 31 6.5
    endloop
  endfacet
  facet normal 1 0 0
    outer loop
      vertex 154 6.64683 8.57295
      vertex 154 -8.14683 11.5729
      vertex 154 -9.23664 10.0729
    endloop
  endfacet
  facet normal 1 0 0
    outer loop
      vertex 154 16.3532 8.57295
      vertex 154 31 6.5
      vertex 154 29.2366 7.07295
    endloop
  endfacet
  facet normal 1 0 0
    outer loop
      vertex 154 16.3532 23
      vertex 154 28.1468 8.57295
      vertex 154 28.1468 23
    endloop
  endfacet
  facet normal 1 0 0
    outer loop
      vertex 154 16.3532 23
      vertex 154 16.3532 8.57295
      vertex 154 28.1468 8.57295
    endloop
  endfacet
  facet normal 0 1 0
    outer loop
      vertex 152.5 34.5 1.5
      vertex 152.5 34.5 6.5
      vertex 154 34.5 6.5
    endloop
  endfacet
  facet normal 0 1 0
    outer loop
      vertex 152.5 34.5 1.5
      vertex 154 34.5 6.5
      vertex 154 34.5 0
    endloop
  endfacet
  facet normal 0 1 0
    outer loop
      vertex 152.5 34.5 1.5
      vertex 154 34.5 0
      vertex 147.5 34.5 1.5
    endloop
  endfacet
  facet normal 0 1 0
    outer loop
      vertex 154 34.5 0
      vertex 147.5 34.5 0
      vertex 147.5 34.5 1.5
    endloop
  endfacet
  facet normal -1 0 0
    outer loop
      vertex 147.5 34.5 1.5
      vertex 147.5 34.5 0
      vertex 147.5 31 1.5
    endloop
  endfacet
  facet normal -1 0 0
    outer loop
      vertex 147.5 31 1.5
      vertex 147.5 34.5 0
      vertex 147.5 31 0
    endloop
  endfacet
  facet normal -0.951057 0.309017 0
    outer loop
      vertex 147.5 31 1.5
      vertex 147.5 31 0
      vertex 146.927 29.2366 1.5
    endloop
  endfacet
  facet normal -0.951057 0.309017 0
    outer loop
      vertex 146.927 29.2366 1.5
      vertex 147.5 31 0
      vertex 146.927 29.2366 0
    endloop
  endfacet
  facet normal -0.587785 0.809017 0
    outer loop
      vertex 146.927 29.2366 1.5
      vertex 146.927 29.2366 0
      vertex 145.427 28.1468 1.5
    endloop
  endfacet
  facet normal -0.587785 0.809017 0
    outer loop
      vertex 145.427 28.1468 1.5
      vertex 146.927 29.2366 0
      vertex 145.427 28.1468 0
    endloop
  endfacet
  facet normal 0 1 0
    outer loop
      vertex 145.427 28.1468 1.5
      vertex 145.427 28.1468 0
      vertex 8.57295 28.1468 1.5
    endloop
  endfacet
  facet normal 0 1 0
    outer loop
      vertex 8.57295 28.1468 1.5
      vertex 145.427 28.1468 0
      vertex 8.57295 28.1468 0
    endloop
  endfacet
  facet normal 0.587785 0.809017 0
    outer loop
      vertex 8.57295 28.1468 1.5
      vertex 8.57295 28.1468 0
      vertex 7.07295 29.2366 1.5
    endloop
  endfacet
  facet normal 0.587785 0.809017 0
    outer loop
      vertex 7.07295 29.2366 1.5
      vertex 8.57295 28.1468 0
      vertex 7.07295 29.2366 0
    endloop
  endfacet
  facet normal 0.951057 0.309017 0
    outer loop
      vertex 6.5 31 1.5
      vertex 7.07295 29.2366 1.5
      vertex 7.07295 29.2366 0
    endloop
  endfacet
  facet normal 0.951057 0.309017 0
    outer loop
      vertex 6.5 31 0
      vertex 6.5 31 1.5
      vertex 7.07295 29.2366 0
    endloop
  endfacet
  facet normal 1 0 0
    outer loop
      vertex 6.5 34.5 0
      vertex 6.5 34.5 1.5
      vertex 6.5 31 1.5
    endloop
  endfacet
  facet normal 1 0 0
    outer loop
      vertex 6.5 31 0
      vertex 6.5 34.5 0
      vertex 6.5 31 1.5
    endloop
  endfacet
  facet normal 1 0 0
    outer loop
      vertex 6.5 13.5 0
      vertex 6.5 13.5 1.5
      vertex 6.5 9.5 1.5
    endloop
  endfacet
  facet normal 1 0 0
    outer loop
      vertex 6.5 9.5 0
      vertex 6.5 13.5 0
      vertex 6.5 9.5 1.5
    endloop
  endfacet
  facet normal 0.951057 -0.309017 0
    outer loop
      vertex 7.07295 15.2634 0
      vertex 7.07295 15.2634 1.5
      vertex 6.5 13.5 1.5
    endloop
  endfacet
  facet normal 0.951057 -0.309017 0
    outer loop
      vertex 6.5 13.5 0
      vertex 7.07295 15.2634 0
      vertex 6.5 13.5 1.5
    endloop
  endfacet
  facet normal 0.587785 -0.809017 0
    outer loop
      vertex 8.57295 16.3532 0
      vertex 8.57295 16.3532 1.5
      vertex 7.07295 15.2634 1.5
    endloop
  endfacet
  facet normal 0.587785 -0.809017 0
    outer loop
      vertex 7.07295 15.2634 0
      vertex 8.57295 16.3532 0
      vertex 7.07295 15.2634 1.5
    endloop
  endfacet
  facet normal 0 -1 0
    outer loop
      vertex 145.427 16.3532 0
      vertex 145.427 16.3532 1.5
      vertex 8.57295 16.3532 1.5
    endloop
  endfacet
  facet normal 0 -1 0
    outer loop
      vertex 8.57295 16.3532 0
      vertex 145.427 16.3532 0
      vertex 8.57295 16.3532 1.5
    endloop
  endfacet
  facet normal -0.587785 -0.809017 0
    outer loop
      vertex 146.927 15.2634 0
      vertex 146.927 15.2634 1.5
      vertex 145.427 16.3532 1.5
    endloop
  endfacet
  facet normal -0.587785 -0.809017 0
    outer loop
      vertex 145.427 16.3532 0
      vertex 146.927 15.2634 0
      vertex 145.427 16.3532 1.5
    endloop
  endfacet
  facet normal -0.951057 -0.309017 0
    outer loop
      vertex 147.5 13.5 1.5
      vertex 146.927 15.2634 1.5
      vertex 147.5 13.5 0
    endloop
  endfacet
  facet normal -0.951057 -0.309017 0
    outer loop
      vertex 147.5 13.5 0
      vertex 146.927 15.2634 1.5
      vertex 146.927 15.2634 0
    endloop
  endfacet
  facet normal -1 0 0
    outer loop
      vertex 147.5 13.5 1.5
      vertex 147.5 13.5 0
      vertex 147.5 9.5 1.5
    endloop
  endfacet
  facet normal -1 0 0
    outer loop
      vertex 147.5 9.5 1.5
      vertex 147.5 13.5 0
      vertex 147.5 9.5 0
    endloop
  endfacet
  facet normal -0.951057 0.309017 0
    outer loop
      vertex 147.5 9.5 1.5
      vertex 147.5 9.5 0
      vertex 146.927 7.73664 1.5
    endloop
  endfacet
  facet normal -0.951057 0.309017 0
    outer loop
      vertex 146.927 7.73664 1.5
      vertex 147.5 9.5 0
      vertex 146.927 7.73664 0
    endloop
  endfacet
  facet normal -0.587785 0.809017 0
    outer loop
      vertex 146.927 7.73664 1.5
      vertex 146.927 7.73664 0
      vertex 145.427 6.64683 1.5
    endloop
  endfacet
  facet normal -0.587785 0.809017 0
    outer loop
      vertex 145.427 6.64683 1.5
      vertex 146.927 7.73664 0
      vertex 145.427 6.64683 0
    endloop
  endfacet
  facet normal 0 1 0
    outer loop
      vertex 145.427 6.64683 1.5
      vertex 145.427 6.64683 0
      vertex 8.57295 6.64683 1.5
    endloop
  endfacet
  facet normal 0 1 0
    outer loop
      vertex 8.57295 6.64683 1.5
      vertex 145.427 6.64683 0
      vertex 8.57295 6.64683 0
    endloop
  endfacet
  facet normal 0.587785 0.809017 0
    outer loop
      vertex 8.57295 6.64683 1.5
      vertex 8.57295 6.64683 0
      vertex 7.07295 7.73664 1.5
    endloop
  endfacet
  facet normal 0.587785 0.809017 0
    outer loop
      vertex 7.07295 7.73664 1.5
      vertex 8.57295 6.64683 0
      vertex 7.07295 7.73664 0
    endloop
  endfacet
  facet normal 0.951057 0.309017 0
    outer loop
      vertex 6.5 9.5 1.5
      vertex 7.07295 7.73664 1.5
      vertex 7.07295 7.73664 0
    endloop
  endfacet
  facet normal 0.951057 0.309017 0
    outer loop
      vertex 6.5 9.5 0
      vertex 6.5 9.5 1.5
      vertex 7.07295 7.73664 0
    endloop
  endfacet
  facet normal 0.951057 0.309017 0
    outer loop
      vertex 24.6247 -6.99924 0
      vertex 24.3 -6 0
      vertex 24.3 -6 1.5
    endloop
  endfacet
  facet normal 0.951057 0.309017 0
    outer loop
      vertex 24.6247 -6.99924 1.5
      vertex 24.6247 -6.99924 0
      vertex 24.3 -6 1.5
    endloop
  endfacet
  facet normal 0.951057 -0.309017 0
    outer loop
      vertex 24.3 -6 1.5
      vertex 24.3 -6 0
      vertex 24.6247 -5.00076 0
    endloop
  endfacet
  facet normal 0.951057 -0.309017 0
    outer loop
      vertex 24.6247 -5.00076 1.5
      vertex 24.3 -6 1.5
      vertex 24.6247 -5.00076 0
    endloop
  endfacet
  facet normal 0.587785 -0.809017 0
    outer loop
      vertex 24.6247 -5.00076 1.5
      vertex 24.6247 -5.00076 0
      vertex 25.4747 -4.3832 0
    endloop
  endfacet
  facet normal 0.587785 -0.809017 0
    outer loop
      vertex 25.4747 -4.3832 1.5
      vertex 24.6247 -5.00076 1.5
      vertex 25.4747 -4.3832 0
    endloop
  endfacet
  facet normal 0 -1 0
    outer loop
      vertex 25.4747 -4.3832 1.5
      vertex 25.4747 -4.3832 0
      vertex 26.5253 -4.3832 0
    endloop
  endfacet
  facet normal 0 -1 0
    outer loop
      vertex 26.5253 -4.3832 1.5
      vertex 25.4747 -4.3832 1.5
      vertex 26.5253 -4.3832 0
    endloop
  endfacet
  facet normal -0.587785 -0.809017 0
    outer loop
      vertex 26.5253 -4.3832 1.5
      vertex 26.5253 -4.3832 0
      vertex 27.3753 -5.00076 0
    endloop
  endfacet
  facet normal -0.587785 -0.809017 0
    outer loop
      vertex 27.3753 -5.00076 1.5
      vertex 26.5253 -4.3832 1.5
      vertex 27.3753 -5.00076 0
    endloop
  endfacet
  facet normal -0.951057 -0.309017 0
    outer loop
      vertex 27.3753 -5.00076 0
      vertex 27.7 -6 0
      vertex 27.3753 -5.00076 1.5
    endloop
  endfacet
  facet normal -0.951057 -0.309017 0
    outer loop
      vertex 27.3753 -5.00076 1.5
      vertex 27.7 -6 0
      vertex 27.7 -6 1.5
    endloop
  endfacet
  facet normal -0.951057 0.309017 0
    outer loop
      vertex 27.3753 -6.99924 0
      vertex 27.3753 -6.99924 1.5
      vertex 27.7 -6 0
    endloop
  endfacet
  facet normal -0.951057 0.309017 0
    outer loop
      vertex 27.7 -6 0
      vertex 27.3753 -6.99924 1.5
      vertex 27.7 -6 1.5
    endloop
  endfacet
  facet normal -0.587785 0.809017 0
    outer loop
      vertex 26.5253 -7.6168 0
      vertex 26.5253 -7.6168 1.5
      vertex 27.3753 -6.99924 0
    endloop
  endfacet
  facet normal -0.587785 0.809017 0
    outer loop
      vertex 27.3753 -6.99924 0
      vertex 26.5253 -7.6168 1.5
      vertex 27.3753 -6.99924 1.5
    endloop
  endfacet
  facet normal 0 1 0
    outer loop
      vertex 25.4747 -7.6168 0
      vertex 25.4747 -7.6168 1.5
      vertex 26.5253 -7.6168 0
    endloop
  endfacet
  facet normal 0 1 0
    outer loop
      vertex 26.5253 -7.6168 0
      vertex 25.4747 -7.6168 1.5
      vertex 26.5253 -7.6168 1.5
    endloop
  endfacet
  facet normal 0.587785 0.809017 0
    outer loop
      vertex 24.6247 -6.99924 0
      vertex 24.6247 -6.99924 1.5
      vertex 25.4747 -7.6168 0
    endloop
  endfacet
  facet normal 0.587785 0.809017 0
    outer loop
      vertex 25.4747 -7.6168 0
      vertex 24.6247 -6.99924 1.5
      vertex 25.4747 -7.6168 1.5
    endloop
  endfacet
  facet normal 0.951057 0.309017 0
    outer loop
      vertex 126.625 -6.99924 0
      vertex 126.3 -6 0
      vertex 126.3 -6 1.5
    endloop
  endfacet
  facet normal 0.951057 0.309017 0
    outer loop
      vertex 126.625 -6.99924 1.5
      vertex 126.625 -6.99924 0
      vertex 126.3 -6 1.5
    endloop
  endfacet
  facet normal 0.951057 -0.309017 0
    outer loop
      vertex 126.3 -6 1.5
      vertex 126.3 -6 0
      vertex 126.625 -5.00076 0
    endloop
  endfacet
  facet normal 0.951057 -0.309017 0
    outer loop
      vertex 126.625 -5.00076 1.5
      vertex 126.3 -6 1.5
      vertex 126.625 -5.00076 0
    endloop
  endfacet
  facet normal 0.587785 -0.809017 0
    outer loop
      vertex 126.625 -5.00076 1.5
      vertex 126.625 -5.00076 0
      vertex 127.475 -4.3832 0
    endloop
  endfacet
  facet normal 0.587785 -0.809017 0
    outer loop
      vertex 127.475 -4.3832 1.5
      vertex 126.625 -5.00076 1.5
      vertex 127.475 -4.3832 0
    endloop
  endfacet
  facet normal 0 -1 0
    outer loop
      vertex 127.475 -4.3832 1.5
      vertex 127.475 -4.3832 0
      vertex 128.525 -4.3832 0
    endloop
  endfacet
  facet normal 0 -1 0
    outer loop
      vertex 128.525 -4.3832 1.5
      vertex 127.475 -4.3832 1.5
      vertex 128.525 -4.3832 0
    endloop
  endfacet
  facet normal -0.587785 -0.809017 0
    outer loop
      vertex 128.525 -4.3832 1.5
      vertex 128.525 -4.3832 0
      vertex 129.375 -5.00076 0
    endloop
  endfacet
  facet normal -0.587785 -0.809017 0
    outer loop
      vertex 129.375 -5.00076 1.5
      vertex 128.525 -4.3832 1.5
      vertex 129.375 -5.00076 0
    endloop
  endfacet
  facet normal -0.951057 -0.309017 0
    outer loop
      vertex 129.375 -5.00076 0
      vertex 129.7 -6 0
      vertex 129.375 -5.00076 1.5
    endloop
  endfacet
  facet normal -0.951057 -0.309017 0
    outer loop
      vertex 129.375 -5.00076 1.5
      vertex 129.7 -6 0
      vertex 129.7 -6 1.5
    endloop
  endfacet
  facet normal -0.951057 0.309017 0
    outer loop
      vertex 129.375 -6.99924 0
      vertex 129.375 -6.99924 1.5
      vertex 129.7 -6 0
    endloop
  endfacet
  facet normal -0.951057 0.309017 0
    outer loop
      vertex 129.7 -6 0
      vertex 129.375 -6.99924 1.5
      vertex 129.7 -6 1.5
    endloop
  endfacet
  facet normal -0.587785 0.809017 0
    outer loop
      vertex 128.525 -7.6168 0
      vertex 128.525 -7.6168 1.5
      vertex 129.375 -6.99924 0
    endloop
  endfacet
  facet normal -0.587785 0.809017 0
    outer loop
      vertex 129.375 -6.99924 0
      vertex 128.525 -7.6168 1.5
      vertex 129.375 -6.99924 1.5
    endloop
  endfacet
  facet normal 0 1 0
    outer loop
      vertex 127.475 -7.6168 0
      vertex 127.475 -7.6168 1.5
      vertex 128.525 -7.6168 0
    endloop
  endfacet
  facet normal 0 1 0
    outer loop
      vertex 128.525 -7.6168 0
      vertex 127.475 -7.6168 1.5
      vertex 128.525 -7.6168 1.5
    endloop
  endfacet
  facet normal 0.587785 0.809017 0
    outer loop
      vertex 126.625 -6.99924 0
      vertex 126.625 -6.99924 1.5
      vertex 127.475 -7.6168 0
    endloop
  endfacet
  facet normal 0.587785 0.809017 0
    outer loop
      vertex 127.475 -7.6168 0
      vertex 126.625 -6.99924 1.5
      vertex 127.475 -7.6168 1.5
    endloop
  endfacet
  facet normal 0 0 1
    outer loop
      vertex 152.5 23 1.5
      vertex 152.5 34.5 1.5
      vertex 147.5 34.5 1.5
    endloop
  endfacet
  facet normal 0 0 1
    outer loop
      vertex 146.927 29.2366 1.5
      vertex 152.5 23 1.5
      vertex 147.5 31 1.5
    endloop
  endfacet
  facet normal 0 0 1
    outer loop
      vertex 147.5 31 1.5
      vertex 152.5 23 1.5
      vertex 147.5 34.5 1.5
    endloop
  endfacet
  facet normal 0 0 1
    outer loop
      vertex 145.427 28.1468 1.5
      vertex 152.5 23 1.5
      vertex 146.927 29.2366 1.5
    endloop
  endfacet
  facet normal 0 0 1
    outer loop
      vertex 8.57295 28.1468 1.5
      vertex 152.5 23 1.5
      vertex 145.427 28.1468 1.5
    endloop
  endfacet
  facet normal 0 0 1
    outer loop
      vertex 1.5 23 1.5
      vertex 152.5 23 1.5
      vertex 8.57295 28.1468 1.5
    endloop
  endfacet
  facet normal 0 0 1
    outer loop
      vertex 1.5 23 1.5
      vertex 8.57295 28.1468 1.5
      vertex 7.07295 29.2366 1.5
    endloop
  endfacet
  facet normal 0 0 1
    outer loop
      vertex 1.5 34.5 1.5
      vertex 7.07295 29.2366 1.5
      vertex 6.5 31 1.5
    endloop
  endfacet
  facet normal 0 0 1
    outer loop
      vertex 1.5 34.5 1.5
      vertex 6.5 31 1.5
      vertex 6.5 34.5 1.5
    endloop
  endfacet
  facet normal 0 0 1
    outer loop
      vertex 1.5 23 1.5
      vertex 7.07295 29.2366 1.5
      vertex 1.5 34.5 1.5
    endloop
  endfacet
  facet normal 1 0 0
    outer loop
      vertex 1.5 29.2366 7.07295
      vertex 1.5 23 1.5
      vertex 1.5 34.5 1.5
    endloop
  endfacet
  facet normal 1 0 0
    outer loop
      vertex 1.5 34.5 1.5
      vertex 1.5 34.5 6.5
      vertex 1.5 31 6.5
    endloop
  endfacet
  facet normal 1 0 0
    outer loop
      vertex 1.5 28.1468 8.57295
      vertex 1.5 23 1.5
      vertex 1.5 29.2366 7.07295
    endloop
  endfacet
  facet normal 1 0 0
    outer loop
      vertex 1.5 29.2366 7.07295
      vertex 1.5 34.5 1.5
      vertex 1.5 31 6.5
    endloop
  endfacet
  facet normal 1 0 0
    outer loop
      vertex 1.5 28.1468 23
      vertex 1.5 23 23
      vertex 1.5 28.1468 8.57295
    endloop
  endfacet
  facet normal 1 0 0
    outer loop
      vertex 1.5 23 23
      vertex 1.5 23 1.5
      vertex 1.5 28.1468 8.57295
    endloop
  endfacet
  facet normal 0 1 0
    outer loop
      vertex 131.077 23 6.64683
      vertex 152.5 23 1.5
      vertex 22.9228 23 6.64683
    endloop
  endfacet
  facet normal 0 1 0
    outer loop
      vertex 1.5 23 1.5
      vertex 1.5 23 23
      vertex 6.5 23 9.5
    endloop
  endfacet
  facet normal 0 1 0
    outer loop
      vertex 1.5 23 1.5
      vertex 6.5 23 9.5
      vertex 7.07295 23 7.73664
    endloop
  endfacet
  facet normal 0 1 0
    outer loop
      vertex 1.5 23 1.5
      vertex 7.07295 23 7.73664
      vertex 8.57295 23 6.64683
    endloop
  endfacet
  facet normal 0 1 0
    outer loop
      vertex 1.5 23 1.5
      vertex 8.57295 23 6.64683
      vertex 152.5 23 1.5
    endloop
  endfacet
  facet normal 0 1 0
    outer loop
      vertex 8.57295 23 6.64683
      vertex 20.0772 23 6.64683
      vertex 152.5 23 1.5
    endloop
  endfacet
  facet normal 0 1 0
    outer loop
      vertex 20.0772 23 6.64683
      vertex 22.9228 23 6.64683
      vertex 152.5 23 1.5
    endloop
  endfacet
  facet normal 0 1 0
    outer loop
      vertex 152.5 23 1.5
      vertex 131.077 23 6.64683
      vertex 133.923 23 6.64683
    endloop
  endfacet
  facet normal 0 1 0
    outer loop
      vertex 133.923 23 6.64683
      vertex 145.427 23 6.64683
      vertex 152.5 23 1.5
    endloop
  endfacet
  facet normal 0 1 0
    outer loop
      vertex 145.427 23 6.64683
      vertex 146.927 23 7.73664
      vertex 152.5 23 1.5
    endloop
  endfacet
  facet normal 0 1 0
    outer loop
      vertex 146.927 23 7.73664
      vertex 147.5 23 9.5
      vertex 152.5 23 1.5
    endloop
  endfacet
  facet normal 0 1 0
    outer loop
      vertex 147.5 23 9.5
      vertex 147.5 23 23
      vertex 152.5 23 1.5
    endloop
  endfacet
  facet normal 0 1 0
    outer loop
      vertex 152.5 23 1.5
      vertex 147.5 23 23
      vertex 152.5 23 23
    endloop
  endfacet
  facet normal 0 1 0
    outer loop
      vertex 6.5 23 9.5
      vertex 1.5 23 23
      vertex 6.5 23 23
    endloop
  endfacet
  facet normal 0 1 0
    outer loop
      vertex 6.5 23 9.5
      vertex 6.5 23 23
      vertex 7.07295 23 7.73664
    endloop
  endfacet
  facet normal 0 1 0
    outer loop
      vertex 7.07295 23 7.73664
      vertex 6.5 23 23
      vertex 26.5 23 23
    endloop
  endfacet
  facet normal 0 1 0
    outer loop
      vertex 22.0253 23 9.1168
      vertex 26.5 23 23
      vertex 26.5 23 9.5
    endloop
  endfacet
  facet normal 0 1 0
    outer loop
      vertex 22.8753 23 8.49923
      vertex 26.5 23 9.5
      vertex 27.0729 23 7.73664
    endloop
  endfacet
  facet normal 0 1 0
    outer loop
      vertex 127.5 23 9.5
      vertex 127.5 23 23
      vertex 147.5 23 23
    endloop
  endfacet
  facet normal 0 1 0
    outer loop
      vertex 127.5 23 9.5
      vertex 147.5 23 23
      vertex 126.927 23 7.73664
    endloop
  endfacet
  facet normal 0 1 0
    outer loop
      vertex 133.875 23 8.49923
      vertex 147.5 23 23
      vertex 147.5 23 9.5
    endloop
  endfacet
  facet normal 0 1 0
    outer loop
      vertex 134.2 23 7.5
      vertex 147.5 23 9.5
      vertex 146.927 23 7.73664
    endloop
  endfacet
  facet normal 0 1 0
    outer loop
      vertex 131.077 23 6.64683
      vertex 28.5729 23 6.64683
      vertex 125.427 23 6.64683
    endloop
  endfacet
  facet normal 0 1 0
    outer loop
      vertex 131.077 23 6.64683
      vertex 125.427 23 6.64683
      vertex 130.8 23 7.5
    endloop
  endfacet
  facet normal 0 1 0
    outer loop
      vertex 133.875 23 8.49923
      vertex 147.5 23 9.5
      vertex 134.2 23 7.5
    endloop
  endfacet
  facet normal 0 1 0
    outer loop
      vertex 133.025 23 9.1168
      vertex 147.5 23 23
      vertex 133.875 23 8.49923
    endloop
  endfacet
  facet normal 0 1 0
    outer loop
      vertex 131.125 23 8.49923
      vertex 126.927 23 7.73664
      vertex 131.975 23 9.1168
    endloop
  endfacet
  facet normal 0 1 0
    outer loop
      vertex 131.975 23 9.1168
      vertex 147.5 23 23
      vertex 133.025 23 9.1168
    endloop
  endfacet
  facet normal 0 1 0
    outer loop
      vertex 126.927 23 7.73664
      vertex 147.5 23 23
      vertex 131.975 23 9.1168
    endloop
  endfacet
  facet normal 0 1 0
    outer loop
      vertex 130.8 23 7.5
      vertex 126.927 23 7.73664
      vertex 131.125 23 8.49923
    endloop
  endfacet
  facet normal 0 1 0
    outer loop
      vertex 126.927 23 7.73664
      vertex 130.8 23 7.5
      vertex 125.427 23 6.64683
    endloop
  endfacet
  facet normal 0 1 0
    outer loop
      vertex 23.2 23 7.5
      vertex 28.5729 23 6.64683
      vertex 22.9228 23 6.64683
    endloop
  endfacet
  facet normal 0 1 0
    outer loop
      vertex 28.5729 23 6.64683
      vertex 131.077 23 6.64683
      vertex 22.9228 23 6.64683
    endloop
  endfacet
  facet normal 0 1 0
    outer loop
      vertex 27.0729 23 7.73664
      vertex 28.5729 23 6.64683
      vertex 23.2 23 7.5
    endloop
  endfacet
  facet normal 0 1 0
    outer loop
      vertex 19.8 23 7.5
      vertex 7.07295 23 7.73664
      vertex 20.1247 23 8.49923
    endloop
  endfacet
  facet normal 0 1 0
    outer loop
      vertex 22.0253 23 9.1168
      vertex 26.5 23 9.5
      vertex 22.8753 23 8.49923
    endloop
  endfacet
  facet normal 0 1 0
    outer loop
      vertex 20.9747 23 9.1168
      vertex 26.5 23 23
      vertex 22.0253 23 9.1168
    endloop
  endfacet
  facet normal 0 1 0
    outer loop
      vertex 20.1247 23 8.49923
      vertex 7.07295 23 7.73664
      vertex 20.9747 23 9.1168
    endloop
  endfacet
  facet normal 0 1 0
    outer loop
      vertex 7.07295 23 7.73664
      vertex 26.5 23 23
      vertex 20.9747 23 9.1168
    endloop
  endfacet
  facet normal 0 1 0
    outer loop
      vertex 22.8753 23 8.49923
      vertex 27.0729 23 7.73664
      vertex 23.2 23 7.5
    endloop
  endfacet
  facet normal 0 1 0
    outer loop
      vertex 20.0772 23 6.64683
      vertex 7.07295 23 7.73664
      vertex 19.8 23 7.5
    endloop
  endfacet
  facet normal 0 1 0
    outer loop
      vertex 7.07295 23 7.73664
      vertex 20.0772 23 6.64683
      vertex 8.57295 23 6.64683
    endloop
  endfacet
  facet normal 0 1 0
    outer loop
      vertex 134.2 23 7.5
      vertex 146.927 23 7.73664
      vertex 145.427 23 6.64683
    endloop
  endfacet
  facet normal 0 1 0
    outer loop
      vertex 134.2 23 7.5
      vertex 145.427 23 6.64683
      vertex 133.923 23 6.64683
    endloop
  endfacet
  facet normal 1 0 0
    outer loop
      vertex 26.5 23 9.5
      vertex 26.5 23 23
      vertex 26.5 21.5 23
    endloop
  endfacet
  facet normal 1 0 0
    outer loop
      vertex 26.5 21.5 9.5
      vertex 26.5 23 9.5
      vertex 26.5 21.5 23
    endloop
  endfacet
  facet normal 0 -1 0
    outer loop
      vertex 152.5 21.5 1.5
      vertex 152.5 21.5 23
      vertex 127.5 21.5 23
    endloop
  endfacet
  facet normal 0 -1 0
    outer loop
      vertex 133.875 21.5 8.49923
      vertex 134.2 21.5 7.5
      vertex 152.5 21.5 1.5
    endloop
  endfacet
  facet normal 0 -1 0
    outer loop
      vertex 133.025 21.5 9.1168
      vertex 152.5 21.5 1.5
      vertex 127.5 21.5 23
    endloop
  endfacet
  facet normal 0 -1 0
    outer loop
      vertex 130.8 21.5 7.5
      vertex 131.125 21.5 8.49923
      vertex 127.5 21.5 9.5
    endloop
  endfacet
  facet normal 0 -1 0
    outer loop
      vertex 28.5729 21.5 6.64683
      vertex 152.5 21.5 1.5
      vertex 125.427 21.5 6.64683
    endloop
  endfacet
  facet normal 0 -1 0
    outer loop
      vertex 1.5 21.5 1.5
      vertex 152.5 21.5 1.5
      vertex 28.5729 21.5 6.64683
    endloop
  endfacet
  facet normal 0 -1 0
    outer loop
      vertex 1.5 21.5 23
      vertex 28.5729 21.5 6.64683
      vertex 27.0729 21.5 7.73664
    endloop
  endfacet
  facet normal 0 -1 0
    outer loop
      vertex 1.5 21.5 23
      vertex 27.0729 21.5 7.73664
      vertex 26.5 21.5 9.5
    endloop
  endfacet
  facet normal 0 -1 0
    outer loop
      vertex 1.5 21.5 23
      vertex 26.5 21.5 9.5
      vertex 26.5 21.5 23
    endloop
  endfacet
  facet normal 0 -1 0
    outer loop
      vertex 22.0253 21.5 9.1168
      vertex 28.5729 21.5 6.64683
      vertex 1.5 21.5 23
    endloop
  endfacet
  facet normal 0 -1 0
    outer loop
      vertex 1.5 21.5 1.5
      vertex 19.8 21.5 7.5
      vertex 1.5 21.5 23
    endloop
  endfacet
  facet normal 0 -1 0
    outer loop
      vertex 19.8 21.5 7.5
      vertex 20.1247 21.5 8.49923
      vertex 1.5 21.5 23
    endloop
  endfacet
  facet normal 0 -1 0
    outer loop
      vertex 20.1247 21.5 8.49923
      vertex 20.9747 21.5 9.1168
      vertex 1.5 21.5 23
    endloop
  endfacet
  facet normal 0 -1 0
    outer loop
      vertex 23.2 21.5 7.5
      vertex 22.9228 21.5 6.64683
      vertex 28.5729 21.5 6.64683
    endloop
  endfacet
  facet normal 0 -1 0
    outer loop
      vertex 20.9747 21.5 9.1168
      vertex 22.0253 21.5 9.1168
      vertex 1.5 21.5 23
    endloop
  endfacet
  facet normal 0 -1 0
    outer loop
      vertex 22.8753 21.5 8.49923
      vertex 28.5729 21.5 6.64683
      vertex 22.0253 21.5 9.1168
    endloop
  endfacet
  facet normal 0 -1 0
    outer loop
      vertex 20.9747 21.5 5.8832
      vertex 20.1247 21.5 6.50076
      vertex 1.5 21.5 1.5
    endloop
  endfacet
  facet normal 0 -1 0
    outer loop
      vertex 22.8753 21.5 6.50076
      vertex 28.5729 21.5 6.64683
      vertex 22.9228 21.5 6.64683
    endloop
  endfacet
  facet normal 0 -1 0
    outer loop
      vertex 22.0253 21.5 5.8832
      vertex 28.5729 21.5 6.64683
      vertex 22.8753 21.5 6.50076
    endloop
  endfacet
  facet normal 0 -1 0
    outer loop
      vertex 1.5 21.5 1.5
      vertex 28.5729 21.5 6.64683
      vertex 22.0253 21.5 5.8832
    endloop
  endfacet
  facet normal 0 -1 0
    outer loop
      vertex 131.077 21.5 6.64683
      vertex 130.8 21.5 7.5
      vertex 126.927 21.5 7.73664
    endloop
  endfacet
  facet normal 0 -1 0
    outer loop
      vertex 1.5 21.5 1.5
      vertex 22.0253 21.5 5.8832
      vertex 20.9747 21.5 5.8832
    endloop
  endfacet
  facet normal 0 -1 0
    outer loop
      vertex 131.975 21.5 5.8832
      vertex 131.125 21.5 6.50076
      vertex 126.927 21.5 7.73664
    endloop
  endfacet
  facet normal 0 -1 0
    outer loop
      vertex 1.5 21.5 1.5
      vertex 20.0772 21.5 6.64683
      vertex 19.8 21.5 7.5
    endloop
  endfacet
  facet normal 0 -1 0
    outer loop
      vertex 1.5 21.5 1.5
      vertex 20.1247 21.5 6.50076
      vertex 20.0772 21.5 6.64683
    endloop
  endfacet
  facet normal 0 -1 0
    outer loop
      vertex 126.927 21.5 7.73664
      vertex 130.8 21.5 7.5
      vertex 127.5 21.5 9.5
    endloop
  endfacet
  facet normal 0 -1 0
    outer loop
      vertex 127.5 21.5 9.5
      vertex 131.125 21.5 8.49923
      vertex 127.5 21.5 23
    endloop
  endfacet
  facet normal 0 -1 0
    outer loop
      vertex 131.125 21.5 8.49923
      vertex 131.975 21.5 9.1168
      vertex 127.5 21.5 23
    endloop
  endfacet
  facet normal 0 -1 0
    outer loop
      vertex 131.975 21.5 9.1168
      vertex 133.025 21.5 9.1168
      vertex 127.5 21.5 23
    endloop
  endfacet
  facet normal 0 -1 0
    outer loop
      vertex 133.875 21.5 8.49923
      vertex 152.5 21.5 1.5
      vertex 133.025 21.5 9.1168
    endloop
  endfacet
  facet normal 0 -1 0
    outer loop
      vertex 134.2 21.5 7.5
      vertex 133.923 21.5 6.64683
      vertex 152.5 21.5 1.5
    endloop
  endfacet
  facet normal 0 -1 0
    outer loop
      vertex 133.923 21.5 6.64683
      vertex 133.875 21.5 6.50076
      vertex 152.5 21.5 1.5
    endloop
  endfacet
  facet normal 0 -1 0
    outer loop
      vertex 133.875 21.5 6.50076
      vertex 133.025 21.5 5.8832
      vertex 152.5 21.5 1.5
    endloop
  endfacet
  facet normal 0 -1 0
    outer loop
      vertex 131.975 21.5 5.8832
      vertex 152.5 21.5 1.5
      vertex 133.025 21.5 5.8832
    endloop
  endfacet
  facet normal 0 -1 0
    outer loop
      vertex 125.427 21.5 6.64683
      vertex 152.5 21.5 1.5
      vertex 131.975 21.5 5.8832
    endloop
  endfacet
  facet normal 0 -1 0
    outer loop
      vertex 131.125 21.5 6.50076
      vertex 131.077 21.5 6.64683
      vertex 126.927 21.5 7.73664
    endloop
  endfacet
  facet normal 0 -1 0
    outer loop
      vertex 131.975 21.5 5.8832
      vertex 126.927 21.5 7.73664
      vertex 125.427 21.5 6.64683
    endloop
  endfacet
  facet normal 0 -1 0
    outer loop
      vertex 22.8753 21.5 8.49923
      vertex 23.2 21.5 7.5
      vertex 28.5729 21.5 6.64683
    endloop
  endfacet
  facet normal 1 0 0
    outer loop
      vertex 1.5 21.5 1.5
      vertex 1.5 21.5 23
      vertex 1.5 16.3532 23
    endloop
  endfacet
  facet normal 1 0 0
    outer loop
      vertex 1.5 15.2634 7.07295
      vertex 1.5 21.5 1.5
      vertex 1.5 16.3532 8.57295
    endloop
  endfacet
  facet normal 1 0 0
    outer loop
      vertex 1.5 16.3532 8.57295
      vertex 1.5 21.5 1.5
      vertex 1.5 16.3532 23
    endloop
  endfacet
  facet normal 1 0 0
    outer loop
      vertex 1.5 13.5 6.5
      vertex 1.5 21.5 1.5
      vertex 1.5 15.2634 7.07295
    endloop
  endfacet
  facet normal 1 0 0
    outer loop
      vertex 1.5 9.5 6.5
      vertex 1.5 21.5 1.5
      vertex 1.5 13.5 6.5
    endloop
  endfacet
  facet normal 1 0 0
    outer loop
      vertex 1.5 7.73664 7.07295
      vertex 1.5 21.5 1.5
      vertex 1.5 9.5 6.5
    endloop
  endfacet
  facet normal 1 0 0
    outer loop
      vertex 1.5 1.5 1.5
      vertex 1.5 21.5 1.5
      vertex 1.5 7.73664 7.07295
    endloop
  endfacet
  facet normal 1 0 0
    outer loop
      vertex 1.5 1.5 1.5
      vertex 1.5 7.73664 7.07295
      vertex 1.5 6.64683 8.57295
    endloop
  endfacet
  facet normal 1 0 0
    outer loop
      vertex 1.5 1.5 23
      vertex 1.5 6.64683 8.57295
      vertex 1.5 6.64683 23
    endloop
  endfacet
  facet normal 1 0 0
    outer loop
      vertex 1.5 1.5 1.5
      vertex 1.5 6.64683 8.57295
      vertex 1.5 1.5 23
    endloop
  endfacet
  facet normal 0 1 0
    outer loop
      vertex 9.5 1.5 23
      vertex 9.5 1.5 12.5
      vertex 1.5 1.5 23
    endloop
  endfacet
  facet normal 0 1 0
    outer loop
      vertex 1.5 1.5 23
      vertex 9.5 1.5 12.5
      vertex 10.0729 1.5 10.7366
    endloop
  endfacet
  facet normal 0 1 0
    outer loop
      vertex 10.0729 1.5 10.7366
      vertex 1.5 1.5 1.5
      vertex 1.5 1.5 23
    endloop
  endfacet
  facet normal 0 1 0
    outer loop
      vertex 142.427 1.5 9.64683
      vertex 152.5 1.5 1.5
      vertex 11.5729 1.5 9.64683
    endloop
  endfacet
  facet normal 0 1 0
    outer loop
      vertex 144.5 1.5 12.5
      vertex 144.5 1.5 23
      vertex 152.5 1.5 23
    endloop
  endfacet
  facet normal 0 1 0
    outer loop
      vertex 144.5 1.5 12.5
      vertex 152.5 1.5 23
      vertex 143.927 1.5 10.7366
    endloop
  endfacet
  facet normal 0 1 0
    outer loop
      vertex 143.927 1.5 10.7366
      vertex 152.5 1.5 23
      vertex 152.5 1.5 1.5
    endloop
  endfacet
  facet normal 0 1 0
    outer loop
      vertex 143.927 1.5 10.7366
      vertex 152.5 1.5 1.5
      vertex 142.427 1.5 9.64683
    endloop
  endfacet
  facet normal 0 1 0
    outer loop
      vertex 11.5729 1.5 9.64683
      vertex 152.5 1.5 1.5
      vertex 1.5 1.5 1.5
    endloop
  endfacet
  facet normal 0 1 0
    outer loop
      vertex 11.5729 1.5 9.64683
      vertex 1.5 1.5 1.5
      vertex 10.0729 1.5 10.7366
    endloop
  endfacet
  facet normal 1 0 0
    outer loop
      vertex 9.5 0 23
      vertex 9.5 0 12.5
      vertex 9.5 1.5 12.5
    endloop
  endfacet
  facet normal 1 0 0
    outer loop
      vertex 9.5 1.5 23
      vertex 9.5 0 23
      vertex 9.5 1.5 12.5
    endloop
  endfacet
  facet normal 0 -1 0
    outer loop
      vertex 6.5 0 23
      vertex 6.5 0 9.5
      vertex 7.07295 0 7.73664
    endloop
  endfacet
  facet normal 0 -1 0
    outer loop
      vertex 9.5 0 12.5
      vertex 6.5 0 23
      vertex 8.57295 0 6.64683
    endloop
  endfacet
  facet normal 0 -1 0
    outer loop
      vertex 8.57295 0 6.64683
      vertex 6.5 0 23
      vertex 7.07295 0 7.73664
    endloop
  endfacet
  facet normal 0 -1 0
    outer loop
      vertex 142.427 0 9.64683
      vertex 145.427 0 6.64683
      vertex 146.927 0 7.73664
    endloop
  endfacet
  facet normal 0 -1 0
    outer loop
      vertex 147.5 0 23
      vertex 144.5 0 23
      vertex 147.5 0 9.5
    endloop
  endfacet
  facet normal 0 -1 0
    outer loop
      vertex 144.5 0 23
      vertex 144.5 0 12.5
      vertex 147.5 0 9.5
    endloop
  endfacet
  facet normal 0 -1 0
    outer loop
      vertex 144.5 0 12.5
      vertex 143.927 0 10.7366
      vertex 147.5 0 9.5
    endloop
  endfacet
  facet normal 0 -1 0
    outer loop
      vertex 147.5 0 9.5
      vertex 142.427 0 9.64683
      vertex 146.927 0 7.73664
    endloop
  endfacet
  facet normal 0 -1 0
    outer loop
      vertex 145.427 0 6.64683
      vertex 11.5729 0 9.64683
      vertex 8.57295 0 6.64683
    endloop
  endfacet
  facet normal 0 -1 0
    outer loop
      vertex 11.5729 0 9.64683
      vertex 10.0729 0 10.7366
      vertex 8.57295 0 6.64683
    endloop
  endfacet
  facet normal 0 -1 0
    outer loop
      vertex 10.0729 0 10.7366
      vertex 9.5 0 12.5
      vertex 8.57295 0 6.64683
    endloop
  endfacet
  facet normal 0 -1 0
    outer loop
      vertex 143.927 0 10.7366
      vertex 142.427 0 9.64683
      vertex 147.5 0 9.5
    endloop
  endfacet
  facet normal 0 -1 0
    outer loop
      vertex 142.427 0 9.64683
      vertex 11.5729 0 9.64683
      vertex 145.427 0 6.64683
    endloop
  endfacet
  facet normal 0 -1 0
    outer loop
      vertex 9.5 0 12.5
      vertex 9.5 0 23
      vertex 6.5 0 23
    endloop
  endfacet
  facet normal 0 -1 0
    outer loop
      vertex 8.57295 0 6.64683
      vertex 1.5 0 1.5
      vertex 152.5 0 1.5
    endloop
  endfacet
  facet normal 0 -1 0
    outer loop
      vertex 152.5 0 23
      vertex 147.5 0 23
      vertex 152.5 0 1.5
    endloop
  endfacet
  facet normal 0 -1 0
    outer loop
      vertex 147.5 0 23
      vertex 147.5 0 9.5
      vertex 152.5 0 1.5
    endloop
  endfacet
  facet normal 0 -1 0
    outer loop
      vertex 147.5 0 9.5
      vertex 146.927 0 7.73664
      vertex 152.5 0 1.5
    endloop
  endfacet
  facet normal 0 -1 0
    outer loop
      vertex 146.927 0 7.73664
      vertex 145.427 0 6.64683
      vertex 152.5 0 1.5
    endloop
  endfacet
  facet normal 0 -1 0
    outer loop
      vertex 7.07295 0 7.73664
      vertex 1.5 0 1.5
      vertex 8.57295 0 6.64683
    endloop
  endfacet
  facet normal 0 -1 0
    outer loop
      vertex 1.5 0 23
      vertex 1.5 0 1.5
      vertex 7.07295 0 7.73664
    endloop
  endfacet
  facet normal 0 -1 0
    outer loop
      vertex 1.5 0 23
      vertex 7.07295 0 7.73664
      vertex 6.5 0 9.5
    endloop
  endfacet
  facet normal 0 -1 0
    outer loop
      vertex 145.427 0 6.64683
      vertex 8.57295 0 6.64683
      vertex 152.5 0 1.5
    endloop
  endfacet
  facet normal 0 -1 0
    outer loop
      vertex 6.5 0 9.5
      vertex 6.5 0 23
      vertex 1.5 0 23
    endloop
  endfacet
  facet normal -1 0 0
    outer loop
      vertex 152.5 -14 1.5
      vertex 152.5 -14 9.5
      vertex 152.5 0 1.5
    endloop
  endfacet
  facet normal -1 0 0
    outer loop
      vertex 152.5 0 1.5
      vertex 152.5 -14 9.5
      vertex 152.5 -11 9.5
    endloop
  endfacet
  facet normal -1 0 0
    outer loop
      vertex 152.5 0 1.5
      vertex 152.5 -11 9.5
      vertex 152.5 -9.23664 10.0729
    endloop
  endfacet
  facet normal -1 0 0
    outer loop
      vertex 152.5 -9.23664 10.0729
      vertex 152.5 -8.14683 11.5729
      vertex 152.5 0 1.5
    endloop
  endfacet
  facet normal -1 0 0
    outer loop
      vertex 152.5 -8.14683 11.5729
      vertex 152.5 -8.14683 23
      vertex 152.5 0 1.5
    endloop
  endfacet
  facet normal -1 0 0
    outer loop
      vertex 152.5 0 1.5
      vertex 152.5 -8.14683 23
      vertex 152.5 0 23
    endloop
  endfacet
  facet normal 2.22045e-016 0 1
    outer loop
      vertex 152.5 -11 9.5
      vertex 152.5 -14 9.5
      vertex 154 -14 9.5
    endloop
  endfacet
  facet normal 2.22045e-016 0 1
    outer loop
      vertex 154 -11 9.5
      vertex 152.5 -11 9.5
      vertex 154 -14 9.5
    endloop
  endfacet
  facet normal 2.11177e-016 -0.309017 0.951057
    outer loop
      vertex 152.5 -9.23664 10.0729
      vertex 152.5 -11 9.5
      vertex 154 -11 9.5
    endloop
  endfacet
  facet normal 2.11177e-016 -0.309017 0.951057
    outer loop
      vertex 154 -9.23664 10.0729
      vertex 152.5 -9.23664 10.0729
      vertex 154 -11 9.5
    endloop
  endfacet
  facet normal 1.30515e-016 -0.809017 0.587785
    outer loop
      vertex 152.5 -8.14683 11.5729
      vertex 152.5 -9.23664 10.0729
      vertex 154 -9.23664 10.0729
    endloop
  endfacet
  facet normal 1.30515e-016 -0.809017 0.587785
    outer loop
      vertex 154 -8.14683 11.5729
      vertex 152.5 -8.14683 11.5729
      vertex 154 -9.23664 10.0729
    endloop
  endfacet
  facet normal 0 -1 0
    outer loop
      vertex 152.5 -8.14683 23
      vertex 152.5 -8.14683 11.5729
      vertex 154 -8.14683 11.5729
    endloop
  endfacet
  facet normal 0 -1 0
    outer loop
      vertex 154 -8.14683 23
      vertex 152.5 -8.14683 23
      vertex 154 -8.14683 11.5729
    endloop
  endfacet
  facet normal 0 0 1
    outer loop
      vertex 144.5 1.5 23
      vertex 144.5 0 23
      vertex 147.5 0 23
    endloop
  endfacet
  facet normal 0 0 1
    outer loop
      vertex 152.5 1.5 23
      vertex 144.5 1.5 23
      vertex 152.5 0 23
    endloop
  endfacet
  facet normal 0 0 1
    outer loop
      vertex 152.5 0 23
      vertex 144.5 1.5 23
      vertex 147.5 0 23
    endloop
  endfacet
  facet normal 0 0 1
    outer loop
      vertex 152.5 -8.14683 23
      vertex 154 -8.14683 23
      vertex 152.5 0 23
    endloop
  endfacet
  facet normal 0 0 1
    outer loop
      vertex 154 -8.14683 23
      vertex 154 6.64683 23
      vertex 152.5 0 23
    endloop
  endfacet
  facet normal 0 0 1
    outer loop
      vertex 154 6.64683 23
      vertex 152.5 1.5 23
      vertex 152.5 0 23
    endloop
  endfacet
  facet normal 0 0 1
    outer loop
      vertex 152.5 6.64683 23
      vertex 152.5 1.5 23
      vertex 154 6.64683 23
    endloop
  endfacet
  facet normal 0 1 0
    outer loop
      vertex 154 6.64683 23
      vertex 154 6.64683 8.57295
      vertex 152.5 6.64683 23
    endloop
  endfacet
  facet normal 0 1 0
    outer loop
      vertex 152.5 6.64683 23
      vertex 154 6.64683 8.57295
      vertex 152.5 6.64683 8.57295
    endloop
  endfacet
  facet normal 1.30515e-016 0.809017 0.587785
    outer loop
      vertex 154 7.73664 7.07295
      vertex 152.5 7.73664 7.07295
      vertex 154 6.64683 8.57295
    endloop
  endfacet
  facet normal 1.30515e-016 0.809017 0.587785
    outer loop
      vertex 154 6.64683 8.57295
      vertex 152.5 7.73664 7.07295
      vertex 152.5 6.64683 8.57295
    endloop
  endfacet
  facet normal 2.11177e-016 0.309017 0.951057
    outer loop
      vertex 154 7.73664 7.07295
      vertex 154 9.5 6.5
      vertex 152.5 9.5 6.5
    endloop
  endfacet
  facet normal 2.11177e-016 0.309017 0.951057
    outer loop
      vertex 152.5 7.73664 7.07295
      vertex 154 7.73664 7.07295
      vertex 152.5 9.5 6.5
    endloop
  endfacet
  facet normal 2.22045e-016 0 1
    outer loop
      vertex 154 9.5 6.5
      vertex 154 13.5 6.5
      vertex 152.5 13.5 6.5
    endloop
  endfacet
  facet normal 2.22045e-016 0 1
    outer loop
      vertex 152.5 9.5 6.5
      vertex 154 9.5 6.5
      vertex 152.5 13.5 6.5
    endloop
  endfacet
  facet normal 2.11177e-016 -0.309017 0.951057
    outer loop
      vertex 154 13.5 6.5
      vertex 154 15.2634 7.07295
      vertex 152.5 15.2634 7.07295
    endloop
  endfacet
  facet normal 2.11177e-016 -0.309017 0.951057
    outer loop
      vertex 152.5 13.5 6.5
      vertex 154 13.5 6.5
      vertex 152.5 15.2634 7.07295
    endloop
  endfacet
  facet normal 1.30515e-016 -0.809017 0.587785
    outer loop
      vertex 154 15.2634 7.07295
      vertex 154 16.3532 8.57295
      vertex 152.5 16.3532 8.57295
    endloop
  endfacet
  facet normal 1.30515e-016 -0.809017 0.587785
    outer loop
      vertex 152.5 15.2634 7.07295
      vertex 154 15.2634 7.07295
      vertex 152.5 16.3532 8.57295
    endloop
  endfacet
  facet normal 0 -1 0
    outer loop
      vertex 154 16.3532 8.57295
      vertex 154 16.3532 23
      vertex 152.5 16.3532 23
    endloop
  endfacet
  facet normal 0 -1 0
    outer loop
      vertex 152.5 16.3532 8.57295
      vertex 154 16.3532 8.57295
      vertex 152.5 16.3532 23
    endloop
  endfacet
  facet normal 0 0 1
    outer loop
      vertex 127.5 23 23
      vertex 127.5 21.5 23
      vertex 152.5 21.5 23
    endloop
  endfacet
  facet normal 0 0 1
    outer loop
      vertex 152.5 23 23
      vertex 147.5 23 23
      vertex 152.5 21.5 23
    endloop
  endfacet
  facet normal 0 0 1
    outer loop
      vertex 152.5 16.3532 23
      vertex 154 16.3532 23
      vertex 152.5 21.5 23
    endloop
  endfacet
  facet normal 0 0 1
    outer loop
      vertex 154 16.3532 23
      vertex 154 28.1468 23
      vertex 152.5 21.5 23
    endloop
  endfacet
  facet normal 0 0 1
    outer loop
      vertex 154 28.1468 23
      vertex 152.5 23 23
      vertex 152.5 21.5 23
    endloop
  endfacet
  facet normal 0 0 1
    outer loop
      vertex 147.5 23 23
      vertex 127.5 23 23
      vertex 152.5 21.5 23
    endloop
  endfacet
  facet normal 0 0 1
    outer loop
      vertex 152.5 28.1468 23
      vertex 152.5 23 23
      vertex 154 28.1468 23
    endloop
  endfacet
  facet normal 0 1 0
    outer loop
      vertex 154 28.1468 23
      vertex 154 28.1468 8.57295
      vertex 152.5 28.1468 23
    endloop
  endfacet
  facet normal 0 1 0
    outer loop
      vertex 152.5 28.1468 23
      vertex 154 28.1468 8.57295
      vertex 152.5 28.1468 8.57295
    endloop
  endfacet
  facet normal 1.30515e-016 0.809017 0.587785
    outer loop
      vertex 154 29.2366 7.07295
      vertex 152.5 29.2366 7.07295
      vertex 154 28.1468 8.57295
    endloop
  endfacet
  facet normal 1.30515e-016 0.809017 0.587785
    outer loop
      vertex 154 28.1468 8.57295
      vertex 152.5 29.2366 7.07295
      vertex 152.5 28.1468 8.57295
    endloop
  endfacet
  facet normal 2.11177e-016 0.309017 0.951057
    outer loop
      vertex 154 29.2366 7.07295
      vertex 154 31 6.5
      vertex 152.5 31 6.5
    endloop
  endfacet
  facet normal 2.11177e-016 0.309017 0.951057
    outer loop
      vertex 152.5 29.2366 7.07295
      vertex 154 29.2366 7.07295
      vertex 152.5 31 6.5
    endloop
  endfacet
  facet normal 2.22045e-016 0 1
    outer loop
      vertex 154 31 6.5
      vertex 154 34.5 6.5
      vertex 152.5 34.5 6.5
    endloop
  endfacet
  facet normal 2.22045e-016 0 1
    outer loop
      vertex 152.5 31 6.5
      vertex 154 31 6.5
      vertex 152.5 34.5 6.5
    endloop
  endfacet
  facet normal -1 0 0
    outer loop
      vertex 152.5 28.1468 23
      vertex 152.5 28.1468 8.57295
      vertex 152.5 23 23
    endloop
  endfacet
  facet normal -1 0 0
    outer loop
      vertex 152.5 23 23
      vertex 152.5 28.1468 8.57295
      vertex 152.5 23 1.5
    endloop
  endfacet
  facet normal -1 0 0
    outer loop
      vertex 152.5 23 1.5
      vertex 152.5 29.2366 7.07295
      vertex 152.5 34.5 1.5
    endloop
  endfacet
  facet normal -1 0 0
    outer loop
      vertex 152.5 34.5 1.5
      vertex 152.5 31 6.5
      vertex 152.5 34.5 6.5
    endloop
  endfacet
  facet normal -1 0 0
    outer loop
      vertex 152.5 29.2366 7.07295
      vertex 152.5 31 6.5
      vertex 152.5 34.5 1.5
    endloop
  endfacet
  facet normal -1 0 0
    outer loop
      vertex 152.5 28.1468 8.57295
      vertex 152.5 29.2366 7.07295
      vertex 152.5 23 1.5
    endloop
  endfacet
  facet normal 0 0 1
    outer loop
      vertex 145.427 16.3532 1.5
      vertex 152.5 21.5 1.5
      vertex 1.5 21.5 1.5
    endloop
  endfacet
  facet normal 0 0 1
    outer loop
      vertex 1.5 1.5 1.5
      vertex 6.5 13.5 1.5
      vertex 1.5 21.5 1.5
    endloop
  endfacet
  facet normal 0 0 1
    outer loop
      vertex 6.5 13.5 1.5
      vertex 7.07295 15.2634 1.5
      vertex 1.5 21.5 1.5
    endloop
  endfacet
  facet normal 0 0 1
    outer loop
      vertex 7.07295 15.2634 1.5
      vertex 8.57295 16.3532 1.5
      vertex 1.5 21.5 1.5
    endloop
  endfacet
  facet normal 0 0 1
    outer loop
      vertex 146.927 15.2634 1.5
      vertex 152.5 21.5 1.5
      vertex 145.427 16.3532 1.5
    endloop
  endfacet
  facet normal 0 0 1
    outer loop
      vertex 152.5 1.5 1.5
      vertex 152.5 21.5 1.5
      vertex 146.927 15.2634 1.5
    endloop
  endfacet
  facet normal 0 0 1
    outer loop
      vertex 152.5 1.5 1.5
      vertex 146.927 15.2634 1.5
      vertex 147.5 13.5 1.5
    endloop
  endfacet
  facet normal 0 0 1
    outer loop
      vertex 147.5 13.5 1.5
      vertex 147.5 9.5 1.5
      vertex 152.5 1.5 1.5
    endloop
  endfacet
  facet normal 0 0 1
    outer loop
      vertex 152.5 1.5 1.5
      vertex 147.5 9.5 1.5
      vertex 146.927 7.73664 1.5
    endloop
  endfacet
  facet normal 0 0 1
    outer loop
      vertex 145.427 6.64683 1.5
      vertex 8.57295 6.64683 1.5
      vertex 152.5 1.5 1.5
    endloop
  endfacet
  facet normal 0 0 1
    outer loop
      vertex 152.5 1.5 1.5
      vertex 146.927 7.73664 1.5
      vertex 145.427 6.64683 1.5
    endloop
  endfacet
  facet normal 0 0 1
    outer loop
      vertex 1.5 1.5 1.5
      vertex 152.5 1.5 1.5
      vertex 8.57295 6.64683 1.5
    endloop
  endfacet
  facet normal 0 0 1
    outer loop
      vertex 1.5 1.5 1.5
      vertex 8.57295 6.64683 1.5
      vertex 7.07295 7.73664 1.5
    endloop
  endfacet
  facet normal 0 0 1
    outer loop
      vertex 1.5 1.5 1.5
      vertex 6.5 9.5 1.5
      vertex 6.5 13.5 1.5
    endloop
  endfacet
  facet normal 0 0 1
    outer loop
      vertex 1.5 1.5 1.5
      vertex 7.07295 7.73664 1.5
      vertex 6.5 9.5 1.5
    endloop
  endfacet
  facet normal 0 0 1
    outer loop
      vertex 8.57295 16.3532 1.5
      vertex 145.427 16.3532 1.5
      vertex 1.5 21.5 1.5
    endloop
  endfacet
  facet normal 0 2.22045e-016 1
    outer loop
      vertex 133.923 21.5 6.64683
      vertex 133.923 23 6.64683
      vertex 131.077 23 6.64683
    endloop
  endfacet
  facet normal 0 2.22045e-016 1
    outer loop
      vertex 131.077 21.5 6.64683
      vertex 133.923 21.5 6.64683
      vertex 131.077 23 6.64683
    endloop
  endfacet
  facet normal -0.951057 6.86155e-017 0.309017
    outer loop
      vertex 134.2 23 7.5
      vertex 133.923 23 6.64683
      vertex 134.2 21.5 7.5
    endloop
  endfacet
  facet normal -0.951057 6.86155e-017 0.309017
    outer loop
      vertex 134.2 21.5 7.5
      vertex 133.923 23 6.64683
      vertex 133.923 21.5 6.64683
    endloop
  endfacet
  facet normal 0.951057 6.86155e-017 0.309017
    outer loop
      vertex 131.077 21.5 6.64683
      vertex 131.077 23 6.64683
      vertex 130.8 23 7.5
    endloop
  endfacet
  facet normal 0.951057 6.86155e-017 0.309017
    outer loop
      vertex 130.8 21.5 7.5
      vertex 131.077 21.5 6.64683
      vertex 130.8 23 7.5
    endloop
  endfacet
  facet normal 0 2.22045e-016 1
    outer loop
      vertex 22.9228 21.5 6.64683
      vertex 22.9228 23 6.64683
      vertex 20.0772 23 6.64683
    endloop
  endfacet
  facet normal 0 2.22045e-016 1
    outer loop
      vertex 20.0772 21.5 6.64683
      vertex 22.9228 21.5 6.64683
      vertex 20.0772 23 6.64683
    endloop
  endfacet
  facet normal -0.951057 6.86155e-017 0.309017
    outer loop
      vertex 23.2 23 7.5
      vertex 22.9228 23 6.64683
      vertex 23.2 21.5 7.5
    endloop
  endfacet
  facet normal -0.951057 6.86155e-017 0.309017
    outer loop
      vertex 23.2 21.5 7.5
      vertex 22.9228 23 6.64683
      vertex 22.9228 21.5 6.64683
    endloop
  endfacet
  facet normal 0.951057 6.86155e-017 0.309017
    outer loop
      vertex 20.0772 21.5 6.64683
      vertex 20.0772 23 6.64683
      vertex 19.8 23 7.5
    endloop
  endfacet
  facet normal 0.951057 6.86155e-017 0.309017
    outer loop
      vertex 19.8 21.5 7.5
      vertex 20.0772 21.5 6.64683
      vertex 19.8 23 7.5
    endloop
  endfacet
  facet normal 0.951057 -6.86155e-017 -0.309017
    outer loop
      vertex 19.8 23 7.5
      vertex 20.1247 23 8.49923
      vertex 20.1247 21.5 8.49923
    endloop
  endfacet
  facet normal 0.951057 -6.86155e-017 -0.309017
    outer loop
      vertex 19.8 21.5 7.5
      vertex 19.8 23 7.5
      vertex 20.1247 21.5 8.49923
    endloop
  endfacet
  facet normal 0.587785 -1.79638e-016 -0.809017
    outer loop
      vertex 20.9747 23 9.1168
      vertex 20.9747 21.5 9.1168
      vertex 20.1247 23 8.49923
    endloop
  endfacet
  facet normal 0.587785 -1.79638e-016 -0.809017
    outer loop
      vertex 20.1247 23 8.49923
      vertex 20.9747 21.5 9.1168
      vertex 20.1247 21.5 8.49923
    endloop
  endfacet
  facet normal 0 -2.22045e-016 -1
    outer loop
      vertex 22.0253 23 9.1168
      vertex 22.0253 21.5 9.1168
      vertex 20.9747 23 9.1168
    endloop
  endfacet
  facet normal 0 -2.22045e-016 -1
    outer loop
      vertex 20.9747 23 9.1168
      vertex 22.0253 21.5 9.1168
      vertex 20.9747 21.5 9.1168
    endloop
  endfacet
  facet normal -0.587785 -1.79638e-016 -0.809017
    outer loop
      vertex 22.8753 23 8.49923
      vertex 22.8753 21.5 8.49923
      vertex 22.0253 23 9.1168
    endloop
  endfacet
  facet normal -0.587785 -1.79638e-016 -0.809017
    outer loop
      vertex 22.0253 23 9.1168
      vertex 22.8753 21.5 8.49923
      vertex 22.0253 21.5 9.1168
    endloop
  endfacet
  facet normal -0.951057 -6.86155e-017 -0.309017
    outer loop
      vertex 23.2 23 7.5
      vertex 23.2 21.5 7.5
      vertex 22.8753 23 8.49923
    endloop
  endfacet
  facet normal -0.951057 -6.86155e-017 -0.309017
    outer loop
      vertex 22.8753 23 8.49923
      vertex 23.2 21.5 7.5
      vertex 22.8753 21.5 8.49923
    endloop
  endfacet
  facet normal 0.951057 -6.86155e-017 -0.309017
    outer loop
      vertex 130.8 23 7.5
      vertex 131.125 23 8.49923
      vertex 131.125 21.5 8.49923
    endloop
  endfacet
  facet normal 0.951057 -6.86155e-017 -0.309017
    outer loop
      vertex 130.8 21.5 7.5
      vertex 130.8 23 7.5
      vertex 131.125 21.5 8.49923
    endloop
  endfacet
  facet normal 0.587785 -1.79638e-016 -0.809017
    outer loop
      vertex 131.975 23 9.1168
      vertex 131.975 21.5 9.1168
      vertex 131.125 23 8.49923
    endloop
  endfacet
  facet normal 0.587785 -1.79638e-016 -0.809017
    outer loop
      vertex 131.125 23 8.49923
      vertex 131.975 21.5 9.1168
      vertex 131.125 21.5 8.49923
    endloop
  endfacet
  facet normal 0 -2.22045e-016 -1
    outer loop
      vertex 133.025 23 9.1168
      vertex 133.025 21.5 9.1168
      vertex 131.975 23 9.1168
    endloop
  endfacet
  facet normal 0 -2.22045e-016 -1
    outer loop
      vertex 131.975 23 9.1168
      vertex 133.025 21.5 9.1168
      vertex 131.975 21.5 9.1168
    endloop
  endfacet
  facet normal -0.587785 -1.79638e-016 -0.809017
    outer loop
      vertex 133.875 23 8.49923
      vertex 133.875 21.5 8.49923
      vertex 133.025 23 9.1168
    endloop
  endfacet
  facet normal -0.587785 -1.79638e-016 -0.809017
    outer loop
      vertex 133.025 23 9.1168
      vertex 133.875 21.5 8.49923
      vertex 133.025 21.5 9.1168
    endloop
  endfacet
  facet normal -0.951057 -6.86155e-017 -0.309017
    outer loop
      vertex 134.2 23 7.5
      vertex 134.2 21.5 7.5
      vertex 133.875 23 8.49923
    endloop
  endfacet
  facet normal -0.951057 -6.86155e-017 -0.309017
    outer loop
      vertex 133.875 23 8.49923
      vertex 134.2 21.5 7.5
      vertex 133.875 21.5 8.49923
    endloop
  endfacet
  facet normal -1 0 0
    outer loop
      vertex 127.5 23 23
      vertex 127.5 23 9.5
      vertex 127.5 21.5 23
    endloop
  endfacet
  facet normal -1 0 0
    outer loop
      vertex 127.5 21.5 23
      vertex 127.5 23 9.5
      vertex 127.5 21.5 9.5
    endloop
  endfacet
  facet normal -0.951057 6.86155e-017 0.309017
    outer loop
      vertex 127.5 23 9.5
      vertex 126.927 23 7.73664
      vertex 127.5 21.5 9.5
    endloop
  endfacet
  facet normal -0.951057 6.86155e-017 0.309017
    outer loop
      vertex 127.5 21.5 9.5
      vertex 126.927 23 7.73664
      vertex 126.927 21.5 7.73664
    endloop
  endfacet
  facet normal -0.587785 1.79638e-016 0.809017
    outer loop
      vertex 126.927 21.5 7.73664
      vertex 126.927 23 7.73664
      vertex 125.427 23 6.64683
    endloop
  endfacet
  facet normal -0.587785 1.79638e-016 0.809017
    outer loop
      vertex 125.427 21.5 6.64683
      vertex 126.927 21.5 7.73664
      vertex 125.427 23 6.64683
    endloop
  endfacet
  facet normal 0 2.22045e-016 1
    outer loop
      vertex 125.427 21.5 6.64683
      vertex 125.427 23 6.64683
      vertex 28.5729 23 6.64683
    endloop
  endfacet
  facet normal 0 2.22045e-016 1
    outer loop
      vertex 28.5729 21.5 6.64683
      vertex 125.427 21.5 6.64683
      vertex 28.5729 23 6.64683
    endloop
  endfacet
  facet normal 0.587785 1.79638e-016 0.809017
    outer loop
      vertex 28.5729 21.5 6.64683
      vertex 28.5729 23 6.64683
      vertex 27.0729 23 7.73664
    endloop
  endfacet
  facet normal 0.587785 1.79638e-016 0.809017
    outer loop
      vertex 27.0729 21.5 7.73664
      vertex 28.5729 21.5 6.64683
      vertex 27.0729 23 7.73664
    endloop
  endfacet
  facet normal 0.951057 6.86155e-017 0.309017
    outer loop
      vertex 27.0729 21.5 7.73664
      vertex 27.0729 23 7.73664
      vertex 26.5 23 9.5
    endloop
  endfacet
  facet normal 0.951057 6.86155e-017 0.309017
    outer loop
      vertex 26.5 21.5 9.5
      vertex 27.0729 21.5 7.73664
      vertex 26.5 23 9.5
    endloop
  endfacet
  facet normal -1 0 0
    outer loop
      vertex 152.5 6.64683 23
      vertex 152.5 6.64683 8.57295
      vertex 152.5 1.5 23
    endloop
  endfacet
  facet normal -1 0 0
    outer loop
      vertex 152.5 1.5 23
      vertex 152.5 6.64683 8.57295
      vertex 152.5 1.5 1.5
    endloop
  endfacet
  facet normal -1 0 0
    outer loop
      vertex 152.5 1.5 1.5
      vertex 152.5 7.73664 7.07295
      vertex 152.5 21.5 1.5
    endloop
  endfacet
  facet normal -1 0 0
    outer loop
      vertex 152.5 7.73664 7.07295
      vertex 152.5 9.5 6.5
      vertex 152.5 21.5 1.5
    endloop
  endfacet
  facet normal -1 0 0
    outer loop
      vertex 152.5 9.5 6.5
      vertex 152.5 13.5 6.5
      vertex 152.5 21.5 1.5
    endloop
  endfacet
  facet normal -1 0 0
    outer loop
      vertex 152.5 13.5 6.5
      vertex 152.5 15.2634 7.07295
      vertex 152.5 21.5 1.5
    endloop
  endfacet
  facet normal -1 0 0
    outer loop
      vertex 152.5 21.5 23
      vertex 152.5 16.3532 8.57295
      vertex 152.5 16.3532 23
    endloop
  endfacet
  facet normal -1 0 0
    outer loop
      vertex 152.5 21.5 1.5
      vertex 152.5 16.3532 8.57295
      vertex 152.5 21.5 23
    endloop
  endfacet
  facet normal -1 0 0
    outer loop
      vertex 152.5 15.2634 7.07295
      vertex 152.5 16.3532 8.57295
      vertex 152.5 21.5 1.5
    endloop
  endfacet
  facet normal -1 0 0
    outer loop
      vertex 152.5 6.64683 8.57295
      vertex 152.5 7.73664 7.07295
      vertex 152.5 1.5 1.5
    endloop
  endfacet
  facet normal 0 -1 0
    outer loop
      vertex 20.1247 21.5 6.50076
      vertex 20.9747 21.5 5.8832
      vertex 22.0253 21.5 5.8832
    endloop
  endfacet
  facet normal 0 -1 0
    outer loop
      vertex 22.9228 21.5 6.64683
      vertex 20.1247 21.5 6.50076
      vertex 22.8753 21.5 6.50076
    endloop
  endfacet
  facet normal 0 -1 0
    outer loop
      vertex 22.8753 21.5 6.50076
      vertex 20.1247 21.5 6.50076
      vertex 22.0253 21.5 5.8832
    endloop
  endfacet
  facet normal 0 -1 0
    outer loop
      vertex 20.0772 21.5 6.64683
      vertex 20.1247 21.5 6.50076
      vertex 22.9228 21.5 6.64683
    endloop
  endfacet
  facet normal 0 -1 0
    outer loop
      vertex 131.125 21.5 6.50076
      vertex 131.975 21.5 5.8832
      vertex 133.025 21.5 5.8832
    endloop
  endfacet
  facet normal 0 -1 0
    outer loop
      vertex 133.923 21.5 6.64683
      vertex 131.125 21.5 6.50076
      vertex 133.875 21.5 6.50076
    endloop
  endfacet
  facet normal 0 -1 0
    outer loop
      vertex 133.875 21.5 6.50076
      vertex 131.125 21.5 6.50076
      vertex 133.025 21.5 5.8832
    endloop
  endfacet
  facet normal 0 -1 0
    outer loop
      vertex 131.077 21.5 6.64683
      vertex 131.125 21.5 6.50076
      vertex 133.923 21.5 6.64683
    endloop
  endfacet
  facet normal -1 0 0
    outer loop
      vertex 144.5 0 12.5
      vertex 144.5 0 23
      vertex 144.5 1.5 12.5
    endloop
  endfacet
  facet normal -1 0 0
    outer loop
      vertex 144.5 1.5 12.5
      vertex 144.5 0 23
      vertex 144.5 1.5 23
    endloop
  endfacet
  facet normal -0.951057 -6.86155e-017 0.309017
    outer loop
      vertex 143.927 0 10.7366
      vertex 144.5 0 12.5
      vertex 143.927 1.5 10.7366
    endloop
  endfacet
  facet normal -0.951057 -6.86155e-017 0.309017
    outer loop
      vertex 143.927 1.5 10.7366
      vertex 144.5 0 12.5
      vertex 144.5 1.5 12.5
    endloop
  endfacet
  facet normal -0.587785 -1.79638e-016 0.809017
    outer loop
      vertex 142.427 1.5 9.64683
      vertex 142.427 0 9.64683
      vertex 143.927 0 10.7366
    endloop
  endfacet
  facet normal -0.587785 -1.79638e-016 0.809017
    outer loop
      vertex 143.927 1.5 10.7366
      vertex 142.427 1.5 9.64683
      vertex 143.927 0 10.7366
    endloop
  endfacet
  facet normal 0 -2.22045e-016 1
    outer loop
      vertex 11.5729 1.5 9.64683
      vertex 11.5729 0 9.64683
      vertex 142.427 0 9.64683
    endloop
  endfacet
  facet normal 0 -2.22045e-016 1
    outer loop
      vertex 142.427 1.5 9.64683
      vertex 11.5729 1.5 9.64683
      vertex 142.427 0 9.64683
    endloop
  endfacet
  facet normal 0.587785 -1.79638e-016 0.809017
    outer loop
      vertex 10.0729 1.5 10.7366
      vertex 10.0729 0 10.7366
      vertex 11.5729 0 9.64683
    endloop
  endfacet
  facet normal 0.587785 -1.79638e-016 0.809017
    outer loop
      vertex 11.5729 1.5 9.64683
      vertex 10.0729 1.5 10.7366
      vertex 11.5729 0 9.64683
    endloop
  endfacet
  facet normal 0.951057 -6.86155e-017 0.309017
    outer loop
      vertex 9.5 1.5 12.5
      vertex 9.5 0 12.5
      vertex 10.0729 0 10.7366
    endloop
  endfacet
  facet normal 0.951057 -6.86155e-017 0.309017
    outer loop
      vertex 10.0729 1.5 10.7366
      vertex 9.5 1.5 12.5
      vertex 10.0729 0 10.7366
    endloop
  endfacet
endsolid OpenSCAD_Model
