solid OpenSCAD_Model
  facet normal 0 0 -1
    outer loop
      vertex -10 0 0
      vertex -9.92115 1.25333 0
      vertex -9.92115 -1.25333 0
    endloop
  endfacet
  facet normal 0 0 -1
    outer loop
      vertex -9.92115 -1.25333 0
      vertex -9.92115 1.25333 0
      vertex -9.68583 2.4869 0
    endloop
  endfacet
  facet normal 0 0 -1
    outer loop
      vertex -9.92115 -1.25333 0
      vertex -9.68583 2.4869 0
      vertex -9.29777 3.68125 0
    endloop
  endfacet
  facet normal 0 0 -1
    outer loop
      vertex -9.92115 -1.25333 0
      vertex -9.29777 3.68125 0
      vertex -8.76307 4.81754 0
    endloop
  endfacet
  facet normal 0 0 -1
    outer loop
      vertex -9.92115 -1.25333 0
      vertex -8.76307 4.81754 0
      vertex -8.09017 5.87785 0
    endloop
  endfacet
  facet normal 0 0 -1
    outer loop
      vertex -9.92115 -1.25333 0
      vertex -8.09017 5.87785 0
      vertex -7.28969 6.84547 0
    endloop
  endfacet
  facet normal 0 0 -1
    outer loop
      vertex -9.92115 -1.25333 0
      vertex -7.28969 6.84547 0
      vertex -6.37424 7.70513 0
    endloop
  endfacet
  facet normal 0 0 -1
    outer loop
      vertex -9.92115 -1.25333 0
      vertex -6.37424 7.70513 0
      vertex -5.35827 8.44328 0
    endloop
  endfacet
  facet normal 0 0 -1
    outer loop
      vertex -9.92115 -1.25333 0
      vertex -5.35827 8.44328 0
      vertex -4.25779 9.04827 0
    endloop
  endfacet
  facet normal 0 0 -1
    outer loop
      vertex -9.92115 -1.25333 0
      vertex -4.25779 9.04827 0
      vertex -3.09017 9.51056 0
    endloop
  endfacet
  facet normal 0 0 -1
    outer loop
      vertex -9.92115 -1.25333 0
      vertex -3.09017 9.51056 0
      vertex -1.87381 9.82287 0
    endloop
  endfacet
  facet normal 0 0 -1
    outer loop
      vertex -9.92115 -1.25333 0
      vertex -1.87381 9.82287 0
      vertex -0.627905 9.98027 0
    endloop
  endfacet
  facet normal 0 0 -1
    outer loop
      vertex -9.92115 -1.25333 0
      vertex -0.627905 9.98027 0
      vertex 0.627905 9.98027 0
    endloop
  endfacet
  facet normal 0 0 -1
    outer loop
      vertex -9.92115 -1.25333 0
      vertex 0.627905 9.98027 0
      vertex 1.87381 9.82287 0
    endloop
  endfacet
  facet normal 0 0 -1
    outer loop
      vertex -9.92115 -1.25333 0
      vertex 1.87381 9.82287 0
      vertex 3.09017 9.51056 0
    endloop
  endfacet
  facet normal 0 0 -1
    outer loop
      vertex -9.92115 -1.25333 0
      vertex 3.09017 9.51056 0
      vertex 4.25779 9.04827 0
    endloop
  endfacet
  facet normal 0 0 -1
    outer loop
      vertex -9.92115 -1.25333 0
      vertex 4.25779 9.04827 0
      vertex 5.35827 8.44328 0
    endloop
  endfacet
  facet normal 0 0 -1
    outer loop
      vertex -9.92115 -1.25333 0
      vertex 5.35827 8.44328 0
      vertex 6.37424 7.70513 0
    endloop
  endfacet
  facet normal 0 0 -1
    outer loop
      vertex -9.92115 -1.25333 0
      vertex 6.37424 7.70513 0
      vertex 7.28969 6.84547 0
    endloop
  endfacet
  facet normal 0 0 -1
    outer loop
      vertex -9.92115 -1.25333 0
      vertex 7.28969 6.84547 0
      vertex 8.09017 5.87785 0
    endloop
  endfacet
  facet normal 0 0 -1
    outer loop
      vertex -9.92115 -1.25333 0
      vertex 8.09017 5.87785 0
      vertex 8.76307 4.81754 0
    endloop
  endfacet
  facet normal 0 0 -1
    outer loop
      vertex -9.92115 -1.25333 0
      vertex 8.76307 4.81754 0
      vertex 9.29777 3.68125 0
    endloop
  endfacet
  facet normal 0 0 -1
    outer loop
      vertex 0.637424 0.770513 0
      vertex 9.29777 3.68125 0
      vertex 9.68583 2.4869 0
    endloop
  endfacet
  facet normal 0 0 -1
    outer loop
      vertex 0.968583 0.24869 0
      vertex 9.68583 2.4869 0
      vertex 9.92115 1.25333 0
    endloop
  endfacet
  facet normal 0 0 -1
    outer loop
      vertex 0.992115 -0.125333 0
      vertex 9.92115 1.25333 0
      vertex 10 0 0
    endloop
  endfacet
  facet normal 0 0 -1
    outer loop
      vertex 0.728969 -0.684547 0
      vertex 10 0 0
      vertex 9.92115 -1.25333 0
    endloop
  endfacet
  facet normal 0 0 -1
    outer loop
      vertex -9.92115 -1.25333 0
      vertex 9.92115 -1.25333 0
      vertex 9.68583 -2.4869 0
    endloop
  endfacet
  facet normal 0 0 -1
    outer loop
      vertex -9.92115 -1.25333 0
      vertex 9.68583 -2.4869 0
      vertex 9.29777 -3.68125 0
    endloop
  endfacet
  facet normal 0 0 -1
    outer loop
      vertex -9.92115 -1.25333 0
      vertex 9.29777 -3.68125 0
      vertex 8.76307 -4.81754 0
    endloop
  endfacet
  facet normal 0 0 -1
    outer loop
      vertex -9.92115 -1.25333 0
      vertex 8.76307 -4.81754 0
      vertex 8.09017 -5.87785 0
    endloop
  endfacet
  facet normal 0 0 -1
    outer loop
      vertex -9.92115 -1.25333 0
      vertex 8.09017 -5.87785 0
      vertex 7.28969 -6.84547 0
    endloop
  endfacet
  facet normal 0 0 -1
    outer loop
      vertex -9.92115 -1.25333 0
      vertex 7.28969 -6.84547 0
      vertex 6.37424 -7.70513 0
    endloop
  endfacet
  facet normal 0 0 -1
    outer loop
      vertex -9.92115 -1.25333 0
      vertex 6.37424 -7.70513 0
      vertex 5.35827 -8.44328 0
    endloop
  endfacet
  facet normal 0 0 -1
    outer loop
      vertex -9.92115 -1.25333 0
      vertex 5.35827 -8.44328 0
      vertex 4.25779 -9.04827 0
    endloop
  endfacet
  facet normal 0 0 -1
    outer loop
      vertex -9.92115 -1.25333 0
      vertex 4.25779 -9.04827 0
      vertex 3.09017 -9.51056 0
    endloop
  endfacet
  facet normal 0 0 -1
    outer loop
      vertex -9.92115 -1.25333 0
      vertex 3.09017 -9.51056 0
      vertex 1.87381 -9.82287 0
    endloop
  endfacet
  facet normal 0 0 -1
    outer loop
      vertex -9.92115 -1.25333 0
      vertex 1.87381 -9.82287 0
      vertex 0.627905 -9.98027 0
    endloop
  endfacet
  facet normal 0 0 -1
    outer loop
      vertex -9.92115 -1.25333 0
      vertex 0.627905 -9.98027 0
      vertex -0.627905 -9.98027 0
    endloop
  endfacet
  facet normal 0 0 -1
    outer loop
      vertex -9.92115 -1.25333 0
      vertex -0.627905 -9.98027 0
      vertex -1.87381 -9.82287 0
    endloop
  endfacet
  facet normal 0 0 -1
    outer loop
      vertex -9.92115 -1.25333 0
      vertex -1.87381 -9.82287 0
      vertex -3.09017 -9.51056 0
    endloop
  endfacet
  facet normal 0 0 -1
    outer loop
      vertex -9.92115 -1.25333 0
      vertex -3.09017 -9.51056 0
      vertex -4.25779 -9.04827 0
    endloop
  endfacet
  facet normal 0 0 -1
    outer loop
      vertex -9.92115 -1.25333 0
      vertex -4.25779 -9.04827 0
      vertex -5.35827 -8.44328 0
    endloop
  endfacet
  facet normal 0 0 -1
    outer loop
      vertex -9.92115 -1.25333 0
      vertex -5.35827 -8.44328 0
      vertex -6.37424 -7.70513 0
    endloop
  endfacet
  facet normal 0 0 -1
    outer loop
      vertex -9.92115 -1.25333 0
      vertex -6.37424 -7.70513 0
      vertex -7.28969 -6.84547 0
    endloop
  endfacet
  facet normal 0 0 -1
    outer loop
      vertex -9.92115 -1.25333 0
      vertex -7.28969 -6.84547 0
      vertex -8.09017 -5.87785 0
    endloop
  endfacet
  facet normal 0 0 -1
    outer loop
      vertex -9.92115 -1.25333 0
      vertex -8.09017 -5.87785 0
      vertex -8.76307 -4.81754 0
    endloop
  endfacet
  facet normal 0 0 -1
    outer loop
      vertex -9.92115 -1.25333 0
      vertex -8.76307 -4.81754 0
      vertex -9.29777 -3.68125 0
    endloop
  endfacet
  facet normal 0 0 -1
    outer loop
      vertex -9.92115 -1.25333 0
      vertex -9.29777 -3.68125 0
      vertex -9.68583 -2.4869 0
    endloop
  endfacet
  facet normal 0 0 -1
    outer loop
      vertex 0.637424 0.770513 0
      vertex 9.68583 2.4869 0
      vertex 0.728969 0.684547 0
    endloop
  endfacet
  facet normal 0 0 -1
    outer loop
      vertex -9.92115 -1.25333 0
      vertex -1 0 0
      vertex -0.992115 -0.125333 0
    endloop
  endfacet
  facet normal 0 0 -1
    outer loop
      vertex 0.968583 0.24869 0
      vertex 9.92115 1.25333 0
      vertex 0.992115 0.125333 0
    endloop
  endfacet
  facet normal 0 0 -1
    outer loop
      vertex -9.92115 -1.25333 0
      vertex -0.968583 -0.24869 0
      vertex -0.929776 -0.368125 0
    endloop
  endfacet
  facet normal 0 0 -1
    outer loop
      vertex -9.92115 -1.25333 0
      vertex -0.929776 -0.368125 0
      vertex -0.876307 -0.481754 0
    endloop
  endfacet
  facet normal 0 0 -1
    outer loop
      vertex -9.92115 -1.25333 0
      vertex -0.876307 -0.481754 0
      vertex -0.809017 -0.587785 0
    endloop
  endfacet
  facet normal 0 0 -1
    outer loop
      vertex 0.187381 -0.982287 0
      vertex 9.92115 -1.25333 0
      vertex 0.062791 -0.998027 0
    endloop
  endfacet
  facet normal 0 0 -1
    outer loop
      vertex -9.92115 -1.25333 0
      vertex -0.728969 -0.684547 0
      vertex -0.637424 -0.770513 0
    endloop
  endfacet
  facet normal 0 0 -1
    outer loop
      vertex -9.92115 -1.25333 0
      vertex -0.637424 -0.770513 0
      vertex -0.535827 -0.844328 0
    endloop
  endfacet
  facet normal 0 0 -1
    outer loop
      vertex -9.92115 -1.25333 0
      vertex -0.535827 -0.844328 0
      vertex -0.425779 -0.904827 0
    endloop
  endfacet
  facet normal 0 0 -1
    outer loop
      vertex -9.92115 -1.25333 0
      vertex -0.425779 -0.904827 0
      vertex -0.309017 -0.951057 0
    endloop
  endfacet
  facet normal 0 0 -1
    outer loop
      vertex -9.92115 -1.25333 0
      vertex -0.309017 -0.951057 0
      vertex -0.187381 -0.982287 0
    endloop
  endfacet
  facet normal 0 0 -1
    outer loop
      vertex -9.92115 -1.25333 0
      vertex -0.187381 -0.982287 0
      vertex -0.062791 -0.998027 0
    endloop
  endfacet
  facet normal 0 0 -1
    outer loop
      vertex -9.92115 -1.25333 0
      vertex -0.062791 -0.998027 0
      vertex 9.92115 -1.25333 0
    endloop
  endfacet
  facet normal 0 0 -1
    outer loop
      vertex -0.062791 -0.998027 0
      vertex 0.062791 -0.998027 0
      vertex 9.92115 -1.25333 0
    endloop
  endfacet
  facet normal 0 0 -1
    outer loop
      vertex 0.309017 -0.951057 0
      vertex 9.92115 -1.25333 0
      vertex 0.187381 -0.982287 0
    endloop
  endfacet
  facet normal 0 0 -1
    outer loop
      vertex 0.425779 -0.904827 0
      vertex 9.92115 -1.25333 0
      vertex 0.309017 -0.951057 0
    endloop
  endfacet
  facet normal 0 0 -1
    outer loop
      vertex 0.535827 -0.844328 0
      vertex 9.92115 -1.25333 0
      vertex 0.425779 -0.904827 0
    endloop
  endfacet
  facet normal 0 0 -1
    outer loop
      vertex 0.637424 -0.770513 0
      vertex 9.92115 -1.25333 0
      vertex 0.535827 -0.844328 0
    endloop
  endfacet
  facet normal 0 0 -1
    outer loop
      vertex 0.728969 -0.684547 0
      vertex 9.92115 -1.25333 0
      vertex 0.637424 -0.770513 0
    endloop
  endfacet
  facet normal 0 0 -1
    outer loop
      vertex 0.809017 -0.587785 0
      vertex 10 0 0
      vertex 0.728969 -0.684547 0
    endloop
  endfacet
  facet normal 0 0 -1
    outer loop
      vertex 0.876307 -0.481754 0
      vertex 10 0 0
      vertex 0.809017 -0.587785 0
    endloop
  endfacet
  facet normal 0 0 -1
    outer loop
      vertex 0.929776 -0.368125 0
      vertex 10 0 0
      vertex 0.876307 -0.481754 0
    endloop
  endfacet
  facet normal 0 0 -1
    outer loop
      vertex 0.968583 -0.24869 0
      vertex 10 0 0
      vertex 0.929776 -0.368125 0
    endloop
  endfacet
  facet normal 0 0 -1
    outer loop
      vertex 0.992115 -0.125333 0
      vertex 10 0 0
      vertex 0.968583 -0.24869 0
    endloop
  endfacet
  facet normal 0 0 -1
    outer loop
      vertex 1 0 0
      vertex 9.92115 1.25333 0
      vertex 0.992115 -0.125333 0
    endloop
  endfacet
  facet normal 0 0 -1
    outer loop
      vertex 0.992115 0.125333 0
      vertex 9.92115 1.25333 0
      vertex 1 0 0
    endloop
  endfacet
  facet normal 0 0 -1
    outer loop
      vertex -0.728969 -0.684547 0
      vertex -9.92115 -1.25333 0
      vertex -0.809017 -0.587785 0
    endloop
  endfacet
  facet normal 0 0 -1
    outer loop
      vertex 0.929776 0.368125 0
      vertex 9.68583 2.4869 0
      vertex 0.968583 0.24869 0
    endloop
  endfacet
  facet normal 0 0 -1
    outer loop
      vertex 0.876307 0.481754 0
      vertex 9.68583 2.4869 0
      vertex 0.929776 0.368125 0
    endloop
  endfacet
  facet normal 0 0 -1
    outer loop
      vertex 0.809017 0.587785 0
      vertex 9.68583 2.4869 0
      vertex 0.876307 0.481754 0
    endloop
  endfacet
  facet normal 0 0 -1
    outer loop
      vertex 0.728969 0.684547 0
      vertex 9.68583 2.4869 0
      vertex 0.809017 0.587785 0
    endloop
  endfacet
  facet normal 0 0 -1
    outer loop
      vertex 0.535827 0.844328 0
      vertex 9.29777 3.68125 0
      vertex 0.637424 0.770513 0
    endloop
  endfacet
  facet normal 0 0 -1
    outer loop
      vertex -0.425779 0.904827 0
      vertex -9.92115 -1.25333 0
      vertex -0.309017 0.951057 0
    endloop
  endfacet
  facet normal 0 0 -1
    outer loop
      vertex 0.425779 0.904827 0
      vertex 9.29777 3.68125 0
      vertex 0.535827 0.844328 0
    endloop
  endfacet
  facet normal 0 0 -1
    outer loop
      vertex 0.309017 0.951057 0
      vertex 9.29777 3.68125 0
      vertex 0.425779 0.904827 0
    endloop
  endfacet
  facet normal 0 0 -1
    outer loop
      vertex 0.187381 0.982287 0
      vertex 9.29777 3.68125 0
      vertex 0.309017 0.951057 0
    endloop
  endfacet
  facet normal 0 0 -1
    outer loop
      vertex 0.062791 0.998027 0
      vertex 9.29777 3.68125 0
      vertex 0.187381 0.982287 0
    endloop
  endfacet
  facet normal 0 0 -1
    outer loop
      vertex -0.062791 0.998027 0
      vertex 9.29777 3.68125 0
      vertex 0.062791 0.998027 0
    endloop
  endfacet
  facet normal 0 0 -1
    outer loop
      vertex -0.187381 0.982287 0
      vertex 9.29777 3.68125 0
      vertex -0.062791 0.998027 0
    endloop
  endfacet
  facet normal 0 0 -1
    outer loop
      vertex -9.92115 -1.25333 0
      vertex 9.29777 3.68125 0
      vertex -0.187381 0.982287 0
    endloop
  endfacet
  facet normal 0 0 -1
    outer loop
      vertex -9.92115 -1.25333 0
      vertex -0.187381 0.982287 0
      vertex -0.309017 0.951057 0
    endloop
  endfacet
  facet normal 0 0 -1
    outer loop
      vertex -0.535827 0.844328 0
      vertex -9.92115 -1.25333 0
      vertex -0.425779 0.904827 0
    endloop
  endfacet
  facet normal 0 0 -1
    outer loop
      vertex -0.637424 0.770513 0
      vertex -9.92115 -1.25333 0
      vertex -0.535827 0.844328 0
    endloop
  endfacet
  facet normal 0 0 -1
    outer loop
      vertex -0.728969 0.684547 0
      vertex -9.92115 -1.25333 0
      vertex -0.637424 0.770513 0
    endloop
  endfacet
  facet normal 0 0 -1
    outer loop
      vertex -0.809017 0.587785 0
      vertex -9.92115 -1.25333 0
      vertex -0.728969 0.684547 0
    endloop
  endfacet
  facet normal 0 0 -1
    outer loop
      vertex -0.876307 0.481754 0
      vertex -9.92115 -1.25333 0
      vertex -0.809017 0.587785 0
    endloop
  endfacet
  facet normal 0 0 -1
    outer loop
      vertex -0.929776 0.368125 0
      vertex -9.92115 -1.25333 0
      vertex -0.876307 0.481754 0
    endloop
  endfacet
  facet normal 0 0 -1
    outer loop
      vertex -0.968583 0.24869 0
      vertex -9.92115 -1.25333 0
      vertex -0.929776 0.368125 0
    endloop
  endfacet
  facet normal 0 0 -1
    outer loop
      vertex -0.992115 0.125333 0
      vertex -9.92115 -1.25333 0
      vertex -0.968583 0.24869 0
    endloop
  endfacet
  facet normal 0 0 -1
    outer loop
      vertex -9.92115 -1.25333 0
      vertex -0.992115 0.125333 0
      vertex -1 0 0
    endloop
  endfacet
  facet normal 0 0 -1
    outer loop
      vertex -0.968583 -0.24869 0
      vertex -9.92115 -1.25333 0
      vertex -0.992115 -0.125333 0
    endloop
  endfacet
  facet normal -0.998027 0.0627905 0
    outer loop
      vertex -10 0 0
      vertex -10 0 10
      vertex -9.92115 1.25333 0
    endloop
  endfacet
  facet normal -0.998027 0.0627905 0
    outer loop
      vertex -9.92115 1.25333 0
      vertex -10 0 10
      vertex -9.92115 1.25333 10
    endloop
  endfacet
  facet normal -0.998027 -0.0627905 0
    outer loop
      vertex -10 0 0
      vertex -9.92115 -1.25333 0
      vertex -10 0 10
    endloop
  endfacet
  facet normal -0.998027 -0.0627905 0
    outer loop
      vertex -10 0 10
      vertex -9.92115 -1.25333 0
      vertex -9.92115 -1.25333 10
    endloop
  endfacet
  facet normal -0.982287 -0.187381 0
    outer loop
      vertex -9.92115 -1.25333 0
      vertex -9.68583 -2.4869 0
      vertex -9.92115 -1.25333 10
    endloop
  endfacet
  facet normal -0.982287 -0.187381 0
    outer loop
      vertex -9.92115 -1.25333 10
      vertex -9.68583 -2.4869 0
      vertex -9.68583 -2.4869 10
    endloop
  endfacet
  facet normal -0.951056 -0.309017 0
    outer loop
      vertex -9.68583 -2.4869 0
      vertex -9.29777 -3.68125 0
      vertex -9.68583 -2.4869 10
    endloop
  endfacet
  facet normal -0.951056 -0.309017 0
    outer loop
      vertex -9.68583 -2.4869 10
      vertex -9.29777 -3.68125 0
      vertex -9.29777 -3.68125 10
    endloop
  endfacet
  facet normal -0.904827 -0.425779 0
    outer loop
      vertex -9.29777 -3.68125 0
      vertex -8.76307 -4.81754 0
      vertex -9.29777 -3.68125 10
    endloop
  endfacet
  facet normal -0.904827 -0.425779 0
    outer loop
      vertex -9.29777 -3.68125 10
      vertex -8.76307 -4.81754 0
      vertex -8.76307 -4.81754 10
    endloop
  endfacet
  facet normal -0.844328 -0.535827 0
    outer loop
      vertex -8.76307 -4.81754 0
      vertex -8.09017 -5.87785 0
      vertex -8.76307 -4.81754 10
    endloop
  endfacet
  facet normal -0.844328 -0.535827 0
    outer loop
      vertex -8.76307 -4.81754 10
      vertex -8.09017 -5.87785 0
      vertex -8.09017 -5.87785 10
    endloop
  endfacet
  facet normal -0.770513 -0.637424 0
    outer loop
      vertex -8.09017 -5.87785 0
      vertex -7.28969 -6.84547 0
      vertex -8.09017 -5.87785 10
    endloop
  endfacet
  facet normal -0.770513 -0.637424 0
    outer loop
      vertex -8.09017 -5.87785 10
      vertex -7.28969 -6.84547 0
      vertex -7.28969 -6.84547 10
    endloop
  endfacet
  facet normal -0.684547 -0.728969 0
    outer loop
      vertex -7.28969 -6.84547 10
      vertex -7.28969 -6.84547 0
      vertex -6.37424 -7.70513 0
    endloop
  endfacet
  facet normal -0.684547 -0.728969 0
    outer loop
      vertex -6.37424 -7.70513 10
      vertex -7.28969 -6.84547 10
      vertex -6.37424 -7.70513 0
    endloop
  endfacet
  facet normal -0.587785 -0.809017 0
    outer loop
      vertex -6.37424 -7.70513 10
      vertex -6.37424 -7.70513 0
      vertex -5.35827 -8.44328 0
    endloop
  endfacet
  facet normal -0.587785 -0.809017 0
    outer loop
      vertex -5.35827 -8.44328 10
      vertex -6.37424 -7.70513 10
      vertex -5.35827 -8.44328 0
    endloop
  endfacet
  facet normal -0.481754 -0.876306 0
    outer loop
      vertex -5.35827 -8.44328 10
      vertex -5.35827 -8.44328 0
      vertex -4.25779 -9.04827 0
    endloop
  endfacet
  facet normal -0.481754 -0.876306 0
    outer loop
      vertex -4.25779 -9.04827 10
      vertex -5.35827 -8.44328 10
      vertex -4.25779 -9.04827 0
    endloop
  endfacet
  facet normal -0.368124 -0.929777 0
    outer loop
      vertex -4.25779 -9.04827 10
      vertex -4.25779 -9.04827 0
      vertex -3.09017 -9.51056 0
    endloop
  endfacet
  facet normal -0.368124 -0.929777 0
    outer loop
      vertex -3.09017 -9.51056 10
      vertex -4.25779 -9.04827 10
      vertex -3.09017 -9.51056 0
    endloop
  endfacet
  facet normal -0.24869 -0.968583 0
    outer loop
      vertex -3.09017 -9.51056 10
      vertex -3.09017 -9.51056 0
      vertex -1.87381 -9.82287 0
    endloop
  endfacet
  facet normal -0.24869 -0.968583 0
    outer loop
      vertex -1.87381 -9.82287 10
      vertex -3.09017 -9.51056 10
      vertex -1.87381 -9.82287 0
    endloop
  endfacet
  facet normal -0.125333 -0.992115 0
    outer loop
      vertex -1.87381 -9.82287 10
      vertex -1.87381 -9.82287 0
      vertex -0.627905 -9.98027 0
    endloop
  endfacet
  facet normal -0.125333 -0.992115 0
    outer loop
      vertex -0.627905 -9.98027 10
      vertex -1.87381 -9.82287 10
      vertex -0.627905 -9.98027 0
    endloop
  endfacet
  facet normal 0 -1 0
    outer loop
      vertex -0.627905 -9.98027 10
      vertex -0.627905 -9.98027 0
      vertex 0.627905 -9.98027 0
    endloop
  endfacet
  facet normal 0 -1 0
    outer loop
      vertex 0.627905 -9.98027 10
      vertex -0.627905 -9.98027 10
      vertex 0.627905 -9.98027 0
    endloop
  endfacet
  facet normal 0.125333 -0.992115 0
    outer loop
      vertex 0.627905 -9.98027 10
      vertex 0.627905 -9.98027 0
      vertex 1.87381 -9.82287 0
    endloop
  endfacet
  facet normal 0.125333 -0.992115 0
    outer loop
      vertex 1.87381 -9.82287 10
      vertex 0.627905 -9.98027 10
      vertex 1.87381 -9.82287 0
    endloop
  endfacet
  facet normal 0.24869 -0.968583 0
    outer loop
      vertex 1.87381 -9.82287 10
      vertex 1.87381 -9.82287 0
      vertex 3.09017 -9.51056 0
    endloop
  endfacet
  facet normal 0.24869 -0.968583 0
    outer loop
      vertex 3.09017 -9.51056 10
      vertex 1.87381 -9.82287 10
      vertex 3.09017 -9.51056 0
    endloop
  endfacet
  facet normal 0.368124 -0.929777 0
    outer loop
      vertex 3.09017 -9.51056 10
      vertex 3.09017 -9.51056 0
      vertex 4.25779 -9.04827 0
    endloop
  endfacet
  facet normal 0.368124 -0.929777 0
    outer loop
      vertex 4.25779 -9.04827 10
      vertex 3.09017 -9.51056 10
      vertex 4.25779 -9.04827 0
    endloop
  endfacet
  facet normal 0.481754 -0.876306 0
    outer loop
      vertex 4.25779 -9.04827 10
      vertex 4.25779 -9.04827 0
      vertex 5.35827 -8.44328 0
    endloop
  endfacet
  facet normal 0.481754 -0.876306 0
    outer loop
      vertex 5.35827 -8.44328 10
      vertex 4.25779 -9.04827 10
      vertex 5.35827 -8.44328 0
    endloop
  endfacet
  facet normal 0.587785 -0.809017 0
    outer loop
      vertex 5.35827 -8.44328 10
      vertex 5.35827 -8.44328 0
      vertex 6.37424 -7.70513 0
    endloop
  endfacet
  facet normal 0.587785 -0.809017 0
    outer loop
      vertex 6.37424 -7.70513 10
      vertex 5.35827 -8.44328 10
      vertex 6.37424 -7.70513 0
    endloop
  endfacet
  facet normal 0.684547 -0.728969 0
    outer loop
      vertex 6.37424 -7.70513 10
      vertex 6.37424 -7.70513 0
      vertex 7.28969 -6.84547 0
    endloop
  endfacet
  facet normal 0.684547 -0.728969 0
    outer loop
      vertex 7.28969 -6.84547 10
      vertex 6.37424 -7.70513 10
      vertex 7.28969 -6.84547 0
    endloop
  endfacet
  facet normal 0.770513 -0.637424 0
    outer loop
      vertex 7.28969 -6.84547 10
      vertex 7.28969 -6.84547 0
      vertex 8.09017 -5.87785 0
    endloop
  endfacet
  facet normal 0.770513 -0.637424 0
    outer loop
      vertex 8.09017 -5.87785 10
      vertex 7.28969 -6.84547 10
      vertex 8.09017 -5.87785 0
    endloop
  endfacet
  facet normal 0.844328 -0.535827 0
    outer loop
      vertex 8.09017 -5.87785 10
      vertex 8.09017 -5.87785 0
      vertex 8.76307 -4.81754 0
    endloop
  endfacet
  facet normal 0.844328 -0.535827 0
    outer loop
      vertex 8.76307 -4.81754 10
      vertex 8.09017 -5.87785 10
      vertex 8.76307 -4.81754 0
    endloop
  endfacet
  facet normal 0.904827 -0.425779 0
    outer loop
      vertex 8.76307 -4.81754 10
      vertex 8.76307 -4.81754 0
      vertex 9.29777 -3.68125 0
    endloop
  endfacet
  facet normal 0.904827 -0.425779 0
    outer loop
      vertex 9.29777 -3.68125 10
      vertex 8.76307 -4.81754 10
      vertex 9.29777 -3.68125 0
    endloop
  endfacet
  facet normal 0.951056 -0.309017 0
    outer loop
      vertex 9.29777 -3.68125 10
      vertex 9.29777 -3.68125 0
      vertex 9.68583 -2.4869 0
    endloop
  endfacet
  facet normal 0.951056 -0.309017 0
    outer loop
      vertex 9.68583 -2.4869 10
      vertex 9.29777 -3.68125 10
      vertex 9.68583 -2.4869 0
    endloop
  endfacet
  facet normal 0.982287 -0.187381 0
    outer loop
      vertex 9.68583 -2.4869 10
      vertex 9.68583 -2.4869 0
      vertex 9.92115 -1.25333 0
    endloop
  endfacet
  facet normal 0.982287 -0.187381 0
    outer loop
      vertex 9.92115 -1.25333 10
      vertex 9.68583 -2.4869 10
      vertex 9.92115 -1.25333 0
    endloop
  endfacet
  facet normal 0.998027 -0.0627905 0
    outer loop
      vertex 9.92115 -1.25333 10
      vertex 9.92115 -1.25333 0
      vertex 10 0 0
    endloop
  endfacet
  facet normal 0.998027 -0.0627905 0
    outer loop
      vertex 10 0 10
      vertex 9.92115 -1.25333 10
      vertex 10 0 0
    endloop
  endfacet
  facet normal 0.998027 0.0627905 0
    outer loop
      vertex 10 0 0
      vertex 9.92115 1.25333 0
      vertex 9.92115 1.25333 10
    endloop
  endfacet
  facet normal 0.998027 0.0627905 0
    outer loop
      vertex 10 0 10
      vertex 10 0 0
      vertex 9.92115 1.25333 10
    endloop
  endfacet
  facet normal 0.982287 0.187381 0
    outer loop
      vertex 9.92115 1.25333 0
      vertex 9.68583 2.4869 0
      vertex 9.68583 2.4869 10
    endloop
  endfacet
  facet normal 0.982287 0.187381 0
    outer loop
      vertex 9.92115 1.25333 10
      vertex 9.92115 1.25333 0
      vertex 9.68583 2.4869 10
    endloop
  endfacet
  facet normal 0.951056 0.309017 0
    outer loop
      vertex 9.68583 2.4869 0
      vertex 9.29777 3.68125 0
      vertex 9.29777 3.68125 10
    endloop
  endfacet
  facet normal 0.951056 0.309017 0
    outer loop
      vertex 9.68583 2.4869 10
      vertex 9.68583 2.4869 0
      vertex 9.29777 3.68125 10
    endloop
  endfacet
  facet normal 0.904827 0.425779 0
    outer loop
      vertex 9.29777 3.68125 0
      vertex 8.76307 4.81754 0
      vertex 8.76307 4.81754 10
    endloop
  endfacet
  facet normal 0.904827 0.425779 0
    outer loop
      vertex 9.29777 3.68125 10
      vertex 9.29777 3.68125 0
      vertex 8.76307 4.81754 10
    endloop
  endfacet
  facet normal 0.844328 0.535827 0
    outer loop
      vertex 8.76307 4.81754 0
      vertex 8.09017 5.87785 0
      vertex 8.09017 5.87785 10
    endloop
  endfacet
  facet normal 0.844328 0.535827 0
    outer loop
      vertex 8.76307 4.81754 10
      vertex 8.76307 4.81754 0
      vertex 8.09017 5.87785 10
    endloop
  endfacet
  facet normal 0.770513 0.637424 0
    outer loop
      vertex 8.09017 5.87785 0
      vertex 7.28969 6.84547 0
      vertex 7.28969 6.84547 10
    endloop
  endfacet
  facet normal 0.770513 0.637424 0
    outer loop
      vertex 8.09017 5.87785 10
      vertex 8.09017 5.87785 0
      vertex 7.28969 6.84547 10
    endloop
  endfacet
  facet normal 0.684547 0.728969 0
    outer loop
      vertex 6.37424 7.70513 0
      vertex 6.37424 7.70513 10
      vertex 7.28969 6.84547 0
    endloop
  endfacet
  facet normal 0.684547 0.728969 0
    outer loop
      vertex 7.28969 6.84547 0
      vertex 6.37424 7.70513 10
      vertex 7.28969 6.84547 10
    endloop
  endfacet
  facet normal 0.587785 0.809017 0
    outer loop
      vertex 5.35827 8.44328 0
      vertex 5.35827 8.44328 10
      vertex 6.37424 7.70513 0
    endloop
  endfacet
  facet normal 0.587785 0.809017 0
    outer loop
      vertex 6.37424 7.70513 0
      vertex 5.35827 8.44328 10
      vertex 6.37424 7.70513 10
    endloop
  endfacet
  facet normal 0.481754 0.876306 0
    outer loop
      vertex 4.25779 9.04827 0
      vertex 4.25779 9.04827 10
      vertex 5.35827 8.44328 0
    endloop
  endfacet
  facet normal 0.481754 0.876306 0
    outer loop
      vertex 5.35827 8.44328 0
      vertex 4.25779 9.04827 10
      vertex 5.35827 8.44328 10
    endloop
  endfacet
  facet normal 0.368124 0.929777 0
    outer loop
      vertex 3.09017 9.51056 0
      vertex 3.09017 9.51056 10
      vertex 4.25779 9.04827 0
    endloop
  endfacet
  facet normal 0.368124 0.929777 0
    outer loop
      vertex 4.25779 9.04827 0
      vertex 3.09017 9.51056 10
      vertex 4.25779 9.04827 10
    endloop
  endfacet
  facet normal 0.24869 0.968583 0
    outer loop
      vertex 1.87381 9.82287 0
      vertex 1.87381 9.82287 10
      vertex 3.09017 9.51056 0
    endloop
  endfacet
  facet normal 0.24869 0.968583 0
    outer loop
      vertex 3.09017 9.51056 0
      vertex 1.87381 9.82287 10
      vertex 3.09017 9.51056 10
    endloop
  endfacet
  facet normal 0.125333 0.992115 0
    outer loop
      vertex 0.627905 9.98027 0
      vertex 0.627905 9.98027 10
      vertex 1.87381 9.82287 0
    endloop
  endfacet
  facet normal 0.125333 0.992115 0
    outer loop
      vertex 1.87381 9.82287 0
      vertex 0.627905 9.98027 10
      vertex 1.87381 9.82287 10
    endloop
  endfacet
  facet normal 0 1 0
    outer loop
      vertex -0.627905 9.98027 0
      vertex -0.627905 9.98027 10
      vertex 0.627905 9.98027 0
    endloop
  endfacet
  facet normal 0 1 0
    outer loop
      vertex 0.627905 9.98027 0
      vertex -0.627905 9.98027 10
      vertex 0.627905 9.98027 10
    endloop
  endfacet
  facet normal -0.125333 0.992115 0
    outer loop
      vertex -1.87381 9.82287 0
      vertex -1.87381 9.82287 10
      vertex -0.627905 9.98027 0
    endloop
  endfacet
  facet normal -0.125333 0.992115 0
    outer loop
      vertex -0.627905 9.98027 0
      vertex -1.87381 9.82287 10
      vertex -0.627905 9.98027 10
    endloop
  endfacet
  facet normal -0.24869 0.968583 0
    outer loop
      vertex -3.09017 9.51056 0
      vertex -3.09017 9.51056 10
      vertex -1.87381 9.82287 0
    endloop
  endfacet
  facet normal -0.24869 0.968583 0
    outer loop
      vertex -1.87381 9.82287 0
      vertex -3.09017 9.51056 10
      vertex -1.87381 9.82287 10
    endloop
  endfacet
  facet normal -0.368124 0.929777 0
    outer loop
      vertex -4.25779 9.04827 0
      vertex -4.25779 9.04827 10
      vertex -3.09017 9.51056 0
    endloop
  endfacet
  facet normal -0.368124 0.929777 0
    outer loop
      vertex -3.09017 9.51056 0
      vertex -4.25779 9.04827 10
      vertex -3.09017 9.51056 10
    endloop
  endfacet
  facet normal -0.481754 0.876306 0
    outer loop
      vertex -5.35827 8.44328 0
      vertex -5.35827 8.44328 10
      vertex -4.25779 9.04827 0
    endloop
  endfacet
  facet normal -0.481754 0.876306 0
    outer loop
      vertex -4.25779 9.04827 0
      vertex -5.35827 8.44328 10
      vertex -4.25779 9.04827 10
    endloop
  endfacet
  facet normal -0.587785 0.809017 0
    outer loop
      vertex -6.37424 7.70513 0
      vertex -6.37424 7.70513 10
      vertex -5.35827 8.44328 0
    endloop
  endfacet
  facet normal -0.587785 0.809017 0
    outer loop
      vertex -5.35827 8.44328 0
      vertex -6.37424 7.70513 10
      vertex -5.35827 8.44328 10
    endloop
  endfacet
  facet normal -0.684547 0.728969 0
    outer loop
      vertex -7.28969 6.84547 0
      vertex -7.28969 6.84547 10
      vertex -6.37424 7.70513 0
    endloop
  endfacet
  facet normal -0.684547 0.728969 0
    outer loop
      vertex -6.37424 7.70513 0
      vertex -7.28969 6.84547 10
      vertex -6.37424 7.70513 10
    endloop
  endfacet
  facet normal -0.770513 0.637424 0
    outer loop
      vertex -8.09017 5.87785 0
      vertex -8.09017 5.87785 10
      vertex -7.28969 6.84547 0
    endloop
  endfacet
  facet normal -0.770513 0.637424 0
    outer loop
      vertex -7.28969 6.84547 0
      vertex -8.09017 5.87785 10
      vertex -7.28969 6.84547 10
    endloop
  endfacet
  facet normal -0.844328 0.535827 0
    outer loop
      vertex -8.76307 4.81754 0
      vertex -8.76307 4.81754 10
      vertex -8.09017 5.87785 0
    endloop
  endfacet
  facet normal -0.844328 0.535827 0
    outer loop
      vertex -8.09017 5.87785 0
      vertex -8.76307 4.81754 10
      vertex -8.09017 5.87785 10
    endloop
  endfacet
  facet normal -0.904827 0.425779 0
    outer loop
      vertex -9.29777 3.68125 0
      vertex -9.29777 3.68125 10
      vertex -8.76307 4.81754 0
    endloop
  endfacet
  facet normal -0.904827 0.425779 0
    outer loop
      vertex -8.76307 4.81754 0
      vertex -9.29777 3.68125 10
      vertex -8.76307 4.81754 10
    endloop
  endfacet
  facet normal -0.951056 0.309017 0
    outer loop
      vertex -9.68583 2.4869 0
      vertex -9.68583 2.4869 10
      vertex -9.29777 3.68125 0
    endloop
  endfacet
  facet normal -0.951056 0.309017 0
    outer loop
      vertex -9.29777 3.68125 0
      vertex -9.68583 2.4869 10
      vertex -9.29777 3.68125 10
    endloop
  endfacet
  facet normal -0.982287 0.187381 0
    outer loop
      vertex -9.92115 1.25333 0
      vertex -9.92115 1.25333 10
      vertex -9.68583 2.4869 0
    endloop
  endfacet
  facet normal -0.982287 0.187381 0
    outer loop
      vertex -9.68583 2.4869 0
      vertex -9.92115 1.25333 10
      vertex -9.68583 2.4869 10
    endloop
  endfacet
  facet normal 0.998027 0.0627883 0
    outer loop
      vertex -1 0 10
      vertex -0.992115 -0.125333 10
      vertex -0.992115 -0.125333 0
    endloop
  endfacet
  facet normal 0.998027 0.0627883 0
    outer loop
      vertex -1 0 0
      vertex -1 0 10
      vertex -0.992115 -0.125333 0
    endloop
  endfacet
  facet normal 0.998027 -0.0627883 0
    outer loop
      vertex -0.992115 0.125333 0
      vertex -0.992115 0.125333 10
      vertex -1 0 10
    endloop
  endfacet
  facet normal 0.998027 -0.0627883 0
    outer loop
      vertex -1 0 0
      vertex -0.992115 0.125333 0
      vertex -1 0 10
    endloop
  endfacet
  facet normal 0.982287 -0.187384 0
    outer loop
      vertex -0.968583 0.24869 0
      vertex -0.968583 0.24869 10
      vertex -0.992115 0.125333 10
    endloop
  endfacet
  facet normal 0.982287 -0.187384 0
    outer loop
      vertex -0.992115 0.125333 0
      vertex -0.968583 0.24869 0
      vertex -0.992115 0.125333 10
    endloop
  endfacet
  facet normal 0.951056 -0.309019 0
    outer loop
      vertex -0.929776 0.368125 0
      vertex -0.929776 0.368125 10
      vertex -0.968583 0.24869 10
    endloop
  endfacet
  facet normal 0.951056 -0.309019 0
    outer loop
      vertex -0.968583 0.24869 0
      vertex -0.929776 0.368125 0
      vertex -0.968583 0.24869 10
    endloop
  endfacet
  facet normal 0.904829 -0.425774 0
    outer loop
      vertex -0.876307 0.481754 0
      vertex -0.876307 0.481754 10
      vertex -0.929776 0.368125 10
    endloop
  endfacet
  facet normal 0.904829 -0.425774 0
    outer loop
      vertex -0.929776 0.368125 0
      vertex -0.876307 0.481754 0
      vertex -0.929776 0.368125 10
    endloop
  endfacet
  facet normal 0.844325 -0.535831 0
    outer loop
      vertex -0.809017 0.587785 0
      vertex -0.809017 0.587785 10
      vertex -0.876307 0.481754 10
    endloop
  endfacet
  facet normal 0.844325 -0.535831 0
    outer loop
      vertex -0.876307 0.481754 0
      vertex -0.809017 0.587785 0
      vertex -0.876307 0.481754 10
    endloop
  endfacet
  facet normal 0.770515 -0.637422 0
    outer loop
      vertex -0.728969 0.684547 0
      vertex -0.728969 0.684547 10
      vertex -0.809017 0.587785 10
    endloop
  endfacet
  facet normal 0.770515 -0.637422 0
    outer loop
      vertex -0.809017 0.587785 0
      vertex -0.728969 0.684547 0
      vertex -0.809017 0.587785 10
    endloop
  endfacet
  facet normal 0.684545 -0.728971 0
    outer loop
      vertex -0.637424 0.770513 0
      vertex -0.637424 0.770513 10
      vertex -0.728969 0.684547 10
    endloop
  endfacet
  facet normal 0.684545 -0.728971 0
    outer loop
      vertex -0.728969 0.684547 0
      vertex -0.637424 0.770513 0
      vertex -0.728969 0.684547 10
    endloop
  endfacet
  facet normal 0.587788 -0.809015 0
    outer loop
      vertex -0.535827 0.844328 0
      vertex -0.535827 0.844328 10
      vertex -0.637424 0.770513 10
    endloop
  endfacet
  facet normal 0.587788 -0.809015 0
    outer loop
      vertex -0.637424 0.770513 0
      vertex -0.535827 0.844328 0
      vertex -0.637424 0.770513 10
    endloop
  endfacet
  facet normal 0.481751 -0.876308 0
    outer loop
      vertex -0.425779 0.904827 0
      vertex -0.425779 0.904827 10
      vertex -0.535827 0.844328 10
    endloop
  endfacet
  facet normal 0.481751 -0.876308 0
    outer loop
      vertex -0.535827 0.844328 0
      vertex -0.425779 0.904827 0
      vertex -0.535827 0.844328 10
    endloop
  endfacet
  facet normal 0.368129 -0.929775 0
    outer loop
      vertex -0.309017 0.951057 0
      vertex -0.309017 0.951057 10
      vertex -0.425779 0.904827 10
    endloop
  endfacet
  facet normal 0.368129 -0.929775 0
    outer loop
      vertex -0.425779 0.904827 0
      vertex -0.309017 0.951057 0
      vertex -0.425779 0.904827 10
    endloop
  endfacet
  facet normal 0.248684 -0.968585 0
    outer loop
      vertex -0.187381 0.982287 0
      vertex -0.187381 0.982287 10
      vertex -0.309017 0.951057 10
    endloop
  endfacet
  facet normal 0.248684 -0.968585 0
    outer loop
      vertex -0.309017 0.951057 0
      vertex -0.187381 0.982287 0
      vertex -0.309017 0.951057 10
    endloop
  endfacet
  facet normal 0.125338 -0.992114 0
    outer loop
      vertex -0.062791 0.998027 0
      vertex -0.062791 0.998027 10
      vertex -0.187381 0.982287 10
    endloop
  endfacet
  facet normal 0.125338 -0.992114 0
    outer loop
      vertex -0.187381 0.982287 0
      vertex -0.062791 0.998027 0
      vertex -0.187381 0.982287 10
    endloop
  endfacet
  facet normal 0 -1 0
    outer loop
      vertex 0.062791 0.998027 0
      vertex 0.062791 0.998027 10
      vertex -0.062791 0.998027 10
    endloop
  endfacet
  facet normal 0 -1 0
    outer loop
      vertex -0.062791 0.998027 0
      vertex 0.062791 0.998027 0
      vertex -0.062791 0.998027 10
    endloop
  endfacet
  facet normal -0.125338 -0.992114 0
    outer loop
      vertex 0.187381 0.982287 0
      vertex 0.187381 0.982287 10
      vertex 0.062791 0.998027 10
    endloop
  endfacet
  facet normal -0.125338 -0.992114 0
    outer loop
      vertex 0.062791 0.998027 0
      vertex 0.187381 0.982287 0
      vertex 0.062791 0.998027 10
    endloop
  endfacet
  facet normal -0.248684 -0.968585 0
    outer loop
      vertex 0.309017 0.951057 0
      vertex 0.309017 0.951057 10
      vertex 0.187381 0.982287 10
    endloop
  endfacet
  facet normal -0.248684 -0.968585 0
    outer loop
      vertex 0.187381 0.982287 0
      vertex 0.309017 0.951057 0
      vertex 0.187381 0.982287 10
    endloop
  endfacet
  facet normal -0.368129 -0.929775 0
    outer loop
      vertex 0.425779 0.904827 0
      vertex 0.425779 0.904827 10
      vertex 0.309017 0.951057 10
    endloop
  endfacet
  facet normal -0.368129 -0.929775 0
    outer loop
      vertex 0.309017 0.951057 0
      vertex 0.425779 0.904827 0
      vertex 0.309017 0.951057 10
    endloop
  endfacet
  facet normal -0.481751 -0.876308 0
    outer loop
      vertex 0.535827 0.844328 0
      vertex 0.535827 0.844328 10
      vertex 0.425779 0.904827 10
    endloop
  endfacet
  facet normal -0.481751 -0.876308 0
    outer loop
      vertex 0.425779 0.904827 0
      vertex 0.535827 0.844328 0
      vertex 0.425779 0.904827 10
    endloop
  endfacet
  facet normal -0.587788 -0.809015 0
    outer loop
      vertex 0.637424 0.770513 0
      vertex 0.637424 0.770513 10
      vertex 0.535827 0.844328 10
    endloop
  endfacet
  facet normal -0.587788 -0.809015 0
    outer loop
      vertex 0.535827 0.844328 0
      vertex 0.637424 0.770513 0
      vertex 0.535827 0.844328 10
    endloop
  endfacet
  facet normal -0.684545 -0.728971 0
    outer loop
      vertex 0.728969 0.684547 0
      vertex 0.728969 0.684547 10
      vertex 0.637424 0.770513 10
    endloop
  endfacet
  facet normal -0.684545 -0.728971 0
    outer loop
      vertex 0.637424 0.770513 0
      vertex 0.728969 0.684547 0
      vertex 0.637424 0.770513 10
    endloop
  endfacet
  facet normal -0.770515 -0.637422 0
    outer loop
      vertex 0.809017 0.587785 10
      vertex 0.728969 0.684547 10
      vertex 0.809017 0.587785 0
    endloop
  endfacet
  facet normal -0.770515 -0.637422 0
    outer loop
      vertex 0.809017 0.587785 0
      vertex 0.728969 0.684547 10
      vertex 0.728969 0.684547 0
    endloop
  endfacet
  facet normal -0.844325 -0.535831 0
    outer loop
      vertex 0.876307 0.481754 10
      vertex 0.809017 0.587785 10
      vertex 0.876307 0.481754 0
    endloop
  endfacet
  facet normal -0.844325 -0.535831 0
    outer loop
      vertex 0.876307 0.481754 0
      vertex 0.809017 0.587785 10
      vertex 0.809017 0.587785 0
    endloop
  endfacet
  facet normal -0.904829 -0.425774 0
    outer loop
      vertex 0.929776 0.368125 10
      vertex 0.876307 0.481754 10
      vertex 0.929776 0.368125 0
    endloop
  endfacet
  facet normal -0.904829 -0.425774 0
    outer loop
      vertex 0.929776 0.368125 0
      vertex 0.876307 0.481754 10
      vertex 0.876307 0.481754 0
    endloop
  endfacet
  facet normal -0.951056 -0.309019 0
    outer loop
      vertex 0.968583 0.24869 10
      vertex 0.929776 0.368125 10
      vertex 0.968583 0.24869 0
    endloop
  endfacet
  facet normal -0.951056 -0.309019 0
    outer loop
      vertex 0.968583 0.24869 0
      vertex 0.929776 0.368125 10
      vertex 0.929776 0.368125 0
    endloop
  endfacet
  facet normal -0.982287 -0.187384 0
    outer loop
      vertex 0.992115 0.125333 10
      vertex 0.968583 0.24869 10
      vertex 0.992115 0.125333 0
    endloop
  endfacet
  facet normal -0.982287 -0.187384 0
    outer loop
      vertex 0.992115 0.125333 0
      vertex 0.968583 0.24869 10
      vertex 0.968583 0.24869 0
    endloop
  endfacet
  facet normal -0.998027 -0.0627883 0
    outer loop
      vertex 1 0 10
      vertex 0.992115 0.125333 10
      vertex 1 0 0
    endloop
  endfacet
  facet normal -0.998027 -0.0627883 0
    outer loop
      vertex 1 0 0
      vertex 0.992115 0.125333 10
      vertex 0.992115 0.125333 0
    endloop
  endfacet
  facet normal -0.998027 0.0627883 0
    outer loop
      vertex 1 0 10
      vertex 1 0 0
      vertex 0.992115 -0.125333 10
    endloop
  endfacet
  facet normal -0.998027 0.0627883 0
    outer loop
      vertex 0.992115 -0.125333 10
      vertex 1 0 0
      vertex 0.992115 -0.125333 0
    endloop
  endfacet
  facet normal -0.982287 0.187384 0
    outer loop
      vertex 0.992115 -0.125333 10
      vertex 0.992115 -0.125333 0
      vertex 0.968583 -0.24869 10
    endloop
  endfacet
  facet normal -0.982287 0.187384 0
    outer loop
      vertex 0.968583 -0.24869 10
      vertex 0.992115 -0.125333 0
      vertex 0.968583 -0.24869 0
    endloop
  endfacet
  facet normal -0.951056 0.309019 0
    outer loop
      vertex 0.968583 -0.24869 10
      vertex 0.968583 -0.24869 0
      vertex 0.929776 -0.368125 10
    endloop
  endfacet
  facet normal -0.951056 0.309019 0
    outer loop
      vertex 0.929776 -0.368125 10
      vertex 0.968583 -0.24869 0
      vertex 0.929776 -0.368125 0
    endloop
  endfacet
  facet normal -0.904829 0.425774 0
    outer loop
      vertex 0.929776 -0.368125 10
      vertex 0.929776 -0.368125 0
      vertex 0.876307 -0.481754 10
    endloop
  endfacet
  facet normal -0.904829 0.425774 0
    outer loop
      vertex 0.876307 -0.481754 10
      vertex 0.929776 -0.368125 0
      vertex 0.876307 -0.481754 0
    endloop
  endfacet
  facet normal -0.844325 0.535831 0
    outer loop
      vertex 0.876307 -0.481754 10
      vertex 0.876307 -0.481754 0
      vertex 0.809017 -0.587785 10
    endloop
  endfacet
  facet normal -0.844325 0.535831 0
    outer loop
      vertex 0.809017 -0.587785 10
      vertex 0.876307 -0.481754 0
      vertex 0.809017 -0.587785 0
    endloop
  endfacet
  facet normal -0.770515 0.637422 0
    outer loop
      vertex 0.809017 -0.587785 10
      vertex 0.809017 -0.587785 0
      vertex 0.728969 -0.684547 10
    endloop
  endfacet
  facet normal -0.770515 0.637422 0
    outer loop
      vertex 0.728969 -0.684547 10
      vertex 0.809017 -0.587785 0
      vertex 0.728969 -0.684547 0
    endloop
  endfacet
  facet normal -0.684545 0.728971 0
    outer loop
      vertex 0.728969 -0.684547 10
      vertex 0.728969 -0.684547 0
      vertex 0.637424 -0.770513 10
    endloop
  endfacet
  facet normal -0.684545 0.728971 0
    outer loop
      vertex 0.637424 -0.770513 10
      vertex 0.728969 -0.684547 0
      vertex 0.637424 -0.770513 0
    endloop
  endfacet
  facet normal -0.587788 0.809015 0
    outer loop
      vertex 0.637424 -0.770513 10
      vertex 0.637424 -0.770513 0
      vertex 0.535827 -0.844328 10
    endloop
  endfacet
  facet normal -0.587788 0.809015 0
    outer loop
      vertex 0.535827 -0.844328 10
      vertex 0.637424 -0.770513 0
      vertex 0.535827 -0.844328 0
    endloop
  endfacet
  facet normal -0.481751 0.876308 0
    outer loop
      vertex 0.535827 -0.844328 10
      vertex 0.535827 -0.844328 0
      vertex 0.425779 -0.904827 10
    endloop
  endfacet
  facet normal -0.481751 0.876308 0
    outer loop
      vertex 0.425779 -0.904827 10
      vertex 0.535827 -0.844328 0
      vertex 0.425779 -0.904827 0
    endloop
  endfacet
  facet normal -0.368129 0.929775 0
    outer loop
      vertex 0.425779 -0.904827 10
      vertex 0.425779 -0.904827 0
      vertex 0.309017 -0.951057 10
    endloop
  endfacet
  facet normal -0.368129 0.929775 0
    outer loop
      vertex 0.309017 -0.951057 10
      vertex 0.425779 -0.904827 0
      vertex 0.309017 -0.951057 0
    endloop
  endfacet
  facet normal -0.248684 0.968585 0
    outer loop
      vertex 0.309017 -0.951057 10
      vertex 0.309017 -0.951057 0
      vertex 0.187381 -0.982287 10
    endloop
  endfacet
  facet normal -0.248684 0.968585 0
    outer loop
      vertex 0.187381 -0.982287 10
      vertex 0.309017 -0.951057 0
      vertex 0.187381 -0.982287 0
    endloop
  endfacet
  facet normal -0.125338 0.992114 0
    outer loop
      vertex 0.187381 -0.982287 10
      vertex 0.187381 -0.982287 0
      vertex 0.062791 -0.998027 10
    endloop
  endfacet
  facet normal -0.125338 0.992114 0
    outer loop
      vertex 0.062791 -0.998027 10
      vertex 0.187381 -0.982287 0
      vertex 0.062791 -0.998027 0
    endloop
  endfacet
  facet normal 0 1 0
    outer loop
      vertex 0.062791 -0.998027 10
      vertex 0.062791 -0.998027 0
      vertex -0.062791 -0.998027 10
    endloop
  endfacet
  facet normal 0 1 0
    outer loop
      vertex -0.062791 -0.998027 10
      vertex 0.062791 -0.998027 0
      vertex -0.062791 -0.998027 0
    endloop
  endfacet
  facet normal 0.125338 0.992114 0
    outer loop
      vertex -0.062791 -0.998027 10
      vertex -0.062791 -0.998027 0
      vertex -0.187381 -0.982287 10
    endloop
  endfacet
  facet normal 0.125338 0.992114 0
    outer loop
      vertex -0.187381 -0.982287 10
      vertex -0.062791 -0.998027 0
      vertex -0.187381 -0.982287 0
    endloop
  endfacet
  facet normal 0.248684 0.968585 0
    outer loop
      vertex -0.187381 -0.982287 10
      vertex -0.187381 -0.982287 0
      vertex -0.309017 -0.951057 10
    endloop
  endfacet
  facet normal 0.248684 0.968585 0
    outer loop
      vertex -0.309017 -0.951057 10
      vertex -0.187381 -0.982287 0
      vertex -0.309017 -0.951057 0
    endloop
  endfacet
  facet normal 0.368129 0.929775 0
    outer loop
      vertex -0.309017 -0.951057 10
      vertex -0.309017 -0.951057 0
      vertex -0.425779 -0.904827 10
    endloop
  endfacet
  facet normal 0.368129 0.929775 0
    outer loop
      vertex -0.425779 -0.904827 10
      vertex -0.309017 -0.951057 0
      vertex -0.425779 -0.904827 0
    endloop
  endfacet
  facet normal 0.481751 0.876308 0
    outer loop
      vertex -0.425779 -0.904827 10
      vertex -0.425779 -0.904827 0
      vertex -0.535827 -0.844328 10
    endloop
  endfacet
  facet normal 0.481751 0.876308 0
    outer loop
      vertex -0.535827 -0.844328 10
      vertex -0.425779 -0.904827 0
      vertex -0.535827 -0.844328 0
    endloop
  endfacet
  facet normal 0.587788 0.809015 0
    outer loop
      vertex -0.535827 -0.844328 10
      vertex -0.535827 -0.844328 0
      vertex -0.637424 -0.770513 10
    endloop
  endfacet
  facet normal 0.587788 0.809015 0
    outer loop
      vertex -0.637424 -0.770513 10
      vertex -0.535827 -0.844328 0
      vertex -0.637424 -0.770513 0
    endloop
  endfacet
  facet normal 0.684545 0.728971 0
    outer loop
      vertex -0.637424 -0.770513 10
      vertex -0.637424 -0.770513 0
      vertex -0.728969 -0.684547 10
    endloop
  endfacet
  facet normal 0.684545 0.728971 0
    outer loop
      vertex -0.728969 -0.684547 10
      vertex -0.637424 -0.770513 0
      vertex -0.728969 -0.684547 0
    endloop
  endfacet
  facet normal 0.770515 0.637422 0
    outer loop
      vertex -0.809017 -0.587785 10
      vertex -0.728969 -0.684547 10
      vertex -0.728969 -0.684547 0
    endloop
  endfacet
  facet normal 0.770515 0.637422 0
    outer loop
      vertex -0.809017 -0.587785 0
      vertex -0.809017 -0.587785 10
      vertex -0.728969 -0.684547 0
    endloop
  endfacet
  facet normal 0.844325 0.535831 0
    outer loop
      vertex -0.876307 -0.481754 10
      vertex -0.809017 -0.587785 10
      vertex -0.809017 -0.587785 0
    endloop
  endfacet
  facet normal 0.844325 0.535831 0
    outer loop
      vertex -0.876307 -0.481754 0
      vertex -0.876307 -0.481754 10
      vertex -0.809017 -0.587785 0
    endloop
  endfacet
  facet normal 0.904829 0.425774 0
    outer loop
      vertex -0.929776 -0.368125 10
      vertex -0.876307 -0.481754 10
      vertex -0.876307 -0.481754 0
    endloop
  endfacet
  facet normal 0.904829 0.425774 0
    outer loop
      vertex -0.929776 -0.368125 0
      vertex -0.929776 -0.368125 10
      vertex -0.876307 -0.481754 0
    endloop
  endfacet
  facet normal 0.951056 0.309019 0
    outer loop
      vertex -0.968583 -0.24869 10
      vertex -0.929776 -0.368125 10
      vertex -0.929776 -0.368125 0
    endloop
  endfacet
  facet normal 0.951056 0.309019 0
    outer loop
      vertex -0.968583 -0.24869 0
      vertex -0.968583 -0.24869 10
      vertex -0.929776 -0.368125 0
    endloop
  endfacet
  facet normal 0.982287 0.187384 0
    outer loop
      vertex -0.992115 -0.125333 10
      vertex -0.968583 -0.24869 10
      vertex -0.968583 -0.24869 0
    endloop
  endfacet
  facet normal 0.982287 0.187384 0
    outer loop
      vertex -0.992115 -0.125333 0
      vertex -0.992115 -0.125333 10
      vertex -0.968583 -0.24869 0
    endloop
  endfacet
  facet normal 0 0 1
    outer loop
      vertex -9.92115 1.25333 10
      vertex -10 0 10
      vertex -9.92115 -1.25333 10
    endloop
  endfacet
  facet normal 0 0 1
    outer loop
      vertex -9.29777 -3.68125 10
      vertex -9.92115 1.25333 10
      vertex -9.68583 -2.4869 10
    endloop
  endfacet
  facet normal 0 0 1
    outer loop
      vertex -9.68583 -2.4869 10
      vertex -9.92115 1.25333 10
      vertex -9.92115 -1.25333 10
    endloop
  endfacet
  facet normal 0 0 1
    outer loop
      vertex -8.76307 -4.81754 10
      vertex -9.92115 1.25333 10
      vertex -9.29777 -3.68125 10
    endloop
  endfacet
  facet normal 0 0 1
    outer loop
      vertex -8.09017 -5.87785 10
      vertex -9.92115 1.25333 10
      vertex -8.76307 -4.81754 10
    endloop
  endfacet
  facet normal 0 0 1
    outer loop
      vertex -7.28969 -6.84547 10
      vertex -9.92115 1.25333 10
      vertex -8.09017 -5.87785 10
    endloop
  endfacet
  facet normal 0 0 1
    outer loop
      vertex -6.37424 -7.70513 10
      vertex -9.92115 1.25333 10
      vertex -7.28969 -6.84547 10
    endloop
  endfacet
  facet normal 0 0 1
    outer loop
      vertex -5.35827 -8.44328 10
      vertex -9.92115 1.25333 10
      vertex -6.37424 -7.70513 10
    endloop
  endfacet
  facet normal 0 0 1
    outer loop
      vertex -4.25779 -9.04827 10
      vertex -9.92115 1.25333 10
      vertex -5.35827 -8.44328 10
    endloop
  endfacet
  facet normal 0 0 1
    outer loop
      vertex -3.09017 -9.51056 10
      vertex -9.92115 1.25333 10
      vertex -4.25779 -9.04827 10
    endloop
  endfacet
  facet normal 0 0 1
    outer loop
      vertex -1.87381 -9.82287 10
      vertex -9.92115 1.25333 10
      vertex -3.09017 -9.51056 10
    endloop
  endfacet
  facet normal 0 0 1
    outer loop
      vertex -0.627905 -9.98027 10
      vertex -9.92115 1.25333 10
      vertex -1.87381 -9.82287 10
    endloop
  endfacet
  facet normal 0 0 1
    outer loop
      vertex 0.627905 -9.98027 10
      vertex -9.92115 1.25333 10
      vertex -0.627905 -9.98027 10
    endloop
  endfacet
  facet normal 0 0 1
    outer loop
      vertex 1.87381 -9.82287 10
      vertex -9.92115 1.25333 10
      vertex 0.627905 -9.98027 10
    endloop
  endfacet
  facet normal 0 0 1
    outer loop
      vertex 3.09017 -9.51056 10
      vertex -9.92115 1.25333 10
      vertex 1.87381 -9.82287 10
    endloop
  endfacet
  facet normal 0 0 1
    outer loop
      vertex 4.25779 -9.04827 10
      vertex -9.92115 1.25333 10
      vertex 3.09017 -9.51056 10
    endloop
  endfacet
  facet normal 0 0 1
    outer loop
      vertex 5.35827 -8.44328 10
      vertex -9.92115 1.25333 10
      vertex 4.25779 -9.04827 10
    endloop
  endfacet
  facet normal 0 0 1
    outer loop
      vertex 6.37424 -7.70513 10
      vertex -9.92115 1.25333 10
      vertex 5.35827 -8.44328 10
    endloop
  endfacet
  facet normal 0 0 1
    outer loop
      vertex 7.28969 -6.84547 10
      vertex -9.92115 1.25333 10
      vertex 6.37424 -7.70513 10
    endloop
  endfacet
  facet normal 0 0 1
    outer loop
      vertex 8.09017 -5.87785 10
      vertex -9.92115 1.25333 10
      vertex 7.28969 -6.84547 10
    endloop
  endfacet
  facet normal 0 0 1
    outer loop
      vertex 8.76307 -4.81754 10
      vertex -9.92115 1.25333 10
      vertex 8.09017 -5.87785 10
    endloop
  endfacet
  facet normal 0 0 1
    outer loop
      vertex 9.29777 -3.68125 10
      vertex -9.92115 1.25333 10
      vertex 8.76307 -4.81754 10
    endloop
  endfacet
  facet normal 0 0 1
    outer loop
      vertex -0.187381 -0.982287 10
      vertex -9.92115 1.25333 10
      vertex 9.29777 -3.68125 10
    endloop
  endfacet
  facet normal 0 0 1
    outer loop
      vertex -0.309017 -0.951057 10
      vertex -0.425779 -0.904827 10
      vertex -9.92115 1.25333 10
    endloop
  endfacet
  facet normal 0 0 1
    outer loop
      vertex -0.809017 0.587785 10
      vertex -0.728969 0.684547 10
      vertex -9.92115 1.25333 10
    endloop
  endfacet
  facet normal 0 0 1
    outer loop
      vertex 9.68583 2.4869 10
      vertex -9.92115 1.25333 10
      vertex 9.92115 1.25333 10
    endloop
  endfacet
  facet normal 0 0 1
    outer loop
      vertex 9.29777 3.68125 10
      vertex -9.92115 1.25333 10
      vertex 9.68583 2.4869 10
    endloop
  endfacet
  facet normal 0 0 1
    outer loop
      vertex 8.76307 4.81754 10
      vertex -9.92115 1.25333 10
      vertex 9.29777 3.68125 10
    endloop
  endfacet
  facet normal 0 0 1
    outer loop
      vertex 8.09017 5.87785 10
      vertex -9.92115 1.25333 10
      vertex 8.76307 4.81754 10
    endloop
  endfacet
  facet normal 0 0 1
    outer loop
      vertex 7.28969 6.84547 10
      vertex -9.92115 1.25333 10
      vertex 8.09017 5.87785 10
    endloop
  endfacet
  facet normal 0 0 1
    outer loop
      vertex 6.37424 7.70513 10
      vertex -9.92115 1.25333 10
      vertex 7.28969 6.84547 10
    endloop
  endfacet
  facet normal 0 0 1
    outer loop
      vertex 5.35827 8.44328 10
      vertex -9.92115 1.25333 10
      vertex 6.37424 7.70513 10
    endloop
  endfacet
  facet normal 0 0 1
    outer loop
      vertex 4.25779 9.04827 10
      vertex -9.92115 1.25333 10
      vertex 5.35827 8.44328 10
    endloop
  endfacet
  facet normal 0 0 1
    outer loop
      vertex 3.09017 9.51056 10
      vertex -9.92115 1.25333 10
      vertex 4.25779 9.04827 10
    endloop
  endfacet
  facet normal 0 0 1
    outer loop
      vertex 1.87381 9.82287 10
      vertex -9.92115 1.25333 10
      vertex 3.09017 9.51056 10
    endloop
  endfacet
  facet normal 0 0 1
    outer loop
      vertex 0.627905 9.98027 10
      vertex -9.92115 1.25333 10
      vertex 1.87381 9.82287 10
    endloop
  endfacet
  facet normal 0 0 1
    outer loop
      vertex -0.627905 9.98027 10
      vertex -9.92115 1.25333 10
      vertex 0.627905 9.98027 10
    endloop
  endfacet
  facet normal 0 0 1
    outer loop
      vertex -1.87381 9.82287 10
      vertex -9.92115 1.25333 10
      vertex -0.627905 9.98027 10
    endloop
  endfacet
  facet normal 0 0 1
    outer loop
      vertex -3.09017 9.51056 10
      vertex -9.92115 1.25333 10
      vertex -1.87381 9.82287 10
    endloop
  endfacet
  facet normal 0 0 1
    outer loop
      vertex -4.25779 9.04827 10
      vertex -9.92115 1.25333 10
      vertex -3.09017 9.51056 10
    endloop
  endfacet
  facet normal 0 0 1
    outer loop
      vertex -5.35827 8.44328 10
      vertex -9.92115 1.25333 10
      vertex -4.25779 9.04827 10
    endloop
  endfacet
  facet normal 0 0 1
    outer loop
      vertex -6.37424 7.70513 10
      vertex -9.92115 1.25333 10
      vertex -5.35827 8.44328 10
    endloop
  endfacet
  facet normal 0 0 1
    outer loop
      vertex -7.28969 6.84547 10
      vertex -9.92115 1.25333 10
      vertex -6.37424 7.70513 10
    endloop
  endfacet
  facet normal 0 0 1
    outer loop
      vertex -8.09017 5.87785 10
      vertex -9.92115 1.25333 10
      vertex -7.28969 6.84547 10
    endloop
  endfacet
  facet normal 0 0 1
    outer loop
      vertex -8.76307 4.81754 10
      vertex -9.92115 1.25333 10
      vertex -8.09017 5.87785 10
    endloop
  endfacet
  facet normal 0 0 1
    outer loop
      vertex -9.29777 3.68125 10
      vertex -9.92115 1.25333 10
      vertex -8.76307 4.81754 10
    endloop
  endfacet
  facet normal 0 0 1
    outer loop
      vertex -9.68583 2.4869 10
      vertex -9.92115 1.25333 10
      vertex -9.29777 3.68125 10
    endloop
  endfacet
  facet normal 0 0 1
    outer loop
      vertex 0.728969 -0.684547 10
      vertex 0.637424 -0.770513 10
      vertex 9.68583 -2.4869 10
    endloop
  endfacet
  facet normal 0 0 1
    outer loop
      vertex -1 0 10
      vertex -9.92115 1.25333 10
      vertex -0.992115 -0.125333 10
    endloop
  endfacet
  facet normal 0 0 1
    outer loop
      vertex -0.992115 0.125333 10
      vertex -9.92115 1.25333 10
      vertex -1 0 10
    endloop
  endfacet
  facet normal 0 0 1
    outer loop
      vertex 0.968583 -0.24869 10
      vertex 0.929776 -0.368125 10
      vertex 9.92115 -1.25333 10
    endloop
  endfacet
  facet normal 0 0 1
    outer loop
      vertex 0.809017 0.587785 10
      vertex 0.876307 0.481754 10
      vertex 10 0 10
    endloop
  endfacet
  facet normal 0 0 1
    outer loop
      vertex -0.929776 0.368125 10
      vertex -9.92115 1.25333 10
      vertex -0.968583 0.24869 10
    endloop
  endfacet
  facet normal 0 0 1
    outer loop
      vertex -0.876307 0.481754 10
      vertex -9.92115 1.25333 10
      vertex -0.929776 0.368125 10
    endloop
  endfacet
  facet normal 0 0 1
    outer loop
      vertex -0.809017 0.587785 10
      vertex -9.92115 1.25333 10
      vertex -0.876307 0.481754 10
    endloop
  endfacet
  facet normal 0 0 1
    outer loop
      vertex 0.062791 0.998027 10
      vertex 0.187381 0.982287 10
      vertex 9.92115 1.25333 10
    endloop
  endfacet
  facet normal 0 0 1
    outer loop
      vertex 0.992115 -0.125333 10
      vertex 0.968583 -0.24869 10
      vertex 9.92115 -1.25333 10
    endloop
  endfacet
  facet normal 0 0 1
    outer loop
      vertex -0.637424 0.770513 10
      vertex -9.92115 1.25333 10
      vertex -0.728969 0.684547 10
    endloop
  endfacet
  facet normal 0 0 1
    outer loop
      vertex -0.535827 0.844328 10
      vertex -9.92115 1.25333 10
      vertex -0.637424 0.770513 10
    endloop
  endfacet
  facet normal 0 0 1
    outer loop
      vertex -0.425779 0.904827 10
      vertex -9.92115 1.25333 10
      vertex -0.535827 0.844328 10
    endloop
  endfacet
  facet normal 0 0 1
    outer loop
      vertex -0.309017 0.951057 10
      vertex -9.92115 1.25333 10
      vertex -0.425779 0.904827 10
    endloop
  endfacet
  facet normal 0 0 1
    outer loop
      vertex -0.187381 0.982287 10
      vertex -9.92115 1.25333 10
      vertex -0.309017 0.951057 10
    endloop
  endfacet
  facet normal 0 0 1
    outer loop
      vertex -0.062791 0.998027 10
      vertex -9.92115 1.25333 10
      vertex -0.187381 0.982287 10
    endloop
  endfacet
  facet normal 0 0 1
    outer loop
      vertex 9.92115 1.25333 10
      vertex -9.92115 1.25333 10
      vertex -0.062791 0.998027 10
    endloop
  endfacet
  facet normal 0 0 1
    outer loop
      vertex 0.187381 0.982287 10
      vertex 0.309017 0.951057 10
      vertex 9.92115 1.25333 10
    endloop
  endfacet
  facet normal 0 0 1
    outer loop
      vertex 9.92115 1.25333 10
      vertex -0.062791 0.998027 10
      vertex 0.062791 0.998027 10
    endloop
  endfacet
  facet normal 0 0 1
    outer loop
      vertex 0.309017 0.951057 10
      vertex 0.425779 0.904827 10
      vertex 9.92115 1.25333 10
    endloop
  endfacet
  facet normal 0 0 1
    outer loop
      vertex 0.425779 0.904827 10
      vertex 0.535827 0.844328 10
      vertex 9.92115 1.25333 10
    endloop
  endfacet
  facet normal 0 0 1
    outer loop
      vertex 0.535827 0.844328 10
      vertex 0.637424 0.770513 10
      vertex 9.92115 1.25333 10
    endloop
  endfacet
  facet normal 0 0 1
    outer loop
      vertex 0.637424 0.770513 10
      vertex 0.728969 0.684547 10
      vertex 9.92115 1.25333 10
    endloop
  endfacet
  facet normal 0 0 1
    outer loop
      vertex 9.92115 1.25333 10
      vertex 0.728969 0.684547 10
      vertex 10 0 10
    endloop
  endfacet
  facet normal 0 0 1
    outer loop
      vertex 0.728969 0.684547 10
      vertex 0.809017 0.587785 10
      vertex 10 0 10
    endloop
  endfacet
  facet normal 0 0 1
    outer loop
      vertex 0.929776 0.368125 10
      vertex 0.968583 0.24869 10
      vertex 10 0 10
    endloop
  endfacet
  facet normal 0 0 1
    outer loop
      vertex 0.968583 0.24869 10
      vertex 0.992115 0.125333 10
      vertex 10 0 10
    endloop
  endfacet
  facet normal 0 0 1
    outer loop
      vertex 1 0 10
      vertex 0.992115 -0.125333 10
      vertex 9.92115 -1.25333 10
    endloop
  endfacet
  facet normal 0 0 1
    outer loop
      vertex 10 0 10
      vertex 0.992115 0.125333 10
      vertex 9.92115 -1.25333 10
    endloop
  endfacet
  facet normal 0 0 1
    outer loop
      vertex 0.992115 0.125333 10
      vertex 1 0 10
      vertex 9.92115 -1.25333 10
    endloop
  endfacet
  facet normal 0 0 1
    outer loop
      vertex 0.876307 0.481754 10
      vertex 0.929776 0.368125 10
      vertex 10 0 10
    endloop
  endfacet
  facet normal 0 0 1
    outer loop
      vertex 0.876307 -0.481754 10
      vertex 0.809017 -0.587785 10
      vertex 9.68583 -2.4869 10
    endloop
  endfacet
  facet normal 0 0 1
    outer loop
      vertex 9.92115 -1.25333 10
      vertex 0.929776 -0.368125 10
      vertex 9.68583 -2.4869 10
    endloop
  endfacet
  facet normal 0 0 1
    outer loop
      vertex 0.929776 -0.368125 10
      vertex 0.876307 -0.481754 10
      vertex 9.68583 -2.4869 10
    endloop
  endfacet
  facet normal 0 0 1
    outer loop
      vertex -0.929776 -0.368125 10
      vertex -0.968583 -0.24869 10
      vertex -9.92115 1.25333 10
    endloop
  endfacet
  facet normal 0 0 1
    outer loop
      vertex 0.809017 -0.587785 10
      vertex 0.728969 -0.684547 10
      vertex 9.68583 -2.4869 10
    endloop
  endfacet
  facet normal 0 0 1
    outer loop
      vertex 9.68583 -2.4869 10
      vertex 0.637424 -0.770513 10
      vertex 9.29777 -3.68125 10
    endloop
  endfacet
  facet normal 0 0 1
    outer loop
      vertex 0.637424 -0.770513 10
      vertex 0.535827 -0.844328 10
      vertex 9.29777 -3.68125 10
    endloop
  endfacet
  facet normal 0 0 1
    outer loop
      vertex 0.535827 -0.844328 10
      vertex 0.425779 -0.904827 10
      vertex 9.29777 -3.68125 10
    endloop
  endfacet
  facet normal 0 0 1
    outer loop
      vertex 0.425779 -0.904827 10
      vertex 0.309017 -0.951057 10
      vertex 9.29777 -3.68125 10
    endloop
  endfacet
  facet normal 0 0 1
    outer loop
      vertex 0.309017 -0.951057 10
      vertex 0.187381 -0.982287 10
      vertex 9.29777 -3.68125 10
    endloop
  endfacet
  facet normal 0 0 1
    outer loop
      vertex 0.187381 -0.982287 10
      vertex 0.062791 -0.998027 10
      vertex 9.29777 -3.68125 10
    endloop
  endfacet
  facet normal 0 0 1
    outer loop
      vertex 0.062791 -0.998027 10
      vertex -0.062791 -0.998027 10
      vertex 9.29777 -3.68125 10
    endloop
  endfacet
  facet normal 0 0 1
    outer loop
      vertex -0.062791 -0.998027 10
      vertex -0.187381 -0.982287 10
      vertex 9.29777 -3.68125 10
    endloop
  endfacet
  facet normal 0 0 1
    outer loop
      vertex -0.309017 -0.951057 10
      vertex -9.92115 1.25333 10
      vertex -0.187381 -0.982287 10
    endloop
  endfacet
  facet normal 0 0 1
    outer loop
      vertex -0.425779 -0.904827 10
      vertex -0.535827 -0.844328 10
      vertex -9.92115 1.25333 10
    endloop
  endfacet
  facet normal 0 0 1
    outer loop
      vertex -0.535827 -0.844328 10
      vertex -0.637424 -0.770513 10
      vertex -9.92115 1.25333 10
    endloop
  endfacet
  facet normal 0 0 1
    outer loop
      vertex -0.637424 -0.770513 10
      vertex -0.728969 -0.684547 10
      vertex -9.92115 1.25333 10
    endloop
  endfacet
  facet normal 0 0 1
    outer loop
      vertex -0.728969 -0.684547 10
      vertex -0.809017 -0.587785 10
      vertex -9.92115 1.25333 10
    endloop
  endfacet
  facet normal 0 0 1
    outer loop
      vertex -0.809017 -0.587785 10
      vertex -0.876307 -0.481754 10
      vertex -9.92115 1.25333 10
    endloop
  endfacet
  facet normal 0 0 1
    outer loop
      vertex -0.992115 -0.125333 10
      vertex -9.92115 1.25333 10
      vertex -0.968583 -0.24869 10
    endloop
  endfacet
  facet normal 0 0 1
    outer loop
      vertex -0.876307 -0.481754 10
      vertex -0.929776 -0.368125 10
      vertex -9.92115 1.25333 10
    endloop
  endfacet
  facet normal 0 0 1
    outer loop
      vertex -0.992115 0.125333 10
      vertex -0.968583 0.24869 10
      vertex -9.92115 1.25333 10
    endloop
  endfacet
endsolid OpenSCAD_Model
