solid OpenSCAD_Model
  facet normal 0 0 -1
    outer loop
      vertex -5 0 0
      vertex -4.96057 0.626666 0
      vertex -4.96057 -0.626666 0
    endloop
  endfacet
  facet normal 0 0 -1
    outer loop
      vertex -4.96057 -0.626666 0
      vertex -4.96057 0.626666 0
      vertex -4.84292 1.24345 0
    endloop
  endfacet
  facet normal 0 0 -1
    outer loop
      vertex -4.96057 -0.626666 0
      vertex -4.84292 1.24345 0
      vertex -4.64888 1.84062 0
    endloop
  endfacet
  facet normal 0 0 -1
    outer loop
      vertex -4.96057 -0.626666 0
      vertex -4.64888 1.84062 0
      vertex -4.38153 2.40877 0
    endloop
  endfacet
  facet normal 0 0 -1
    outer loop
      vertex -4.96057 -0.626666 0
      vertex -4.38153 2.40877 0
      vertex -4.04508 2.93893 0
    endloop
  endfacet
  facet normal 0 0 -1
    outer loop
      vertex -4.96057 -0.626666 0
      vertex -4.04508 2.93893 0
      vertex -3.64484 3.42274 0
    endloop
  endfacet
  facet normal 0 0 -1
    outer loop
      vertex -4.96057 -0.626666 0
      vertex -3.64484 3.42274 0
      vertex -3.18712 3.85257 0
    endloop
  endfacet
  facet normal 0 0 -1
    outer loop
      vertex -4.96057 -0.626666 0
      vertex -3.18712 3.85257 0
      vertex -2.67913 4.22164 0
    endloop
  endfacet
  facet normal 0 0 -1
    outer loop
      vertex -4.96057 -0.626666 0
      vertex -2.67913 4.22164 0
      vertex -2.1289 4.52413 0
    endloop
  endfacet
  facet normal 0 0 -1
    outer loop
      vertex -4.96057 -0.626666 0
      vertex -2.1289 4.52413 0
      vertex -1.54508 4.75528 0
    endloop
  endfacet
  facet normal 0 0 -1
    outer loop
      vertex -4.96057 -0.626666 0
      vertex -1.54508 4.75528 0
      vertex -0.936907 4.91144 0
    endloop
  endfacet
  facet normal 0 0 -1
    outer loop
      vertex -4.96057 -0.626666 0
      vertex -0.936907 4.91144 0
      vertex -0.313953 4.99013 0
    endloop
  endfacet
  facet normal 0 0 -1
    outer loop
      vertex -1.76823 2.78628 0
      vertex -0.313953 4.99013 0
      vertex 0.313953 4.99013 0
    endloop
  endfacet
  facet normal 0 0 -1
    outer loop
      vertex -1.01976 3.13849 0
      vertex 0.313953 4.99013 0
      vertex 0.936907 4.91144 0
    endloop
  endfacet
  facet normal 0 0 -1
    outer loop
      vertex -0.618358 3.24155 0
      vertex 0.936907 4.91144 0
      vertex 1.54508 4.75528 0
    endloop
  endfacet
  facet normal 0 0 -1
    outer loop
      vertex 0.207209 3.29349 0
      vertex 1.54508 4.75528 0
      vertex 2.1289 4.52413 0
    endloop
  endfacet
  facet normal 0 0 -1
    outer loop
      vertex 0.618358 3.24155 0
      vertex 2.1289 4.52413 0
      vertex 2.67913 4.22164 0
    endloop
  endfacet
  facet normal 0 0 -1
    outer loop
      vertex 1.40507 2.98593 0
      vertex 2.67913 4.22164 0
      vertex 3.18712 3.85257 0
    endloop
  endfacet
  facet normal 0 0 -1
    outer loop
      vertex 1.76823 2.78628 0
      vertex 3.18712 3.85257 0
      vertex 3.64484 3.42274 0
    endloop
  endfacet
  facet normal 0 0 -1
    outer loop
      vertex 2.1035 2.54269 0
      vertex 3.64484 3.42274 0
      vertex 4.04508 2.93893 0
    endloop
  endfacet
  facet normal 0 0 -1
    outer loop
      vertex 2.66976 1.93969 0
      vertex 4.04508 2.93893 0
      vertex 4.38153 2.40877 0
    endloop
  endfacet
  facet normal 0 0 -1
    outer loop
      vertex 2.89181 1.58979 0
      vertex 4.38153 2.40877 0
      vertex 4.64888 1.84062 0
    endloop
  endfacet
  facet normal 0 0 -1
    outer loop
      vertex 3.06826 1.21481 0
      vertex 4.64888 1.84062 0
      vertex 4.84292 1.24345 0
    endloop
  endfacet
  facet normal 0 0 -1
    outer loop
      vertex 3.27398 0.4136 0
      vertex 4.84292 1.24345 0
      vertex 4.96057 0.626666 0
    endloop
  endfacet
  facet normal 0 0 -1
    outer loop
      vertex 3.3 0 0
      vertex 4.96057 0.626666 0
      vertex 5 0 0
    endloop
  endfacet
  facet normal 0 0 -1
    outer loop
      vertex 3.27398 -0.4136 0
      vertex 5 0 0
      vertex 4.96057 -0.626666 0
    endloop
  endfacet
  facet normal 0 0 -1
    outer loop
      vertex 3.19632 -0.820677 0
      vertex 4.96057 -0.626666 0
      vertex 4.84292 -1.24345 0
    endloop
  endfacet
  facet normal 0 0 -1
    outer loop
      vertex 2.89181 -1.58979 0
      vertex 4.84292 -1.24345 0
      vertex 4.64888 -1.84062 0
    endloop
  endfacet
  facet normal 0 0 -1
    outer loop
      vertex 2.66976 -1.93969 0
      vertex 4.64888 -1.84062 0
      vertex 4.38153 -2.40877 0
    endloop
  endfacet
  facet normal 0 0 -1
    outer loop
      vertex 2.4056 -2.259 0
      vertex 4.38153 -2.40877 0
      vertex 4.04508 -2.93893 0
    endloop
  endfacet
  facet normal 0 0 -1
    outer loop
      vertex 1.76823 -2.78628 0
      vertex 4.04508 -2.93893 0
      vertex 3.64484 -3.42274 0
    endloop
  endfacet
  facet normal 0 0 -1
    outer loop
      vertex 1.40507 -2.98593 0
      vertex 3.64484 -3.42274 0
      vertex 3.18712 -3.85257 0
    endloop
  endfacet
  facet normal 0 0 -1
    outer loop
      vertex 0.618358 -3.24155 0
      vertex 3.18712 -3.85257 0
      vertex 2.67913 -4.22164 0
    endloop
  endfacet
  facet normal 0 0 -1
    outer loop
      vertex 0.207209 -3.29349 0
      vertex 2.67913 -4.22164 0
      vertex 2.1289 -4.52413 0
    endloop
  endfacet
  facet normal 0 0 -1
    outer loop
      vertex -0.618358 -3.24155 0
      vertex 2.1289 -4.52413 0
      vertex 1.54508 -4.75528 0
    endloop
  endfacet
  facet normal 0 0 -1
    outer loop
      vertex -1.40507 -2.98593 0
      vertex 1.54508 -4.75528 0
      vertex 0.936907 -4.91144 0
    endloop
  endfacet
  facet normal 0 0 -1
    outer loop
      vertex -4.96057 -0.626666 0
      vertex 0.936907 -4.91144 0
      vertex 0.313953 -4.99013 0
    endloop
  endfacet
  facet normal 0 0 -1
    outer loop
      vertex -4.96057 -0.626666 0
      vertex 0.313953 -4.99013 0
      vertex -0.313953 -4.99013 0
    endloop
  endfacet
  facet normal 0 0 -1
    outer loop
      vertex -4.96057 -0.626666 0
      vertex -0.313953 -4.99013 0
      vertex -0.936907 -4.91144 0
    endloop
  endfacet
  facet normal 0 0 -1
    outer loop
      vertex -4.96057 -0.626666 0
      vertex -0.936907 -4.91144 0
      vertex -1.54508 -4.75528 0
    endloop
  endfacet
  facet normal 0 0 -1
    outer loop
      vertex -4.96057 -0.626666 0
      vertex -1.54508 -4.75528 0
      vertex -2.1289 -4.52413 0
    endloop
  endfacet
  facet normal 0 0 -1
    outer loop
      vertex -4.96057 -0.626666 0
      vertex -2.1289 -4.52413 0
      vertex -2.67913 -4.22164 0
    endloop
  endfacet
  facet normal 0 0 -1
    outer loop
      vertex -4.96057 -0.626666 0
      vertex -2.67913 -4.22164 0
      vertex -3.18712 -3.85257 0
    endloop
  endfacet
  facet normal 0 0 -1
    outer loop
      vertex -4.96057 -0.626666 0
      vertex -3.18712 -3.85257 0
      vertex -3.64484 -3.42274 0
    endloop
  endfacet
  facet normal 0 0 -1
    outer loop
      vertex -4.96057 -0.626666 0
      vertex -3.64484 -3.42274 0
      vertex -4.04508 -2.93893 0
    endloop
  endfacet
  facet normal 0 0 -1
    outer loop
      vertex -4.96057 -0.626666 0
      vertex -4.04508 -2.93893 0
      vertex -4.38153 -2.40877 0
    endloop
  endfacet
  facet normal 0 0 -1
    outer loop
      vertex -4.96057 -0.626666 0
      vertex -4.38153 -2.40877 0
      vertex -4.64888 -1.84062 0
    endloop
  endfacet
  facet normal 0 0 -1
    outer loop
      vertex -4.96057 -0.626666 0
      vertex -4.64888 -1.84062 0
      vertex -4.84292 -1.24345 0
    endloop
  endfacet
  facet normal 0 0 -1
    outer loop
      vertex -3.27398 -0.4136 0
      vertex -4.96057 -0.626666 0
      vertex -3.3 0 0
    endloop
  endfacet
  facet normal 0 0 -1
    outer loop
      vertex -3.19632 -0.820677 0
      vertex -4.96057 -0.626666 0
      vertex -3.27398 -0.4136 0
    endloop
  endfacet
  facet normal 0 0 -1
    outer loop
      vertex -3.06826 -1.21481 0
      vertex -4.96057 -0.626666 0
      vertex -3.19632 -0.820677 0
    endloop
  endfacet
  facet normal 0 0 -1
    outer loop
      vertex -2.89181 -1.58979 0
      vertex -4.96057 -0.626666 0
      vertex -3.06826 -1.21481 0
    endloop
  endfacet
  facet normal 0 0 -1
    outer loop
      vertex -2.66976 -1.93969 0
      vertex -4.96057 -0.626666 0
      vertex -2.89181 -1.58979 0
    endloop
  endfacet
  facet normal 0 0 -1
    outer loop
      vertex -2.4056 -2.259 0
      vertex -4.96057 -0.626666 0
      vertex -2.66976 -1.93969 0
    endloop
  endfacet
  facet normal 0 0 -1
    outer loop
      vertex -1.40507 -2.98593 0
      vertex 0.936907 -4.91144 0
      vertex -1.76823 -2.78628 0
    endloop
  endfacet
  facet normal 0 0 -1
    outer loop
      vertex -4.96057 -0.626666 0
      vertex -2.4056 -2.259 0
      vertex -2.1035 -2.54269 0
    endloop
  endfacet
  facet normal 0 0 -1
    outer loop
      vertex -4.96057 -0.626666 0
      vertex -2.1035 -2.54269 0
      vertex 0.936907 -4.91144 0
    endloop
  endfacet
  facet normal 0 0 -1
    outer loop
      vertex -2.1035 -2.54269 0
      vertex -1.76823 -2.78628 0
      vertex 0.936907 -4.91144 0
    endloop
  endfacet
  facet normal 0 0 -1
    outer loop
      vertex -1.01976 -3.13849 0
      vertex 1.54508 -4.75528 0
      vertex -1.40507 -2.98593 0
    endloop
  endfacet
  facet normal 0 0 -1
    outer loop
      vertex -0.618358 -3.24155 0
      vertex 1.54508 -4.75528 0
      vertex -1.01976 -3.13849 0
    endloop
  endfacet
  facet normal 0 0 -1
    outer loop
      vertex -0.207209 -3.29349 0
      vertex 2.1289 -4.52413 0
      vertex -0.618358 -3.24155 0
    endloop
  endfacet
  facet normal 0 0 -1
    outer loop
      vertex 0.207209 -3.29349 0
      vertex 2.1289 -4.52413 0
      vertex -0.207209 -3.29349 0
    endloop
  endfacet
  facet normal 0 0 -1
    outer loop
      vertex 1.01976 -3.13849 0
      vertex 3.18712 -3.85257 0
      vertex 0.618358 -3.24155 0
    endloop
  endfacet
  facet normal 0 0 -1
    outer loop
      vertex 1.40507 -2.98593 0
      vertex 3.18712 -3.85257 0
      vertex 1.01976 -3.13849 0
    endloop
  endfacet
  facet normal 0 0 -1
    outer loop
      vertex 0.618358 -3.24155 0
      vertex 2.67913 -4.22164 0
      vertex 0.207209 -3.29349 0
    endloop
  endfacet
  facet normal 0 0 -1
    outer loop
      vertex 2.1035 -2.54269 0
      vertex 4.04508 -2.93893 0
      vertex 1.76823 -2.78628 0
    endloop
  endfacet
  facet normal 0 0 -1
    outer loop
      vertex 2.4056 -2.259 0
      vertex 4.04508 -2.93893 0
      vertex 2.1035 -2.54269 0
    endloop
  endfacet
  facet normal 0 0 -1
    outer loop
      vertex 1.76823 -2.78628 0
      vertex 3.64484 -3.42274 0
      vertex 1.40507 -2.98593 0
    endloop
  endfacet
  facet normal 0 0 -1
    outer loop
      vertex 3.06826 -1.21481 0
      vertex 4.84292 -1.24345 0
      vertex 2.89181 -1.58979 0
    endloop
  endfacet
  facet normal 0 0 -1
    outer loop
      vertex 3.19632 -0.820677 0
      vertex 4.84292 -1.24345 0
      vertex 3.06826 -1.21481 0
    endloop
  endfacet
  facet normal 0 0 -1
    outer loop
      vertex 2.89181 -1.58979 0
      vertex 4.64888 -1.84062 0
      vertex 2.66976 -1.93969 0
    endloop
  endfacet
  facet normal 0 0 -1
    outer loop
      vertex 2.66976 -1.93969 0
      vertex 4.38153 -2.40877 0
      vertex 2.4056 -2.259 0
    endloop
  endfacet
  facet normal 0 0 -1
    outer loop
      vertex 3.27398 0.4136 0
      vertex 4.96057 0.626666 0
      vertex 3.3 0 0
    endloop
  endfacet
  facet normal 0 0 -1
    outer loop
      vertex 3.19632 0.820677 0
      vertex 4.84292 1.24345 0
      vertex 3.27398 0.4136 0
    endloop
  endfacet
  facet normal 0 0 -1
    outer loop
      vertex 3.3 0 0
      vertex 5 0 0
      vertex 3.27398 -0.4136 0
    endloop
  endfacet
  facet normal 0 0 -1
    outer loop
      vertex 3.27398 -0.4136 0
      vertex 4.96057 -0.626666 0
      vertex 3.19632 -0.820677 0
    endloop
  endfacet
  facet normal 0 0 -1
    outer loop
      vertex 2.4056 2.259 0
      vertex 4.04508 2.93893 0
      vertex 2.66976 1.93969 0
    endloop
  endfacet
  facet normal 0 0 -1
    outer loop
      vertex 2.1035 2.54269 0
      vertex 4.04508 2.93893 0
      vertex 2.4056 2.259 0
    endloop
  endfacet
  facet normal 0 0 -1
    outer loop
      vertex 2.66976 1.93969 0
      vertex 4.38153 2.40877 0
      vertex 2.89181 1.58979 0
    endloop
  endfacet
  facet normal 0 0 -1
    outer loop
      vertex 2.89181 1.58979 0
      vertex 4.64888 1.84062 0
      vertex 3.06826 1.21481 0
    endloop
  endfacet
  facet normal 0 0 -1
    outer loop
      vertex 1.01976 3.13849 0
      vertex 2.67913 4.22164 0
      vertex 1.40507 2.98593 0
    endloop
  endfacet
  facet normal 0 0 -1
    outer loop
      vertex 0.207209 3.29349 0
      vertex 2.1289 4.52413 0
      vertex 0.618358 3.24155 0
    endloop
  endfacet
  facet normal 0 0 -1
    outer loop
      vertex -0.207209 3.29349 0
      vertex 1.54508 4.75528 0
      vertex 0.207209 3.29349 0
    endloop
  endfacet
  facet normal 0 0 -1
    outer loop
      vertex -0.618358 3.24155 0
      vertex 1.54508 4.75528 0
      vertex -0.207209 3.29349 0
    endloop
  endfacet
  facet normal 0 0 -1
    outer loop
      vertex -1.01976 3.13849 0
      vertex 0.936907 4.91144 0
      vertex -0.618358 3.24155 0
    endloop
  endfacet
  facet normal 0 0 -1
    outer loop
      vertex -1.40507 2.98593 0
      vertex 0.313953 4.99013 0
      vertex -1.01976 3.13849 0
    endloop
  endfacet
  facet normal 0 0 -1
    outer loop
      vertex -1.76823 2.78628 0
      vertex 0.313953 4.99013 0
      vertex -1.40507 2.98593 0
    endloop
  endfacet
  facet normal 0 0 -1
    outer loop
      vertex -2.1035 2.54269 0
      vertex -0.313953 4.99013 0
      vertex -1.76823 2.78628 0
    endloop
  endfacet
  facet normal 0 0 -1
    outer loop
      vertex -2.89181 1.58979 0
      vertex -4.96057 -0.626666 0
      vertex -2.66976 1.93969 0
    endloop
  endfacet
  facet normal 0 0 -1
    outer loop
      vertex -2.4056 2.259 0
      vertex -0.313953 4.99013 0
      vertex -2.1035 2.54269 0
    endloop
  endfacet
  facet normal 0 0 -1
    outer loop
      vertex -4.96057 -0.626666 0
      vertex -0.313953 4.99013 0
      vertex -2.4056 2.259 0
    endloop
  endfacet
  facet normal 0 0 -1
    outer loop
      vertex -4.96057 -0.626666 0
      vertex -2.4056 2.259 0
      vertex -2.66976 1.93969 0
    endloop
  endfacet
  facet normal 0 0 -1
    outer loop
      vertex -3.06826 1.21481 0
      vertex -4.96057 -0.626666 0
      vertex -2.89181 1.58979 0
    endloop
  endfacet
  facet normal 0 0 -1
    outer loop
      vertex -3.19632 0.820677 0
      vertex -4.96057 -0.626666 0
      vertex -3.06826 1.21481 0
    endloop
  endfacet
  facet normal 0 0 -1
    outer loop
      vertex -3.27398 0.4136 0
      vertex -4.96057 -0.626666 0
      vertex -3.19632 0.820677 0
    endloop
  endfacet
  facet normal 0 0 -1
    outer loop
      vertex -3.3 0 0
      vertex -4.96057 -0.626666 0
      vertex -3.27398 0.4136 0
    endloop
  endfacet
  facet normal 0 0 -1
    outer loop
      vertex 0.618358 3.24155 0
      vertex 2.67913 4.22164 0
      vertex 1.01976 3.13849 0
    endloop
  endfacet
  facet normal 0 0 -1
    outer loop
      vertex 1.40507 2.98593 0
      vertex 3.18712 3.85257 0
      vertex 1.76823 2.78628 0
    endloop
  endfacet
  facet normal 0 0 -1
    outer loop
      vertex 1.76823 2.78628 0
      vertex 3.64484 3.42274 0
      vertex 2.1035 2.54269 0
    endloop
  endfacet
  facet normal 0 0 -1
    outer loop
      vertex 3.06826 1.21481 0
      vertex 4.84292 1.24345 0
      vertex 3.19632 0.820677 0
    endloop
  endfacet
  facet normal -0.998027 0.0627898 0
    outer loop
      vertex -5 0 0
      vertex -5 0 10
      vertex -4.96057 0.626666 0
    endloop
  endfacet
  facet normal -0.998027 0.0627898 0
    outer loop
      vertex -4.96057 0.626666 0
      vertex -5 0 10
      vertex -4.96057 0.626666 10
    endloop
  endfacet
  facet normal -0.998027 -0.0627898 0
    outer loop
      vertex -5 0 0
      vertex -4.96057 -0.626666 0
      vertex -5 0 10
    endloop
  endfacet
  facet normal -0.998027 -0.0627898 0
    outer loop
      vertex -5 0 10
      vertex -4.96057 -0.626666 0
      vertex -4.96057 -0.626666 10
    endloop
  endfacet
  facet normal -0.982287 -0.187382 0
    outer loop
      vertex -4.96057 -0.626666 0
      vertex -4.84292 -1.24345 0
      vertex -4.96057 -0.626666 10
    endloop
  endfacet
  facet normal -0.982287 -0.187382 0
    outer loop
      vertex -4.96057 -0.626666 10
      vertex -4.84292 -1.24345 0
      vertex -4.84292 -1.24345 10
    endloop
  endfacet
  facet normal -0.951056 -0.309018 0
    outer loop
      vertex -4.84292 -1.24345 0
      vertex -4.64888 -1.84062 0
      vertex -4.84292 -1.24345 10
    endloop
  endfacet
  facet normal -0.951056 -0.309018 0
    outer loop
      vertex -4.84292 -1.24345 10
      vertex -4.64888 -1.84062 0
      vertex -4.64888 -1.84062 10
    endloop
  endfacet
  facet normal -0.904827 -0.42578 0
    outer loop
      vertex -4.64888 -1.84062 0
      vertex -4.38153 -2.40877 0
      vertex -4.64888 -1.84062 10
    endloop
  endfacet
  facet normal -0.904827 -0.42578 0
    outer loop
      vertex -4.64888 -1.84062 10
      vertex -4.38153 -2.40877 0
      vertex -4.38153 -2.40877 10
    endloop
  endfacet
  facet normal -0.844328 -0.535826 0
    outer loop
      vertex -4.38153 -2.40877 0
      vertex -4.04508 -2.93893 0
      vertex -4.38153 -2.40877 10
    endloop
  endfacet
  facet normal -0.844328 -0.535826 0
    outer loop
      vertex -4.38153 -2.40877 10
      vertex -4.04508 -2.93893 0
      vertex -4.04508 -2.93893 10
    endloop
  endfacet
  facet normal -0.770514 -0.637424 0
    outer loop
      vertex -4.04508 -2.93893 0
      vertex -3.64484 -3.42274 0
      vertex -4.04508 -2.93893 10
    endloop
  endfacet
  facet normal -0.770514 -0.637424 0
    outer loop
      vertex -4.04508 -2.93893 10
      vertex -3.64484 -3.42274 0
      vertex -3.64484 -3.42274 10
    endloop
  endfacet
  facet normal -0.684547 -0.728969 0
    outer loop
      vertex -3.64484 -3.42274 10
      vertex -3.64484 -3.42274 0
      vertex -3.18712 -3.85257 0
    endloop
  endfacet
  facet normal -0.684547 -0.728969 0
    outer loop
      vertex -3.18712 -3.85257 10
      vertex -3.64484 -3.42274 10
      vertex -3.18712 -3.85257 0
    endloop
  endfacet
  facet normal -0.587786 -0.809017 0
    outer loop
      vertex -3.18712 -3.85257 10
      vertex -3.18712 -3.85257 0
      vertex -2.67913 -4.22164 0
    endloop
  endfacet
  facet normal -0.587786 -0.809017 0
    outer loop
      vertex -2.67913 -4.22164 10
      vertex -3.18712 -3.85257 10
      vertex -2.67913 -4.22164 0
    endloop
  endfacet
  facet normal -0.481753 -0.876307 0
    outer loop
      vertex -2.67913 -4.22164 10
      vertex -2.67913 -4.22164 0
      vertex -2.1289 -4.52413 0
    endloop
  endfacet
  facet normal -0.481753 -0.876307 0
    outer loop
      vertex -2.1289 -4.52413 10
      vertex -2.67913 -4.22164 10
      vertex -2.1289 -4.52413 0
    endloop
  endfacet
  facet normal -0.368126 -0.929776 0
    outer loop
      vertex -2.1289 -4.52413 10
      vertex -2.1289 -4.52413 0
      vertex -1.54508 -4.75528 0
    endloop
  endfacet
  facet normal -0.368126 -0.929776 0
    outer loop
      vertex -1.54508 -4.75528 10
      vertex -2.1289 -4.52413 10
      vertex -1.54508 -4.75528 0
    endloop
  endfacet
  facet normal -0.248689 -0.968583 0
    outer loop
      vertex -1.54508 -4.75528 10
      vertex -1.54508 -4.75528 0
      vertex -0.936907 -4.91144 0
    endloop
  endfacet
  facet normal -0.248689 -0.968583 0
    outer loop
      vertex -0.936907 -4.91144 10
      vertex -1.54508 -4.75528 10
      vertex -0.936907 -4.91144 0
    endloop
  endfacet
  facet normal -0.125334 -0.992115 0
    outer loop
      vertex -0.936907 -4.91144 10
      vertex -0.936907 -4.91144 0
      vertex -0.313953 -4.99013 0
    endloop
  endfacet
  facet normal -0.125334 -0.992115 0
    outer loop
      vertex -0.313953 -4.99013 10
      vertex -0.936907 -4.91144 10
      vertex -0.313953 -4.99013 0
    endloop
  endfacet
  facet normal 0 -1 0
    outer loop
      vertex -0.313953 -4.99013 10
      vertex -0.313953 -4.99013 0
      vertex 0.313953 -4.99013 0
    endloop
  endfacet
  facet normal 0 -1 0
    outer loop
      vertex 0.313953 -4.99013 10
      vertex -0.313953 -4.99013 10
      vertex 0.313953 -4.99013 0
    endloop
  endfacet
  facet normal 0.125334 -0.992115 0
    outer loop
      vertex 0.313953 -4.99013 10
      vertex 0.313953 -4.99013 0
      vertex 0.936907 -4.91144 0
    endloop
  endfacet
  facet normal 0.125334 -0.992115 0
    outer loop
      vertex 0.936907 -4.91144 10
      vertex 0.313953 -4.99013 10
      vertex 0.936907 -4.91144 0
    endloop
  endfacet
  facet normal 0.248689 -0.968583 0
    outer loop
      vertex 0.936907 -4.91144 10
      vertex 0.936907 -4.91144 0
      vertex 1.54508 -4.75528 0
    endloop
  endfacet
  facet normal 0.248689 -0.968583 0
    outer loop
      vertex 1.54508 -4.75528 10
      vertex 0.936907 -4.91144 10
      vertex 1.54508 -4.75528 0
    endloop
  endfacet
  facet normal 0.368126 -0.929776 0
    outer loop
      vertex 1.54508 -4.75528 10
      vertex 1.54508 -4.75528 0
      vertex 2.1289 -4.52413 0
    endloop
  endfacet
  facet normal 0.368126 -0.929776 0
    outer loop
      vertex 2.1289 -4.52413 10
      vertex 1.54508 -4.75528 10
      vertex 2.1289 -4.52413 0
    endloop
  endfacet
  facet normal 0.481753 -0.876307 0
    outer loop
      vertex 2.1289 -4.52413 10
      vertex 2.1289 -4.52413 0
      vertex 2.67913 -4.22164 0
    endloop
  endfacet
  facet normal 0.481753 -0.876307 0
    outer loop
      vertex 2.67913 -4.22164 10
      vertex 2.1289 -4.52413 10
      vertex 2.67913 -4.22164 0
    endloop
  endfacet
  facet normal 0.587786 -0.809017 0
    outer loop
      vertex 2.67913 -4.22164 10
      vertex 2.67913 -4.22164 0
      vertex 3.18712 -3.85257 0
    endloop
  endfacet
  facet normal 0.587786 -0.809017 0
    outer loop
      vertex 3.18712 -3.85257 10
      vertex 2.67913 -4.22164 10
      vertex 3.18712 -3.85257 0
    endloop
  endfacet
  facet normal 0.684547 -0.728969 0
    outer loop
      vertex 3.18712 -3.85257 10
      vertex 3.18712 -3.85257 0
      vertex 3.64484 -3.42274 0
    endloop
  endfacet
  facet normal 0.684547 -0.728969 0
    outer loop
      vertex 3.64484 -3.42274 10
      vertex 3.18712 -3.85257 10
      vertex 3.64484 -3.42274 0
    endloop
  endfacet
  facet normal 0.770514 -0.637424 0
    outer loop
      vertex 3.64484 -3.42274 10
      vertex 3.64484 -3.42274 0
      vertex 4.04508 -2.93893 0
    endloop
  endfacet
  facet normal 0.770514 -0.637424 0
    outer loop
      vertex 4.04508 -2.93893 10
      vertex 3.64484 -3.42274 10
      vertex 4.04508 -2.93893 0
    endloop
  endfacet
  facet normal 0.844328 -0.535826 0
    outer loop
      vertex 4.04508 -2.93893 10
      vertex 4.04508 -2.93893 0
      vertex 4.38153 -2.40877 0
    endloop
  endfacet
  facet normal 0.844328 -0.535826 0
    outer loop
      vertex 4.38153 -2.40877 10
      vertex 4.04508 -2.93893 10
      vertex 4.38153 -2.40877 0
    endloop
  endfacet
  facet normal 0.904827 -0.42578 0
    outer loop
      vertex 4.38153 -2.40877 10
      vertex 4.38153 -2.40877 0
      vertex 4.64888 -1.84062 0
    endloop
  endfacet
  facet normal 0.904827 -0.42578 0
    outer loop
      vertex 4.64888 -1.84062 10
      vertex 4.38153 -2.40877 10
      vertex 4.64888 -1.84062 0
    endloop
  endfacet
  facet normal 0.951056 -0.309018 0
    outer loop
      vertex 4.64888 -1.84062 10
      vertex 4.64888 -1.84062 0
      vertex 4.84292 -1.24345 0
    endloop
  endfacet
  facet normal 0.951056 -0.309018 0
    outer loop
      vertex 4.84292 -1.24345 10
      vertex 4.64888 -1.84062 10
      vertex 4.84292 -1.24345 0
    endloop
  endfacet
  facet normal 0.982287 -0.187382 0
    outer loop
      vertex 4.84292 -1.24345 10
      vertex 4.84292 -1.24345 0
      vertex 4.96057 -0.626666 0
    endloop
  endfacet
  facet normal 0.982287 -0.187382 0
    outer loop
      vertex 4.96057 -0.626666 10
      vertex 4.84292 -1.24345 10
      vertex 4.96057 -0.626666 0
    endloop
  endfacet
  facet normal 0.998027 -0.0627898 0
    outer loop
      vertex 4.96057 -0.626666 10
      vertex 4.96057 -0.626666 0
      vertex 5 0 0
    endloop
  endfacet
  facet normal 0.998027 -0.0627898 0
    outer loop
      vertex 5 0 10
      vertex 4.96057 -0.626666 10
      vertex 5 0 0
    endloop
  endfacet
  facet normal 0.998027 0.0627898 0
    outer loop
      vertex 5 0 0
      vertex 4.96057 0.626666 0
      vertex 4.96057 0.626666 10
    endloop
  endfacet
  facet normal 0.998027 0.0627898 0
    outer loop
      vertex 5 0 10
      vertex 5 0 0
      vertex 4.96057 0.626666 10
    endloop
  endfacet
  facet normal 0.982287 0.187382 0
    outer loop
      vertex 4.96057 0.626666 0
      vertex 4.84292 1.24345 0
      vertex 4.84292 1.24345 10
    endloop
  endfacet
  facet normal 0.982287 0.187382 0
    outer loop
      vertex 4.96057 0.626666 10
      vertex 4.96057 0.626666 0
      vertex 4.84292 1.24345 10
    endloop
  endfacet
  facet normal 0.951056 0.309018 0
    outer loop
      vertex 4.84292 1.24345 0
      vertex 4.64888 1.84062 0
      vertex 4.64888 1.84062 10
    endloop
  endfacet
  facet normal 0.951056 0.309018 0
    outer loop
      vertex 4.84292 1.24345 10
      vertex 4.84292 1.24345 0
      vertex 4.64888 1.84062 10
    endloop
  endfacet
  facet normal 0.904827 0.42578 0
    outer loop
      vertex 4.64888 1.84062 0
      vertex 4.38153 2.40877 0
      vertex 4.38153 2.40877 10
    endloop
  endfacet
  facet normal 0.904827 0.42578 0
    outer loop
      vertex 4.64888 1.84062 10
      vertex 4.64888 1.84062 0
      vertex 4.38153 2.40877 10
    endloop
  endfacet
  facet normal 0.844328 0.535826 0
    outer loop
      vertex 4.38153 2.40877 0
      vertex 4.04508 2.93893 0
      vertex 4.04508 2.93893 10
    endloop
  endfacet
  facet normal 0.844328 0.535826 0
    outer loop
      vertex 4.38153 2.40877 10
      vertex 4.38153 2.40877 0
      vertex 4.04508 2.93893 10
    endloop
  endfacet
  facet normal 0.770514 0.637424 0
    outer loop
      vertex 4.04508 2.93893 0
      vertex 3.64484 3.42274 0
      vertex 3.64484 3.42274 10
    endloop
  endfacet
  facet normal 0.770514 0.637424 0
    outer loop
      vertex 4.04508 2.93893 10
      vertex 4.04508 2.93893 0
      vertex 3.64484 3.42274 10
    endloop
  endfacet
  facet normal 0.684547 0.728969 0
    outer loop
      vertex 3.18712 3.85257 0
      vertex 3.18712 3.85257 10
      vertex 3.64484 3.42274 0
    endloop
  endfacet
  facet normal 0.684547 0.728969 0
    outer loop
      vertex 3.64484 3.42274 0
      vertex 3.18712 3.85257 10
      vertex 3.64484 3.42274 10
    endloop
  endfacet
  facet normal 0.587786 0.809017 0
    outer loop
      vertex 2.67913 4.22164 0
      vertex 2.67913 4.22164 10
      vertex 3.18712 3.85257 0
    endloop
  endfacet
  facet normal 0.587786 0.809017 0
    outer loop
      vertex 3.18712 3.85257 0
      vertex 2.67913 4.22164 10
      vertex 3.18712 3.85257 10
    endloop
  endfacet
  facet normal 0.481753 0.876307 0
    outer loop
      vertex 2.1289 4.52413 0
      vertex 2.1289 4.52413 10
      vertex 2.67913 4.22164 0
    endloop
  endfacet
  facet normal 0.481753 0.876307 0
    outer loop
      vertex 2.67913 4.22164 0
      vertex 2.1289 4.52413 10
      vertex 2.67913 4.22164 10
    endloop
  endfacet
  facet normal 0.368126 0.929776 0
    outer loop
      vertex 1.54508 4.75528 0
      vertex 1.54508 4.75528 10
      vertex 2.1289 4.52413 0
    endloop
  endfacet
  facet normal 0.368126 0.929776 0
    outer loop
      vertex 2.1289 4.52413 0
      vertex 1.54508 4.75528 10
      vertex 2.1289 4.52413 10
    endloop
  endfacet
  facet normal 0.248689 0.968583 0
    outer loop
      vertex 0.936907 4.91144 0
      vertex 0.936907 4.91144 10
      vertex 1.54508 4.75528 0
    endloop
  endfacet
  facet normal 0.248689 0.968583 0
    outer loop
      vertex 1.54508 4.75528 0
      vertex 0.936907 4.91144 10
      vertex 1.54508 4.75528 10
    endloop
  endfacet
  facet normal 0.125334 0.992115 0
    outer loop
      vertex 0.313953 4.99013 0
      vertex 0.313953 4.99013 10
      vertex 0.936907 4.91144 0
    endloop
  endfacet
  facet normal 0.125334 0.992115 0
    outer loop
      vertex 0.936907 4.91144 0
      vertex 0.313953 4.99013 10
      vertex 0.936907 4.91144 10
    endloop
  endfacet
  facet normal 0 1 0
    outer loop
      vertex -0.313953 4.99013 0
      vertex -0.313953 4.99013 10
      vertex 0.313953 4.99013 0
    endloop
  endfacet
  facet normal 0 1 0
    outer loop
      vertex 0.313953 4.99013 0
      vertex -0.313953 4.99013 10
      vertex 0.313953 4.99013 10
    endloop
  endfacet
  facet normal -0.125334 0.992115 0
    outer loop
      vertex -0.936907 4.91144 0
      vertex -0.936907 4.91144 10
      vertex -0.313953 4.99013 0
    endloop
  endfacet
  facet normal -0.125334 0.992115 0
    outer loop
      vertex -0.313953 4.99013 0
      vertex -0.936907 4.91144 10
      vertex -0.313953 4.99013 10
    endloop
  endfacet
  facet normal -0.248689 0.968583 0
    outer loop
      vertex -1.54508 4.75528 0
      vertex -1.54508 4.75528 10
      vertex -0.936907 4.91144 0
    endloop
  endfacet
  facet normal -0.248689 0.968583 0
    outer loop
      vertex -0.936907 4.91144 0
      vertex -1.54508 4.75528 10
      vertex -0.936907 4.91144 10
    endloop
  endfacet
  facet normal -0.368126 0.929776 0
    outer loop
      vertex -2.1289 4.52413 0
      vertex -2.1289 4.52413 10
      vertex -1.54508 4.75528 0
    endloop
  endfacet
  facet normal -0.368126 0.929776 0
    outer loop
      vertex -1.54508 4.75528 0
      vertex -2.1289 4.52413 10
      vertex -1.54508 4.75528 10
    endloop
  endfacet
  facet normal -0.481753 0.876307 0
    outer loop
      vertex -2.67913 4.22164 0
      vertex -2.67913 4.22164 10
      vertex -2.1289 4.52413 0
    endloop
  endfacet
  facet normal -0.481753 0.876307 0
    outer loop
      vertex -2.1289 4.52413 0
      vertex -2.67913 4.22164 10
      vertex -2.1289 4.52413 10
    endloop
  endfacet
  facet normal -0.587786 0.809017 0
    outer loop
      vertex -3.18712 3.85257 0
      vertex -3.18712 3.85257 10
      vertex -2.67913 4.22164 0
    endloop
  endfacet
  facet normal -0.587786 0.809017 0
    outer loop
      vertex -2.67913 4.22164 0
      vertex -3.18712 3.85257 10
      vertex -2.67913 4.22164 10
    endloop
  endfacet
  facet normal -0.684547 0.728969 0
    outer loop
      vertex -3.64484 3.42274 0
      vertex -3.64484 3.42274 10
      vertex -3.18712 3.85257 0
    endloop
  endfacet
  facet normal -0.684547 0.728969 0
    outer loop
      vertex -3.18712 3.85257 0
      vertex -3.64484 3.42274 10
      vertex -3.18712 3.85257 10
    endloop
  endfacet
  facet normal -0.770514 0.637424 0
    outer loop
      vertex -4.04508 2.93893 0
      vertex -4.04508 2.93893 10
      vertex -3.64484 3.42274 0
    endloop
  endfacet
  facet normal -0.770514 0.637424 0
    outer loop
      vertex -3.64484 3.42274 0
      vertex -4.04508 2.93893 10
      vertex -3.64484 3.42274 10
    endloop
  endfacet
  facet normal -0.844328 0.535826 0
    outer loop
      vertex -4.38153 2.40877 0
      vertex -4.38153 2.40877 10
      vertex -4.04508 2.93893 0
    endloop
  endfacet
  facet normal -0.844328 0.535826 0
    outer loop
      vertex -4.04508 2.93893 0
      vertex -4.38153 2.40877 10
      vertex -4.04508 2.93893 10
    endloop
  endfacet
  facet normal -0.904827 0.42578 0
    outer loop
      vertex -4.64888 1.84062 0
      vertex -4.64888 1.84062 10
      vertex -4.38153 2.40877 0
    endloop
  endfacet
  facet normal -0.904827 0.42578 0
    outer loop
      vertex -4.38153 2.40877 0
      vertex -4.64888 1.84062 10
      vertex -4.38153 2.40877 10
    endloop
  endfacet
  facet normal -0.951056 0.309018 0
    outer loop
      vertex -4.84292 1.24345 0
      vertex -4.84292 1.24345 10
      vertex -4.64888 1.84062 0
    endloop
  endfacet
  facet normal -0.951056 0.309018 0
    outer loop
      vertex -4.64888 1.84062 0
      vertex -4.84292 1.24345 10
      vertex -4.64888 1.84062 10
    endloop
  endfacet
  facet normal -0.982287 0.187382 0
    outer loop
      vertex -4.96057 0.626666 0
      vertex -4.96057 0.626666 10
      vertex -4.84292 1.24345 0
    endloop
  endfacet
  facet normal -0.982287 0.187382 0
    outer loop
      vertex -4.84292 1.24345 0
      vertex -4.96057 0.626666 10
      vertex -4.84292 1.24345 10
    endloop
  endfacet
  facet normal 0.998027 0.0627893 0
    outer loop
      vertex -3.3 0 10
      vertex -3.27398 -0.4136 10
      vertex -3.27398 -0.4136 0
    endloop
  endfacet
  facet normal 0.998027 0.0627893 0
    outer loop
      vertex -3.3 0 0
      vertex -3.3 0 10
      vertex -3.27398 -0.4136 0
    endloop
  endfacet
  facet normal 0.998027 -0.0627893 0
    outer loop
      vertex -3.27398 0.4136 0
      vertex -3.27398 0.4136 10
      vertex -3.3 0 10
    endloop
  endfacet
  facet normal 0.998027 -0.0627893 0
    outer loop
      vertex -3.3 0 0
      vertex -3.27398 0.4136 0
      vertex -3.3 0 10
    endloop
  endfacet
  facet normal 0.982287 -0.187383 0
    outer loop
      vertex -3.19632 0.820677 0
      vertex -3.19632 0.820677 10
      vertex -3.27398 0.4136 10
    endloop
  endfacet
  facet normal 0.982287 -0.187383 0
    outer loop
      vertex -3.27398 0.4136 0
      vertex -3.19632 0.820677 0
      vertex -3.27398 0.4136 10
    endloop
  endfacet
  facet normal 0.951056 -0.309017 0
    outer loop
      vertex -3.06826 1.21481 0
      vertex -3.06826 1.21481 10
      vertex -3.19632 0.820677 10
    endloop
  endfacet
  facet normal 0.951056 -0.309017 0
    outer loop
      vertex -3.19632 0.820677 0
      vertex -3.06826 1.21481 0
      vertex -3.19632 0.820677 10
    endloop
  endfacet
  facet normal 0.904827 -0.425779 0
    outer loop
      vertex -2.89181 1.58979 0
      vertex -2.89181 1.58979 10
      vertex -3.06826 1.21481 10
    endloop
  endfacet
  facet normal 0.904827 -0.425779 0
    outer loop
      vertex -3.06826 1.21481 0
      vertex -2.89181 1.58979 0
      vertex -3.06826 1.21481 10
    endloop
  endfacet
  facet normal 0.844328 -0.535827 0
    outer loop
      vertex -2.66976 1.93969 0
      vertex -2.66976 1.93969 10
      vertex -2.89181 1.58979 10
    endloop
  endfacet
  facet normal 0.844328 -0.535827 0
    outer loop
      vertex -2.89181 1.58979 0
      vertex -2.66976 1.93969 0
      vertex -2.89181 1.58979 10
    endloop
  endfacet
  facet normal 0.770513 -0.637425 0
    outer loop
      vertex -2.4056 2.259 0
      vertex -2.4056 2.259 10
      vertex -2.66976 1.93969 10
    endloop
  endfacet
  facet normal 0.770513 -0.637425 0
    outer loop
      vertex -2.66976 1.93969 0
      vertex -2.4056 2.259 0
      vertex -2.66976 1.93969 10
    endloop
  endfacet
  facet normal 0.684548 -0.728967 0
    outer loop
      vertex -2.1035 2.54269 0
      vertex -2.1035 2.54269 10
      vertex -2.4056 2.259 10
    endloop
  endfacet
  facet normal 0.684548 -0.728967 0
    outer loop
      vertex -2.4056 2.259 0
      vertex -2.1035 2.54269 0
      vertex -2.4056 2.259 10
    endloop
  endfacet
  facet normal 0.587784 -0.809018 0
    outer loop
      vertex -1.76823 2.78628 0
      vertex -1.76823 2.78628 10
      vertex -2.1035 2.54269 10
    endloop
  endfacet
  facet normal 0.587784 -0.809018 0
    outer loop
      vertex -2.1035 2.54269 0
      vertex -1.76823 2.78628 0
      vertex -2.1035 2.54269 10
    endloop
  endfacet
  facet normal 0.481754 -0.876306 0
    outer loop
      vertex -1.40507 2.98593 0
      vertex -1.40507 2.98593 10
      vertex -1.76823 2.78628 10
    endloop
  endfacet
  facet normal 0.481754 -0.876306 0
    outer loop
      vertex -1.76823 2.78628 0
      vertex -1.40507 2.98593 0
      vertex -1.76823 2.78628 10
    endloop
  endfacet
  facet normal 0.368126 -0.929776 0
    outer loop
      vertex -1.01976 3.13849 0
      vertex -1.01976 3.13849 10
      vertex -1.40507 2.98593 10
    endloop
  endfacet
  facet normal 0.368126 -0.929776 0
    outer loop
      vertex -1.40507 2.98593 0
      vertex -1.01976 3.13849 0
      vertex -1.40507 2.98593 10
    endloop
  endfacet
  facet normal 0.248689 -0.968583 0
    outer loop
      vertex -0.618358 3.24155 0
      vertex -0.618358 3.24155 10
      vertex -1.01976 3.13849 10
    endloop
  endfacet
  facet normal 0.248689 -0.968583 0
    outer loop
      vertex -1.01976 3.13849 0
      vertex -0.618358 3.24155 0
      vertex -1.01976 3.13849 10
    endloop
  endfacet
  facet normal 0.125333 -0.992115 0
    outer loop
      vertex -0.207209 3.29349 0
      vertex -0.207209 3.29349 10
      vertex -0.618358 3.24155 10
    endloop
  endfacet
  facet normal 0.125333 -0.992115 0
    outer loop
      vertex -0.618358 3.24155 0
      vertex -0.207209 3.29349 0
      vertex -0.618358 3.24155 10
    endloop
  endfacet
  facet normal 0 -1 0
    outer loop
      vertex 0.207209 3.29349 0
      vertex 0.207209 3.29349 10
      vertex -0.207209 3.29349 10
    endloop
  endfacet
  facet normal 0 -1 0
    outer loop
      vertex -0.207209 3.29349 0
      vertex 0.207209 3.29349 0
      vertex -0.207209 3.29349 10
    endloop
  endfacet
  facet normal -0.125333 -0.992115 0
    outer loop
      vertex 0.618358 3.24155 0
      vertex 0.618358 3.24155 10
      vertex 0.207209 3.29349 10
    endloop
  endfacet
  facet normal -0.125333 -0.992115 0
    outer loop
      vertex 0.207209 3.29349 0
      vertex 0.618358 3.24155 0
      vertex 0.207209 3.29349 10
    endloop
  endfacet
  facet normal -0.248689 -0.968583 0
    outer loop
      vertex 1.01976 3.13849 0
      vertex 1.01976 3.13849 10
      vertex 0.618358 3.24155 10
    endloop
  endfacet
  facet normal -0.248689 -0.968583 0
    outer loop
      vertex 0.618358 3.24155 0
      vertex 1.01976 3.13849 0
      vertex 0.618358 3.24155 10
    endloop
  endfacet
  facet normal -0.368126 -0.929776 0
    outer loop
      vertex 1.40507 2.98593 0
      vertex 1.40507 2.98593 10
      vertex 1.01976 3.13849 10
    endloop
  endfacet
  facet normal -0.368126 -0.929776 0
    outer loop
      vertex 1.01976 3.13849 0
      vertex 1.40507 2.98593 0
      vertex 1.01976 3.13849 10
    endloop
  endfacet
  facet normal -0.481754 -0.876306 0
    outer loop
      vertex 1.76823 2.78628 0
      vertex 1.76823 2.78628 10
      vertex 1.40507 2.98593 10
    endloop
  endfacet
  facet normal -0.481754 -0.876306 0
    outer loop
      vertex 1.40507 2.98593 0
      vertex 1.76823 2.78628 0
      vertex 1.40507 2.98593 10
    endloop
  endfacet
  facet normal -0.587784 -0.809018 0
    outer loop
      vertex 2.1035 2.54269 0
      vertex 2.1035 2.54269 10
      vertex 1.76823 2.78628 10
    endloop
  endfacet
  facet normal -0.587784 -0.809018 0
    outer loop
      vertex 1.76823 2.78628 0
      vertex 2.1035 2.54269 0
      vertex 1.76823 2.78628 10
    endloop
  endfacet
  facet normal -0.684548 -0.728967 0
    outer loop
      vertex 2.4056 2.259 0
      vertex 2.4056 2.259 10
      vertex 2.1035 2.54269 10
    endloop
  endfacet
  facet normal -0.684548 -0.728967 0
    outer loop
      vertex 2.1035 2.54269 0
      vertex 2.4056 2.259 0
      vertex 2.1035 2.54269 10
    endloop
  endfacet
  facet normal -0.770513 -0.637425 0
    outer loop
      vertex 2.66976 1.93969 10
      vertex 2.4056 2.259 10
      vertex 2.66976 1.93969 0
    endloop
  endfacet
  facet normal -0.770513 -0.637425 0
    outer loop
      vertex 2.66976 1.93969 0
      vertex 2.4056 2.259 10
      vertex 2.4056 2.259 0
    endloop
  endfacet
  facet normal -0.844328 -0.535827 0
    outer loop
      vertex 2.89181 1.58979 10
      vertex 2.66976 1.93969 10
      vertex 2.89181 1.58979 0
    endloop
  endfacet
  facet normal -0.844328 -0.535827 0
    outer loop
      vertex 2.89181 1.58979 0
      vertex 2.66976 1.93969 10
      vertex 2.66976 1.93969 0
    endloop
  endfacet
  facet normal -0.904827 -0.425779 0
    outer loop
      vertex 3.06826 1.21481 10
      vertex 2.89181 1.58979 10
      vertex 3.06826 1.21481 0
    endloop
  endfacet
  facet normal -0.904827 -0.425779 0
    outer loop
      vertex 3.06826 1.21481 0
      vertex 2.89181 1.58979 10
      vertex 2.89181 1.58979 0
    endloop
  endfacet
  facet normal -0.951056 -0.309017 0
    outer loop
      vertex 3.19632 0.820677 10
      vertex 3.06826 1.21481 10
      vertex 3.19632 0.820677 0
    endloop
  endfacet
  facet normal -0.951056 -0.309017 0
    outer loop
      vertex 3.19632 0.820677 0
      vertex 3.06826 1.21481 10
      vertex 3.06826 1.21481 0
    endloop
  endfacet
  facet normal -0.982287 -0.187383 0
    outer loop
      vertex 3.27398 0.4136 10
      vertex 3.19632 0.820677 10
      vertex 3.27398 0.4136 0
    endloop
  endfacet
  facet normal -0.982287 -0.187383 0
    outer loop
      vertex 3.27398 0.4136 0
      vertex 3.19632 0.820677 10
      vertex 3.19632 0.820677 0
    endloop
  endfacet
  facet normal -0.998027 -0.0627893 0
    outer loop
      vertex 3.3 0 10
      vertex 3.27398 0.4136 10
      vertex 3.3 0 0
    endloop
  endfacet
  facet normal -0.998027 -0.0627893 0
    outer loop
      vertex 3.3 0 0
      vertex 3.27398 0.4136 10
      vertex 3.27398 0.4136 0
    endloop
  endfacet
  facet normal -0.998027 0.0627893 0
    outer loop
      vertex 3.3 0 10
      vertex 3.3 0 0
      vertex 3.27398 -0.4136 10
    endloop
  endfacet
  facet normal -0.998027 0.0627893 0
    outer loop
      vertex 3.27398 -0.4136 10
      vertex 3.3 0 0
      vertex 3.27398 -0.4136 0
    endloop
  endfacet
  facet normal -0.982287 0.187383 0
    outer loop
      vertex 3.27398 -0.4136 10
      vertex 3.27398 -0.4136 0
      vertex 3.19632 -0.820677 10
    endloop
  endfacet
  facet normal -0.982287 0.187383 0
    outer loop
      vertex 3.19632 -0.820677 10
      vertex 3.27398 -0.4136 0
      vertex 3.19632 -0.820677 0
    endloop
  endfacet
  facet normal -0.951056 0.309017 0
    outer loop
      vertex 3.19632 -0.820677 10
      vertex 3.19632 -0.820677 0
      vertex 3.06826 -1.21481 10
    endloop
  endfacet
  facet normal -0.951056 0.309017 0
    outer loop
      vertex 3.06826 -1.21481 10
      vertex 3.19632 -0.820677 0
      vertex 3.06826 -1.21481 0
    endloop
  endfacet
  facet normal -0.904827 0.425779 0
    outer loop
      vertex 3.06826 -1.21481 10
      vertex 3.06826 -1.21481 0
      vertex 2.89181 -1.58979 10
    endloop
  endfacet
  facet normal -0.904827 0.425779 0
    outer loop
      vertex 2.89181 -1.58979 10
      vertex 3.06826 -1.21481 0
      vertex 2.89181 -1.58979 0
    endloop
  endfacet
  facet normal -0.844328 0.535827 0
    outer loop
      vertex 2.89181 -1.58979 10
      vertex 2.89181 -1.58979 0
      vertex 2.66976 -1.93969 10
    endloop
  endfacet
  facet normal -0.844328 0.535827 0
    outer loop
      vertex 2.66976 -1.93969 10
      vertex 2.89181 -1.58979 0
      vertex 2.66976 -1.93969 0
    endloop
  endfacet
  facet normal -0.770513 0.637425 0
    outer loop
      vertex 2.66976 -1.93969 10
      vertex 2.66976 -1.93969 0
      vertex 2.4056 -2.259 10
    endloop
  endfacet
  facet normal -0.770513 0.637425 0
    outer loop
      vertex 2.4056 -2.259 10
      vertex 2.66976 -1.93969 0
      vertex 2.4056 -2.259 0
    endloop
  endfacet
  facet normal -0.684548 0.728967 0
    outer loop
      vertex 2.4056 -2.259 10
      vertex 2.4056 -2.259 0
      vertex 2.1035 -2.54269 10
    endloop
  endfacet
  facet normal -0.684548 0.728967 0
    outer loop
      vertex 2.1035 -2.54269 10
      vertex 2.4056 -2.259 0
      vertex 2.1035 -2.54269 0
    endloop
  endfacet
  facet normal -0.587784 0.809018 0
    outer loop
      vertex 2.1035 -2.54269 10
      vertex 2.1035 -2.54269 0
      vertex 1.76823 -2.78628 10
    endloop
  endfacet
  facet normal -0.587784 0.809018 0
    outer loop
      vertex 1.76823 -2.78628 10
      vertex 2.1035 -2.54269 0
      vertex 1.76823 -2.78628 0
    endloop
  endfacet
  facet normal -0.481754 0.876306 0
    outer loop
      vertex 1.76823 -2.78628 10
      vertex 1.76823 -2.78628 0
      vertex 1.40507 -2.98593 10
    endloop
  endfacet
  facet normal -0.481754 0.876306 0
    outer loop
      vertex 1.40507 -2.98593 10
      vertex 1.76823 -2.78628 0
      vertex 1.40507 -2.98593 0
    endloop
  endfacet
  facet normal -0.368126 0.929776 0
    outer loop
      vertex 1.40507 -2.98593 10
      vertex 1.40507 -2.98593 0
      vertex 1.01976 -3.13849 10
    endloop
  endfacet
  facet normal -0.368126 0.929776 0
    outer loop
      vertex 1.01976 -3.13849 10
      vertex 1.40507 -2.98593 0
      vertex 1.01976 -3.13849 0
    endloop
  endfacet
  facet normal -0.248689 0.968583 0
    outer loop
      vertex 1.01976 -3.13849 10
      vertex 1.01976 -3.13849 0
      vertex 0.618358 -3.24155 10
    endloop
  endfacet
  facet normal -0.248689 0.968583 0
    outer loop
      vertex 0.618358 -3.24155 10
      vertex 1.01976 -3.13849 0
      vertex 0.618358 -3.24155 0
    endloop
  endfacet
  facet normal -0.125333 0.992115 0
    outer loop
      vertex 0.618358 -3.24155 10
      vertex 0.618358 -3.24155 0
      vertex 0.207209 -3.29349 10
    endloop
  endfacet
  facet normal -0.125333 0.992115 0
    outer loop
      vertex 0.207209 -3.29349 10
      vertex 0.618358 -3.24155 0
      vertex 0.207209 -3.29349 0
    endloop
  endfacet
  facet normal 0 1 0
    outer loop
      vertex 0.207209 -3.29349 10
      vertex 0.207209 -3.29349 0
      vertex -0.207209 -3.29349 10
    endloop
  endfacet
  facet normal 0 1 0
    outer loop
      vertex -0.207209 -3.29349 10
      vertex 0.207209 -3.29349 0
      vertex -0.207209 -3.29349 0
    endloop
  endfacet
  facet normal 0.125333 0.992115 0
    outer loop
      vertex -0.207209 -3.29349 10
      vertex -0.207209 -3.29349 0
      vertex -0.618358 -3.24155 10
    endloop
  endfacet
  facet normal 0.125333 0.992115 0
    outer loop
      vertex -0.618358 -3.24155 10
      vertex -0.207209 -3.29349 0
      vertex -0.618358 -3.24155 0
    endloop
  endfacet
  facet normal 0.248689 0.968583 0
    outer loop
      vertex -0.618358 -3.24155 10
      vertex -0.618358 -3.24155 0
      vertex -1.01976 -3.13849 10
    endloop
  endfacet
  facet normal 0.248689 0.968583 0
    outer loop
      vertex -1.01976 -3.13849 10
      vertex -0.618358 -3.24155 0
      vertex -1.01976 -3.13849 0
    endloop
  endfacet
  facet normal 0.368126 0.929776 0
    outer loop
      vertex -1.01976 -3.13849 10
      vertex -1.01976 -3.13849 0
      vertex -1.40507 -2.98593 10
    endloop
  endfacet
  facet normal 0.368126 0.929776 0
    outer loop
      vertex -1.40507 -2.98593 10
      vertex -1.01976 -3.13849 0
      vertex -1.40507 -2.98593 0
    endloop
  endfacet
  facet normal 0.481754 0.876306 0
    outer loop
      vertex -1.40507 -2.98593 10
      vertex -1.40507 -2.98593 0
      vertex -1.76823 -2.78628 10
    endloop
  endfacet
  facet normal 0.481754 0.876306 0
    outer loop
      vertex -1.76823 -2.78628 10
      vertex -1.40507 -2.98593 0
      vertex -1.76823 -2.78628 0
    endloop
  endfacet
  facet normal 0.587784 0.809018 0
    outer loop
      vertex -1.76823 -2.78628 10
      vertex -1.76823 -2.78628 0
      vertex -2.1035 -2.54269 10
    endloop
  endfacet
  facet normal 0.587784 0.809018 0
    outer loop
      vertex -2.1035 -2.54269 10
      vertex -1.76823 -2.78628 0
      vertex -2.1035 -2.54269 0
    endloop
  endfacet
  facet normal 0.684548 0.728967 0
    outer loop
      vertex -2.1035 -2.54269 10
      vertex -2.1035 -2.54269 0
      vertex -2.4056 -2.259 10
    endloop
  endfacet
  facet normal 0.684548 0.728967 0
    outer loop
      vertex -2.4056 -2.259 10
      vertex -2.1035 -2.54269 0
      vertex -2.4056 -2.259 0
    endloop
  endfacet
  facet normal 0.770513 0.637425 0
    outer loop
      vertex -2.66976 -1.93969 10
      vertex -2.4056 -2.259 10
      vertex -2.4056 -2.259 0
    endloop
  endfacet
  facet normal 0.770513 0.637425 0
    outer loop
      vertex -2.66976 -1.93969 0
      vertex -2.66976 -1.93969 10
      vertex -2.4056 -2.259 0
    endloop
  endfacet
  facet normal 0.844328 0.535827 0
    outer loop
      vertex -2.89181 -1.58979 10
      vertex -2.66976 -1.93969 10
      vertex -2.66976 -1.93969 0
    endloop
  endfacet
  facet normal 0.844328 0.535827 0
    outer loop
      vertex -2.89181 -1.58979 0
      vertex -2.89181 -1.58979 10
      vertex -2.66976 -1.93969 0
    endloop
  endfacet
  facet normal 0.904827 0.425779 0
    outer loop
      vertex -3.06826 -1.21481 10
      vertex -2.89181 -1.58979 10
      vertex -2.89181 -1.58979 0
    endloop
  endfacet
  facet normal 0.904827 0.425779 0
    outer loop
      vertex -3.06826 -1.21481 0
      vertex -3.06826 -1.21481 10
      vertex -2.89181 -1.58979 0
    endloop
  endfacet
  facet normal 0.951056 0.309017 0
    outer loop
      vertex -3.19632 -0.820677 10
      vertex -3.06826 -1.21481 10
      vertex -3.06826 -1.21481 0
    endloop
  endfacet
  facet normal 0.951056 0.309017 0
    outer loop
      vertex -3.19632 -0.820677 0
      vertex -3.19632 -0.820677 10
      vertex -3.06826 -1.21481 0
    endloop
  endfacet
  facet normal 0.982287 0.187383 0
    outer loop
      vertex -3.27398 -0.4136 10
      vertex -3.19632 -0.820677 10
      vertex -3.19632 -0.820677 0
    endloop
  endfacet
  facet normal 0.982287 0.187383 0
    outer loop
      vertex -3.27398 -0.4136 0
      vertex -3.27398 -0.4136 10
      vertex -3.19632 -0.820677 0
    endloop
  endfacet
  facet normal 0 0 1
    outer loop
      vertex -4.96057 0.626666 10
      vertex -5 0 10
      vertex -4.96057 -0.626666 10
    endloop
  endfacet
  facet normal 0 0 1
    outer loop
      vertex -4.64888 -1.84062 10
      vertex -4.96057 0.626666 10
      vertex -4.84292 -1.24345 10
    endloop
  endfacet
  facet normal 0 0 1
    outer loop
      vertex -4.84292 -1.24345 10
      vertex -4.96057 0.626666 10
      vertex -4.96057 -0.626666 10
    endloop
  endfacet
  facet normal 0 0 1
    outer loop
      vertex -4.38153 -2.40877 10
      vertex -4.96057 0.626666 10
      vertex -4.64888 -1.84062 10
    endloop
  endfacet
  facet normal 0 0 1
    outer loop
      vertex -4.04508 -2.93893 10
      vertex -4.96057 0.626666 10
      vertex -4.38153 -2.40877 10
    endloop
  endfacet
  facet normal 0 0 1
    outer loop
      vertex -3.64484 -3.42274 10
      vertex -4.96057 0.626666 10
      vertex -4.04508 -2.93893 10
    endloop
  endfacet
  facet normal 0 0 1
    outer loop
      vertex -3.18712 -3.85257 10
      vertex -4.96057 0.626666 10
      vertex -3.64484 -3.42274 10
    endloop
  endfacet
  facet normal 0 0 1
    outer loop
      vertex -2.67913 -4.22164 10
      vertex -4.96057 0.626666 10
      vertex -3.18712 -3.85257 10
    endloop
  endfacet
  facet normal 0 0 1
    outer loop
      vertex -2.1289 -4.52413 10
      vertex -4.96057 0.626666 10
      vertex -2.67913 -4.22164 10
    endloop
  endfacet
  facet normal 0 0 1
    outer loop
      vertex -1.54508 -4.75528 10
      vertex -4.96057 0.626666 10
      vertex -2.1289 -4.52413 10
    endloop
  endfacet
  facet normal 0 0 1
    outer loop
      vertex -0.936907 -4.91144 10
      vertex -4.96057 0.626666 10
      vertex -1.54508 -4.75528 10
    endloop
  endfacet
  facet normal 0 0 1
    outer loop
      vertex -0.313953 -4.99013 10
      vertex -4.96057 0.626666 10
      vertex -0.936907 -4.91144 10
    endloop
  endfacet
  facet normal 0 0 1
    outer loop
      vertex -2.4056 -2.259 10
      vertex -4.96057 0.626666 10
      vertex -0.313953 -4.99013 10
    endloop
  endfacet
  facet normal 0 0 1
    outer loop
      vertex -2.66976 -1.93969 10
      vertex -2.89181 -1.58979 10
      vertex -4.96057 0.626666 10
    endloop
  endfacet
  facet normal 0 0 1
    outer loop
      vertex -1.40507 -2.98593 10
      vertex -1.76823 -2.78628 10
      vertex 0.313953 -4.99013 10
    endloop
  endfacet
  facet normal 0 0 1
    outer loop
      vertex -0.618358 -3.24155 10
      vertex -1.01976 -3.13849 10
      vertex 0.936907 -4.91144 10
    endloop
  endfacet
  facet normal 0 0 1
    outer loop
      vertex 3.06826 -1.21481 10
      vertex 2.89181 -1.58979 10
      vertex 4.64888 -1.84062 10
    endloop
  endfacet
  facet normal 0 0 1
    outer loop
      vertex -3.27398 0.4136 10
      vertex -3.19632 0.820677 10
      vertex -4.96057 0.626666 10
    endloop
  endfacet
  facet normal 0 0 1
    outer loop
      vertex 2.89181 -1.58979 10
      vertex 2.66976 -1.93969 10
      vertex 4.38153 -2.40877 10
    endloop
  endfacet
  facet normal 0 0 1
    outer loop
      vertex 3.06826 1.21481 10
      vertex 3.19632 0.820677 10
      vertex 4.84292 1.24345 10
    endloop
  endfacet
  facet normal 0 0 1
    outer loop
      vertex 2.1035 2.54269 10
      vertex 2.4056 2.259 10
      vertex 4.04508 2.93893 10
    endloop
  endfacet
  facet normal 0 0 1
    outer loop
      vertex 1.01976 3.13849 10
      vertex 1.40507 2.98593 10
      vertex 3.18712 3.85257 10
    endloop
  endfacet
  facet normal 0 0 1
    outer loop
      vertex -1.01976 3.13849 10
      vertex -0.618358 3.24155 10
      vertex 1.54508 4.75528 10
    endloop
  endfacet
  facet normal 0 0 1
    outer loop
      vertex -0.207209 3.29349 10
      vertex 0.207209 3.29349 10
      vertex 2.1289 4.52413 10
    endloop
  endfacet
  facet normal 0 0 1
    outer loop
      vertex 0.313953 4.99013 10
      vertex -4.96057 0.626666 10
      vertex 0.936907 4.91144 10
    endloop
  endfacet
  facet normal 0 0 1
    outer loop
      vertex -0.313953 4.99013 10
      vertex -4.96057 0.626666 10
      vertex 0.313953 4.99013 10
    endloop
  endfacet
  facet normal 0 0 1
    outer loop
      vertex -0.936907 4.91144 10
      vertex -4.96057 0.626666 10
      vertex -0.313953 4.99013 10
    endloop
  endfacet
  facet normal 0 0 1
    outer loop
      vertex -1.54508 4.75528 10
      vertex -4.96057 0.626666 10
      vertex -0.936907 4.91144 10
    endloop
  endfacet
  facet normal 0 0 1
    outer loop
      vertex -2.1289 4.52413 10
      vertex -4.96057 0.626666 10
      vertex -1.54508 4.75528 10
    endloop
  endfacet
  facet normal 0 0 1
    outer loop
      vertex -2.67913 4.22164 10
      vertex -4.96057 0.626666 10
      vertex -2.1289 4.52413 10
    endloop
  endfacet
  facet normal 0 0 1
    outer loop
      vertex -3.18712 3.85257 10
      vertex -4.96057 0.626666 10
      vertex -2.67913 4.22164 10
    endloop
  endfacet
  facet normal 0 0 1
    outer loop
      vertex -3.64484 3.42274 10
      vertex -4.96057 0.626666 10
      vertex -3.18712 3.85257 10
    endloop
  endfacet
  facet normal 0 0 1
    outer loop
      vertex -4.04508 2.93893 10
      vertex -4.96057 0.626666 10
      vertex -3.64484 3.42274 10
    endloop
  endfacet
  facet normal 0 0 1
    outer loop
      vertex -4.38153 2.40877 10
      vertex -4.96057 0.626666 10
      vertex -4.04508 2.93893 10
    endloop
  endfacet
  facet normal 0 0 1
    outer loop
      vertex -4.64888 1.84062 10
      vertex -4.96057 0.626666 10
      vertex -4.38153 2.40877 10
    endloop
  endfacet
  facet normal 0 0 1
    outer loop
      vertex -4.84292 1.24345 10
      vertex -4.96057 0.626666 10
      vertex -4.64888 1.84062 10
    endloop
  endfacet
  facet normal 0 0 1
    outer loop
      vertex 0.618358 -3.24155 10
      vertex 0.207209 -3.29349 10
      vertex 2.1289 -4.52413 10
    endloop
  endfacet
  facet normal 0 0 1
    outer loop
      vertex 2.1035 -2.54269 10
      vertex 1.76823 -2.78628 10
      vertex 3.64484 -3.42274 10
    endloop
  endfacet
  facet normal 0 0 1
    outer loop
      vertex 3.19632 -0.820677 10
      vertex 3.06826 -1.21481 10
      vertex 4.84292 -1.24345 10
    endloop
  endfacet
  facet normal 0 0 1
    outer loop
      vertex -3.19632 0.820677 10
      vertex -3.06826 1.21481 10
      vertex -4.96057 0.626666 10
    endloop
  endfacet
  facet normal 0 0 1
    outer loop
      vertex 3.19632 0.820677 10
      vertex 3.27398 0.4136 10
      vertex 4.96057 0.626666 10
    endloop
  endfacet
  facet normal 0 0 1
    outer loop
      vertex 2.4056 2.259 10
      vertex 2.66976 1.93969 10
      vertex 4.38153 2.40877 10
    endloop
  endfacet
  facet normal 0 0 1
    outer loop
      vertex -2.89181 1.58979 10
      vertex -2.66976 1.93969 10
      vertex -4.96057 0.626666 10
    endloop
  endfacet
  facet normal 0 0 1
    outer loop
      vertex -3.06826 -1.21481 10
      vertex -3.19632 -0.820677 10
      vertex -4.96057 0.626666 10
    endloop
  endfacet
  facet normal 0 0 1
    outer loop
      vertex -1.76823 2.78628 10
      vertex -1.40507 2.98593 10
      vertex 0.936907 4.91144 10
    endloop
  endfacet
  facet normal 0 0 1
    outer loop
      vertex 0.207209 3.29349 10
      vertex 0.618358 3.24155 10
      vertex 2.67913 4.22164 10
    endloop
  endfacet
  facet normal 0 0 1
    outer loop
      vertex -2.1035 2.54269 10
      vertex -4.96057 0.626666 10
      vertex -2.4056 2.259 10
    endloop
  endfacet
  facet normal 0 0 1
    outer loop
      vertex 0.936907 4.91144 10
      vertex -4.96057 0.626666 10
      vertex -2.1035 2.54269 10
    endloop
  endfacet
  facet normal 0 0 1
    outer loop
      vertex 0.936907 4.91144 10
      vertex -2.1035 2.54269 10
      vertex -1.76823 2.78628 10
    endloop
  endfacet
  facet normal 0 0 1
    outer loop
      vertex 0.936907 4.91144 10
      vertex -1.40507 2.98593 10
      vertex 1.54508 4.75528 10
    endloop
  endfacet
  facet normal 0 0 1
    outer loop
      vertex -1.40507 2.98593 10
      vertex -1.01976 3.13849 10
      vertex 1.54508 4.75528 10
    endloop
  endfacet
  facet normal 0 0 1
    outer loop
      vertex 1.54508 4.75528 10
      vertex -0.618358 3.24155 10
      vertex 2.1289 4.52413 10
    endloop
  endfacet
  facet normal 0 0 1
    outer loop
      vertex -0.618358 3.24155 10
      vertex -0.207209 3.29349 10
      vertex 2.1289 4.52413 10
    endloop
  endfacet
  facet normal 0 0 1
    outer loop
      vertex 2.1289 4.52413 10
      vertex 0.207209 3.29349 10
      vertex 2.67913 4.22164 10
    endloop
  endfacet
  facet normal 0 0 1
    outer loop
      vertex -2.66976 1.93969 10
      vertex -2.4056 2.259 10
      vertex -4.96057 0.626666 10
    endloop
  endfacet
  facet normal 0 0 1
    outer loop
      vertex 2.67913 4.22164 10
      vertex 0.618358 3.24155 10
      vertex 3.18712 3.85257 10
    endloop
  endfacet
  facet normal 0 0 1
    outer loop
      vertex 0.618358 3.24155 10
      vertex 1.01976 3.13849 10
      vertex 3.18712 3.85257 10
    endloop
  endfacet
  facet normal 0 0 1
    outer loop
      vertex 3.18712 3.85257 10
      vertex 1.40507 2.98593 10
      vertex 3.64484 3.42274 10
    endloop
  endfacet
  facet normal 0 0 1
    outer loop
      vertex 1.40507 2.98593 10
      vertex 1.76823 2.78628 10
      vertex 3.64484 3.42274 10
    endloop
  endfacet
  facet normal 0 0 1
    outer loop
      vertex 3.64484 3.42274 10
      vertex 1.76823 2.78628 10
      vertex 4.04508 2.93893 10
    endloop
  endfacet
  facet normal 0 0 1
    outer loop
      vertex 1.76823 2.78628 10
      vertex 2.1035 2.54269 10
      vertex 4.04508 2.93893 10
    endloop
  endfacet
  facet normal 0 0 1
    outer loop
      vertex 4.04508 2.93893 10
      vertex 2.4056 2.259 10
      vertex 4.38153 2.40877 10
    endloop
  endfacet
  facet normal 0 0 1
    outer loop
      vertex 2.66976 1.93969 10
      vertex 2.89181 1.58979 10
      vertex 4.64888 1.84062 10
    endloop
  endfacet
  facet normal 0 0 1
    outer loop
      vertex 4.38153 2.40877 10
      vertex 2.66976 1.93969 10
      vertex 4.64888 1.84062 10
    endloop
  endfacet
  facet normal 0 0 1
    outer loop
      vertex -3.06826 1.21481 10
      vertex -2.89181 1.58979 10
      vertex -4.96057 0.626666 10
    endloop
  endfacet
  facet normal 0 0 1
    outer loop
      vertex 4.64888 1.84062 10
      vertex 2.89181 1.58979 10
      vertex 4.84292 1.24345 10
    endloop
  endfacet
  facet normal 0 0 1
    outer loop
      vertex 2.89181 1.58979 10
      vertex 3.06826 1.21481 10
      vertex 4.84292 1.24345 10
    endloop
  endfacet
  facet normal 0 0 1
    outer loop
      vertex 4.84292 1.24345 10
      vertex 3.19632 0.820677 10
      vertex 4.96057 0.626666 10
    endloop
  endfacet
  facet normal 0 0 1
    outer loop
      vertex 4.96057 0.626666 10
      vertex 3.27398 0.4136 10
      vertex 5 0 10
    endloop
  endfacet
  facet normal 0 0 1
    outer loop
      vertex 3.27398 0.4136 10
      vertex 3.3 0 10
      vertex 5 0 10
    endloop
  endfacet
  facet normal 0 0 1
    outer loop
      vertex 5 0 10
      vertex 3.3 0 10
      vertex 4.96057 -0.626666 10
    endloop
  endfacet
  facet normal 0 0 1
    outer loop
      vertex 4.96057 -0.626666 10
      vertex 3.27398 -0.4136 10
      vertex 4.84292 -1.24345 10
    endloop
  endfacet
  facet normal 0 0 1
    outer loop
      vertex 3.27398 -0.4136 10
      vertex 3.19632 -0.820677 10
      vertex 4.84292 -1.24345 10
    endloop
  endfacet
  facet normal 0 0 1
    outer loop
      vertex 4.84292 -1.24345 10
      vertex 3.06826 -1.21481 10
      vertex 4.64888 -1.84062 10
    endloop
  endfacet
  facet normal 0 0 1
    outer loop
      vertex 3.3 0 10
      vertex 3.27398 -0.4136 10
      vertex 4.96057 -0.626666 10
    endloop
  endfacet
  facet normal 0 0 1
    outer loop
      vertex 4.64888 -1.84062 10
      vertex 2.89181 -1.58979 10
      vertex 4.38153 -2.40877 10
    endloop
  endfacet
  facet normal 0 0 1
    outer loop
      vertex 4.38153 -2.40877 10
      vertex 2.66976 -1.93969 10
      vertex 4.04508 -2.93893 10
    endloop
  endfacet
  facet normal 0 0 1
    outer loop
      vertex 2.66976 -1.93969 10
      vertex 2.4056 -2.259 10
      vertex 4.04508 -2.93893 10
    endloop
  endfacet
  facet normal 0 0 1
    outer loop
      vertex 4.04508 -2.93893 10
      vertex 2.1035 -2.54269 10
      vertex 3.64484 -3.42274 10
    endloop
  endfacet
  facet normal 0 0 1
    outer loop
      vertex 3.64484 -3.42274 10
      vertex 1.76823 -2.78628 10
      vertex 3.18712 -3.85257 10
    endloop
  endfacet
  facet normal 0 0 1
    outer loop
      vertex 3.18712 -3.85257 10
      vertex 1.40507 -2.98593 10
      vertex 2.67913 -4.22164 10
    endloop
  endfacet
  facet normal 0 0 1
    outer loop
      vertex 1.40507 -2.98593 10
      vertex 1.01976 -3.13849 10
      vertex 2.67913 -4.22164 10
    endloop
  endfacet
  facet normal 0 0 1
    outer loop
      vertex 2.67913 -4.22164 10
      vertex 0.618358 -3.24155 10
      vertex 2.1289 -4.52413 10
    endloop
  endfacet
  facet normal 0 0 1
    outer loop
      vertex 2.1289 -4.52413 10
      vertex 0.207209 -3.29349 10
      vertex 1.54508 -4.75528 10
    endloop
  endfacet
  facet normal 0 0 1
    outer loop
      vertex -2.89181 -1.58979 10
      vertex -3.06826 -1.21481 10
      vertex -4.96057 0.626666 10
    endloop
  endfacet
  facet normal 0 0 1
    outer loop
      vertex 0.207209 -3.29349 10
      vertex -0.207209 -3.29349 10
      vertex 1.54508 -4.75528 10
    endloop
  endfacet
  facet normal 0 0 1
    outer loop
      vertex 1.54508 -4.75528 10
      vertex -0.618358 -3.24155 10
      vertex 0.936907 -4.91144 10
    endloop
  endfacet
  facet normal 0 0 1
    outer loop
      vertex 0.936907 -4.91144 10
      vertex -1.01976 -3.13849 10
      vertex 0.313953 -4.99013 10
    endloop
  endfacet
  facet normal 0 0 1
    outer loop
      vertex -1.01976 -3.13849 10
      vertex -1.40507 -2.98593 10
      vertex 0.313953 -4.99013 10
    endloop
  endfacet
  facet normal 0 0 1
    outer loop
      vertex 0.313953 -4.99013 10
      vertex -1.76823 -2.78628 10
      vertex -0.313953 -4.99013 10
    endloop
  endfacet
  facet normal 0 0 1
    outer loop
      vertex -1.76823 -2.78628 10
      vertex -2.1035 -2.54269 10
      vertex -0.313953 -4.99013 10
    endloop
  endfacet
  facet normal 0 0 1
    outer loop
      vertex -2.1035 -2.54269 10
      vertex -2.4056 -2.259 10
      vertex -0.313953 -4.99013 10
    endloop
  endfacet
  facet normal 0 0 1
    outer loop
      vertex -2.66976 -1.93969 10
      vertex -4.96057 0.626666 10
      vertex -2.4056 -2.259 10
    endloop
  endfacet
  facet normal 0 0 1
    outer loop
      vertex 1.01976 -3.13849 10
      vertex 0.618358 -3.24155 10
      vertex 2.67913 -4.22164 10
    endloop
  endfacet
  facet normal 0 0 1
    outer loop
      vertex -0.207209 -3.29349 10
      vertex -0.618358 -3.24155 10
      vertex 1.54508 -4.75528 10
    endloop
  endfacet
  facet normal 0 0 1
    outer loop
      vertex -3.19632 -0.820677 10
      vertex -3.27398 -0.4136 10
      vertex -4.96057 0.626666 10
    endloop
  endfacet
  facet normal 0 0 1
    outer loop
      vertex -3.27398 -0.4136 10
      vertex -3.3 0 10
      vertex -4.96057 0.626666 10
    endloop
  endfacet
  facet normal 0 0 1
    outer loop
      vertex 1.76823 -2.78628 10
      vertex 1.40507 -2.98593 10
      vertex 3.18712 -3.85257 10
    endloop
  endfacet
  facet normal 0 0 1
    outer loop
      vertex 2.4056 -2.259 10
      vertex 2.1035 -2.54269 10
      vertex 4.04508 -2.93893 10
    endloop
  endfacet
  facet normal 0 0 1
    outer loop
      vertex -3.3 0 10
      vertex -3.27398 0.4136 10
      vertex -4.96057 0.626666 10
    endloop
  endfacet
endsolid OpenSCAD_Model
