solid OpenSCAD_Model
  facet normal -1 0 0
    outer loop
      vertex -40 -97.5 -5
      vertex -40 -97.5 5
      vertex -40 97.5 -5
    endloop
  endfacet
  facet normal -1 0 0
    outer loop
      vertex -40 97.5 -5
      vertex -40 -97.5 5
      vertex -40 97.5 5
    endloop
  endfacet
  facet normal 0 -1 0
    outer loop
      vertex -40 -97.5 5
      vertex -40 -97.5 -5
      vertex 40 -97.5 -5
    endloop
  endfacet
  facet normal 0 -1 0
    outer loop
      vertex 40 -97.5 5
      vertex -40 -97.5 5
      vertex 40 -97.5 -5
    endloop
  endfacet
  facet normal 0 0 -1
    outer loop
      vertex 0 91.9096 -5
      vertex -40 97.5 -5
      vertex 40 97.5 -5
    endloop
  endfacet
  facet normal 0 0 -1
    outer loop
      vertex -40 -97.5 -5
      vertex -40 97.5 -5
      vertex -34.4092 -84.9659 -5
    endloop
  endfacet
  facet normal 0 0 -1
    outer loop
      vertex -31 -31.5 -5
      vertex -27.8703 -82.2032 -5
      vertex -32.0365 -32.9266 -5
    endloop
  endfacet
  facet normal 0 0 -1
    outer loop
      vertex -40 -97.5 -5
      vertex -34.4092 -84.9659 -5
      vertex -34.7901 -86.8965 -5
    endloop
  endfacet
  facet normal 0 0 -1
    outer loop
      vertex -40 -97.5 -5
      vertex -34.7901 -86.8965 -5
      vertex -34.4092 -88.823 -5
    endloop
  endfacet
  facet normal 0 0 -1
    outer loop
      vertex -40 -97.5 -5
      vertex -34.4092 -88.823 -5
      vertex -33.3243 -90.4521 -5
    endloop
  endfacet
  facet normal 0 0 -1
    outer loop
      vertex -40 -97.5 -5
      vertex -33.3243 -90.4521 -5
      vertex -31.7007 -91.5357 -5
    endloop
  endfacet
  facet normal 0 0 -1
    outer loop
      vertex -40 -97.5 -5
      vertex -31.7007 -91.5357 -5
      vertex -29.7855 -91.909 -5
    endloop
  endfacet
  facet normal 0 0 -1
    outer loop
      vertex -40 -97.5 -5
      vertex -29.7855 -91.909 -5
      vertex 40 -97.5 -5
    endloop
  endfacet
  facet normal 0 0 -1
    outer loop
      vertex -26.2467 -90.4139 -5
      vertex 40 -97.5 -5
      vertex -27.8703 -91.5151 -5
    endloop
  endfacet
  facet normal 0 0 -1
    outer loop
      vertex -25.1619 -88.7731 -5
      vertex 40 -97.5 -5
      vertex -26.2467 -90.4139 -5
    endloop
  endfacet
  facet normal 0 0 -1
    outer loop
      vertex -24.7809 -86.8425 -5
      vertex 40 -97.5 -5
      vertex -25.1619 -88.7731 -5
    endloop
  endfacet
  facet normal 0 0 -1
    outer loop
      vertex -25.1619 -84.916 -5
      vertex 40 -97.5 -5
      vertex -24.7809 -86.8425 -5
    endloop
  endfacet
  facet normal 0 0 -1
    outer loop
      vertex -26.2467 -83.2869 -5
      vertex -40 97.5 -5
      vertex -25.1619 -84.916 -5
    endloop
  endfacet
  facet normal 0 0 -1
    outer loop
      vertex -33.7135 -30.6183 -5
      vertex -40 97.5 -5
      vertex -32.0365 -30.0734 -5
    endloop
  endfacet
  facet normal 0 0 -1
    outer loop
      vertex -31 -31.5 -5
      vertex -40 97.5 -5
      vertex -26.2467 -83.2869 -5
    endloop
  endfacet
  facet normal 0 0 -1
    outer loop
      vertex -32.0365 -32.9266 -5
      vertex -29.7855 -81.83 -5
      vertex -31.7007 -82.2239 -5
    endloop
  endfacet
  facet normal 0 0 -1
    outer loop
      vertex -33.3243 -83.3251 -5
      vertex -40 97.5 -5
      vertex -31.7007 -82.2239 -5
    endloop
  endfacet
  facet normal 0 0 -1
    outer loop
      vertex -34.4092 -84.9659 -5
      vertex -40 97.5 -5
      vertex -33.3243 -83.3251 -5
    endloop
  endfacet
  facet normal 0 0 -1
    outer loop
      vertex -33.7135 -32.3817 -5
      vertex -40 97.5 -5
      vertex -33.7135 -30.6183 -5
    endloop
  endfacet
  facet normal 0 0 -1
    outer loop
      vertex -32.0365 -30.0734 -5
      vertex -40 97.5 -5
      vertex -31 -31.5 -5
    endloop
  endfacet
  facet normal 0 0 -1
    outer loop
      vertex -31.7007 -82.2239 -5
      vertex -40 97.5 -5
      vertex -33.7135 -32.3817 -5
    endloop
  endfacet
  facet normal 0 0 -1
    outer loop
      vertex -32.0365 -32.9266 -5
      vertex -31.7007 -82.2239 -5
      vertex -33.7135 -32.3817 -5
    endloop
  endfacet
  facet normal 0 0 -1
    outer loop
      vertex -29.7855 -81.83 -5
      vertex -32.0365 -32.9266 -5
      vertex -27.8703 -82.2032 -5
    endloop
  endfacet
  facet normal 0 0 -1
    outer loop
      vertex -33.7135 32.3817 -5
      vertex -40 97.5 -5
      vertex -32.0365 32.9266 -5
    endloop
  endfacet
  facet normal 0 0 -1
    outer loop
      vertex -27.8703 -82.2032 -5
      vertex -31 -31.5 -5
      vertex -26.2467 -83.2869 -5
    endloop
  endfacet
  facet normal 0 0 -1
    outer loop
      vertex 31.2865 -32.3817 -5
      vertex 40 -97.5 -5
      vertex 34.4092 -84.9659 -5
    endloop
  endfacet
  facet normal 0 0 -1
    outer loop
      vertex -33.7135 30.6183 -5
      vertex -40 97.5 -5
      vertex -33.7135 32.3817 -5
    endloop
  endfacet
  facet normal 0 0 -1
    outer loop
      vertex -31 31.5 -5
      vertex -40 97.5 -5
      vertex -20 72.5 -5
    endloop
  endfacet
  facet normal 0 0 -1
    outer loop
      vertex -25.1619 -84.916 -5
      vertex -40 97.5 -5
      vertex -33.7135 30.6183 -5
    endloop
  endfacet
  facet normal 0 0 -1
    outer loop
      vertex -20 -72.5 -5
      vertex -32.0365 30.0734 -5
      vertex -31 31.5 -5
    endloop
  endfacet
  facet normal 0 0 -1
    outer loop
      vertex -32.0365 32.9266 -5
      vertex -40 97.5 -5
      vertex -31 31.5 -5
    endloop
  endfacet
  facet normal 0 0 -1
    outer loop
      vertex 20 72.5 -5
      vertex 34.4092 -84.9659 -5
      vertex 33.3243 -83.3251 -5
    endloop
  endfacet
  facet normal 0 0 -1
    outer loop
      vertex 20 72.5 -5
      vertex 31.2865 -32.3817 -5
      vertex 34.4092 -84.9659 -5
    endloop
  endfacet
  facet normal 0 0 -1
    outer loop
      vertex 20 72.5 -5
      vertex -20 72.5 -5
      vertex 40 97.5 -5
    endloop
  endfacet
  facet normal 0 0 -1
    outer loop
      vertex -25.1619 -84.916 -5
      vertex -20 -72.5 -5
      vertex 40 -97.5 -5
    endloop
  endfacet
  facet normal 0 0 -1
    outer loop
      vertex 3.53553 83.3066 -5
      vertex 40 97.5 -5
      vertex 1.91342 82.2141 -5
    endloop
  endfacet
  facet normal 0 0 -1
    outer loop
      vertex 31.2865 32.3817 -5
      vertex 20 72.5 -5
      vertex 40 97.5 -5
    endloop
  endfacet
  facet normal 0 0 -1
    outer loop
      vertex -20 72.5 -5
      vertex -40 97.5 -5
      vertex -5 86.8701 -5
    endloop
  endfacet
  facet normal 0 0 -1
    outer loop
      vertex -20 72.5 -5
      vertex -5 86.8701 -5
      vertex -4.6194 84.9415 -5
    endloop
  endfacet
  facet normal 0 0 -1
    outer loop
      vertex -20 72.5 -5
      vertex -4.6194 84.9415 -5
      vertex -3.53553 83.3066 -5
    endloop
  endfacet
  facet normal 0 0 -1
    outer loop
      vertex -20 72.5 -5
      vertex -3.53553 83.3066 -5
      vertex -1.91342 82.2141 -5
    endloop
  endfacet
  facet normal 0 0 -1
    outer loop
      vertex -20 72.5 -5
      vertex -1.91342 82.2141 -5
      vertex 0 81.8305 -5
    endloop
  endfacet
  facet normal 0 0 -1
    outer loop
      vertex -20 72.5 -5
      vertex 0 81.8305 -5
      vertex 1.91342 82.2141 -5
    endloop
  endfacet
  facet normal 0 0 -1
    outer loop
      vertex -20 72.5 -5
      vertex 1.91342 82.2141 -5
      vertex 40 97.5 -5
    endloop
  endfacet
  facet normal 0 0 -1
    outer loop
      vertex 4.6194 84.9415 -5
      vertex 40 97.5 -5
      vertex 3.53553 83.3066 -5
    endloop
  endfacet
  facet normal 0 0 -1
    outer loop
      vertex 5 86.8701 -5
      vertex 40 97.5 -5
      vertex 4.6194 84.9415 -5
    endloop
  endfacet
  facet normal 0 0 -1
    outer loop
      vertex 4.6194 88.7986 -5
      vertex 40 97.5 -5
      vertex 5 86.8701 -5
    endloop
  endfacet
  facet normal 0 0 -1
    outer loop
      vertex 3.53553 90.4335 -5
      vertex 40 97.5 -5
      vertex 4.6194 88.7986 -5
    endloop
  endfacet
  facet normal 0 0 -1
    outer loop
      vertex 29.7855 -91.909 -5
      vertex 40 -97.5 -5
      vertex 27.8703 -91.5151 -5
    endloop
  endfacet
  facet normal 0 0 -1
    outer loop
      vertex -1.91342 91.526 -5
      vertex -40 97.5 -5
      vertex 0 91.9096 -5
    endloop
  endfacet
  facet normal 0 0 -1
    outer loop
      vertex -3.53553 90.4335 -5
      vertex -40 97.5 -5
      vertex -1.91342 91.526 -5
    endloop
  endfacet
  facet normal 0 0 -1
    outer loop
      vertex 3.53553 90.4335 -5
      vertex 1.91342 91.526 -5
      vertex 40 97.5 -5
    endloop
  endfacet
  facet normal 0 0 -1
    outer loop
      vertex 1.91342 91.526 -5
      vertex 0 91.9096 -5
      vertex 40 97.5 -5
    endloop
  endfacet
  facet normal 0 0 -1
    outer loop
      vertex -4.6194 88.7986 -5
      vertex -40 97.5 -5
      vertex -3.53553 90.4335 -5
    endloop
  endfacet
  facet normal 0 0 -1
    outer loop
      vertex -5 86.8701 -5
      vertex -40 97.5 -5
      vertex -4.6194 88.7986 -5
    endloop
  endfacet
  facet normal 0 0 -1
    outer loop
      vertex -20 -72.5 -5
      vertex 20 -72.5 -5
      vertex 24.7809 -86.8425 -5
    endloop
  endfacet
  facet normal 0 0 -1
    outer loop
      vertex -20 -72.5 -5
      vertex 24.7809 -86.8425 -5
      vertex 25.1619 -88.7731 -5
    endloop
  endfacet
  facet normal 0 0 -1
    outer loop
      vertex -20 -72.5 -5
      vertex 25.1619 -88.7731 -5
      vertex 26.2467 -90.4139 -5
    endloop
  endfacet
  facet normal 0 0 -1
    outer loop
      vertex -20 -72.5 -5
      vertex 26.2467 -90.4139 -5
      vertex 27.8703 -91.5151 -5
    endloop
  endfacet
  facet normal 0 0 -1
    outer loop
      vertex -20 -72.5 -5
      vertex 27.8703 -91.5151 -5
      vertex 40 -97.5 -5
    endloop
  endfacet
  facet normal 0 0 -1
    outer loop
      vertex 31.7007 -91.5357 -5
      vertex 40 -97.5 -5
      vertex 29.7855 -91.909 -5
    endloop
  endfacet
  facet normal 0 0 -1
    outer loop
      vertex 31.2865 -30.6183 -5
      vertex 20 72.5 -5
      vertex 32.9635 -30.0734 -5
    endloop
  endfacet
  facet normal 0 0 -1
    outer loop
      vertex 34.4092 -88.823 -5
      vertex 40 -97.5 -5
      vertex 33.3243 -90.4521 -5
    endloop
  endfacet
  facet normal 0 0 -1
    outer loop
      vertex 32.9635 -30.0734 -5
      vertex 40 97.5 -5
      vertex 34 -31.5 -5
    endloop
  endfacet
  facet normal 0 0 -1
    outer loop
      vertex 31.7007 -91.5357 -5
      vertex 33.3243 -90.4521 -5
      vertex 40 -97.5 -5
    endloop
  endfacet
  facet normal 0 0 -1
    outer loop
      vertex -20 -72.5 -5
      vertex -31 31.5 -5
      vertex -20 72.5 -5
    endloop
  endfacet
  facet normal 0 0 -1
    outer loop
      vertex 34.7901 -86.8965 -5
      vertex 40 -97.5 -5
      vertex 34.4092 -88.823 -5
    endloop
  endfacet
  facet normal 0 0 -1
    outer loop
      vertex 27.8703 -82.2032 -5
      vertex 20 -72.5 -5
      vertex 29.7855 -81.83 -5
    endloop
  endfacet
  facet normal 0 0 -1
    outer loop
      vertex 34.7901 -86.8965 -5
      vertex 34.4092 -84.9659 -5
      vertex 40 -97.5 -5
    endloop
  endfacet
  facet normal 0 0 -1
    outer loop
      vertex 20 72.5 -5
      vertex 29.7855 -81.83 -5
      vertex 20 -72.5 -5
    endloop
  endfacet
  facet normal 0 0 -1
    outer loop
      vertex 20 72.5 -5
      vertex 31.7007 -82.2239 -5
      vertex 29.7855 -81.83 -5
    endloop
  endfacet
  facet normal 0 0 -1
    outer loop
      vertex 20 72.5 -5
      vertex 33.3243 -83.3251 -5
      vertex 31.7007 -82.2239 -5
    endloop
  endfacet
  facet normal 0 0 -1
    outer loop
      vertex 26.2467 -83.2869 -5
      vertex 20 -72.5 -5
      vertex 27.8703 -82.2032 -5
    endloop
  endfacet
  facet normal 0 0 -1
    outer loop
      vertex 25.1619 -84.916 -5
      vertex 20 -72.5 -5
      vertex 26.2467 -83.2869 -5
    endloop
  endfacet
  facet normal 0 0 -1
    outer loop
      vertex 24.7809 -86.8425 -5
      vertex 20 -72.5 -5
      vertex 25.1619 -84.916 -5
    endloop
  endfacet
  facet normal 0 0 -1
    outer loop
      vertex 32.9635 -32.9266 -5
      vertex 40 -97.5 -5
      vertex 31.2865 -32.3817 -5
    endloop
  endfacet
  facet normal 0 0 -1
    outer loop
      vertex 40 -97.5 -5
      vertex 32.9635 -32.9266 -5
      vertex 34 -31.5 -5
    endloop
  endfacet
  facet normal 0 0 -1
    outer loop
      vertex 40 -97.5 -5
      vertex 34 -31.5 -5
      vertex 40 97.5 -5
    endloop
  endfacet
  facet normal 0 0 -1
    outer loop
      vertex 32.9635 30.0734 -5
      vertex 32.9635 -30.0734 -5
      vertex 31.2865 30.6183 -5
    endloop
  endfacet
  facet normal 0 0 -1
    outer loop
      vertex 31.2865 30.6183 -5
      vertex 20 72.5 -5
      vertex 31.2865 32.3817 -5
    endloop
  endfacet
  facet normal 0 0 -1
    outer loop
      vertex 32.9635 32.9266 -5
      vertex 31.2865 32.3817 -5
      vertex 40 97.5 -5
    endloop
  endfacet
  facet normal 0 0 -1
    outer loop
      vertex 32.9635 -30.0734 -5
      vertex 20 72.5 -5
      vertex 31.2865 30.6183 -5
    endloop
  endfacet
  facet normal 0 0 -1
    outer loop
      vertex 32.9635 32.9266 -5
      vertex 40 97.5 -5
      vertex 34 31.5 -5
    endloop
  endfacet
  facet normal 0 0 -1
    outer loop
      vertex 32.9635 -30.0734 -5
      vertex 32.9635 30.0734 -5
      vertex 34 31.5 -5
    endloop
  endfacet
  facet normal 0 0 -1
    outer loop
      vertex 32.9635 -30.0734 -5
      vertex 34 31.5 -5
      vertex 40 97.5 -5
    endloop
  endfacet
  facet normal 0 0 -1
    outer loop
      vertex -27.8703 -91.5151 -5
      vertex 40 -97.5 -5
      vertex -29.7855 -91.909 -5
    endloop
  endfacet
  facet normal 0 0 -1
    outer loop
      vertex 20 72.5 -5
      vertex 31.2865 -30.6183 -5
      vertex 31.2865 -32.3817 -5
    endloop
  endfacet
  facet normal 0 0 -1
    outer loop
      vertex -32.0365 30.0734 -5
      vertex -20 -72.5 -5
      vertex -25.1619 -84.916 -5
    endloop
  endfacet
  facet normal 0 0 -1
    outer loop
      vertex -32.0365 30.0734 -5
      vertex -25.1619 -84.916 -5
      vertex -33.7135 30.6183 -5
    endloop
  endfacet
  facet normal 0 1 0
    outer loop
      vertex -40 97.5 -5
      vertex -40 97.5 5
      vertex 40 97.5 -5
    endloop
  endfacet
  facet normal 0 1 0
    outer loop
      vertex 40 97.5 -5
      vertex -40 97.5 5
      vertex 40 97.5 5
    endloop
  endfacet
  facet normal 0 0 1
    outer loop
      vertex -27.4414 -90.254 5
      vertex -40 -97.5 5
      vertex 40 -97.5 5
    endloop
  endfacet
  facet normal 0 0 1
    outer loop
      vertex -27.4414 -90.254 5
      vertex -29.3566 -90.648 5
      vertex -40 -97.5 5
    endloop
  endfacet
  facet normal 0 0 1
    outer loop
      vertex -40 97.5 5
      vertex -40 -97.5 5
      vertex -34.3611 -85.6355 5
    endloop
  endfacet
  facet normal 0 0 1
    outer loop
      vertex -24.352 -85.5814 5
      vertex -24.7329 -87.512 5
      vertex 40 -97.5 5
    endloop
  endfacet
  facet normal 0 0 1
    outer loop
      vertex -40 97.5 5
      vertex -34.3611 -85.6355 5
      vertex -33.9802 -83.7049 5
    endloop
  endfacet
  facet normal 0 0 1
    outer loop
      vertex -40 97.5 5
      vertex -33.9802 -83.7049 5
      vertex -32.8953 -82.0641 5
    endloop
  endfacet
  facet normal 0 0 1
    outer loop
      vertex -33.7135 -32.3817 5
      vertex -32.8953 -82.0641 5
      vertex -31.2717 -80.9629 5
    endloop
  endfacet
  facet normal 0 0 1
    outer loop
      vertex -25.8178 -82.0258 5
      vertex -24.7329 -83.6549 5
      vertex 40 -97.5 5
    endloop
  endfacet
  facet normal 0 0 1
    outer loop
      vertex -31 -31.5 5
      vertex -32.0365 -32.9266 5
      vertex -29.3566 -80.5689 5
    endloop
  endfacet
  facet normal 0 0 1
    outer loop
      vertex -20 -72.5 5
      vertex -27.4414 -80.9422 5
      vertex 40 -97.5 5
    endloop
  endfacet
  facet normal 0 0 1
    outer loop
      vertex 20 72.5 5
      vertex 20 -72.5 5
      vertex 27.4414 -80.9422 5
    endloop
  endfacet
  facet normal 0 0 1
    outer loop
      vertex -33.7135 -32.3817 5
      vertex -33.7135 -30.6183 5
      vertex -40 97.5 5
    endloop
  endfacet
  facet normal 0 0 1
    outer loop
      vertex -24.7329 -87.512 5
      vertex -25.8178 -89.1528 5
      vertex 40 -97.5 5
    endloop
  endfacet
  facet normal 0 0 1
    outer loop
      vertex -25.8178 -89.1528 5
      vertex -27.4414 -90.254 5
      vertex 40 -97.5 5
    endloop
  endfacet
  facet normal 0 0 1
    outer loop
      vertex -29.3566 -90.648 5
      vertex -31.2717 -90.2747 5
      vertex -40 -97.5 5
    endloop
  endfacet
  facet normal 0 0 1
    outer loop
      vertex -31 -31.5 5
      vertex -29.3566 -80.5689 5
      vertex -27.4414 -80.9422 5
    endloop
  endfacet
  facet normal 0 0 1
    outer loop
      vertex -32.8953 -89.191 5
      vertex -40 -97.5 5
      vertex -31.2717 -90.2747 5
    endloop
  endfacet
  facet normal 0 0 1
    outer loop
      vertex -33.9802 -87.5619 5
      vertex -40 -97.5 5
      vertex -32.8953 -89.191 5
    endloop
  endfacet
  facet normal 0 0 1
    outer loop
      vertex -34.3611 -85.6355 5
      vertex -40 -97.5 5
      vertex -33.9802 -87.5619 5
    endloop
  endfacet
  facet normal 0 0 1
    outer loop
      vertex -40 97.5 5
      vertex -32.8953 -82.0641 5
      vertex -33.7135 -32.3817 5
    endloop
  endfacet
  facet normal 0 0 1
    outer loop
      vertex -33.7135 -30.6183 5
      vertex -32.0365 -30.0734 5
      vertex -40 97.5 5
    endloop
  endfacet
  facet normal 0 0 1
    outer loop
      vertex -40 97.5 5
      vertex -31 -31.5 5
      vertex -27.4414 -80.9422 5
    endloop
  endfacet
  facet normal 0 0 1
    outer loop
      vertex -40 97.5 5
      vertex -32.0365 -30.0734 5
      vertex -31 -31.5 5
    endloop
  endfacet
  facet normal 0 0 1
    outer loop
      vertex -40 97.5 5
      vertex -27.4414 -80.9422 5
      vertex -33.7135 30.6183 5
    endloop
  endfacet
  facet normal 0 0 1
    outer loop
      vertex 20 72.5 5
      vertex 27.4414 -80.9422 5
      vertex 29.3566 -80.5689 5
    endloop
  endfacet
  facet normal 0 0 1
    outer loop
      vertex -40 97.5 5
      vertex -33.7135 30.6183 5
      vertex -33.7135 32.3817 5
    endloop
  endfacet
  facet normal 0 0 1
    outer loop
      vertex -40 97.5 5
      vertex -33.7135 32.3817 5
      vertex -32.0365 32.9266 5
    endloop
  endfacet
  facet normal 0 0 1
    outer loop
      vertex 20 72.5 5
      vertex 29.3566 -80.5689 5
      vertex 31.2717 -80.9629 5
    endloop
  endfacet
  facet normal 0 0 1
    outer loop
      vertex -40 97.5 5
      vertex -32.0365 32.9266 5
      vertex -31 31.5 5
    endloop
  endfacet
  facet normal 0 0 1
    outer loop
      vertex 27.4414 -90.254 5
      vertex -20 -72.5 5
      vertex 40 -97.5 5
    endloop
  endfacet
  facet normal 0 0 1
    outer loop
      vertex -33.7135 30.6183 5
      vertex -27.4414 -80.9422 5
      vertex -20 -72.5 5
    endloop
  endfacet
  facet normal 0 0 1
    outer loop
      vertex -4.6194 83.6816 5
      vertex -40 97.5 5
      vertex -20 72.5 5
    endloop
  endfacet
  facet normal 0 0 1
    outer loop
      vertex 1.91342 80.9543 5
      vertex -20 72.5 5
      vertex 20 72.5 5
    endloop
  endfacet
  facet normal 0 0 1
    outer loop
      vertex -3.53553 82.0467 5
      vertex -4.6194 83.6816 5
      vertex -20 72.5 5
    endloop
  endfacet
  facet normal 0 0 1
    outer loop
      vertex -5 85.6102 5
      vertex -40 97.5 5
      vertex -4.6194 83.6816 5
    endloop
  endfacet
  facet normal 0 0 1
    outer loop
      vertex -4.6194 87.5387 5
      vertex -40 97.5 5
      vertex -5 85.6102 5
    endloop
  endfacet
  facet normal 0 0 1
    outer loop
      vertex -3.53553 89.1737 5
      vertex -40 97.5 5
      vertex -4.6194 87.5387 5
    endloop
  endfacet
  facet normal 0 0 1
    outer loop
      vertex 3.53553 89.1737 5
      vertex 4.6194 87.5387 5
      vertex 40 97.5 5
    endloop
  endfacet
  facet normal 0 0 1
    outer loop
      vertex -1.91342 90.2661 5
      vertex -40 97.5 5
      vertex -3.53553 89.1737 5
    endloop
  endfacet
  facet normal 0 0 1
    outer loop
      vertex 0 90.6497 5
      vertex -40 97.5 5
      vertex -1.91342 90.2661 5
    endloop
  endfacet
  facet normal 0 0 1
    outer loop
      vertex 40 97.5 5
      vertex -40 97.5 5
      vertex 0 90.6497 5
    endloop
  endfacet
  facet normal 0 0 1
    outer loop
      vertex 0 80.5707 5
      vertex -1.91342 80.9543 5
      vertex -20 72.5 5
    endloop
  endfacet
  facet normal 0 0 1
    outer loop
      vertex 4.6194 87.5387 5
      vertex 5 85.6102 5
      vertex 40 97.5 5
    endloop
  endfacet
  facet normal 0 0 1
    outer loop
      vertex 4.6194 83.6816 5
      vertex 3.53553 82.0467 5
      vertex 40 97.5 5
    endloop
  endfacet
  facet normal 0 0 1
    outer loop
      vertex -1.91342 80.9543 5
      vertex -3.53553 82.0467 5
      vertex -20 72.5 5
    endloop
  endfacet
  facet normal 0 0 1
    outer loop
      vertex 40 97.5 5
      vertex 5 85.6102 5
      vertex 4.6194 83.6816 5
    endloop
  endfacet
  facet normal 0 0 1
    outer loop
      vertex 40 97.5 5
      vertex 3.53553 82.0467 5
      vertex 20 72.5 5
    endloop
  endfacet
  facet normal 0 0 1
    outer loop
      vertex 3.53553 82.0467 5
      vertex 1.91342 80.9543 5
      vertex 20 72.5 5
    endloop
  endfacet
  facet normal 0 0 1
    outer loop
      vertex 0 80.5707 5
      vertex -20 72.5 5
      vertex 1.91342 80.9543 5
    endloop
  endfacet
  facet normal 0 0 1
    outer loop
      vertex 25.8178 -82.0258 5
      vertex 27.4414 -80.9422 5
      vertex 20 -72.5 5
    endloop
  endfacet
  facet normal 0 0 1
    outer loop
      vertex 27.4414 -90.254 5
      vertex 25.8178 -89.1528 5
      vertex -20 -72.5 5
    endloop
  endfacet
  facet normal 0 0 1
    outer loop
      vertex 20 -72.5 5
      vertex -20 -72.5 5
      vertex 24.7329 -87.512 5
    endloop
  endfacet
  facet normal 0 0 1
    outer loop
      vertex 32.9635 -32.9266 5
      vertex 31.2865 -32.3817 5
      vertex 40 -97.5 5
    endloop
  endfacet
  facet normal 0 0 1
    outer loop
      vertex 20 -72.5 5
      vertex 24.7329 -87.512 5
      vertex 24.352 -85.5814 5
    endloop
  endfacet
  facet normal 0 0 1
    outer loop
      vertex 20 -72.5 5
      vertex 24.352 -85.5814 5
      vertex 24.7329 -83.6549 5
    endloop
  endfacet
  facet normal 0 0 1
    outer loop
      vertex 31.2717 -90.2747 5
      vertex 29.3566 -90.648 5
      vertex 40 -97.5 5
    endloop
  endfacet
  facet normal 0 0 1
    outer loop
      vertex 20 -72.5 5
      vertex 24.7329 -83.6549 5
      vertex 25.8178 -82.0258 5
    endloop
  endfacet
  facet normal 0 0 1
    outer loop
      vertex 32.8953 -89.191 5
      vertex 31.2717 -90.2747 5
      vertex 40 -97.5 5
    endloop
  endfacet
  facet normal 0 0 1
    outer loop
      vertex 20 72.5 5
      vertex 31.2717 -80.9629 5
      vertex 32.8953 -82.0641 5
    endloop
  endfacet
  facet normal 0 0 1
    outer loop
      vertex 34.3611 -85.6355 5
      vertex 33.9802 -87.5619 5
      vertex 40 -97.5 5
    endloop
  endfacet
  facet normal 0 0 1
    outer loop
      vertex 20 72.5 5
      vertex 32.8953 -82.0641 5
      vertex 33.9802 -83.7049 5
    endloop
  endfacet
  facet normal 0 0 1
    outer loop
      vertex 31.2865 -32.3817 5
      vertex 33.9802 -83.7049 5
      vertex 40 -97.5 5
    endloop
  endfacet
  facet normal 0 0 1
    outer loop
      vertex 20 72.5 5
      vertex 33.9802 -83.7049 5
      vertex 31.2865 -32.3817 5
    endloop
  endfacet
  facet normal 0 0 1
    outer loop
      vertex 33.9802 -83.7049 5
      vertex 34.3611 -85.6355 5
      vertex 40 -97.5 5
    endloop
  endfacet
  facet normal 0 0 1
    outer loop
      vertex 33.9802 -87.5619 5
      vertex 32.8953 -89.191 5
      vertex 40 -97.5 5
    endloop
  endfacet
  facet normal 0 0 1
    outer loop
      vertex 34 -31.5 5
      vertex 32.9635 -32.9266 5
      vertex 40 -97.5 5
    endloop
  endfacet
  facet normal 0 0 1
    outer loop
      vertex 29.3566 -90.648 5
      vertex 27.4414 -90.254 5
      vertex 40 -97.5 5
    endloop
  endfacet
  facet normal 0 0 1
    outer loop
      vertex 24.7329 -87.512 5
      vertex -20 -72.5 5
      vertex 25.8178 -89.1528 5
    endloop
  endfacet
  facet normal 0 0 1
    outer loop
      vertex 31.2865 -30.6183 5
      vertex 32.9635 -30.0734 5
      vertex 20 72.5 5
    endloop
  endfacet
  facet normal 0 0 1
    outer loop
      vertex 20 72.5 5
      vertex 31.2865 -32.3817 5
      vertex 31.2865 -30.6183 5
    endloop
  endfacet
  facet normal 0 0 1
    outer loop
      vertex 31.2865 32.3817 5
      vertex 32.9635 32.9266 5
      vertex 40 97.5 5
    endloop
  endfacet
  facet normal 0 0 1
    outer loop
      vertex 31.2865 30.6183 5
      vertex 20 72.5 5
      vertex 32.9635 -30.0734 5
    endloop
  endfacet
  facet normal 0 0 1
    outer loop
      vertex 40 97.5 5
      vertex 34 -31.5 5
      vertex 40 -97.5 5
    endloop
  endfacet
  facet normal 0 0 1
    outer loop
      vertex 40 97.5 5
      vertex 32.9635 -30.0734 5
      vertex 34 -31.5 5
    endloop
  endfacet
  facet normal 0 0 1
    outer loop
      vertex 32.9635 30.0734 5
      vertex 31.2865 30.6183 5
      vertex 32.9635 -30.0734 5
    endloop
  endfacet
  facet normal 0 0 1
    outer loop
      vertex 31.2865 32.3817 5
      vertex 20 72.5 5
      vertex 31.2865 30.6183 5
    endloop
  endfacet
  facet normal 0 0 1
    outer loop
      vertex 40 97.5 5
      vertex 20 72.5 5
      vertex 31.2865 32.3817 5
    endloop
  endfacet
  facet normal 0 0 1
    outer loop
      vertex 40 97.5 5
      vertex 34 31.5 5
      vertex 32.9635 -30.0734 5
    endloop
  endfacet
  facet normal 0 0 1
    outer loop
      vertex 40 97.5 5
      vertex 32.9635 32.9266 5
      vertex 34 31.5 5
    endloop
  endfacet
  facet normal 0 0 1
    outer loop
      vertex 34 31.5 5
      vertex 32.9635 30.0734 5
      vertex 32.9635 -30.0734 5
    endloop
  endfacet
  facet normal 0 0 1
    outer loop
      vertex -27.4414 -80.9422 5
      vertex -25.8178 -82.0258 5
      vertex 40 -97.5 5
    endloop
  endfacet
  facet normal 0 0 1
    outer loop
      vertex -24.7329 -83.6549 5
      vertex -24.352 -85.5814 5
      vertex 40 -97.5 5
    endloop
  endfacet
  facet normal 0 0 1
    outer loop
      vertex -32.0365 -32.9266 5
      vertex -31.2717 -80.9629 5
      vertex -29.3566 -80.5689 5
    endloop
  endfacet
  facet normal 0 0 1
    outer loop
      vertex -32.0365 -32.9266 5
      vertex -33.7135 -32.3817 5
      vertex -31.2717 -80.9629 5
    endloop
  endfacet
  facet normal 0 0 1
    outer loop
      vertex 1.91342 90.2661 5
      vertex 3.53553 89.1737 5
      vertex 40 97.5 5
    endloop
  endfacet
  facet normal 0 0 1
    outer loop
      vertex 0 90.6497 5
      vertex 1.91342 90.2661 5
      vertex 40 97.5 5
    endloop
  endfacet
  facet normal 0 0 1
    outer loop
      vertex -20 -72.5 5
      vertex -32.0365 30.0734 5
      vertex -33.7135 30.6183 5
    endloop
  endfacet
  facet normal 0 0 1
    outer loop
      vertex -20 -72.5 5
      vertex -31 31.5 5
      vertex -32.0365 30.0734 5
    endloop
  endfacet
  facet normal 0 0 1
    outer loop
      vertex -31 31.5 5
      vertex -20 72.5 5
      vertex -40 97.5 5
    endloop
  endfacet
  facet normal 0 0 1
    outer loop
      vertex -20 -72.5 5
      vertex -20 72.5 5
      vertex -31 31.5 5
    endloop
  endfacet
  facet normal 1 0 0
    outer loop
      vertex 40 -97.5 5
      vertex 40 -97.5 -5
      vertex 40 97.5 -5
    endloop
  endfacet
  facet normal 1 0 0
    outer loop
      vertex 40 97.5 5
      vertex 40 -97.5 5
      vertex 40 97.5 -5
    endloop
  endfacet
  facet normal 0.833682 -0.551213 0.0337481
    outer loop
      vertex -33.3243 -83.3251 -5
      vertex -32.8953 -82.0641 5
      vertex -33.9802 -83.7049 5
    endloop
  endfacet
  facet normal 0.833682 -0.551213 0.0337481
    outer loop
      vertex -34.4092 -84.9659 -5
      vertex -33.3243 -83.3251 -5
      vertex -33.9802 -83.7049 5
    endloop
  endfacet
  facet normal 0.980929 -0.19356 -0.0176698
    outer loop
      vertex -34.4092 -84.9659 -5
      vertex -33.9802 -83.7049 5
      vertex -34.3611 -85.6355 5
    endloop
  endfacet
  facet normal 0.980929 -0.19356 -0.0176698
    outer loop
      vertex -34.7901 -86.8965 -5
      vertex -34.4092 -84.9659 -5
      vertex -34.3611 -85.6355 5
    endloop
  endfacet
  facet normal 0.559514 -0.824948 0.0800281
    outer loop
      vertex -31.7007 -82.2239 -5
      vertex -31.2717 -80.9629 5
      vertex -32.8953 -82.0641 5
    endloop
  endfacet
  facet normal 0.559514 -0.824948 0.0800281
    outer loop
      vertex -33.3243 -83.3251 -5
      vertex -31.7007 -82.2239 -5
      vertex -32.8953 -82.0641 5
    endloop
  endfacet
  facet normal 0.200165 -0.973093 0.114125
    outer loop
      vertex -29.7855 -81.83 -5
      vertex -29.3566 -80.5689 5
      vertex -31.2717 -80.9629 5
    endloop
  endfacet
  facet normal 0.200165 -0.973093 0.114125
    outer loop
      vertex -31.7007 -82.2239 -5
      vertex -29.7855 -81.83 -5
      vertex -31.2717 -80.9629 5
    endloop
  endfacet
  facet normal -0.189657 -0.973093 0.130847
    outer loop
      vertex -27.8703 -82.2032 -5
      vertex -27.4414 -80.9422 5
      vertex -29.3566 -80.5689 5
    endloop
  endfacet
  facet normal -0.189657 -0.973093 0.130847
    outer loop
      vertex -29.7855 -81.83 -5
      vertex -27.8703 -82.2032 -5
      vertex -29.3566 -80.5689 5
    endloop
  endfacet
  facet normal -0.550606 -0.824948 0.127648
    outer loop
      vertex -26.2467 -83.2869 -5
      vertex -25.8178 -82.0258 5
      vertex -27.4414 -80.9422 5
    endloop
  endfacet
  facet normal -0.550606 -0.824948 0.127648
    outer loop
      vertex -27.8703 -82.2032 -5
      vertex -26.2467 -83.2869 -5
      vertex -27.4414 -80.9422 5
    endloop
  endfacet
  facet normal -0.827729 -0.551213 0.105017
    outer loop
      vertex -24.7329 -83.6549 5
      vertex -25.8178 -82.0258 5
      vertex -25.1619 -84.916 -5
    endloop
  endfacet
  facet normal -0.827729 -0.551213 0.105017
    outer loop
      vertex -25.1619 -84.916 -5
      vertex -25.8178 -82.0258 5
      vertex -26.2467 -83.2869 -5
    endloop
  endfacet
  facet normal -0.978839 -0.19356 0.0663975
    outer loop
      vertex -24.352 -85.5814 5
      vertex -24.7329 -83.6549 5
      vertex -24.7809 -86.8425 -5
    endloop
  endfacet
  facet normal -0.978839 -0.19356 0.0663975
    outer loop
      vertex -24.7809 -86.8425 -5
      vertex -24.7329 -83.6549 5
      vertex -25.1619 -84.916 -5
    endloop
  endfacet
  facet normal -0.980929 0.19356 0.0176698
    outer loop
      vertex -24.352 -85.5814 5
      vertex -24.7809 -86.8425 -5
      vertex -24.7329 -87.512 5
    endloop
  endfacet
  facet normal -0.980929 0.19356 0.0176698
    outer loop
      vertex -24.7329 -87.512 5
      vertex -24.7809 -86.8425 -5
      vertex -25.1619 -88.7731 -5
    endloop
  endfacet
  facet normal -0.833682 0.551213 -0.0337481
    outer loop
      vertex -24.7329 -87.512 5
      vertex -25.1619 -88.7731 -5
      vertex -25.8178 -89.1528 5
    endloop
  endfacet
  facet normal -0.833682 0.551213 -0.0337481
    outer loop
      vertex -25.8178 -89.1528 5
      vertex -25.1619 -88.7731 -5
      vertex -26.2467 -90.4139 -5
    endloop
  endfacet
  facet normal -0.559514 0.824948 -0.0800281
    outer loop
      vertex -25.8178 -89.1528 5
      vertex -26.2467 -90.4139 -5
      vertex -27.4414 -90.254 5
    endloop
  endfacet
  facet normal -0.559514 0.824948 -0.0800281
    outer loop
      vertex -27.4414 -90.254 5
      vertex -26.2467 -90.4139 -5
      vertex -27.8703 -91.5151 -5
    endloop
  endfacet
  facet normal -0.200165 0.973093 -0.114125
    outer loop
      vertex -27.4414 -90.254 5
      vertex -27.8703 -91.5151 -5
      vertex -29.3566 -90.648 5
    endloop
  endfacet
  facet normal -0.200165 0.973093 -0.114125
    outer loop
      vertex -29.3566 -90.648 5
      vertex -27.8703 -91.5151 -5
      vertex -29.7855 -91.909 -5
    endloop
  endfacet
  facet normal 0.189657 0.973093 -0.130847
    outer loop
      vertex -29.3566 -90.648 5
      vertex -29.7855 -91.909 -5
      vertex -31.2717 -90.2747 5
    endloop
  endfacet
  facet normal 0.189657 0.973093 -0.130847
    outer loop
      vertex -31.2717 -90.2747 5
      vertex -29.7855 -91.909 -5
      vertex -31.7007 -91.5357 -5
    endloop
  endfacet
  facet normal 0.550606 0.824948 -0.127648
    outer loop
      vertex -31.2717 -90.2747 5
      vertex -31.7007 -91.5357 -5
      vertex -32.8953 -89.191 5
    endloop
  endfacet
  facet normal 0.550606 0.824948 -0.127648
    outer loop
      vertex -32.8953 -89.191 5
      vertex -31.7007 -91.5357 -5
      vertex -33.3243 -90.4521 -5
    endloop
  endfacet
  facet normal 0.827729 0.551213 -0.105017
    outer loop
      vertex -33.9802 -87.5619 5
      vertex -32.8953 -89.191 5
      vertex -33.3243 -90.4521 -5
    endloop
  endfacet
  facet normal 0.827729 0.551213 -0.105017
    outer loop
      vertex -34.4092 -88.823 -5
      vertex -33.9802 -87.5619 5
      vertex -33.3243 -90.4521 -5
    endloop
  endfacet
  facet normal 0.978839 0.19356 -0.0663975
    outer loop
      vertex -34.3611 -85.6355 5
      vertex -33.9802 -87.5619 5
      vertex -34.4092 -88.823 -5
    endloop
  endfacet
  facet normal 0.978839 0.19356 -0.0663975
    outer loop
      vertex -34.7901 -86.8965 -5
      vertex -34.3611 -85.6355 5
      vertex -34.4092 -88.823 -5
    endloop
  endfacet
  facet normal 1 0 0
    outer loop
      vertex -33.7135 -30.6183 -5
      vertex -33.7135 -30.6183 5
      vertex -33.7135 -32.3817 5
    endloop
  endfacet
  facet normal 1 0 0
    outer loop
      vertex -33.7135 -32.3817 -5
      vertex -33.7135 -30.6183 -5
      vertex -33.7135 -32.3817 5
    endloop
  endfacet
  facet normal 0.309017 -0.951056 0
    outer loop
      vertex -32.0365 -30.0734 -5
      vertex -32.0365 -30.0734 5
      vertex -33.7135 -30.6183 5
    endloop
  endfacet
  facet normal 0.309017 -0.951056 0
    outer loop
      vertex -33.7135 -30.6183 -5
      vertex -32.0365 -30.0734 -5
      vertex -33.7135 -30.6183 5
    endloop
  endfacet
  facet normal -0.809017 -0.587785 0
    outer loop
      vertex -31 -31.5 5
      vertex -32.0365 -30.0734 5
      vertex -31 -31.5 -5
    endloop
  endfacet
  facet normal -0.809017 -0.587785 0
    outer loop
      vertex -31 -31.5 -5
      vertex -32.0365 -30.0734 5
      vertex -32.0365 -30.0734 -5
    endloop
  endfacet
  facet normal -0.809017 0.587785 0
    outer loop
      vertex -31 -31.5 5
      vertex -31 -31.5 -5
      vertex -32.0365 -32.9266 5
    endloop
  endfacet
  facet normal -0.809017 0.587785 0
    outer loop
      vertex -32.0365 -32.9266 5
      vertex -31 -31.5 -5
      vertex -32.0365 -32.9266 -5
    endloop
  endfacet
  facet normal 0.309017 0.951056 0
    outer loop
      vertex -32.0365 -32.9266 5
      vertex -32.0365 -32.9266 -5
      vertex -33.7135 -32.3817 5
    endloop
  endfacet
  facet normal 0.309017 0.951056 0
    outer loop
      vertex -33.7135 -32.3817 5
      vertex -32.0365 -32.9266 -5
      vertex -33.7135 -32.3817 -5
    endloop
  endfacet
  facet normal 1 0 0
    outer loop
      vertex -33.7135 32.3817 -5
      vertex -33.7135 32.3817 5
      vertex -33.7135 30.6183 5
    endloop
  endfacet
  facet normal 1 0 0
    outer loop
      vertex -33.7135 30.6183 -5
      vertex -33.7135 32.3817 -5
      vertex -33.7135 30.6183 5
    endloop
  endfacet
  facet normal 0.309017 -0.951056 0
    outer loop
      vertex -32.0365 32.9266 -5
      vertex -32.0365 32.9266 5
      vertex -33.7135 32.3817 5
    endloop
  endfacet
  facet normal 0.309017 -0.951056 0
    outer loop
      vertex -33.7135 32.3817 -5
      vertex -32.0365 32.9266 -5
      vertex -33.7135 32.3817 5
    endloop
  endfacet
  facet normal -0.809017 -0.587785 0
    outer loop
      vertex -31 31.5 5
      vertex -32.0365 32.9266 5
      vertex -31 31.5 -5
    endloop
  endfacet
  facet normal -0.809017 -0.587785 0
    outer loop
      vertex -31 31.5 -5
      vertex -32.0365 32.9266 5
      vertex -32.0365 32.9266 -5
    endloop
  endfacet
  facet normal -0.809017 0.587785 0
    outer loop
      vertex -31 31.5 5
      vertex -31 31.5 -5
      vertex -32.0365 30.0734 5
    endloop
  endfacet
  facet normal -0.809017 0.587785 0
    outer loop
      vertex -32.0365 30.0734 5
      vertex -31 31.5 -5
      vertex -32.0365 30.0734 -5
    endloop
  endfacet
  facet normal 0.309017 0.951056 0
    outer loop
      vertex -32.0365 30.0734 5
      vertex -32.0365 30.0734 -5
      vertex -33.7135 30.6183 5
    endloop
  endfacet
  facet normal 0.309017 0.951056 0
    outer loop
      vertex -33.7135 30.6183 5
      vertex -32.0365 30.0734 -5
      vertex -33.7135 30.6183 -5
    endloop
  endfacet
  facet normal 1 0 0
    outer loop
      vertex -20 72.5 -5
      vertex -20 72.5 5
      vertex -20 -72.5 5
    endloop
  endfacet
  facet normal 1 0 0
    outer loop
      vertex -20 -72.5 -5
      vertex -20 72.5 -5
      vertex -20 -72.5 5
    endloop
  endfacet
  facet normal 0 -1 0
    outer loop
      vertex 20 72.5 -5
      vertex 20 72.5 5
      vertex -20 72.5 5
    endloop
  endfacet
  facet normal 0 -1 0
    outer loop
      vertex -20 72.5 -5
      vertex 20 72.5 -5
      vertex -20 72.5 5
    endloop
  endfacet
  facet normal -1 0 0
    outer loop
      vertex 20 72.5 5
      vertex 20 72.5 -5
      vertex 20 -72.5 5
    endloop
  endfacet
  facet normal -1 0 0
    outer loop
      vertex 20 -72.5 5
      vertex 20 72.5 -5
      vertex 20 -72.5 -5
    endloop
  endfacet
  facet normal 0 1 0
    outer loop
      vertex 20 -72.5 5
      vertex 20 -72.5 -5
      vertex -20 -72.5 5
    endloop
  endfacet
  facet normal 0 1 0
    outer loop
      vertex -20 -72.5 5
      vertex 20 -72.5 -5
      vertex -20 -72.5 -5
    endloop
  endfacet
  facet normal 0.980785 -0.19356 -0.0243863
    outer loop
      vertex -5 86.8701 -5
      vertex -4.6194 88.7986 -5
      vertex -4.6194 87.5387 5
    endloop
  endfacet
  facet normal 0.980785 -0.19356 -0.0243863
    outer loop
      vertex -5 85.6102 5
      vertex -5 86.8701 -5
      vertex -4.6194 87.5387 5
    endloop
  endfacet
  facet normal 0.980785 0.19356 0.0243863
    outer loop
      vertex -4.6194 83.6816 5
      vertex -4.6194 84.9415 -5
      vertex -5 86.8701 -5
    endloop
  endfacet
  facet normal 0.980785 0.19356 0.0243863
    outer loop
      vertex -5 85.6102 5
      vertex -4.6194 83.6816 5
      vertex -5 86.8701 -5
    endloop
  endfacet
  facet normal 0.83147 -0.551213 -0.0694463
    outer loop
      vertex -4.6194 88.7986 -5
      vertex -3.53553 90.4335 -5
      vertex -3.53553 89.1737 5
    endloop
  endfacet
  facet normal 0.83147 -0.551213 -0.0694463
    outer loop
      vertex -4.6194 87.5387 5
      vertex -4.6194 88.7986 -5
      vertex -3.53553 89.1737 5
    endloop
  endfacet
  facet normal 0.55557 -0.824948 -0.103934
    outer loop
      vertex -3.53553 90.4335 -5
      vertex -1.91342 91.526 -5
      vertex -1.91342 90.2661 5
    endloop
  endfacet
  facet normal 0.55557 -0.824948 -0.103934
    outer loop
      vertex -3.53553 89.1737 5
      vertex -3.53553 90.4335 -5
      vertex -1.91342 90.2661 5
    endloop
  endfacet
  facet normal 0.19509 -0.973093 -0.122598
    outer loop
      vertex -1.91342 91.526 -5
      vertex 0 91.9096 -5
      vertex 0 90.6497 5
    endloop
  endfacet
  facet normal 0.19509 -0.973093 -0.122598
    outer loop
      vertex -1.91342 90.2661 5
      vertex -1.91342 91.526 -5
      vertex 0 90.6497 5
    endloop
  endfacet
  facet normal -0.19509 -0.973093 -0.122598
    outer loop
      vertex 0 91.9096 -5
      vertex 1.91342 91.526 -5
      vertex 1.91342 90.2661 5
    endloop
  endfacet
  facet normal -0.19509 -0.973093 -0.122598
    outer loop
      vertex 0 90.6497 5
      vertex 0 91.9096 -5
      vertex 1.91342 90.2661 5
    endloop
  endfacet
  facet normal -0.55557 -0.824948 -0.103934
    outer loop
      vertex 1.91342 91.526 -5
      vertex 3.53553 90.4335 -5
      vertex 3.53553 89.1737 5
    endloop
  endfacet
  facet normal -0.55557 -0.824948 -0.103934
    outer loop
      vertex 1.91342 90.2661 5
      vertex 1.91342 91.526 -5
      vertex 3.53553 89.1737 5
    endloop
  endfacet
  facet normal -0.83147 -0.551213 -0.0694463
    outer loop
      vertex 4.6194 88.7986 -5
      vertex 4.6194 87.5387 5
      vertex 3.53553 90.4335 -5
    endloop
  endfacet
  facet normal -0.83147 -0.551213 -0.0694463
    outer loop
      vertex 3.53553 90.4335 -5
      vertex 4.6194 87.5387 5
      vertex 3.53553 89.1737 5
    endloop
  endfacet
  facet normal -0.980785 -0.19356 -0.0243863
    outer loop
      vertex 5 86.8701 -5
      vertex 5 85.6102 5
      vertex 4.6194 88.7986 -5
    endloop
  endfacet
  facet normal -0.980785 -0.19356 -0.0243863
    outer loop
      vertex 4.6194 88.7986 -5
      vertex 5 85.6102 5
      vertex 4.6194 87.5387 5
    endloop
  endfacet
  facet normal -0.980785 0.19356 0.0243863
    outer loop
      vertex 5 86.8701 -5
      vertex 4.6194 84.9415 -5
      vertex 5 85.6102 5
    endloop
  endfacet
  facet normal -0.980785 0.19356 0.0243863
    outer loop
      vertex 5 85.6102 5
      vertex 4.6194 84.9415 -5
      vertex 4.6194 83.6816 5
    endloop
  endfacet
  facet normal -0.83147 0.551213 0.0694463
    outer loop
      vertex 4.6194 84.9415 -5
      vertex 3.53553 83.3066 -5
      vertex 4.6194 83.6816 5
    endloop
  endfacet
  facet normal -0.83147 0.551213 0.0694463
    outer loop
      vertex 4.6194 83.6816 5
      vertex 3.53553 83.3066 -5
      vertex 3.53553 82.0467 5
    endloop
  endfacet
  facet normal -0.55557 0.824948 0.103934
    outer loop
      vertex 3.53553 83.3066 -5
      vertex 1.91342 82.2141 -5
      vertex 3.53553 82.0467 5
    endloop
  endfacet
  facet normal -0.55557 0.824948 0.103934
    outer loop
      vertex 3.53553 82.0467 5
      vertex 1.91342 82.2141 -5
      vertex 1.91342 80.9543 5
    endloop
  endfacet
  facet normal -0.19509 0.973093 0.122598
    outer loop
      vertex 1.91342 82.2141 -5
      vertex 0 81.8305 -5
      vertex 1.91342 80.9543 5
    endloop
  endfacet
  facet normal -0.19509 0.973093 0.122598
    outer loop
      vertex 1.91342 80.9543 5
      vertex 0 81.8305 -5
      vertex 0 80.5707 5
    endloop
  endfacet
  facet normal 0.19509 0.973093 0.122598
    outer loop
      vertex 0 81.8305 -5
      vertex -1.91342 82.2141 -5
      vertex 0 80.5707 5
    endloop
  endfacet
  facet normal 0.19509 0.973093 0.122598
    outer loop
      vertex 0 80.5707 5
      vertex -1.91342 82.2141 -5
      vertex -1.91342 80.9543 5
    endloop
  endfacet
  facet normal 0.55557 0.824948 0.103934
    outer loop
      vertex -1.91342 82.2141 -5
      vertex -3.53553 83.3066 -5
      vertex -1.91342 80.9543 5
    endloop
  endfacet
  facet normal 0.55557 0.824948 0.103934
    outer loop
      vertex -1.91342 80.9543 5
      vertex -3.53553 83.3066 -5
      vertex -3.53553 82.0467 5
    endloop
  endfacet
  facet normal 0.83147 0.551213 0.0694463
    outer loop
      vertex -3.53553 82.0467 5
      vertex -3.53553 83.3066 -5
      vertex -4.6194 84.9415 -5
    endloop
  endfacet
  facet normal 0.83147 0.551213 0.0694463
    outer loop
      vertex -4.6194 83.6816 5
      vertex -3.53553 82.0467 5
      vertex -4.6194 84.9415 -5
    endloop
  endfacet
  facet normal 0.978839 -0.19356 0.0663975
    outer loop
      vertex 24.7809 -86.8425 -5
      vertex 25.1619 -84.916 -5
      vertex 24.7329 -83.6549 5
    endloop
  endfacet
  facet normal 0.978839 -0.19356 0.0663975
    outer loop
      vertex 24.352 -85.5814 5
      vertex 24.7809 -86.8425 -5
      vertex 24.7329 -83.6549 5
    endloop
  endfacet
  facet normal 0.980929 0.19356 0.0176698
    outer loop
      vertex 24.7329 -87.512 5
      vertex 25.1619 -88.7731 -5
      vertex 24.7809 -86.8425 -5
    endloop
  endfacet
  facet normal 0.980929 0.19356 0.0176698
    outer loop
      vertex 24.352 -85.5814 5
      vertex 24.7329 -87.512 5
      vertex 24.7809 -86.8425 -5
    endloop
  endfacet
  facet normal 0.827729 -0.551213 0.105017
    outer loop
      vertex 25.1619 -84.916 -5
      vertex 26.2467 -83.2869 -5
      vertex 25.8178 -82.0258 5
    endloop
  endfacet
  facet normal 0.827729 -0.551213 0.105017
    outer loop
      vertex 24.7329 -83.6549 5
      vertex 25.1619 -84.916 -5
      vertex 25.8178 -82.0258 5
    endloop
  endfacet
  facet normal 0.550606 -0.824948 0.127648
    outer loop
      vertex 26.2467 -83.2869 -5
      vertex 27.8703 -82.2032 -5
      vertex 27.4414 -80.9422 5
    endloop
  endfacet
  facet normal 0.550606 -0.824948 0.127648
    outer loop
      vertex 25.8178 -82.0258 5
      vertex 26.2467 -83.2869 -5
      vertex 27.4414 -80.9422 5
    endloop
  endfacet
  facet normal 0.189657 -0.973093 0.130847
    outer loop
      vertex 27.8703 -82.2032 -5
      vertex 29.7855 -81.83 -5
      vertex 29.3566 -80.5689 5
    endloop
  endfacet
  facet normal 0.189657 -0.973093 0.130847
    outer loop
      vertex 27.4414 -80.9422 5
      vertex 27.8703 -82.2032 -5
      vertex 29.3566 -80.5689 5
    endloop
  endfacet
  facet normal -0.200165 -0.973093 0.114125
    outer loop
      vertex 29.7855 -81.83 -5
      vertex 31.7007 -82.2239 -5
      vertex 31.2717 -80.9629 5
    endloop
  endfacet
  facet normal -0.200165 -0.973093 0.114125
    outer loop
      vertex 29.3566 -80.5689 5
      vertex 29.7855 -81.83 -5
      vertex 31.2717 -80.9629 5
    endloop
  endfacet
  facet normal -0.559514 -0.824948 0.0800281
    outer loop
      vertex 31.7007 -82.2239 -5
      vertex 33.3243 -83.3251 -5
      vertex 32.8953 -82.0641 5
    endloop
  endfacet
  facet normal -0.559514 -0.824948 0.0800281
    outer loop
      vertex 31.2717 -80.9629 5
      vertex 31.7007 -82.2239 -5
      vertex 32.8953 -82.0641 5
    endloop
  endfacet
  facet normal -0.833682 -0.551213 0.0337481
    outer loop
      vertex 34.4092 -84.9659 -5
      vertex 33.9802 -83.7049 5
      vertex 33.3243 -83.3251 -5
    endloop
  endfacet
  facet normal -0.833682 -0.551213 0.0337481
    outer loop
      vertex 33.3243 -83.3251 -5
      vertex 33.9802 -83.7049 5
      vertex 32.8953 -82.0641 5
    endloop
  endfacet
  facet normal -0.980929 -0.19356 -0.0176698
    outer loop
      vertex 34.7901 -86.8965 -5
      vertex 34.3611 -85.6355 5
      vertex 34.4092 -84.9659 -5
    endloop
  endfacet
  facet normal -0.980929 -0.19356 -0.0176698
    outer loop
      vertex 34.4092 -84.9659 -5
      vertex 34.3611 -85.6355 5
      vertex 33.9802 -83.7049 5
    endloop
  endfacet
  facet normal -0.978839 0.19356 -0.0663975
    outer loop
      vertex 34.7901 -86.8965 -5
      vertex 34.4092 -88.823 -5
      vertex 34.3611 -85.6355 5
    endloop
  endfacet
  facet normal -0.978839 0.19356 -0.0663975
    outer loop
      vertex 34.3611 -85.6355 5
      vertex 34.4092 -88.823 -5
      vertex 33.9802 -87.5619 5
    endloop
  endfacet
  facet normal -0.827729 0.551213 -0.105017
    outer loop
      vertex 34.4092 -88.823 -5
      vertex 33.3243 -90.4521 -5
      vertex 33.9802 -87.5619 5
    endloop
  endfacet
  facet normal -0.827729 0.551213 -0.105017
    outer loop
      vertex 33.9802 -87.5619 5
      vertex 33.3243 -90.4521 -5
      vertex 32.8953 -89.191 5
    endloop
  endfacet
  facet normal -0.550606 0.824948 -0.127648
    outer loop
      vertex 33.3243 -90.4521 -5
      vertex 31.7007 -91.5357 -5
      vertex 32.8953 -89.191 5
    endloop
  endfacet
  facet normal -0.550606 0.824948 -0.127648
    outer loop
      vertex 32.8953 -89.191 5
      vertex 31.7007 -91.5357 -5
      vertex 31.2717 -90.2747 5
    endloop
  endfacet
  facet normal -0.189657 0.973093 -0.130847
    outer loop
      vertex 31.7007 -91.5357 -5
      vertex 29.7855 -91.909 -5
      vertex 31.2717 -90.2747 5
    endloop
  endfacet
  facet normal -0.189657 0.973093 -0.130847
    outer loop
      vertex 31.2717 -90.2747 5
      vertex 29.7855 -91.909 -5
      vertex 29.3566 -90.648 5
    endloop
  endfacet
  facet normal 0.200165 0.973093 -0.114125
    outer loop
      vertex 29.7855 -91.909 -5
      vertex 27.8703 -91.5151 -5
      vertex 29.3566 -90.648 5
    endloop
  endfacet
  facet normal 0.200165 0.973093 -0.114125
    outer loop
      vertex 29.3566 -90.648 5
      vertex 27.8703 -91.5151 -5
      vertex 27.4414 -90.254 5
    endloop
  endfacet
  facet normal 0.559514 0.824948 -0.0800281
    outer loop
      vertex 27.8703 -91.5151 -5
      vertex 26.2467 -90.4139 -5
      vertex 27.4414 -90.254 5
    endloop
  endfacet
  facet normal 0.559514 0.824948 -0.0800281
    outer loop
      vertex 27.4414 -90.254 5
      vertex 26.2467 -90.4139 -5
      vertex 25.8178 -89.1528 5
    endloop
  endfacet
  facet normal 0.833682 0.551213 -0.0337481
    outer loop
      vertex 25.8178 -89.1528 5
      vertex 26.2467 -90.4139 -5
      vertex 25.1619 -88.7731 -5
    endloop
  endfacet
  facet normal 0.833682 0.551213 -0.0337481
    outer loop
      vertex 24.7329 -87.512 5
      vertex 25.8178 -89.1528 5
      vertex 25.1619 -88.7731 -5
    endloop
  endfacet
  facet normal 1 0 0
    outer loop
      vertex 31.2865 -30.6183 -5
      vertex 31.2865 -30.6183 5
      vertex 31.2865 -32.3817 5
    endloop
  endfacet
  facet normal 1 0 0
    outer loop
      vertex 31.2865 -32.3817 -5
      vertex 31.2865 -30.6183 -5
      vertex 31.2865 -32.3817 5
    endloop
  endfacet
  facet normal 0.309017 -0.951056 0
    outer loop
      vertex 32.9635 -30.0734 -5
      vertex 32.9635 -30.0734 5
      vertex 31.2865 -30.6183 5
    endloop
  endfacet
  facet normal 0.309017 -0.951056 0
    outer loop
      vertex 31.2865 -30.6183 -5
      vertex 32.9635 -30.0734 -5
      vertex 31.2865 -30.6183 5
    endloop
  endfacet
  facet normal -0.809017 -0.587785 0
    outer loop
      vertex 34 -31.5 5
      vertex 32.9635 -30.0734 5
      vertex 34 -31.5 -5
    endloop
  endfacet
  facet normal -0.809017 -0.587785 0
    outer loop
      vertex 34 -31.5 -5
      vertex 32.9635 -30.0734 5
      vertex 32.9635 -30.0734 -5
    endloop
  endfacet
  facet normal -0.809017 0.587785 0
    outer loop
      vertex 34 -31.5 5
      vertex 34 -31.5 -5
      vertex 32.9635 -32.9266 5
    endloop
  endfacet
  facet normal -0.809017 0.587785 0
    outer loop
      vertex 32.9635 -32.9266 5
      vertex 34 -31.5 -5
      vertex 32.9635 -32.9266 -5
    endloop
  endfacet
  facet normal 0.309017 0.951056 0
    outer loop
      vertex 32.9635 -32.9266 5
      vertex 32.9635 -32.9266 -5
      vertex 31.2865 -32.3817 5
    endloop
  endfacet
  facet normal 0.309017 0.951056 0
    outer loop
      vertex 31.2865 -32.3817 5
      vertex 32.9635 -32.9266 -5
      vertex 31.2865 -32.3817 -5
    endloop
  endfacet
  facet normal 1 0 0
    outer loop
      vertex 31.2865 32.3817 -5
      vertex 31.2865 32.3817 5
      vertex 31.2865 30.6183 5
    endloop
  endfacet
  facet normal 1 0 0
    outer loop
      vertex 31.2865 30.6183 -5
      vertex 31.2865 32.3817 -5
      vertex 31.2865 30.6183 5
    endloop
  endfacet
  facet normal 0.309017 -0.951056 0
    outer loop
      vertex 32.9635 32.9266 -5
      vertex 32.9635 32.9266 5
      vertex 31.2865 32.3817 5
    endloop
  endfacet
  facet normal 0.309017 -0.951056 0
    outer loop
      vertex 31.2865 32.3817 -5
      vertex 32.9635 32.9266 -5
      vertex 31.2865 32.3817 5
    endloop
  endfacet
  facet normal -0.809017 -0.587785 0
    outer loop
      vertex 34 31.5 5
      vertex 32.9635 32.9266 5
      vertex 34 31.5 -5
    endloop
  endfacet
  facet normal -0.809017 -0.587785 0
    outer loop
      vertex 34 31.5 -5
      vertex 32.9635 32.9266 5
      vertex 32.9635 32.9266 -5
    endloop
  endfacet
  facet normal -0.809017 0.587785 0
    outer loop
      vertex 34 31.5 5
      vertex 34 31.5 -5
      vertex 32.9635 30.0734 5
    endloop
  endfacet
  facet normal -0.809017 0.587785 0
    outer loop
      vertex 32.9635 30.0734 5
      vertex 34 31.5 -5
      vertex 32.9635 30.0734 -5
    endloop
  endfacet
  facet normal 0.309017 0.951056 0
    outer loop
      vertex 32.9635 30.0734 5
      vertex 32.9635 30.0734 -5
      vertex 31.2865 30.6183 5
    endloop
  endfacet
  facet normal 0.309017 0.951056 0
    outer loop
      vertex 31.2865 30.6183 5
      vertex 32.9635 30.0734 -5
      vertex 31.2865 30.6183 -5
    endloop
  endfacet
endsolid OpenSCAD_Model
